<svg width="60" height="31" viewBox="0 0 60 31" fill="none" xmlns="http://www.w3.org/2000/svg">
<g id="Component 2">
<mask id="mask0_3011_117010" style="mask-type:alpha" maskUnits="userSpaceOnUse" x="0" y="0" width="60" height="31">
<rect id="Rectangle 39264" y="0.5" width="60" height="30" fill="#D9D9D9"/>
</mask>
<g mask="url(#mask0_3011_117010)">
<path id="Vector" d="M14.4782 7.24336C15.0686 6.50482 15.4692 5.51328 15.3636 4.5C14.4993 4.543 13.4446 5.07026 12.834 5.80928C12.2857 6.44223 11.8004 7.4753 11.927 8.44607C12.8971 8.53021 13.8665 7.96113 14.4782 7.24336ZM15.3526 8.63561C13.9436 8.55166 12.7456 9.43526 12.0726 9.43526C11.3994 9.43526 10.369 8.67792 9.25455 8.69829C7.80403 8.71965 6.45811 9.53977 5.72202 10.8442C4.20802 13.4536 5.32249 17.3244 6.79476 19.4496C7.50969 20.501 8.37145 21.6587 9.50677 21.6171C10.5795 21.575 11 20.9224 12.3039 20.9224C13.6069 20.9224 13.9857 21.6171 15.1212 21.596C16.2989 21.575 17.035 20.5441 17.75 19.4916C18.5702 18.293 18.906 17.1357 18.927 17.0722C18.9059 17.0511 16.6563 16.1881 16.6354 13.6003C16.6142 11.4336 18.4016 10.4029 18.4858 10.339C17.4765 8.84629 15.8993 8.67792 15.3526 8.63561ZM27.6212 5.70321C30.6837 5.70321 32.8161 7.8142 32.8161 10.8876C32.8161 13.9721 30.6397 16.094 27.5444 16.094H24.1537V21.4862H21.7039V5.70321H27.6212ZM24.1536 14.0377H26.9645C29.0975 14.0377 30.3113 12.8893 30.3113 10.8986C30.3113 8.9081 29.0975 7.77052 26.9755 7.77052H24.1536V14.0377ZM33.4562 18.216C33.4562 16.2033 34.9984 14.9674 37.733 14.8143L40.8829 14.6284V13.7426C40.8829 12.4629 40.0188 11.6972 38.5753 11.6972C37.2077 11.6972 36.3546 12.3534 36.1471 13.3816H33.9158C34.047 11.3033 35.8187 9.77211 38.6627 9.77211C41.4517 9.77211 43.2345 11.2487 43.2345 13.5565V21.4862H40.9703V19.594H40.9158C40.2487 20.8739 38.7938 21.6831 37.2845 21.6831C35.0313 21.6831 33.4562 20.283 33.4562 18.216ZM40.8828 17.177V16.2692L38.0499 16.4441C36.639 16.5426 35.8406 17.1661 35.8406 18.1505C35.8406 19.1566 36.6718 19.813 37.9406 19.813C39.5921 19.8128 40.8828 18.6753 40.8828 17.177ZM45.3719 25.7192V23.8051C45.5466 23.8488 45.9403 23.8488 46.1373 23.8488C47.231 23.8488 47.8217 23.3895 48.1824 22.2082C48.1824 22.1863 48.3905 21.5082 48.3905 21.4972L44.2343 9.97986H46.7934L49.7032 19.3425H49.7467L52.6565 9.97986H55.15L50.8402 22.0877C49.8562 24.877 48.7186 25.7738 46.3342 25.7738C46.1373 25.7738 45.5465 25.7519 45.3719 25.7192Z" fill="black"/>
</g>
</g>
</svg>
