<svg width="61" height="30" viewBox="0 0 61 30" fill="none" xmlns="http://www.w3.org/2000/svg">
<g id="Component 6">
<mask id="mask0_2274_41888" style="mask-type:alpha" maskUnits="userSpaceOnUse" x="0" y="0" width="61" height="30">
<rect id="Rectangle 39264" x="0.5" width="60" height="30" fill="#D9D9D9"/>
</mask>
<g mask="url(#mask0_2274_41888)">
<path id="Vector" d="M14.9782 6.74336C15.5686 6.00482 15.9692 5.01328 15.8636 4C14.9993 4.043 13.9446 4.57026 13.334 5.30928C12.7857 5.94223 12.3004 6.9753 12.427 7.94607C13.3971 8.03021 14.3665 7.46113 14.9782 6.74336ZM15.8526 8.13561C14.4436 8.05166 13.2456 8.93526 12.5726 8.93526C11.8994 8.93526 10.869 8.17792 9.75455 8.19829C8.30403 8.21965 6.95811 9.03977 6.22202 10.3442C4.70802 12.9536 5.82249 16.8244 7.29476 18.9496C8.00969 20.001 8.87145 21.1587 10.0068 21.1171C11.0795 21.075 11.5 20.4224 12.8039 20.4224C14.1069 20.4224 14.4857 21.1171 15.6212 21.096C16.7989 21.075 17.535 20.0441 18.25 18.9916C19.0702 17.793 19.406 16.6357 19.427 16.5722C19.4059 16.5511 17.1563 15.6881 17.1354 13.1003C17.1142 10.9336 18.9016 9.9029 18.9858 9.83904C17.9765 8.34629 16.3993 8.17792 15.8526 8.13561ZM28.1212 5.20321C31.1837 5.20321 33.3161 7.3142 33.3161 10.3876C33.3161 13.4721 31.1397 15.594 28.0444 15.594H24.6537V20.9862H22.2039V5.20321H28.1212ZM24.6536 13.5377H27.4645C29.5975 13.5377 30.8113 12.3893 30.8113 10.3986C30.8113 8.4081 29.5975 7.27052 27.4755 7.27052H24.6536V13.5377ZM33.9562 17.716C33.9562 15.7033 35.4984 14.4674 38.233 14.3143L41.3829 14.1284V13.2426C41.3829 11.9629 40.5188 11.1972 39.0753 11.1972C37.7077 11.1972 36.8546 11.8534 36.6471 12.8816H34.4158C34.547 10.8033 36.3187 9.27211 39.1627 9.27211C41.9517 9.27211 43.7345 10.7487 43.7345 13.0565V20.9862H41.4703V19.094H41.4158C40.7487 20.3739 39.2938 21.1831 37.7845 21.1831C35.5313 21.1831 33.9562 19.783 33.9562 17.716ZM41.3828 16.677V15.7692L38.5499 15.9441C37.139 16.0426 36.3406 16.6661 36.3406 17.6505C36.3406 18.6566 37.1718 19.313 38.4406 19.313C40.0921 19.3128 41.3828 18.1753 41.3828 16.677ZM45.8719 25.2192V23.3051C46.0466 23.3488 46.4403 23.3488 46.6373 23.3488C47.731 23.3488 48.3217 22.8895 48.6824 21.7082C48.6824 21.6863 48.8905 21.0082 48.8905 20.9972L44.7343 9.47986H47.2934L50.2032 18.8425H50.2467L53.1565 9.47986H55.65L51.3402 21.5877C50.3562 24.377 49.2186 25.2738 46.8342 25.2738C46.6373 25.2738 46.0465 25.2519 45.8719 25.2192Z" fill="white"/>
</g>
</g>
</svg>
