<svg width="99" height="32" viewBox="0 0 99 32" fill="none" xmlns="http://www.w3.org/2000/svg">
<path d="M14.0759 26.4274H8.89739C2.39607 26.4274 0.144531 23.4722 0.144531 19.1099C0.144531 17.3368 0.538551 15.1697 1.46731 13.284L4.50689 14.3535C4.00029 15.7607 3.71885 16.9146 3.71885 18.0404C3.71885 20.5171 5.32307 21.6992 9.26326 21.6992H14.0478C18.2131 21.6992 19.9299 20.8267 19.9299 18.8847C19.9299 17.1398 19.367 15.3104 18.8604 13.3122L22.3222 12.3271C22.9414 14.1847 23.4761 16.4925 23.4761 18.6314C23.4761 23.2752 21.1401 26.4274 14.0759 26.4274ZM11.5711 32C10.389 32 9.62914 31.1275 9.62914 30.0861C9.62914 29.0448 10.389 28.1723 11.5711 28.1723C12.725 28.1723 13.513 29.0448 13.513 30.0861C13.513 31.1275 12.725 32 11.5711 32Z" fill="#818182"/>
<path d="M14.0759 26.4274H8.89739C2.39607 26.4274 0.144531 23.4722 0.144531 19.1099C0.144531 17.3368 0.538551 15.1697 1.46731 13.284L4.50689 14.3535C4.00029 15.7607 3.71885 16.9146 3.71885 18.0404C3.71885 20.5171 5.32307 21.6992 9.26326 21.6992H14.0478C18.2131 21.6992 19.9299 20.8267 19.9299 18.8847C19.9299 17.1398 19.367 15.3104 18.8604 13.3122L22.3222 12.3271C22.9414 14.1847 23.4761 16.4925 23.4761 18.6314C23.4761 23.2752 21.1401 26.4274 14.0759 26.4274ZM11.5711 32C10.389 32 9.62914 31.1275 9.62914 30.0861C9.62914 29.0448 10.389 28.1723 11.5711 28.1723C12.725 28.1723 13.513 29.0448 13.513 30.0861C13.513 31.1275 12.725 32 11.5711 32Z" fill="#818182"/>
<path d="M26.1942 20.7423V6.05097H29.9374V19.3632C29.9374 21.277 31.0069 21.6992 32.6111 21.6992H32.78L33.2584 21.7836L33.0614 26.343L32.583 26.4274H32.4141C28.502 26.4274 26.1942 24.7106 26.1942 20.7423Z" fill="#818182"/>
<path d="M26.1942 20.7423V6.05097H29.9374V19.3632C29.9374 21.277 31.0069 21.6992 32.6111 21.6992H32.78L33.2584 21.7836L33.0614 26.343L32.583 26.4274H32.4141C28.502 26.4274 26.1942 24.7106 26.1942 20.7423Z" fill="#818182"/>
<path d="M37.4812 13.3403C36.2991 13.3403 35.5392 12.496 35.5392 11.4265C35.5392 10.3852 36.2991 9.51271 37.4812 9.51271C38.6351 9.51271 39.4231 10.3852 39.4231 11.4265C39.4231 12.496 38.6351 13.3403 37.4812 13.3403ZM42.2094 21.6992L42.6878 21.7836L42.4627 26.343L41.9842 26.4274C39.4513 26.4274 37.7907 25.4986 37.059 23.5848C36.468 25.3016 35.0889 26.4274 32.5559 26.4274L32.0775 26.343L32.3026 21.7836L32.7811 21.6992C34.9482 21.6992 35.7081 21.3051 35.7081 19.1662V15.0853H39.2824V18.9692C39.2824 21.277 39.9297 21.6992 42.2094 21.6992Z" fill="#818182"/>
<path d="M37.4812 13.3403C36.2991 13.3403 35.5392 12.496 35.5392 11.4265C35.5392 10.3852 36.2991 9.51271 37.4812 9.51271C38.6351 9.51271 39.4231 10.3852 39.4231 11.4265C39.4231 12.496 38.6351 13.3403 37.4812 13.3403ZM42.2094 21.6992L42.6878 21.7836L42.4627 26.343L41.9842 26.4274C39.4513 26.4274 37.7907 25.4986 37.059 23.5848C36.468 25.3016 35.0889 26.4274 32.5559 26.4274L32.0775 26.343L32.3026 21.7836L32.7811 21.6992C34.9482 21.6992 35.7081 21.3051 35.7081 19.1662V15.0853H39.2824V18.9692C39.2824 21.277 39.9297 21.6992 42.2094 21.6992Z" fill="#818182"/>
<path d="M41.5047 26.2867L41.7298 21.8962L42.2083 21.6992H47.4431L47.9216 21.8399L47.6964 26.2867L47.2461 26.4274H41.9831L41.5047 26.2867Z" fill="#818182"/>
<path d="M41.5047 26.2867L41.7298 21.8962L42.2083 21.6992H47.4431L47.9216 21.8399L47.6964 26.2867L47.2461 26.4274H41.9831L41.5047 26.2867Z" fill="#818182"/>
<path d="M55.7329 21.6992H61.9246V26.4274H47.2052L46.7268 26.3148L46.9238 21.8399L47.4304 21.6992H49.9352C49.2316 20.9111 48.8657 19.8698 48.8657 18.547C48.8657 15.3667 51.3987 12.1864 55.5641 12.1864C58.2659 12.1864 60.1797 13.7625 60.8833 14.8601L59.1384 18.2093C58.4066 17.6464 57.0276 16.8865 55.5359 16.8865C53.4814 16.8865 52.1023 17.9841 52.1023 19.335C52.1023 20.9674 53.8191 21.6992 55.7329 21.6992Z" fill="#818182"/>
<path d="M55.7329 21.6992H61.9246V26.4274H47.2052L46.7268 26.3148L46.9238 21.8399L47.4304 21.6992H49.9352C49.2316 20.9111 48.8657 19.8698 48.8657 18.547C48.8657 15.3667 51.3987 12.1864 55.5641 12.1864C58.2659 12.1864 60.1797 13.7625 60.8833 14.8601L59.1384 18.2093C58.4066 17.6464 57.0276 16.8865 55.5359 16.8865C53.4814 16.8865 52.1023 17.9841 52.1023 19.335C52.1023 20.9674 53.8191 21.6992 55.7329 21.6992Z" fill="#818182"/>
<path d="M67.0172 8.5558H69.2125V10.6103H63.6399V8.66838H64.4561C64.3154 8.38694 64.2309 8.04921 64.2309 7.62704C64.2309 6.36055 65.1316 5.06592 66.7639 5.06592C67.6645 5.06592 68.4244 5.54437 68.8466 6.24798L68.0586 7.73962C67.6927 7.48632 67.2705 7.26117 66.7358 7.26117C66.1447 7.26117 65.5256 7.54261 65.5256 7.96477C65.5256 8.33065 66.0322 8.5558 67.0172 8.5558ZM68.34 26.4274H64.5968V12.1583H68.34V26.4274Z" fill="#818182"/>
<path d="M67.0172 8.5558H69.2125V10.6103H63.6399V8.66838H64.4561C64.3154 8.38694 64.2309 8.04921 64.2309 7.62704C64.2309 6.36055 65.1316 5.06592 66.7639 5.06592C67.6645 5.06592 68.4244 5.54437 68.8466 6.24798L68.0586 7.73962C67.6927 7.48632 67.2705 7.26117 66.7358 7.26117C66.1447 7.26117 65.5256 7.54261 65.5256 7.96477C65.5256 8.33065 66.0322 8.5558 67.0172 8.5558ZM68.34 26.4274H64.5968V12.1583H68.34V26.4274Z" fill="#818182"/>
<path d="M80.1112 21.3739C81.0612 21.3739 81.9723 21.7513 82.6441 22.423C83.3158 23.0948 83.6932 24.0059 83.6932 24.9558C83.6932 25.9058 83.3158 26.8169 82.6441 27.4887C81.9723 28.1604 81.0612 28.5378 80.1112 28.5378C79.1612 28.5378 78.2502 28.1604 77.5784 27.4887C76.9067 26.8169 76.5293 25.9058 76.5293 24.9558C76.5293 24.0059 76.9067 23.0948 77.5784 22.423C78.2502 21.7513 79.1612 21.3739 80.1112 21.3739ZM80.1112 12.4182C81.0612 12.4182 81.9723 12.7955 82.6441 13.4673C83.3158 14.139 83.6932 15.0501 83.6932 16.0001C83.6932 16.9501 83.3158 17.8612 82.6441 18.5329C81.9723 19.2047 81.0612 19.582 80.1112 19.582C79.6408 19.582 79.1751 19.4894 78.7405 19.3094C78.3059 19.1294 77.911 18.8655 77.5784 18.5329C77.2458 18.2003 76.982 17.8054 76.802 17.3708C76.6219 16.9363 76.5293 16.4705 76.5293 16.0001C76.5293 15.5297 76.6219 15.0639 76.802 14.6293C76.982 14.1948 77.2458 13.7999 77.5784 13.4673C77.911 13.1347 78.3059 12.8708 78.7405 12.6908C79.1751 12.5108 79.6408 12.4182 80.1112 12.4182ZM87.2751 16.8957C88.2253 16.8957 89.1365 17.2732 89.8084 17.945C90.4802 18.6169 90.8577 19.5281 90.8577 20.4783C90.8577 21.4284 90.4802 22.3397 89.8084 23.0115C89.1365 23.6834 88.2253 24.0608 87.2751 24.0608C86.325 24.0608 85.4137 23.6834 84.7419 23.0115C84.07 22.3397 83.6926 21.4284 83.6926 20.4783C83.6926 19.5281 84.07 18.6169 84.7419 17.945C85.4137 17.2732 86.325 16.8957 87.2751 16.8957ZM87.2751 7.94058C87.7495 7.93442 88.2203 8.02253 88.6603 8.1998C89.1003 8.37706 89.5008 8.63994 89.8384 8.9732C90.176 9.30645 90.444 9.70343 90.627 10.1411C90.8099 10.5788 90.9042 11.0484 90.9042 11.5228C90.9042 11.9972 90.8099 12.4669 90.627 12.9045C90.444 13.3422 90.176 13.7392 89.8384 14.0724C89.5008 14.4057 89.1003 14.6686 88.6603 14.8458C88.2203 15.0231 87.7495 15.1112 87.2751 15.1051C86.3331 15.0928 85.4338 14.71 84.772 14.0396C84.1102 13.3691 83.7391 12.4649 83.7391 11.5228C83.7391 10.5807 84.1102 9.67655 84.772 9.00607C85.4338 8.3356 86.3331 7.95281 87.2751 7.94058ZM80.1112 3.4624C81.0612 3.4624 81.9723 3.83978 82.6441 4.51153C83.3158 5.18327 83.6932 6.09435 83.6932 7.04434C83.6932 7.99433 83.3158 8.90541 82.6441 9.57716C81.9723 10.2489 81.0612 10.6263 80.1112 10.6263C79.6408 10.6263 79.1751 10.5336 78.7405 10.3536C78.3059 10.1736 77.911 9.90977 77.5784 9.57716C77.2458 9.24454 76.982 8.84967 76.802 8.41509C76.6219 7.98051 76.5293 7.51473 76.5293 7.04434C76.5293 6.57395 76.6219 6.10817 76.802 5.67359C76.982 5.23901 77.2458 4.84414 77.5784 4.51153C77.911 4.17891 78.3059 3.91507 78.7405 3.73506C79.1751 3.55505 79.6408 3.4624 80.1112 3.4624ZM95.2278 12.4188C95.7021 12.4126 96.173 12.5007 96.613 12.678C97.053 12.8552 97.4534 13.1181 97.7911 13.4514C98.1287 13.7846 98.3967 14.1816 98.5797 14.6193C98.7626 15.057 98.8569 15.5266 98.8569 16.001C98.8569 16.4754 98.7626 16.945 98.5797 17.3827C98.3967 17.8204 98.1287 18.2174 97.7911 18.5506C97.4534 18.8839 97.053 19.1468 96.613 19.324C96.173 19.5013 95.7021 19.5894 95.2278 19.5832C92.7763 19.5832 91.504 17.0991 89.962 16.0007C91.504 14.9011 92.7763 12.4188 95.2278 12.4188Z" fill="#818182"/>
</svg>
