<svg width="61" height="60" viewBox="0 0 61 60" fill="none" xmlns="http://www.w3.org/2000/svg">
<g id="Frame" clip-path="url(#clip0_2354_1705)">
<g id="Group">
<path id="Vector" d="M28.5034 29.6788V36.6196H26.3008V19.48H32.1401C33.6201 19.48 34.882 19.9733 35.9145 20.9599C36.97 21.9465 37.4977 23.1511 37.4977 24.5737C37.4977 26.0306 36.97 27.2352 35.9145 28.2103C34.8934 29.1854 33.6316 29.6673 32.1401 29.6673H28.5034V29.6788ZM28.5034 21.5909V27.5679H32.1861C33.0579 27.5679 33.7922 27.2697 34.3657 26.6845C34.9509 26.0994 35.2491 25.3882 35.2491 24.5851C35.2491 23.7935 34.9509 23.0937 34.3657 22.5087C33.7921 21.9006 33.0694 21.6024 32.1861 21.6024H28.5034V21.5909ZM43.2568 24.5049C44.8858 24.5049 46.1707 24.9408 47.1114 25.8127C48.0522 26.6846 48.5225 27.8776 48.5225 29.3921V36.6196H46.423V34.9906H46.3313C45.425 36.3328 44.2089 36.9982 42.6946 36.9982C41.3983 36.9982 40.3198 36.6196 39.4479 35.851C38.5761 35.0823 38.1401 34.1301 38.1401 32.9829C38.1401 31.7669 38.599 30.8032 39.5168 30.0919C40.4346 29.3692 41.6622 29.0135 43.188 29.0135C44.4958 29.0135 45.5743 29.2545 46.4117 29.7362V29.2315C46.4117 28.4629 46.1134 27.8204 45.5054 27.2813C44.8973 26.7421 44.1861 26.4782 43.3715 26.4782C42.1439 26.4782 41.1688 26.9944 40.4575 28.0384L38.5186 26.8224C39.5856 25.2735 41.1688 24.5049 43.2568 24.5049ZM40.4117 33.0172C40.4117 33.5909 40.6526 34.0728 41.1459 34.4513C41.6277 34.8299 42.2014 35.0249 42.8553 35.0249C43.7846 35.0249 44.6105 34.6807 45.3333 33.9924C46.0561 33.304 46.4232 32.5009 46.4232 31.5717C45.7348 31.0326 44.7827 30.7572 43.5551 30.7572C42.6603 30.7572 41.9146 30.9751 41.318 31.3996C40.7099 31.847 40.4117 32.3863 40.4117 33.0172ZM60.4996 24.8834L53.1573 41.7706H50.8858L53.6161 35.8623L48.7749 24.8834H51.1725L54.6602 33.304H54.7061L58.1018 24.8834H60.4996Z" fill="#383E41"/>
<path id="Vector_2" d="M19.559 26.2129H10.3262V29.9987L15.6436 29.9999C15.4279 31.2596 14.7338 32.3334 13.6704 33.0493V33.05L13.6715 33.0493L13.5758 35.312L16.8368 35.5043L16.8355 35.5055C18.6836 33.795 19.7427 31.2665 19.7427 28.2791C19.7432 27.5863 19.6818 26.8948 19.559 26.2129Z" fill="#0085F7"/>
<path id="Vector_3" d="M13.6705 33.0493L13.6694 33.05C12.7885 33.6438 11.6542 33.9912 10.3275 33.9912C7.76348 33.9912 5.58836 32.2635 4.80941 29.9346H4.80906L4.80941 29.9358L2.08703 29.5046L1.54492 32.4684C3.1627 35.678 6.48707 37.8803 10.3277 37.8803C12.9816 37.8803 15.2113 37.0077 16.8346 35.5055C16.8351 35.5051 16.8355 35.5047 16.8359 35.5043L13.6705 33.0493Z" fill="#00A94B"/>
<path id="Vector_4" d="M4.50266 28.0555C4.50266 27.4016 4.61164 26.7695 4.81016 26.1752L3.96008 23.6421H1.54508C0.876289 24.9695 0.5 26.4677 0.5 28.0555C0.5 29.6433 0.877461 31.1415 1.54508 32.4689L1.54555 32.4685L4.81016 29.9358C4.60687 29.3297 4.50303 28.6947 4.50266 28.0555Z" fill="#FFBB00"/>
<path id="Vector_5" d="M10.3281 18.2295C6.48836 18.2295 3.16258 20.4321 1.54492 23.6421L4.80988 26.1753C5.58883 23.8464 7.76395 22.1187 10.328 22.1187C11.7769 22.1187 13.0745 22.6178 14.099 23.5929L16.904 20.7903C15.2004 19.2034 12.9794 18.2295 10.3281 18.2295Z" fill="#FF4031"/>
</g>
</g>
<defs>
<clipPath id="clip0_2354_1705">
<rect width="60" height="60" fill="white" transform="translate(0.5)"/>
</clipPath>
</defs>
</svg>
