<svg width="148" height="64" viewBox="0 0 148 64" fill="none" xmlns="http://www.w3.org/2000/svg">
<g id="Clip path group">
<mask id="mask0_1811_562" style="mask-type:luminance" maskUnits="userSpaceOnUse" x="0" y="0" width="148" height="64">
<g id="clip0_1784_863">
<path id="Vector" d="M147.357 0.843872H0.357422V63.7409H147.357V0.843872Z" fill="white"/>
</g>
</mask>
<g mask="url(#mask0_1811_562)">
<g id="Group">
<path id="Vector_2" d="M4.99773 11.8874C6.00832 11.8874 6.51497 11.3609 6.51497 10.3089C6.51497 9.27692 6.00832 8.76233 4.99773 8.76233C3.96847 8.76233 3.45117 9.27699 3.45117 10.3089C3.45117 11.3609 3.96847 11.8874 4.99773 11.8874Z" fill="white"/>
<path id="Vector_3" d="M9.0075 11.8874C10.0181 11.8874 10.5221 11.3609 10.5221 10.3089C10.5221 9.27692 10.0181 8.76233 9.0075 8.76233C7.97553 8.76233 7.46094 9.27699 7.46094 10.3089C7.46094 11.3609 7.9756 11.8874 9.0075 11.8874Z" fill="white"/>
<path id="Vector_4" d="M24.8844 32.881C23.8551 32.881 23.3379 33.3957 23.3379 34.4275C23.3379 35.4795 23.8551 36.0062 24.8844 36.0062C25.895 36.0062 26.4017 35.4795 26.4017 34.4275C26.4017 33.3956 25.895 32.881 24.8844 32.881Z" fill="white"/>
<path id="Vector_5" d="M43.0643 14.6655C41.5497 14.6655 40.1924 15.0762 38.9925 15.8961C37.5206 16.928 36.5207 18.412 35.9926 20.3478C35.382 21.2104 35.0781 22.2623 35.0781 23.505C35.0781 24.8729 35.4781 26.0928 36.278 27.166H29.5267C27.4629 27.166 26.431 26.1141 26.431 24.0089V16.0228L23.7164 17.4746V24.0089C23.7164 26.1141 22.6872 27.166 20.6233 27.166H14.8791C12.8365 27.166 11.818 26.1141 11.818 24.0089V13.9082L9.07149 15.3601V16.7174C8.22888 16.1281 7.22894 15.8335 6.07166 15.8335C4.55713 15.8335 3.27184 16.3707 2.22127 17.444C0.978662 18.6852 0.357422 20.3264 0.357422 22.3677C0.357422 24.0729 0.810745 25.5141 1.7147 26.6927C2.80793 28.082 4.2825 28.7766 6.13577 28.7766C7.62901 28.7766 8.88227 28.2926 9.89017 27.3247C10.8394 28.9233 12.394 29.7232 14.5618 29.7232H20.9407C22.6873 29.7232 24.0659 29.166 25.0737 28.05C26.0843 29.1659 27.4629 29.7232 29.2094 29.7232H37.6353C38.3312 29.7232 39.0032 29.6179 39.6565 29.4073C40.2857 29.6179 40.9604 29.7232 41.675 29.7232H45.0854C46.664 29.7232 47.9466 29.2819 48.9358 28.3979C50.0717 27.3874 50.6424 25.9661 50.6424 24.1356V22.4624C50.6424 20.2105 49.9572 18.3693 48.5892 16.9387C47.136 15.4228 45.2961 14.6655 43.0643 14.6655ZM6.22906 26.4407C5.28244 26.4407 4.51452 26.0728 3.92523 25.3355C3.33595 24.5995 3.03995 23.6209 3.03995 22.3997C3.03995 21.1997 3.33595 20.2265 3.92523 19.4798C4.51452 18.7333 5.27179 18.3586 6.19711 18.3586C7.33302 18.3586 8.29029 18.7906 9.07155 19.6532V24.1049C9.07155 24.3143 9.09022 24.6088 9.13287 24.9875C8.37562 25.9567 7.4077 26.4407 6.22906 26.4407ZM39.6565 26.882C37.9285 26.2927 37.0673 25.1142 37.0673 23.3463C37.0673 22.4623 37.3046 21.753 37.7765 21.2157C38.2512 20.6798 38.8778 20.4104 39.6565 20.4104C40.4351 20.4104 41.0618 20.6798 41.5337 21.2157C42.0083 21.753 42.2429 22.4623 42.2429 23.3463C42.2429 25.1141 41.3817 26.2927 39.6565 26.882ZM47.8959 23.8836C47.8959 25.0409 47.6693 25.8767 47.216 26.3927C46.7626 26.9088 46.0214 27.166 44.9894 27.166H43.0029C43.8216 26.1355 44.2321 24.9142 44.2321 23.505C44.2321 22.0317 43.8162 20.8478 42.9869 19.9532C42.155 19.0586 41.0457 18.6119 39.6565 18.6119H39.5605C40.3818 17.664 41.5177 17.1907 42.9709 17.1907C44.2321 17.1907 45.3174 17.5907 46.2213 18.3907C47.3359 19.3586 47.8959 20.7158 47.8959 22.4624V23.8836Z" fill="white"/>
<path id="Vector_6" d="M85.2801 17.8232C84.2056 16.35 82.6697 15.6127 80.6725 15.6127C79.1125 15.6127 77.8513 16.0447 76.8834 16.9073C75.7874 17.9178 75.2408 19.3377 75.2408 21.1696V24.0094C75.2408 26.1146 74.2115 27.1666 72.1477 27.1666H66.5185V21.1696C66.5185 19.5698 66.0866 18.2751 65.2252 17.2859C64.2147 16.1713 62.7721 15.6127 60.9002 15.6127C59.1109 15.6127 57.6684 16.182 56.5751 17.3179C55.3539 18.6018 54.7432 20.391 54.7432 22.6841C54.7432 24.5573 55.2284 26.0826 56.1964 27.2612C57.3537 28.6718 59.0683 29.4397 61.3428 29.5664C61.8681 29.6078 62.6787 29.6504 63.7719 29.6917C63.7506 30.6597 63.3239 31.4916 62.4946 32.1862C61.6627 32.8808 60.6895 33.2275 59.5749 33.2275C58.4789 33.2275 57.375 32.9329 56.2604 32.3435V34.7433C57.4177 35.3526 58.647 35.658 59.9535 35.658C61.532 35.658 62.94 35.174 64.1825 34.2061C65.6544 33.0275 66.433 31.533 66.5184 29.7237H72.4648C74.1687 29.7237 75.5259 29.1984 76.5366 28.1452C77.5259 29.1984 78.9657 29.7237 80.8617 29.7237C82.5229 29.7237 83.8695 29.1557 84.9014 28.0185C86.08 26.7359 86.6693 24.9574 86.6693 22.6842C86.6693 20.6858 86.2054 19.0645 85.2801 17.8232ZM63.772 27.1667C62.7401 27.1253 61.9721 27.072 61.4683 27.0094C58.775 26.8414 57.4285 25.3787 57.4285 22.6216C57.4285 21.2109 57.7325 20.1111 58.3431 19.3218C58.9538 18.5338 59.8043 18.1392 60.9003 18.1392C62.8148 18.1392 63.772 19.2125 63.772 21.359V27.1667ZM83.1497 25.9667C82.5924 26.768 81.819 27.1667 80.8298 27.1667C78.9152 27.1667 77.9553 26.1881 77.9553 24.231V21.2952C77.9553 19.1913 78.8619 18.1394 80.6725 18.1394C81.7018 18.1394 82.5124 18.534 83.1016 19.3219C83.6909 20.1112 83.9869 21.2112 83.9869 22.6217C83.9869 24.0523 83.707 25.1681 83.1497 25.9667Z" fill="white"/>
<path id="Vector_7" d="M0.357422 40.9991H4.38316L8.34506 51.3977L12.3493 40.9991H16.3327V55.8422H13.8169V43.5149H13.7751L9.26758 55.8422H7.42237L2.9155 43.5149H2.87316V55.8422H0.357422V40.9991Z" fill="white"/>
<path id="Vector_8" d="M25.7659 54.4584H25.7034C25.3399 55.0453 24.8782 55.4646 24.3198 55.7163C23.76 55.9676 23.1452 56.0936 22.4746 56.0936C22.0136 56.0936 21.5627 56.0308 21.1225 55.9048C20.6817 55.7791 20.2906 55.5903 19.9486 55.3387C19.6059 55.0873 19.3297 54.7729 19.1201 54.3955C18.9104 54.0178 18.8057 53.5777 18.8057 53.0744C18.8057 52.5294 18.9031 52.0651 19.0993 51.6803C19.2948 51.2961 19.5568 50.9748 19.8855 50.7162C20.2134 50.4574 20.5944 50.2514 21.0278 50.0976C21.4612 49.944 21.9115 49.8285 22.3805 49.7515C22.8481 49.6749 23.3198 49.6259 23.7956 49.605C24.27 49.5839 24.7175 49.5735 25.1369 49.5735H25.7657V49.301C25.7657 48.6721 25.5494 48.2003 25.116 47.8859C24.6826 47.5714 24.1309 47.4142 23.4596 47.4142C22.9287 47.4142 22.4328 47.5085 21.9711 47.697C21.5101 47.8859 21.1117 48.1409 20.7764 48.4624L19.4553 47.1417C20.0143 46.5547 20.6682 46.1388 21.4154 45.8942C22.1632 45.65 22.9354 45.5273 23.7323 45.5273C24.4453 45.5273 25.046 45.608 25.5352 45.7685C26.0244 45.9292 26.4296 46.1354 26.7515 46.3868C27.0726 46.6384 27.3206 46.9287 27.4953 47.257C27.67 47.5856 27.7957 47.9175 27.873 48.2529C27.9496 48.5882 27.9953 48.9131 28.0093 49.2275C28.0228 49.542 28.0302 49.8182 28.0302 50.0558V55.8421H25.7657L25.7659 54.4584ZM25.6194 51.3344H25.0953C24.7459 51.3344 24.3541 51.3486 23.9214 51.3764C23.488 51.4046 23.0787 51.4709 22.6951 51.5757C22.3101 51.6804 21.9855 51.8377 21.7201 52.0474C21.454 52.2571 21.3215 52.537 21.3215 52.886C21.3215 53.1238 21.374 53.3227 21.4788 53.4834C21.5836 53.6443 21.7201 53.7807 21.8874 53.8922C22.0553 54.0041 22.2442 54.0844 22.4539 54.1335C22.6635 54.1825 22.8732 54.2067 23.0827 54.2067C23.963 54.2067 24.6061 54.0007 25.0113 53.5881C25.4165 53.1762 25.6195 52.6135 25.6195 51.9005L25.6194 51.3344Z" fill="white"/>
<path id="Vector_9" d="M29.373 45.7781H32.0979L34.2784 52.8224H34.3208L36.3541 45.7781H39.0796L41.2595 52.8224H41.3018L43.3984 45.7781H45.9351L42.5174 55.8412H40.0231L37.6329 48.9647H37.5912L35.4739 55.8412H32.8741L29.373 45.7781Z" fill="white"/>
<path id="Vector_10" d="M49.9389 47.1835H49.9813C50.1768 46.7642 50.5188 46.3835 51.0087 46.0408C51.4972 45.6984 52.1402 45.527 52.9373 45.527C53.6078 45.527 54.1777 45.6393 54.6461 45.8626C55.1137 46.0861 55.4948 46.3798 55.7884 46.7429C56.082 47.1065 56.2917 47.5258 56.4173 48.0009C56.543 48.4763 56.6062 48.9726 56.6062 49.4894V55.8418H54.0903V50.7473C54.0903 50.468 54.0762 50.1569 54.0479 49.8146C54.0204 49.4722 53.9465 49.1507 53.8282 48.85C53.7093 48.5496 53.5238 48.298 53.2726 48.0953C53.0212 47.8927 52.6785 47.7912 52.2451 47.7912C51.8258 47.7912 51.4731 47.8615 51.1868 48.0009C50.8999 48.1407 50.6627 48.3295 50.4738 48.567C50.285 48.8049 50.1486 49.0775 50.0653 49.3844C49.9813 49.6922 49.939 50.0134 49.939 50.3491V55.8418H47.4238V39.9924H49.939L49.9389 47.1835Z" fill="white"/>
<path id="Vector_11" d="M59.1426 42.3619C59.1426 41.9567 59.2924 41.6039 59.5928 41.3032C59.8931 41.0029 60.2742 40.8524 60.7358 40.8524C61.1967 40.8524 61.5845 40.9958 61.899 41.2824C62.2134 41.5689 62.3707 41.9288 62.3707 42.3619C62.3707 42.7953 62.2134 43.1551 61.899 43.4417C61.5845 43.7283 61.1968 43.8714 60.7358 43.8714C60.2741 43.8714 59.8931 43.7212 59.5928 43.4206C59.2924 43.1201 59.1426 42.7674 59.1426 42.3619ZM59.4987 45.7791H62.0145V55.8422H59.4987V45.7791Z" fill="white"/>
<path id="Vector_12" d="M64.9082 39.9924H67.4233V47.0575H67.4865C67.6122 46.8899 67.7727 46.7188 67.9689 46.5438C68.1645 46.3694 68.4017 46.2051 68.6812 46.0512C68.9608 45.8977 69.286 45.7716 69.6563 45.6739C70.0265 45.5761 70.4424 45.527 70.9034 45.527C71.6163 45.527 72.2736 45.6635 72.8743 45.9359C73.475 46.2084 73.9891 46.5823 74.4152 47.0574C74.8418 47.5328 75.1732 48.0919 75.411 48.7346C75.6489 49.3777 75.7678 50.0695 75.7678 50.81C75.7678 51.5512 75.6556 52.2429 75.4318 52.8856C75.2088 53.5287 74.8802 54.0878 74.4468 54.5629C74.0133 55.0379 73.4893 55.4119 72.8744 55.6844C72.2596 55.9568 71.5674 56.0933 70.7987 56.0933C70.0864 56.0933 69.4225 55.9568 68.8076 55.6844C68.1921 55.4119 67.7029 54.9611 67.34 54.332H67.2978V55.8416H64.9083L64.9082 39.9924ZM73.2519 50.8101C73.2519 50.419 73.1855 50.0417 73.0523 49.6781C72.9193 49.315 72.7238 48.9934 72.4657 48.7139C72.207 48.4344 71.8959 48.2106 71.5324 48.043C71.1688 47.8754 70.7568 47.7913 70.2959 47.7913C69.8343 47.7913 69.4224 47.8754 69.0588 48.043C68.6953 48.2106 68.3842 48.4344 68.1262 48.7139C67.8668 48.9934 67.6712 49.315 67.5389 49.6781C67.4057 50.0416 67.34 50.419 67.34 50.8101C67.34 51.2019 67.4058 51.5791 67.5389 51.9424C67.6712 52.3059 67.8668 52.6275 68.1262 52.9067C68.3842 53.1866 68.6953 53.4099 69.0588 53.5776C69.4224 53.7452 69.8343 53.8293 70.2959 53.8293C70.7568 53.8293 71.1688 53.7452 71.5324 53.5776C71.896 53.4099 72.207 53.1866 72.4657 52.9067C72.7238 52.6274 72.9193 52.3059 73.0523 51.9424C73.1855 51.5792 73.2519 51.2019 73.2519 50.8101Z" fill="white"/>
<path id="Vector_13" d="M84.4057 54.4584H84.3431C83.9796 55.0453 83.5179 55.4646 82.9595 55.7163C82.3998 55.9676 81.7849 56.0936 81.1143 56.0936C80.6533 56.0936 80.2025 56.0308 79.7623 55.9048C79.3214 55.7791 78.9304 55.5903 78.5884 55.3387C78.2457 55.0873 77.9695 54.7729 77.7598 54.3955C77.5501 54.0178 77.4453 53.5777 77.4453 53.0744C77.4453 52.5294 77.5428 52.0651 77.739 51.6803C77.9345 51.2961 78.1966 50.9748 78.5251 50.7162C78.8532 50.4574 79.2341 50.2514 79.6675 50.0976C80.1009 49.944 80.5511 49.8285 81.0202 49.7515C81.4878 49.6749 81.9596 49.6259 82.4353 49.605C82.9098 49.5839 83.3573 49.5735 83.7766 49.5735H84.4055V49.301C84.4055 48.6721 84.1891 48.2003 83.7557 47.8859C83.3223 47.5714 82.7706 47.4142 82.0993 47.4142C81.5685 47.4142 81.0725 47.5085 80.6109 47.697C80.1499 47.8859 79.7514 48.1409 79.4161 48.4624L78.095 47.1417C78.6541 46.5547 79.3078 46.1388 80.0551 45.8942C80.803 45.65 81.5751 45.5273 82.372 45.5273C83.085 45.5273 83.6857 45.608 84.1749 45.7685C84.6641 45.9292 85.0693 46.1354 85.3911 46.3868C85.7123 46.6384 85.9603 46.9287 86.1351 47.257C86.3097 47.5856 86.4354 47.9175 86.5127 48.2529C86.5892 48.5882 86.6349 48.9131 86.6491 49.2275C86.6625 49.542 86.67 49.8182 86.67 50.0558V55.8421H84.4054L84.4057 54.4584ZM84.2592 51.3344H83.735C83.3856 51.3344 82.9939 51.3486 82.5611 51.3764C82.1277 51.4046 81.7185 51.4709 81.3348 51.5757C80.9498 51.6804 80.6252 51.8377 80.3598 52.0474C80.0937 52.2571 79.9613 52.537 79.9613 52.886C79.9613 53.1238 80.0137 53.3227 80.1185 53.4834C80.2233 53.6443 80.3598 53.7807 80.5271 53.8922C80.6951 54.0041 80.8839 54.0844 81.0936 54.1335C81.3033 54.1825 81.5129 54.2067 81.7225 54.2067C82.6028 54.2067 83.2458 54.0007 83.6511 53.5881C84.0562 53.1762 84.2592 52.6135 84.2592 51.9005L84.2592 51.3344Z" fill="white"/>
<path id="Vector_14" d="M112.946 25.5954C112.339 23.8483 113.483 22.2274 115.385 22.309C117.922 22.346 120.216 23.8394 122.093 25.2474C126.396 28.6508 132.128 35.9388 130.756 41.8791C129.353 46.0232 124.772 44.6055 122.395 42.3061C120.278 40.443 118.636 38.0845 117.539 35.53C119.683 37.1697 121.697 38.7463 124.019 39.956C124.994 40.4459 125.978 40.9065 126.949 40.8864C127.108 40.8369 127.18 40.8055 127.043 40.815C126.932 40.8136 126.905 40.9514 126.916 40.7817C126.958 39.1972 126.119 37.4305 125.398 35.9411C124.598 33.7071 114.456 18.8192 112.946 25.5954Z" fill="white"/>
<path id="Vector_15" d="M147.154 33.5362C149.167 48.622 135.971 62.0893 120.986 61.8755C109.904 62.0151 99.1753 54.5354 95.8269 43.9579C94.7358 40.5551 94.341 36.9668 94.8197 33.5362C95.7256 40.3852 98.9045 46.5352 103.692 50.8304C119.882 65.3063 144.611 54.8875 147.154 33.5362Z" fill="white"/>
<path id="Vector_16" d="M113.776 26.6285C111.146 30.2817 108.77 33.9984 107.327 38.1928C105.552 43.2882 105.81 48.5963 112.679 46.5638C116.663 45.4355 120.297 43.0255 123.497 40.4001C127.86 36.7303 131.899 32.3527 134.347 27.1491C135.505 24.5929 136.442 21.5045 134.75 18.9363C135.668 19.6704 136.343 20.7347 136.59 21.8973C138.65 33.3516 124.376 48.1972 113.733 50.7184C110.215 51.7387 105.167 51.127 103.525 47.2152C100.593 39.7076 108.249 30.7322 113.776 26.6285Z" fill="white"/>
<path id="Vector_17" d="M141.273 52.5291C141.234 58.4824 137.763 64.2192 131.068 63.7092C125.252 63.161 120.44 59.5928 116.359 55.7606C105.442 45.2013 95.8723 25.7408 98.9813 10.325C101.846 -1.61428 112.628 -1.19811 120.683 5.61122C127.052 10.8566 131.696 17.9907 134.827 25.4808C130.504 18.7646 125.514 12.43 118.983 7.89611C112.858 3.52724 104.779 1.94209 103.004 11.2284C101.357 21.3398 105.266 31.6813 109.852 40.6187C113.56 47.4217 118.217 53.9521 124.519 58.5244C132.247 64.1481 139.322 62.3986 141.273 52.5291Z" fill="white"/>
<path id="Vector_18" d="M117.944 38.2906C114.518 37.553 112.458 33.4879 113.369 30.0518C114.209 26.1963 118.272 23.4544 122.206 23.9928C128.382 24.5987 131.76 32.3405 127.432 36.9286C126.225 38.2034 124.567 38.9271 123.001 38.8898C126.625 36.4315 127.123 32.1288 124.389 29.5252C118.743 25.1661 112.882 32.9896 117.944 38.2906Z" fill="white"/>
</g>
</g>
</g>
</svg>
