<svg width="31" height="23" viewBox="0 0 31 23" fill="none" xmlns="http://www.w3.org/2000/svg">
<g id="Online Education">
<path id="Vector" d="M17.8822 20.207H12.5822L11.9512 18.5035H2.42383V2.288C2.42383 1.53085 3.05478 0.899902 3.81192 0.899902H27.4095C28.1667 0.899902 28.7976 1.53085 28.7976 2.288V18.5666H19.1441L17.8822 20.207ZM13.2762 19.2606H17.4405L18.7024 17.557H27.8512V2.288C27.8512 2.03562 27.6619 1.84633 27.4095 1.84633H3.81192C3.55954 1.84633 3.37026 2.03562 3.37026 2.288V17.6201H12.6453L13.2762 19.2606Z" fill="white"/>
<path id="Vector_2" d="M26.2104 22.1001H5.01037C2.73894 22.1001 0.90918 20.2703 0.90918 17.9989V17.4941H12.5818L13.2128 19.1977H17.377L18.6389 17.4941H30.2485V17.9989C30.3116 20.2703 28.4187 22.1001 26.2104 22.1001ZM1.9187 18.5037C2.17108 20.0179 3.43299 21.1537 5.01037 21.1537H26.1473C27.7247 21.1537 29.0497 20.0179 29.2389 18.5037H19.1437L17.8818 20.2072H12.5818L11.9508 18.5037H1.9187Z" fill="white"/>
<path id="Vector_3" d="M11.0038 4.24414H6.14551V8.47152H11.0038V4.24414Z" fill="white"/>
<path id="Vector_4" d="M11.4464 8.91307H5.6416V3.73926H11.4464V8.91307ZM6.58803 7.96664H10.4999V4.68569H6.58803V7.96664Z" fill="white"/>
<path id="Vector_5" d="M11.0038 10.9324H6.14551V15.1598H11.0038V10.9324Z" fill="white"/>
<path id="Vector_6" d="M11.4464 15.664H5.6416V10.4902H11.4464V15.664ZM6.58803 14.7176H10.4999V11.4367H6.58803V14.7176Z" fill="white"/>
<path id="Vector_7" d="M25.3263 5.82153H14.0322V6.76796H25.3263V5.82153Z" fill="white"/>
<path id="Vector_8" d="M25.3263 12.573H14.0322V13.5194H25.3263V12.573Z" fill="white"/>
</g>
</svg>
