<svg width="138" height="75" viewBox="0 0 138 75" fill="none" xmlns="http://www.w3.org/2000/svg">
<path d="M61.2696 8.15378L73.0367 13.6737L88.1816 7.53954L92.8762 15.5444L110.738 12.8182L107.43 21.7225L124.471 22.9443L113.817 30.9845L126.662 35.9122L110.77 41.4958L116.875 49.1535L98.8939 51.1746L97.0495 60.0455L80.5406 58.1039L71.1122 66.431L59.3452 60.9111L44.2003 67.0453L39.5056 59.0404L21.6439 61.7666L24.9515 52.8623L7.91055 51.6405L18.5652 43.6003L5.72036 38.6726L21.6119 33.089L15.5071 25.4313L33.4879 23.4102L35.3324 14.5393L51.8412 16.4809L61.2696 8.15378Z" fill="#5096DC"/>
<path d="M76.1936 8.02812L85.9189 16.083L102.349 13.6732L104.514 22.4871L122.559 23.9962L116.735 31.8234L132.82 36.9525L120.161 42.2428L131.101 49.976L114.113 51.6814L117.742 60.4872L99.7905 58.2701L95.3884 66.4042L80.029 60.7036L68.468 66.5551L58.7427 58.5002L42.3128 60.91L40.1478 52.0961L22.103 50.587L27.9271 42.7598L11.8414 37.6307L24.5011 32.3404L13.5605 24.6072L30.5484 22.9017L26.9198 14.096L44.8712 16.3131L49.2733 8.17902L64.6327 13.8796L76.1936 8.02812Z" fill="white"/>
<path d="M49.457 36.3964C49.6746 36.3964 49.8174 36.5528 49.8854 36.8656C49.967 37.1784 50.0078 37.6544 50.0078 38.2936C50.0078 38.9465 49.967 39.4293 49.8854 39.7421C49.8038 40.0413 49.661 40.1909 49.457 40.1909C49.0898 40.1909 48.6546 40.1229 48.1514 39.9869L48.0902 40.0277C48.1174 41.1022 48.0629 41.9862 47.9269 42.6798C46.8933 43.5367 45.7577 44.2303 44.52 44.7607C43.2823 45.2911 42.0651 45.5563 40.8682 45.5563C39.4538 45.5563 38.3045 45.1687 37.4205 44.3935C36.5365 43.6183 36.0944 42.4622 36.0944 40.9253C36.0944 40.1909 36.2033 39.3409 36.4209 38.3752C36.6385 37.4096 36.9649 36.3964 37.4001 35.3355L40.2154 36.2536C39.685 37.7632 39.4198 38.9533 39.4198 39.8237C39.4198 40.5037 39.583 41.0138 39.9094 41.3538C40.2494 41.6938 40.7322 41.8638 41.3579 41.8638C42.3779 41.8638 43.7244 41.415 45.3972 40.5173C45.0028 40.1637 44.554 39.8305 44.0508 39.5177C43.4388 39.1369 42.8607 38.8037 42.3167 38.518L43.3164 35.8251C44.3772 36.0427 45.3292 36.1855 46.1725 36.2536C47.2469 36.3488 48.3418 36.3964 49.457 36.3964ZM44.6016 47.8616C44.6288 48.0656 44.4792 48.3989 44.1528 48.8613C43.8264 49.3237 43.5476 49.6365 43.3164 49.7997C43.0579 49.6909 42.7315 49.5005 42.3371 49.2285C41.9427 48.9701 41.6503 48.7321 41.4599 48.5145C41.3239 48.7593 41.1471 49.0109 40.9295 49.2693C40.7118 49.5277 40.535 49.7045 40.399 49.7997C40.127 49.6773 39.7802 49.4665 39.3586 49.1673C38.937 48.8817 38.6378 48.6369 38.4609 48.4329C38.5426 48.1473 38.7466 47.7664 39.073 47.2904C39.3994 46.8144 39.6714 46.5764 39.889 46.5764C40.1066 46.5764 40.433 46.726 40.8682 47.0252C41.3035 47.338 41.5687 47.5964 41.6639 47.8004C41.8543 47.4604 42.0515 47.168 42.2555 46.9232C42.4595 46.692 42.6431 46.5764 42.8063 46.5764C43.0239 46.5764 43.364 46.7396 43.8264 47.066C44.3024 47.406 44.5608 47.6712 44.6016 47.8616ZM55.9153 36.3964C56.1329 36.3964 56.2757 36.5528 56.3437 36.8656C56.4253 37.1784 56.4661 37.6544 56.4661 38.2936C56.4661 38.9465 56.4253 39.4293 56.3437 39.7421C56.2621 40.0413 56.1193 40.1909 55.9153 40.1909C55.3169 40.1909 54.7389 40.1093 54.1812 39.9461C53.6372 39.7693 53.1884 39.5381 52.8348 39.2525C51.9235 39.8781 50.7947 40.1909 49.4482 40.1909C49.2442 40.1909 49.1014 40.0413 49.0198 39.7421C48.9382 39.4293 48.8974 38.9465 48.8974 38.2936C48.8974 37.6544 48.9382 37.1784 49.0198 36.8656C49.0878 36.5528 49.2306 36.3964 49.4482 36.3964C50.2779 36.3964 51.0395 36.376 51.7331 36.3352C51.6923 35.3559 51.6039 34.1931 51.4679 32.8466C51.3455 31.5002 51.2639 30.6093 51.2231 30.1741C51.1823 29.8749 51.1347 29.4261 51.0803 28.8276L54.3852 28.644C54.5485 31.2825 54.6437 33.7306 54.6709 35.9883V36.3964H55.9153ZM63.8999 36.3964C64.1175 36.3964 64.2603 36.5528 64.3283 36.8656C64.4099 37.1784 64.4507 37.6544 64.4507 38.2936C64.4507 38.9465 64.4099 39.4293 64.3283 39.7421C64.2467 40.0413 64.1039 40.1909 63.8999 40.1909C62.5126 40.1909 61.4586 39.7149 60.7377 38.7629H60.5541C60.2685 39.1709 59.8673 39.4769 59.3505 39.6809C58.8472 39.8849 58.3508 40.0209 57.8612 40.0889C57.3716 40.1569 56.7256 40.1909 55.9231 40.1909C55.7191 40.1909 55.5763 40.0413 55.4947 39.7421C55.4131 39.4293 55.3723 38.9465 55.3723 38.2936C55.3723 37.6544 55.4131 37.1784 55.4947 36.8656C55.5627 36.5528 55.7055 36.3964 55.9231 36.3964C56.6712 36.3964 57.2968 36.3488 57.8 36.2536C58.3032 36.1583 58.7588 35.9543 59.1669 35.6415C59.5749 35.3287 59.9081 34.8595 60.1665 34.2339L61.8802 34.4991C61.8666 34.6079 61.8598 34.7575 61.8598 34.9479C61.8598 35.5191 62.0094 35.9067 62.3086 36.1107C62.6078 36.3012 63.1382 36.3964 63.8999 36.3964ZM62.0638 42.9042C62.091 43.1082 61.9414 43.4415 61.615 43.9039C61.2885 44.3663 61.0097 44.6791 60.7785 44.8423C60.5201 44.7335 60.1937 44.5431 59.7993 44.2711C59.4049 44.0127 59.1125 43.7747 58.922 43.5571C58.786 43.8019 58.6092 44.0535 58.3916 44.3119C58.174 44.5703 57.9972 44.7471 57.8612 44.8423C57.5892 44.7199 57.2424 44.5091 56.8208 44.2099C56.3991 43.9243 56.0999 43.6795 55.9231 43.4755C56.0047 43.1898 56.2087 42.809 56.5351 42.333C56.8616 41.857 57.1336 41.619 57.3512 41.619C57.5688 41.619 57.8952 41.7686 58.3304 42.0678C58.7656 42.3806 59.0309 42.639 59.1261 42.843C59.3165 42.503 59.5137 42.2106 59.7177 41.9658C59.9217 41.7346 60.1053 41.619 60.2685 41.619C60.4861 41.619 60.8261 41.7822 61.2885 42.1086C61.7646 42.4486 62.023 42.7138 62.0638 42.9042ZM79.05 36.3964C79.2677 36.3964 79.4105 36.5528 79.4785 36.8656C79.5601 37.1784 79.6009 37.6544 79.6009 38.2936C79.6009 38.9465 79.5601 39.4293 79.4785 39.7421C79.3969 40.0413 79.2541 40.1909 79.05 40.1909C78.2748 40.1909 77.5812 39.9529 76.9692 39.4769C76.2211 39.7217 75.3507 39.9257 74.3578 40.0889C73.3786 40.2385 72.4266 40.3133 71.5017 40.3133C70.4273 40.3133 69.4888 40.1909 68.6864 39.9461C67.8976 39.7013 67.34 39.3069 67.0135 38.7629H66.8299C66.5035 39.2661 66.0615 39.6333 65.5039 39.8645C64.9599 40.0821 64.4226 40.1909 63.8922 40.1909C63.6882 40.1909 63.5454 40.0413 63.4638 39.7421C63.3822 39.4293 63.3414 38.9465 63.3414 38.2936C63.3414 37.6544 63.3822 37.1784 63.4638 36.8656C63.5318 36.5528 63.6746 36.3964 63.8922 36.3964C64.545 36.3964 65.0959 36.274 65.5447 36.0291C66.0071 35.7843 66.2179 35.3627 66.1771 34.7643L67.8908 34.4991C67.9452 34.9479 67.9996 35.2947 68.054 35.5395C68.122 35.7707 68.2308 35.9475 68.3804 36.0699C69.4684 34.7099 70.5497 33.7034 71.6241 33.0506C72.6986 32.3978 73.6982 32.0714 74.6231 32.0714C75.3303 32.0714 75.9559 32.255 76.4999 32.6222C77.044 32.9758 77.4724 33.479 77.7852 34.1319C78.098 34.7847 78.2544 35.5395 78.2544 36.3964H79.05ZM70.8897 36.6412C71.3929 36.682 71.9845 36.7024 72.6646 36.7024C73.4806 36.7024 74.1878 36.6684 74.7863 36.6004C75.3983 36.5324 75.7451 36.4236 75.8267 36.274C75.7451 36.0563 75.5615 35.8863 75.2759 35.7639C74.9903 35.6279 74.6571 35.5599 74.2762 35.5599C73.7594 35.5599 73.2018 35.6551 72.6034 35.8455C72.0049 36.0223 71.4337 36.2876 70.8897 36.6412ZM90.4779 36.3964C90.6955 36.3964 90.8383 36.5528 90.9063 36.8656C90.9879 37.1784 91.0287 37.6544 91.0287 38.2936C91.0287 38.9465 90.9879 39.4293 90.9063 39.7421C90.8247 40.0413 90.6819 40.1909 90.4779 40.1909C89.7162 40.1909 88.9954 40.0277 88.3154 39.7013C87.649 39.3749 87.1525 38.9125 86.8261 38.314C86.1053 38.3548 85.3505 38.518 84.5616 38.8037C84.1944 38.9397 83.8544 39.0689 83.5416 39.1913C82.7119 39.5177 81.9707 39.7693 81.3179 39.9461C80.6651 40.1093 79.9102 40.1909 79.0534 40.1909C78.8494 40.1909 78.7066 40.0413 78.625 39.7421C78.5434 39.4293 78.5026 38.9465 78.5026 38.2936C78.5026 37.6544 78.5434 37.1784 78.625 36.8656C78.693 36.5528 78.8358 36.3964 79.0534 36.3964C79.7878 36.3964 80.4134 36.3488 80.9303 36.2536C81.4607 36.1583 82.1543 36.0087 83.0112 35.8047L83.5212 35.6823L84.786 35.3967C84.2692 35.1111 83.834 34.9003 83.4804 34.7643C83.0996 34.6147 82.6915 34.5127 82.2563 34.4583C81.8211 34.3903 81.2567 34.3359 80.5631 34.2951L80.1142 34.2747L80.0326 34.1931C80.087 33.6762 80.189 33.105 80.3386 32.4794C80.5019 31.8402 80.6583 31.3709 80.8079 31.0717C81.0935 31.0309 81.3587 31.0105 81.6035 31.0105C82.1067 31.0105 82.5759 31.0921 83.0112 31.2553C83.4464 31.4049 83.8884 31.6226 84.3372 31.9082L85.0512 32.3774C86.1937 33.1118 87.0573 33.6558 87.6422 34.0095C88.227 34.3495 88.6418 34.5195 88.8866 34.5195C88.8458 35.1995 88.7778 35.7775 88.6826 36.2536C89.1858 36.3488 89.7842 36.3964 90.4779 36.3964ZM98.4458 36.3964C98.6634 36.3964 98.8063 36.5528 98.8743 36.8656C98.9559 37.1784 98.9967 37.6544 98.9967 38.2936C98.9967 38.9465 98.9559 39.4293 98.8743 39.7421C98.7927 40.0413 98.6498 40.1909 98.4458 40.1909C97.0586 40.1909 96.0045 39.7149 95.2837 38.7629H95.1001C94.8145 39.1709 94.4133 39.4769 93.8964 39.6809C93.3932 39.8849 92.8968 40.0209 92.4072 40.0889C91.9176 40.1569 91.2715 40.1909 90.4691 40.1909C90.2651 40.1909 90.1223 40.0413 90.0407 39.7421C89.9591 39.4293 89.9183 38.9465 89.9183 38.2936C89.9183 37.6544 89.9591 37.1784 90.0407 36.8656C90.1087 36.5528 90.2515 36.3964 90.4691 36.3964C91.2171 36.3964 91.8428 36.3488 92.346 36.2536C92.8492 36.1583 93.3048 35.9543 93.7128 35.6415C94.1209 35.3287 94.4541 34.8595 94.7125 34.2339L96.4262 34.4991C96.4126 34.6079 96.4058 34.7575 96.4058 34.9479C96.4058 35.5191 96.5554 35.9067 96.8546 36.1107C97.1538 36.3012 97.6842 36.3964 98.4458 36.3964ZM97.7726 30.8677C97.7998 31.0717 97.6502 31.4049 97.3238 31.8674C96.9974 32.3298 96.7186 32.6426 96.4874 32.8058C96.2289 32.697 95.9025 32.5134 95.5081 32.255C95.1137 31.983 94.8213 31.7382 94.6309 31.5206C94.4949 31.7654 94.3181 32.017 94.1005 32.2754C93.8828 32.5338 93.706 32.7106 93.57 32.8058C93.298 32.6834 92.9512 32.4794 92.5296 32.1938C92.108 31.8946 91.8088 31.643 91.632 31.439C91.7136 31.1533 91.9176 30.7725 92.244 30.2965C92.5704 29.8205 92.8424 29.5825 93.06 29.5825C93.2776 29.5825 93.604 29.7389 94.0393 30.0517C94.4745 30.3509 94.7397 30.6025 94.8349 30.8065C95.0253 30.4665 95.2225 30.1809 95.4265 29.9497C95.6305 29.7049 95.8141 29.5825 95.9773 29.5825C96.1949 29.5825 96.535 29.7525 96.9974 30.0925C97.4734 30.4189 97.7318 30.6773 97.7726 30.8677ZM103.355 28.644C103.545 31.8266 103.64 34.1591 103.64 35.6415C103.64 36.444 103.579 37.1784 103.457 37.8448C103.334 38.5112 103.117 39.1233 102.804 39.6809C101.866 39.9801 100.41 40.1501 98.4382 40.1909C98.2342 40.1909 98.0914 40.0413 98.0098 39.7421C97.9282 39.4293 97.8874 38.9465 97.8874 38.2936C97.8874 37.6544 97.9282 37.1784 98.0098 36.8656C98.0778 36.5528 98.2206 36.3964 98.4382 36.3964C99.3358 36.3964 100.091 36.3692 100.703 36.3148C100.675 35.4987 100.607 34.5263 100.499 33.3974C100.403 32.2686 100.301 31.1465 100.193 30.0313L100.07 28.8276L103.355 28.644ZM105.21 40.1501C105.278 39.0621 105.312 37.9332 105.312 36.7636C105.312 34.5739 105.23 31.9286 105.067 28.8276L108.372 28.644C108.549 31.2553 108.637 33.7306 108.637 36.0699C108.637 37.5524 108.61 38.7561 108.555 39.6809C108.27 39.8441 107.814 39.9801 107.189 40.0889C106.563 40.1841 105.944 40.2385 105.332 40.2521L105.21 40.1501Z" fill="#4B96E2"/>
</svg>
