<svg width="59" height="19" viewBox="0 0 59 19" fill="none" xmlns="http://www.w3.org/2000/svg">
<g id="Group 1748">
<g id="Clip path group">
<mask id="mask0_1251_35677" style="mask-type:luminance" maskUnits="userSpaceOnUse" x="0" y="0" width="59" height="19">
<g id="clip0_822_275">
<path id="Vector" d="M53.053 0.243164H6.30047C3.30676 0.243164 0.879883 2.61651 0.879883 5.54418V13.4957C0.879883 16.4234 3.30676 18.7967 6.30047 18.7967H53.053C56.0467 18.7967 58.4736 16.4234 58.4736 13.4957V5.54418C58.4736 2.61651 56.0467 0.243164 53.053 0.243164Z" fill="white"/>
</g>
</mask>
<g mask="url(#mask0_1251_35677)">
<g id="Group">
<g id="Clip path group_2">
<mask id="mask1_1251_35677" style="mask-type:luminance" maskUnits="userSpaceOnUse" x="0" y="0" width="59" height="19">
<g id="clip1_822_275">
<path id="Vector_2" d="M58.4736 0.243164H0.879883V18.7967H58.4736V0.243164Z" fill="white"/>
</g>
</mask>
<g mask="url(#mask1_1251_35677)">
<g id="Group_2">
<path id="Vector_3" d="M58.4736 0.24292H0.879883V18.7965H58.4736V0.24292Z" fill="white"/>
<path id="Vector_4" d="M58.4748 0.235107H0.879883V18.8014H58.4748V0.235107Z" fill="url(#paint0_linear_1251_35677)"/>
<path id="Vector_5" d="M17.5236 22.4554C1.25891 16.2473 1.95437 20.7442 -6.2002 20.8056L-1.35268 -4.15711C4.06888 -6.75336 5.16231 -4.32377 21.0693 -0.174135L47.9106 21.8001C41.4246 22.7931 33.7882 28.6635 17.5236 22.4554Z" fill="url(#paint1_linear_1251_35677)" fill-opacity="0.6"/>
<path id="Vector_6" d="M39.9758 -0.794922L-1.0874 -0.380908L-0.156274 12.9269L11.8481 13.2831C19.1214 12.3578 26.5001 14.0271 30.7166 17.6997L38.0634 24.0987C39.1864 25.0783 40.6915 25.8797 42.4487 26.4335C44.206 26.9874 46.1625 27.2771 48.149 27.2777H84.9768V17.2068C84.9768 15.2597 81.8301 13.8703 78.7295 14.4486L60.8041 18.4524C59.0614 18.6781 57.2439 18.5676 55.613 18.1367C53.9821 17.7058 52.6218 16.9769 51.7278 16.0547L39.9758 -0.794922Z" fill="url(#paint2_linear_1251_35677)"/>
<path id="Vector_7" d="M25.2084 16.8878C31.0368 16.8878 35.7616 13.5849 35.7616 9.51053C35.7616 5.4362 31.0368 2.1333 25.2084 2.1333C19.3801 2.1333 14.6553 5.4362 14.6553 9.51053C14.6553 13.5849 19.3801 16.8878 25.2084 16.8878Z" fill="url(#paint3_radial_1251_35677)"/>
<path id="Vector_8" d="M36.5153 24.6379C47.4455 24.6379 56.3062 20.4489 56.3062 15.2816C56.3062 10.1142 47.4455 5.92529 36.5153 5.92529C25.5851 5.92529 16.7244 10.1142 16.7244 15.2816C16.7244 20.4489 25.5851 24.6379 36.5153 24.6379Z" fill="url(#paint4_radial_1251_35677)" fill-opacity="0.7"/>
<path id="Vector_9" d="M35.431 21.9955C42.3415 23.2643 49.13 21.9841 50.5935 19.1361C52.0571 16.288 47.6415 12.9506 40.731 11.6818C33.8205 10.4129 27.0321 11.6931 25.5685 14.5411C24.105 17.3892 28.5206 20.7266 35.431 21.9955Z" fill="url(#paint5_radial_1251_35677)" fill-opacity="0.7"/>
<path id="Vector_10" d="M30.8229 -0.178509L0.741943 0.12478L1.42404 9.87344L10.2178 10.1344C15.5459 9.45652 20.9513 10.6794 24.0401 13.3697L29.422 18.0574C30.2446 18.775 31.3472 19.362 32.6345 19.7677C33.9217 20.1735 35.3549 20.3858 36.8102 20.3862H63.7884L66.6285 7.86244C66.6285 6.43605 64.3232 5.41829 62.0522 5.84193L60.7334 -1.87197C59.4568 -1.70664 58.1255 -1.78761 56.9307 -2.10322C55.7359 -2.41884 54.7395 -2.95284 54.0846 -3.62842L30.8229 -0.178509Z" fill="url(#paint6_linear_1251_35677)"/>
</g>
</g>
</g>
<g id="Clip path group_3">
<mask id="mask2_1251_35677" style="mask-type:luminance" maskUnits="userSpaceOnUse" x="10" y="1" width="40" height="17">
<g id="clip2_822_275">
<path id="Vector_11" d="M49.3283 1.5686H10.0291V17.4717H49.3283V1.5686Z" fill="white"/>
</g>
</mask>
<g mask="url(#mask2_1251_35677)">
<g id="Group_3">
<path id="Vector_12" fill-rule="evenodd" clip-rule="evenodd" d="M16.9079 3.90922C16.9079 3.90922 16.4706 4.79921 16.2738 5.25407C16.189 5.44322 16.1472 5.64823 16.1513 5.85483C16.1606 6.05659 16.1697 6.25838 16.1789 6.46018C16.2413 7.84297 16.3038 9.22652 16.4076 10.606C16.5283 12.2169 17.3364 13.3927 18.8564 14.0716C19.9191 14.5462 21.0429 14.7624 22.1973 14.8276C23.6517 14.9092 25.1096 14.9512 26.5658 14.9633C28.9866 14.9838 31.3891 14.8148 33.7592 14.3488C34.4895 14.2552 36.7738 13.6751 37.17 13.464C37.548 13.2624 37.5844 13.2724 37.8603 13.3481C37.9099 13.3616 37.9673 13.3774 38.0359 13.3944C39.1256 13.6656 42.0029 13.5987 42.8311 13.3592L42.9139 13.3352C43.4353 13.1844 43.8983 13.0505 44.0162 12.6958C44.5252 13.4828 44.8095 13.8827 45.6866 13.8055C46.4101 13.7418 46.5869 13.702 47.1088 13.5846C47.2198 13.5596 47.3464 13.5312 47.497 13.4983C48.2142 13.342 48.7433 12.8881 48.9584 12.2014C49.058 11.8855 49.0738 11.692 49.0908 11.4837C49.0967 11.4119 49.1028 11.3384 49.1124 11.2574C49.2453 10.134 49.0678 9.06894 48.4074 8.12397C48.3988 8.11165 48.3904 8.09932 48.382 8.08713C48.2877 7.94884 48.2019 7.82301 47.8583 7.84507C47.741 7.85196 47.5661 8.02358 47.4944 8.16174C47.3821 8.37789 47.2839 8.60087 47.1855 8.8243C47.0932 9.03389 47.0007 9.24394 46.8962 9.44909C46.7746 9.68598 46.8297 9.85422 47.0195 10.0258C47.4227 10.388 47.7944 10.7485 48.2981 11.248C47.8541 11.2939 47.5446 11.3402 47.2585 11.383C46.9249 11.4329 46.6232 11.4781 46.1773 11.5123C45.3491 11.5758 43.8308 11.5638 43.4049 10.8257L43.3629 10.7533C43.0737 10.2538 42.8685 9.89928 42.3852 9.54869C41.5412 8.93589 40.1768 8.9402 39.0373 9.51688C38.5221 9.77438 37.9799 10.2893 37.8916 10.8901C37.8522 11.1604 37.7577 11.3836 37.4473 11.4617C32.7246 12.652 27.1911 13.2082 22.5419 12.6975C21.3577 12.5671 20.1805 12.3757 19.0628 11.9465C18.0632 11.5647 17.6119 10.8867 17.6303 9.82673C17.6589 8.14544 17.6473 6.46414 17.6357 4.78285C17.6339 4.51167 17.632 4.24048 17.6303 3.96929C17.6352 3.91852 17.6295 3.8673 17.6138 3.81871C17.5979 3.77012 17.5722 3.72519 17.5383 3.68661C17.5043 3.64803 17.4627 3.61662 17.4159 3.59425C17.3692 3.57188 17.3183 3.55904 17.2664 3.55648C17.1134 3.54361 16.9079 3.90922 16.9079 3.90922ZM42.4437 12.0178L38.5816 11.9723C38.5816 11.9723 38.8676 10.4747 40.4392 10.4163C42.7008 10.3366 42.4437 12.0178 42.4437 12.0178ZM48.0629 4.63957L48.0296 4.60695C47.9213 4.50046 47.7926 4.41597 47.6509 4.35832C47.5092 4.30068 47.3574 4.27101 47.2041 4.27101C47.0507 4.27101 46.8988 4.30068 46.7571 4.35832C46.6155 4.41597 46.4868 4.50046 46.3784 4.60695C46.27 4.71327 46.184 4.83951 46.1254 4.97845C46.0668 5.11739 46.0365 5.26631 46.0365 5.4167C46.0365 5.56709 46.0668 5.71601 46.1254 5.85495C46.184 5.99388 46.27 6.12012 46.3784 6.22644L46.4125 6.25991C47.072 6.90699 47.8119 6.50622 48.0629 6.25991C48.1714 6.15358 48.2575 6.02729 48.3162 5.88827C48.375 5.74926 48.4052 5.60023 48.4052 5.44974C48.4052 5.29925 48.375 5.15023 48.3162 5.01121C48.2575 4.87219 48.1714 4.7459 48.0629 4.63957ZM14.1398 7.9069C13.9946 7.9069 13.7839 8.05274 13.7087 8.1901C13.585 8.42123 13.4796 8.66097 13.3742 8.90077C13.2834 9.10705 13.1927 9.31352 13.0903 9.51436C12.9714 9.74694 13.0256 9.8851 13.1953 10.0696C13.2495 10.1291 13.3039 10.1885 13.3584 10.2479C13.7592 10.6852 14.163 11.1257 14.4941 11.6144C14.9436 12.2753 14.8832 12.9799 14.3095 13.5335C13.8729 13.9611 13.368 14.3159 12.8148 14.5839C12.3154 14.8165 11.7902 14.9946 11.2643 15.1729C10.9558 15.2775 10.6472 15.3821 10.3433 15.498C10.2296 15.5408 10.0521 15.6859 10.0372 15.7812C9.98997 16.0798 10.1588 16.1682 10.2724 16.2162C10.9695 16.5134 11.675 16.7933 12.3968 17.0796C12.6548 17.1819 12.9153 17.2853 13.1778 17.3903C13.281 17.2375 13.3847 17.0881 13.4873 16.9403C13.7041 16.6281 13.9161 16.3228 14.1083 16.006C15.6397 13.4854 15.9765 10.8884 14.5702 8.20296C14.4966 8.06222 14.2894 7.90941 14.1398 7.9069ZM42.9396 5.0807C43.0016 4.93252 43.0932 4.798 43.209 4.68506L43.2439 4.64901C43.3588 4.53628 43.4952 4.44686 43.6452 4.38585C43.7953 4.32485 43.9561 4.29344 44.1185 4.29344C44.2809 4.29344 44.4418 4.32485 44.5919 4.38585C44.7419 4.44686 44.8783 4.53628 44.9931 4.64901C45.2598 4.91163 45.6927 5.67889 44.9931 6.36547L44.9572 6.40067C44.8836 6.47293 44.8006 6.53554 44.7106 6.5869L42.9396 5.0807ZM11.6034 3.93928C11.6194 3.98797 11.6251 4.03936 11.6202 4.0903C11.6272 5.48836 11.6281 10.3494 11.6062 11.3818C11.5936 11.9089 11.4613 12.434 11.3284 12.9614C11.2678 13.2018 11.2071 13.4427 11.1576 13.6845H10.5156C10.5015 13.4112 10.487 13.1403 10.4725 12.8706C10.4503 12.4552 10.4282 12.0429 10.408 11.6307C10.3538 10.5236 10.3005 9.41709 10.248 8.3111C10.2184 7.72726 10.1919 7.14348 10.1653 6.55965C10.1565 6.36505 10.1476 6.17044 10.1387 5.97584C10.1346 5.76923 10.1763 5.56423 10.2611 5.37508C10.4579 4.92107 10.8952 4.03022 10.8952 4.03022C10.8952 4.03022 11.0972 3.66548 11.2538 3.67835C11.3059 3.68046 11.357 3.69295 11.404 3.71507C11.451 3.7372 11.4929 3.76849 11.5272 3.80703C11.5615 3.84558 11.5874 3.89057 11.6034 3.93928Z" fill="black"/>
</g>
</g>
</g>
</g>
</g>
</g>
</g>
<defs>
<linearGradient id="paint0_linear_1251_35677" x1="1.42834" y1="16.7523" x2="46.0247" y2="-15.2248" gradientUnits="userSpaceOnUse">
<stop offset="0.01" stop-color="#AAE1FF"/>
<stop offset="0.427083" stop-color="#F9BD9A"/>
<stop offset="0.51" stop-color="#FFBC8C"/>
<stop offset="0.640625" stop-color="#FFBE92"/>
<stop offset="0.75" stop-color="#F8BC8B"/>
<stop offset="0.88" stop-color="#F29F7E"/>
<stop offset="1" stop-color="#F0826B"/>
</linearGradient>
<linearGradient id="paint1_linear_1251_35677" x1="31.0542" y1="7.90236" x2="6.81288" y2="40.5535" gradientUnits="userSpaceOnUse">
<stop stop-color="white" stop-opacity="0"/>
<stop offset="0.463182" stop-color="#CAEDFF"/>
<stop offset="1" stop-color="#98D6F7" stop-opacity="0"/>
</linearGradient>
<linearGradient id="paint2_linear_1251_35677" x1="13.3205" y1="0.669574" x2="22.2216" y2="29.6574" gradientUnits="userSpaceOnUse">
<stop offset="0.01" stop-color="#FFE08B"/>
<stop offset="0.130208" stop-color="#FFE294" stop-opacity="0.590397"/>
<stop offset="0.303475" stop-color="#FFD972" stop-opacity="0"/>
</linearGradient>
<radialGradient id="paint3_radial_1251_35677" cx="0" cy="0" r="1" gradientUnits="userSpaceOnUse" gradientTransform="translate(25.2084 9.51053) rotate(90) scale(7.37723 10.5531)">
<stop stop-color="#F8B483" stop-opacity="0.57"/>
<stop offset="1" stop-color="#F8B483" stop-opacity="0"/>
</radialGradient>
<radialGradient id="paint4_radial_1251_35677" cx="0" cy="0" r="1" gradientUnits="userSpaceOnUse" gradientTransform="translate(36.5153 15.2816) rotate(90) scale(9.35629 19.7909)">
<stop stop-color="#EB84A4"/>
<stop offset="0.755208" stop-color="#EB84A4" stop-opacity="0"/>
</radialGradient>
<radialGradient id="paint5_radial_1251_35677" cx="0" cy="0" r="1" gradientUnits="userSpaceOnUse" gradientTransform="translate(47.9435 24.2929) rotate(117.198) scale(5.79789 12.1791)">
<stop stop-color="#EB84A4"/>
<stop offset="0.755208" stop-color="#EB84A4" stop-opacity="0"/>
</radialGradient>
<linearGradient id="paint6_linear_1251_35677" x1="26.4252" y1="9.74092" x2="45.6195" y2="29.1784" gradientUnits="userSpaceOnUse">
<stop offset="0.326812" stop-color="#EB84A4" stop-opacity="0"/>
<stop offset="1" stop-color="#9881BB"/>
</linearGradient>
</defs>
</svg>
