<svg width="315" height="354" viewBox="0 0 315 354" fill="none" xmlns="http://www.w3.org/2000/svg">
<path opacity="0.5" d="M50.4189 252.651C63.7908 252.651 76.6151 257.974 86.0705 267.449C95.5259 276.924 100.838 289.776 100.838 303.176C100.838 316.576 95.5259 329.427 86.0705 338.903C76.6151 348.378 63.7908 353.701 50.4189 353.701C37.047 353.701 24.2228 348.378 14.7674 338.903C5.31203 329.427 0 316.576 0 303.176C0 289.776 5.31203 276.924 14.7674 267.449C24.2228 257.974 37.047 252.651 50.4189 252.651ZM50.4189 126.325C63.7908 126.325 76.6151 131.648 86.0705 141.124C95.5259 150.599 100.838 163.45 100.838 176.85C100.838 190.25 95.5259 203.102 86.0705 212.577C76.6151 222.052 63.7908 227.375 50.4189 227.375C43.7978 227.375 37.2415 226.069 31.1244 223.529C25.0073 220.99 19.4492 217.269 14.7674 212.577C10.0856 207.885 6.37163 202.315 3.83784 196.185C1.30406 190.055 0 183.485 0 176.85C0 170.215 1.30406 163.645 3.83784 157.515C6.37163 151.385 10.0856 145.815 14.7674 141.124C19.4492 136.432 25.0073 132.71 31.1244 130.171C37.2415 127.632 43.7978 126.325 50.4189 126.325ZM151.257 189.484C164.631 189.484 177.457 194.808 186.914 204.285C196.371 213.762 201.684 226.615 201.684 240.017C201.684 253.42 196.371 266.273 186.914 275.75C177.457 285.227 164.631 290.551 151.257 290.551C137.883 290.551 125.056 285.227 115.599 275.75C106.142 266.273 100.829 253.42 100.829 240.017C100.829 226.615 106.142 213.762 115.599 204.285C125.056 194.808 137.883 189.484 151.257 189.484ZM151.257 63.1666C157.933 63.0797 164.561 64.3226 170.755 66.8229C176.948 69.3233 182.584 73.0314 187.337 77.7321C192.089 82.4328 195.862 88.0325 198.437 94.2062C201.013 100.38 202.339 107.005 202.339 113.696C202.339 120.387 201.013 127.012 198.437 133.186C195.862 139.359 192.089 144.959 187.337 149.66C182.584 154.361 176.948 158.069 170.755 160.569C164.561 163.069 157.933 164.312 151.257 164.225C137.997 164.053 125.339 158.653 116.023 149.196C106.707 139.739 101.484 126.985 101.484 113.696C101.484 100.407 106.707 87.6533 116.023 78.1959C125.339 68.7386 137.997 63.3391 151.257 63.1666ZM50.4189 -0.000488281C63.7908 -0.000487999 76.6151 5.32268 86.0705 14.798C95.5259 24.2733 100.838 37.1246 100.838 50.5247C100.838 63.9248 95.5259 76.776 86.0705 86.2513C76.6151 95.7266 63.7908 101.05 50.4189 101.05C43.7978 101.05 37.2415 99.7429 31.1244 97.2038C25.0073 94.6647 19.4492 90.943 14.7674 86.2513C10.0856 81.5596 6.37163 75.9898 3.83784 69.8598C1.30406 63.7298 0 57.1597 0 50.5247C0 43.8896 1.30406 37.3195 3.83784 31.1895C6.37163 25.0595 10.0856 19.4897 14.7674 14.798C19.4492 10.1063 25.0073 6.38463 31.1244 3.84551C37.2415 1.30638 43.7978 -0.00048838 50.4189 -0.000488281ZM263.198 126.334C269.874 126.247 276.502 127.49 282.696 129.99C288.889 132.49 294.526 136.198 299.278 140.899C304.03 145.6 307.803 151.2 310.378 157.373C312.954 163.547 314.28 170.172 314.28 176.863C314.28 183.554 312.954 190.179 310.378 196.353C307.803 202.526 304.03 208.126 299.278 212.827C294.526 217.528 288.889 221.236 282.696 223.736C276.502 226.236 269.874 227.479 263.198 227.392C228.69 227.392 210.783 192.353 189.077 176.859C210.783 161.348 228.69 126.334 263.198 126.334Z" fill="#F4F4F5"/>
</svg>
