<svg width="41" height="14" viewBox="0 0 41 14" fill="none" xmlns="http://www.w3.org/2000/svg">
<g id="Visa">
<path id="path3789" d="M26.5535 0C23.7133 0 21.1752 1.5902 21.1752 4.52822C21.1752 7.89757 25.6766 8.13029 25.6766 9.82296C25.6766 10.5357 24.9205 11.1737 23.6291 11.1737C21.7963 11.1737 20.4265 10.2822 20.4265 10.2822L19.8404 13.247C19.8404 13.247 21.4184 14 23.5134 14C26.6186 14 29.062 12.3317 29.062 9.34346C29.062 5.78313 24.5419 5.55733 24.5419 3.98625C24.5419 3.42794 25.1626 2.81621 26.4503 2.81621C27.9032 2.81621 29.0886 3.46454 29.0886 3.46454L29.6622 0.601061C29.6622 0.601061 28.3724 0 26.5535 0ZM0.568771 0.216112L0.5 0.648336C0.5 0.648336 1.69486 0.884557 2.77102 1.35576C4.15667 1.8961 4.25538 2.21066 4.48875 3.18765L7.03173 13.7771H10.4406L15.6922 0.216112H12.2912L8.91669 9.43632L7.5397 1.62084C7.41342 0.726364 6.77376 0.216112 5.99078 0.216112H0.568771ZM17.0599 0.216112L14.3918 13.7771H17.635L20.2937 0.216112H17.0599ZM35.1483 0.216112C34.3663 0.216112 33.9519 0.668398 33.6479 1.45876L28.8964 13.7771H32.2974L32.9555 11.7241H37.0989L37.4991 13.7771H40.5L37.882 0.216112H35.1483ZM35.5907 3.87988L36.5988 8.96864H33.8979L35.5907 3.87988Z" fill="#1434CB"/>
</g>
</svg>
