<svg width="254" height="409" viewBox="0 0 254 409" fill="none" xmlns="http://www.w3.org/2000/svg">
<mask id="mask0_1251_33642" style="mask-type:alpha" maskUnits="userSpaceOnUse" x="0" y="0" width="254" height="409">
<path d="M0.75 0.288574H253.25V387.25C253.25 398.848 243.848 408.25 232.25 408.25H0.75V0.288574Z" fill="#D9D9D9"/>
</mask>
<g mask="url(#mask0_1251_33642)">
<path d="M188.567 93.6172C188.567 57.9255 217.497 28.9954 253.189 28.9954C288.881 28.9954 317.811 57.9255 317.811 93.6172C317.811 129.309 288.881 158.239 253.189 158.239H191.152C189.726 158.239 188.567 157.08 188.567 155.654V93.6172Z" fill="#6639C6" fill-opacity="0.14"/>
<path d="M59.3223 223.502C59.3223 187.81 88.2524 158.88 123.944 158.88H185.981C187.407 158.88 188.566 160.039 188.566 161.465V223.502C188.566 259.194 159.636 288.124 123.944 288.124H61.9069C60.4809 288.124 59.3223 286.965 59.3223 285.539V223.502Z" fill="#6639C6" fill-opacity="0.14"/>
<path d="M188.567 352.747C188.567 317.055 217.497 288.125 253.189 288.125H315.226C316.652 288.125 317.811 289.284 317.811 290.71V352.747C317.811 388.439 288.881 417.369 253.189 417.369C217.497 417.369 188.567 388.439 188.567 352.747Z" fill="#6639C6" fill-opacity="0.14"/>
<path d="M280.193 280.276C312.617 265.363 326.812 226.988 311.899 194.563C296.985 162.139 258.61 147.944 226.186 162.857C193.762 177.771 179.566 216.146 194.48 248.57C209.393 280.994 247.768 295.19 280.193 280.276Z" fill="#6639C6" fill-opacity="0.14"/>
<path d="M152.963 409.203C184.85 393.172 197.704 354.328 181.673 322.441C165.643 290.554 126.798 277.7 94.9112 293.73C63.0243 309.761 50.1701 348.605 66.2005 380.492C82.231 412.379 121.076 425.233 152.963 409.203Z" fill="#6639C6" fill-opacity="0.3"/>
<path d="M169.637 137.374C194.874 112.138 194.874 71.2217 169.637 45.9853C144.401 20.7489 103.485 20.7489 78.2483 45.9853C53.0119 71.2217 53.0119 112.138 78.2483 137.374C103.485 162.611 144.401 162.611 169.637 137.374Z" fill="#6639C6" fill-opacity="0.14"/>
<path d="M171.771 284.811C171.771 284.811 171.771 284.764 171.771 284.74C171.771 284.568 171.771 284.395 171.771 284.217C171.771 284.193 171.771 284.168 171.771 284.14C171.771 283.516 171.771 282.886 171.842 282.262C171.842 282.239 171.844 282.213 171.848 282.185C171.907 281.674 172.002 281.169 172.109 280.664C172.121 280.593 172.139 280.527 172.151 280.456C172.264 279.921 172.43 279.404 172.602 278.887C172.61 278.86 172.618 278.834 172.626 278.81C173.292 276.826 174.302 275.002 175.656 273.391C175.668 273.374 175.686 273.356 175.698 273.338C176.06 272.91 176.441 272.5 176.839 272.102C176.859 272.082 176.88 272.06 176.904 272.037C177.053 271.888 177.201 271.751 177.362 271.621C177.403 271.585 177.439 271.549 177.48 271.52C178.348 270.759 179.287 270.094 180.297 269.529C180.374 269.488 180.451 269.44 180.535 269.393C183.594 267.658 187.385 266.992 192.216 267.747C192.252 267.755 192.287 267.763 192.323 267.771C194.616 268.252 196.85 269.339 198.704 270.753C198.722 270.771 198.746 270.783 198.764 270.801C199.162 271.11 199.548 271.431 199.916 271.769C200 271.847 200.089 271.924 200.172 272.001C200.457 272.256 200.742 272.53 200.992 272.827C201.063 272.91 201.134 272.987 201.206 273.065C201.384 273.261 201.544 273.463 201.705 273.671C201.752 273.73 201.794 273.784 201.841 273.843C203.285 275.643 204.307 277.794 204.872 280.028C204.884 280.082 204.901 280.135 204.913 280.189C205.044 280.7 205.139 281.223 205.216 281.745C205.228 281.811 205.234 281.882 205.246 281.947C205.353 282.66 205.371 283.373 205.371 284.092C205.371 284.134 205.371 284.176 205.371 284.223C205.371 284.978 205.329 285.726 205.234 286.475C205.23 286.519 205.224 286.562 205.216 286.606C205.163 287.01 205.074 287.408 204.979 287.806C204.961 287.889 204.943 287.966 204.925 288.05C204.693 289.131 204.283 290.177 203.82 291.175C203.804 291.21 203.788 291.246 203.772 291.282C203.38 292.126 202.923 292.934 202.418 293.712C202.406 293.73 202.394 293.754 202.376 293.777C202.305 293.89 202.228 294.003 202.15 294.116C202.133 294.14 202.121 294.164 202.103 294.187C201.723 294.74 201.33 295.281 200.909 295.803C200.831 295.898 200.754 295.999 200.677 296.095C200.481 296.344 200.273 296.588 200.065 296.825C200.011 296.885 199.964 296.944 199.91 297.004C199.714 297.235 199.518 297.455 199.31 297.675C199.215 297.776 199.12 297.877 199.031 297.984C198.912 298.121 198.787 298.257 198.657 298.394C198.633 298.418 198.609 298.442 198.585 298.465C198.413 298.644 198.241 298.822 198.062 298.994C197.973 299.083 197.884 299.178 197.801 299.273C197.635 299.464 197.456 299.636 197.278 299.814C197.219 299.873 197.159 299.933 197.1 299.992C196.928 300.165 196.755 300.331 196.571 300.491C196.399 300.646 196.244 300.806 196.084 300.973C195.807 301.254 195.599 301.454 195.46 301.573C195.353 301.668 195.252 301.775 195.151 301.876C195.008 302.018 194.866 302.161 194.705 302.292C194.569 302.411 194.444 302.541 194.319 302.672C194.218 302.779 194.111 302.874 193.998 302.969C193.838 303.106 193.689 303.254 193.541 303.409C193.487 303.462 193.434 303.516 193.38 303.575C193.357 303.599 193.333 303.623 193.309 303.646C193.244 303.712 193.172 303.771 193.101 303.831C192.923 303.985 192.757 304.151 192.59 304.318C192.555 304.354 192.519 304.389 192.489 304.419C192.418 304.49 192.347 304.561 192.275 304.633C192.186 304.722 192.091 304.817 192.002 304.906C191.931 304.977 191.859 305.049 191.788 305.12C191.752 305.156 191.723 305.185 191.687 305.221C191.515 305.393 191.348 305.56 191.194 305.744C191.129 305.821 191.051 305.892 190.98 305.964C190.861 306.083 190.748 306.201 190.641 306.326C190.576 306.397 190.511 306.469 190.445 306.54C190.285 306.712 190.13 306.891 189.982 307.075C189.911 307.164 189.833 307.247 189.756 307.33C189.607 307.491 189.477 307.657 189.34 307.829C189.322 307.853 189.304 307.871 189.287 307.895C189.055 308.192 188.823 308.489 188.603 308.798C188.461 308.75 188.401 308.643 188.324 308.525C188.146 308.269 187.95 308.025 187.754 307.788C187.688 307.705 187.617 307.621 187.552 307.538C187.29 307.217 187.023 306.908 186.744 306.605C186.684 306.54 186.619 306.469 186.559 306.397C186.298 306.094 186.025 305.803 185.739 305.53C185.68 305.465 185.621 305.405 185.561 305.334C185.425 305.179 185.282 305.037 185.139 304.888C185.112 304.861 185.084 304.833 185.056 304.805C184.997 304.746 184.943 304.692 184.884 304.633C184.795 304.544 184.712 304.46 184.622 304.371C184.569 304.318 184.509 304.258 184.456 304.205C184.432 304.181 184.403 304.151 184.379 304.128C184.242 303.991 184.1 303.86 183.951 303.736C183.868 303.664 183.797 303.593 183.719 303.516C183.69 303.486 183.66 303.456 183.63 303.427C183.571 303.367 183.511 303.302 183.446 303.242C183.297 303.088 183.143 302.945 182.982 302.803C182.876 302.708 182.769 302.601 182.668 302.5C182.545 302.373 182.416 302.25 182.281 302.131C182.121 302.001 181.978 301.846 181.836 301.698C181.735 301.591 181.628 301.496 181.515 301.4C181.325 301.24 181.152 301.056 180.98 300.878C180.956 300.848 180.927 300.824 180.897 300.794C180.873 300.771 180.849 300.747 180.826 300.723C180.76 300.658 180.689 300.598 180.618 300.533C180.457 300.39 180.309 300.242 180.154 300.093C180.125 300.064 180.095 300.034 180.065 300.004C179.988 299.927 179.911 299.85 179.833 299.772C179.786 299.725 179.738 299.677 179.691 299.63C179.602 299.541 179.507 299.446 179.417 299.357C179.388 299.327 179.364 299.303 179.334 299.273C179.192 299.131 179.055 298.988 178.924 298.834C178.835 298.733 178.734 298.638 178.639 298.543C178.497 298.406 178.36 298.263 178.229 298.109C178.128 297.996 178.021 297.883 177.92 297.776C177.754 297.604 177.593 297.425 177.433 297.241C177.433 297.241 177.417 297.221 177.385 297.182C177.284 297.063 177.183 296.95 177.088 296.831C177.053 296.79 177.023 296.754 176.987 296.712C176.785 296.475 176.583 296.231 176.393 295.988C176.328 295.91 176.268 295.827 176.203 295.75C175.579 294.983 175.009 294.175 174.492 293.332C174.476 293.304 174.458 293.276 174.438 293.248C173.684 292.001 173.036 290.7 172.579 289.315C172.561 289.256 172.537 289.196 172.519 289.143C172.145 288.038 171.931 286.885 171.818 285.726C171.818 285.673 171.806 285.625 171.8 285.572C171.776 285.316 171.771 285.061 171.771 284.799V284.811Z" fill="#6639C6" fill-opacity="0.14"/>
<path d="M42.5264 154.925C42.5264 154.925 42.5264 154.877 42.5264 154.854C42.5264 154.681 42.5264 154.509 42.5264 154.331C42.5264 154.307 42.5264 154.281 42.5264 154.254C42.5264 153.63 42.5264 153 42.5977 152.376C42.5977 152.352 42.5997 152.326 42.6037 152.299C42.6631 151.788 42.7582 151.283 42.8651 150.778C42.877 150.706 42.8948 150.641 42.9067 150.57C43.0196 150.035 43.186 149.518 43.3583 149.001C43.3662 148.973 43.3741 148.948 43.3821 148.924C44.0475 146.939 45.0576 145.115 46.4123 143.511C46.4242 143.493 46.442 143.475 46.4539 143.458C46.8163 143.03 47.1966 142.62 47.5947 142.222C47.6145 142.202 47.6363 142.18 47.6601 142.156C47.8086 142.008 47.9572 141.871 48.1176 141.74C48.1592 141.705 48.1948 141.669 48.2364 141.639C49.1039 140.879 50.0427 140.213 51.0528 139.649C51.13 139.607 51.2073 139.56 51.2904 139.512C54.3504 137.777 58.1412 137.112 62.9718 137.866C63.0075 137.874 63.0431 137.882 63.0788 137.89C65.3723 138.371 67.6063 139.459 69.4601 140.873C69.478 140.891 69.5017 140.903 69.5196 140.92C69.9176 141.229 70.3039 141.55 70.6722 141.889C70.7554 141.966 70.8446 142.043 70.9277 142.121C71.2129 142.376 71.4981 142.649 71.7477 142.947C71.819 143.03 71.8903 143.107 71.9616 143.184C72.1398 143.38 72.3003 143.582 72.4607 143.79C72.5082 143.85 72.5498 143.909 72.5974 143.963C74.0412 145.763 75.0632 147.914 75.6276 150.148C75.6395 150.201 75.6573 150.255 75.6692 150.308C75.7999 150.819 75.895 151.342 75.9722 151.865C75.9841 151.93 75.9901 152.002 76.0019 152.067C76.1089 152.78 76.1267 153.493 76.1267 154.212C76.1267 154.254 76.1267 154.295 76.1267 154.343C76.1267 155.097 76.0851 155.846 75.9901 156.595C75.9861 156.638 75.9802 156.682 75.9722 156.725C75.9188 157.129 75.8296 157.527 75.7346 157.926C75.7167 158.009 75.6989 158.086 75.6811 158.169C75.4494 159.251 75.0394 160.296 74.5759 161.294C74.5601 161.33 74.5442 161.366 74.5284 161.401C74.1363 162.245 73.6787 163.053 73.1737 163.832C73.1618 163.849 73.1499 163.873 73.1321 163.897C73.0608 164.01 72.9836 164.123 72.9063 164.236C72.8885 164.259 72.8766 164.283 72.8588 164.307C72.4785 164.859 72.0864 165.4 71.6645 165.923C71.5873 166.018 71.51 166.119 71.4328 166.214C71.2367 166.464 71.0287 166.707 70.8208 166.945C70.7673 167.004 70.7198 167.064 70.6663 167.123C70.4702 167.355 70.2742 167.575 70.0662 167.795C69.9711 167.896 69.8761 167.997 69.7869 168.104C69.6681 168.24 69.5433 168.377 69.4126 168.514C69.3888 168.537 69.3651 168.561 69.3413 168.585C69.169 168.763 68.9967 168.941 68.8184 169.114C68.7293 169.203 68.6402 169.298 68.557 169.393C68.3906 169.583 68.2124 169.755 68.0341 169.934C67.9747 169.993 67.9153 170.053 67.8559 170.112C67.6836 170.284 67.5113 170.451 67.3271 170.611C67.1548 170.766 67.0003 170.926 66.8399 171.092C66.5626 171.374 66.3546 171.574 66.216 171.692C66.109 171.787 66.008 171.894 65.907 171.995C65.7644 172.138 65.6218 172.281 65.4614 172.411C65.3247 172.53 65.1999 172.661 65.0752 172.792C64.9742 172.899 64.8672 172.994 64.7543 173.089C64.5939 173.225 64.4454 173.374 64.2968 173.528C64.2433 173.582 64.1899 173.635 64.1364 173.695C64.1126 173.719 64.0888 173.742 64.0651 173.766C63.9997 173.831 63.9284 173.891 63.8571 173.95C63.6789 174.105 63.5125 174.271 63.3461 174.437C63.3105 174.473 63.2748 174.509 63.2451 174.538C63.1738 174.61 63.1025 174.681 63.0312 174.752C62.9421 174.842 62.847 174.937 62.7579 175.026C62.6866 175.097 62.6153 175.168 62.544 175.24L62.443 175.341C62.2707 175.513 62.1043 175.679 61.9498 175.863C61.8845 175.941 61.8072 176.012 61.7359 176.083C61.6171 176.202 61.5042 176.321 61.3973 176.446C61.3319 176.517 61.2665 176.588 61.2012 176.66C61.0408 176.832 60.8863 177.01 60.7377 177.194C60.6664 177.284 60.5892 177.367 60.512 177.45C60.3634 177.61 60.2327 177.777 60.096 177.949C60.0782 177.973 60.0604 177.991 60.0426 178.014C59.8108 178.311 59.5791 178.609 59.3593 178.918C59.2167 178.87 59.1572 178.763 59.0741 178.644C58.8958 178.389 58.6997 178.145 58.5037 177.907C58.4383 177.824 58.367 177.741 58.3016 177.658C58.0402 177.337 57.7728 177.028 57.4936 176.725C57.4342 176.66 57.3688 176.588 57.3094 176.517C57.0479 176.214 56.7746 175.923 56.4894 175.65C56.43 175.584 56.3706 175.525 56.3112 175.454C56.1745 175.299 56.0319 175.156 55.8893 175.008C55.8616 174.98 55.8339 174.952 55.8061 174.925C55.7467 174.865 55.6932 174.812 55.6338 174.752C55.5447 174.663 55.4615 174.58 55.3724 174.491C55.3189 174.437 55.2595 174.378 55.206 174.325C55.1822 174.301 55.1525 174.271 55.1288 174.247C54.9921 174.111 54.8495 173.98 54.701 173.855C54.6178 173.784 54.5465 173.713 54.4693 173.635C54.4395 173.606 54.4098 173.576 54.3801 173.546C54.3207 173.487 54.2613 173.421 54.1959 173.362C54.0474 173.208 53.8929 173.065 53.7325 172.922C53.6255 172.827 53.5186 172.72 53.4176 172.619C53.2948 172.493 53.166 172.37 53.0314 172.251C52.8709 172.12 52.7283 171.966 52.5857 171.817C52.4847 171.71 52.3778 171.615 52.2649 171.52C52.0747 171.36 51.9024 171.175 51.7301 170.997C51.7064 170.968 51.6767 170.944 51.6469 170.914C51.6232 170.89 51.5994 170.867 51.5756 170.843C51.5103 170.777 51.439 170.718 51.3677 170.653C51.2073 170.51 51.0587 170.361 50.9042 170.213C50.8745 170.183 50.8448 170.154 50.8151 170.124C50.7379 170.047 50.6606 169.969 50.5834 169.892C50.5358 169.845 50.4883 169.797 50.4408 169.749C50.3517 169.66 50.2566 169.565 50.1675 169.476C50.1378 169.446 50.114 169.423 50.0843 169.393C49.9417 169.25 49.805 169.108 49.6743 168.953C49.5852 168.852 49.4842 168.757 49.3891 168.662C49.2465 168.526 49.1098 168.383 48.9791 168.228C48.8781 168.116 48.7712 168.003 48.6702 167.896C48.5038 167.723 48.3434 167.545 48.1829 167.361C48.1829 167.361 48.1671 167.341 48.1354 167.302C48.0344 167.183 47.9334 167.07 47.8383 166.951C47.8027 166.909 47.773 166.874 47.7373 166.832C47.5353 166.594 47.3333 166.351 47.1431 166.107C47.0778 166.03 47.0184 165.947 46.953 165.87C46.3291 165.103 45.7587 164.295 45.2418 163.451C45.226 163.424 45.2081 163.396 45.1883 163.368C44.4337 162.12 43.7861 160.819 43.3286 159.435C43.3108 159.375 43.287 159.316 43.2692 159.262C42.8948 158.157 42.6809 157.005 42.568 155.846C42.568 155.792 42.5562 155.745 42.5502 155.691C42.5264 155.436 42.5205 155.18 42.5205 154.919L42.5264 154.925Z" fill="#6639C6" fill-opacity="0.14"/>
</g>
</svg>
