<svg width="253" height="418" viewBox="0 0 253 418" fill="none" xmlns="http://www.w3.org/2000/svg">
<mask id="mask0_1251_33680" style="mask-type:alpha" maskUnits="userSpaceOnUse" x="0" y="0" width="253" height="418">
<path d="M0.0839844 0.249512H252.584V397.25C252.584 408.295 243.63 417.25 232.584 417.25H20.084C9.03829 417.25 0.0839844 408.295 0.0839844 397.25V0.249512Z" fill="#D9D9D9"/>
</mask>
<g mask="url(#mask0_1251_33680)">
<path d="M-73.5869 363.366C-73.5869 327.674 -44.6568 298.744 -8.96507 298.744H53.0721C54.4981 298.744 55.6568 299.903 55.6568 301.329V363.366C55.6568 399.057 26.7267 427.988 -8.96507 427.988C-44.6568 427.988 -73.5869 399.057 -73.5869 363.366Z" fill="#923262" fill-opacity="0.15"/>
<path d="M-73.5869 103.578C-73.5869 67.8926 -44.6568 38.9565 -8.96507 38.9565H53.0721C54.4981 38.9565 55.6568 40.1152 55.6568 41.5412V103.578C55.6568 139.27 26.7267 168.2 -8.96507 168.2C-44.6568 168.2 -73.5869 139.27 -73.5869 103.578Z" fill="#923262" fill-opacity="0.15"/>
<path d="M184.901 362.708C184.901 327.016 213.831 298.086 249.523 298.086H311.56C312.986 298.086 314.145 299.245 314.145 300.671V362.708C314.145 398.4 285.215 427.33 249.523 427.33C213.831 427.33 184.901 398.4 184.901 362.708Z" fill="#923262" fill-opacity="0.3"/>
<path d="M276.527 290.237C308.951 275.324 323.146 236.949 308.233 204.524C293.319 172.1 254.944 157.905 222.52 172.818C190.096 187.732 175.9 226.107 190.814 258.531C205.727 290.955 244.102 305.151 276.527 290.237Z" fill="#923262" fill-opacity="0.15"/>
<path d="M20.6033 288.996C52.3377 272.666 64.8252 233.702 48.495 201.968C32.1647 170.233 -6.79947 157.746 -38.5339 174.076C-70.2683 190.406 -82.7558 229.37 -66.4255 261.105C-50.0953 292.839 -11.1311 305.327 20.6033 288.996Z" fill="#923262" fill-opacity="0.15"/>
<path d="M168.104 294.772C168.104 294.772 168.104 294.725 168.104 294.701C168.104 294.529 168.104 294.356 168.104 294.178C168.104 294.154 168.104 294.129 168.104 294.101C168.104 293.477 168.105 292.847 168.176 292.223C168.176 292.2 168.178 292.174 168.182 292.146C168.241 291.635 168.336 291.13 168.443 290.625C168.455 290.554 168.473 290.488 168.485 290.417C168.598 289.882 168.764 289.365 168.936 288.848C168.944 288.821 168.952 288.795 168.96 288.771C169.626 286.787 170.636 284.963 171.99 283.352C172.002 283.335 172.02 283.317 172.032 283.299C172.394 282.871 172.775 282.461 173.173 282.063C173.193 282.043 173.214 282.021 173.238 281.998C173.387 281.849 173.535 281.713 173.696 281.582C173.737 281.546 173.773 281.51 173.814 281.481C174.682 280.72 175.621 280.055 176.631 279.49C176.708 279.449 176.785 279.401 176.868 279.354C179.928 277.619 183.719 276.953 188.55 277.708C188.586 277.716 188.621 277.724 188.657 277.732C190.95 278.213 193.184 279.3 195.038 280.714C195.056 280.732 195.08 280.744 195.098 280.762C195.496 281.071 195.882 281.392 196.25 281.73C196.333 281.808 196.423 281.885 196.506 281.962C196.791 282.218 197.076 282.491 197.326 282.788C197.397 282.871 197.468 282.948 197.54 283.026C197.718 283.222 197.878 283.424 198.039 283.632C198.086 283.691 198.128 283.745 198.175 283.804C199.619 285.604 200.641 287.755 201.206 289.989C201.218 290.043 201.235 290.096 201.247 290.15C201.378 290.661 201.473 291.184 201.55 291.706C201.562 291.772 201.568 291.843 201.58 291.908C201.687 292.621 201.705 293.334 201.705 294.053C201.705 294.095 201.705 294.137 201.705 294.184C201.705 294.939 201.663 295.687 201.568 296.436C201.564 296.48 201.558 296.523 201.55 296.567C201.497 296.971 201.408 297.369 201.313 297.767C201.295 297.85 201.277 297.927 201.259 298.011C201.027 299.092 200.617 300.138 200.154 301.136C200.138 301.172 200.122 301.207 200.106 301.243C199.714 302.087 199.257 302.895 198.752 303.673C198.74 303.691 198.728 303.715 198.71 303.738C198.639 303.851 198.562 303.964 198.484 304.077C198.467 304.101 198.455 304.125 198.437 304.148C198.057 304.701 197.664 305.242 197.243 305.764C197.165 305.86 197.088 305.961 197.011 306.056C196.815 306.305 196.607 306.549 196.399 306.786C196.345 306.846 196.298 306.905 196.244 306.965C196.048 307.196 195.852 307.416 195.644 307.636C195.549 307.737 195.454 307.838 195.365 307.945C195.246 308.082 195.121 308.218 194.991 308.355C194.967 308.379 194.943 308.403 194.919 308.426C194.747 308.605 194.575 308.783 194.396 308.955C194.307 309.044 194.218 309.139 194.135 309.234C193.969 309.425 193.79 309.597 193.612 309.775C193.553 309.835 193.493 309.894 193.434 309.953C193.262 310.126 193.089 310.292 192.905 310.452C192.733 310.607 192.578 310.767 192.418 310.934C192.141 311.215 191.933 311.415 191.794 311.534C191.687 311.629 191.586 311.736 191.485 311.837C191.342 311.979 191.2 312.122 191.039 312.253C190.903 312.372 190.778 312.502 190.653 312.633C190.552 312.74 190.445 312.835 190.332 312.93C190.172 313.067 190.023 313.215 189.875 313.37C189.821 313.423 189.768 313.477 189.714 313.536C189.691 313.56 189.667 313.584 189.643 313.608C189.578 313.673 189.506 313.732 189.435 313.792C189.257 313.946 189.091 314.113 188.924 314.279C188.889 314.315 188.853 314.35 188.823 314.38C188.752 314.451 188.681 314.523 188.609 314.594C188.52 314.683 188.425 314.778 188.336 314.867C188.265 314.938 188.193 315.01 188.122 315.081C188.086 315.117 188.057 315.146 188.021 315.182C187.849 315.354 187.682 315.521 187.528 315.705C187.463 315.782 187.385 315.853 187.314 315.925C187.195 316.044 187.082 316.162 186.975 316.287C186.91 316.359 186.845 316.43 186.779 316.501C186.619 316.673 186.464 316.852 186.316 317.036C186.244 317.125 186.167 317.208 186.09 317.291C185.941 317.452 185.811 317.618 185.674 317.79C185.656 317.814 185.638 317.832 185.621 317.856C185.389 318.153 185.157 318.45 184.937 318.759C184.795 318.711 184.735 318.604 184.658 318.486C184.48 318.23 184.284 317.987 184.088 317.749C184.022 317.666 183.951 317.582 183.886 317.499C183.624 317.178 183.357 316.87 183.078 316.566C183.018 316.501 182.953 316.43 182.893 316.359C182.632 316.055 182.359 315.764 182.073 315.491C182.014 315.426 181.955 315.366 181.895 315.295C181.759 315.14 181.616 314.998 181.473 314.849C181.446 314.822 181.418 314.794 181.39 314.766C181.331 314.707 181.277 314.653 181.218 314.594C181.129 314.505 181.045 314.422 180.956 314.332C180.903 314.279 180.843 314.22 180.79 314.166C180.766 314.142 180.737 314.113 180.713 314.089C180.576 313.952 180.434 313.821 180.285 313.697C180.202 313.625 180.13 313.554 180.053 313.477C180.024 313.447 179.994 313.417 179.964 313.388C179.905 313.328 179.845 313.263 179.78 313.203C179.631 313.049 179.477 312.906 179.316 312.764C179.21 312.669 179.103 312.562 179.002 312.461C178.879 312.334 178.75 312.211 178.615 312.092C178.455 311.962 178.312 311.807 178.17 311.659C178.069 311.552 177.962 311.457 177.849 311.362C177.659 311.201 177.486 311.017 177.314 310.839C177.29 310.809 177.261 310.785 177.231 310.756C177.207 310.732 177.183 310.708 177.16 310.684C177.094 310.619 177.023 310.559 176.952 310.494C176.791 310.351 176.643 310.203 176.488 310.054C176.459 310.025 176.429 309.995 176.399 309.965C176.322 309.888 176.245 309.811 176.167 309.734C176.12 309.686 176.072 309.638 176.025 309.591C175.936 309.502 175.841 309.407 175.751 309.318C175.722 309.288 175.698 309.264 175.668 309.234C175.526 309.092 175.389 308.949 175.258 308.795C175.169 308.694 175.068 308.599 174.973 308.504C174.83 308.367 174.694 308.224 174.563 308.07C174.462 307.957 174.355 307.844 174.254 307.737C174.088 307.565 173.927 307.387 173.767 307.202C173.767 307.202 173.751 307.183 173.719 307.143C173.618 307.024 173.517 306.911 173.422 306.792C173.387 306.751 173.357 306.715 173.321 306.674C173.119 306.436 172.917 306.192 172.727 305.949C172.662 305.871 172.602 305.788 172.537 305.711C171.913 304.945 171.343 304.136 170.826 303.293C170.81 303.265 170.792 303.237 170.772 303.21C170.018 301.962 169.37 300.661 168.913 299.276C168.895 299.217 168.871 299.157 168.853 299.104C168.479 297.999 168.265 296.846 168.152 295.687C168.152 295.634 168.14 295.586 168.134 295.533C168.11 295.277 168.104 295.022 168.104 294.76V294.772Z" fill="#923262" fill-opacity="0.15"/>
<path d="M38.8614 164.886C38.8614 164.886 38.8614 164.839 38.8614 164.815C38.8614 164.642 38.8614 164.47 38.8614 164.292C38.8614 164.268 38.8614 164.242 38.8614 164.215C38.8614 163.591 38.8614 162.961 38.9327 162.337C38.9327 162.313 38.9347 162.288 38.9387 162.26C38.9981 161.749 39.0931 161.244 39.2001 160.739C39.212 160.667 39.2298 160.602 39.2417 160.531C39.3546 159.996 39.5209 159.479 39.6932 158.962C39.7012 158.934 39.7091 158.909 39.717 158.885C40.3825 156.9 41.3926 155.076 42.7473 153.472C42.7592 153.454 42.777 153.436 42.7889 153.419C43.1513 152.991 43.5316 152.581 43.9297 152.183C43.9495 152.163 43.9713 152.141 43.995 152.117C44.1436 151.969 44.2921 151.832 44.4525 151.701C44.4941 151.666 44.5298 151.63 44.5714 151.6C45.4389 150.84 46.3777 150.174 47.3877 149.61C47.465 149.568 47.5422 149.521 47.6254 149.473C50.6854 147.738 54.4762 147.073 59.3068 147.827C59.3424 147.835 59.3781 147.843 59.4137 147.851C61.7072 148.332 63.9413 149.42 65.7951 150.834C65.8129 150.852 65.8367 150.864 65.8545 150.881C66.2526 151.19 66.6388 151.511 67.0072 151.85C67.0904 151.927 67.1795 152.004 67.2627 152.082C67.5479 152.337 67.8331 152.61 68.0826 152.908C68.1539 152.991 68.2252 153.068 68.2965 153.145C68.4748 153.341 68.6352 153.543 68.7957 153.751C68.8432 153.811 68.8848 153.87 68.9323 153.924C70.3761 155.724 71.3981 157.875 71.9626 160.109C71.9745 160.162 71.9923 160.216 72.0042 160.269C72.1349 160.78 72.2299 161.303 72.3072 161.826C72.3191 161.891 72.325 161.963 72.3369 162.028C72.4439 162.741 72.4617 163.454 72.4617 164.173C72.4617 164.215 72.4617 164.256 72.4617 164.304C72.4617 165.058 72.4201 165.807 72.325 166.556C72.3211 166.599 72.3151 166.643 72.3072 166.686C72.2537 167.09 72.1646 167.488 72.0695 167.887C72.0517 167.97 72.0339 168.047 72.0161 168.13C71.7843 169.212 71.3744 170.257 70.9109 171.256C70.8951 171.291 70.8792 171.327 70.8634 171.362C70.4712 172.206 70.0137 173.014 69.5087 173.793C69.4968 173.81 69.4849 173.834 69.4671 173.858C69.3958 173.971 69.3185 174.084 69.2413 174.197C69.2235 174.22 69.2116 174.244 69.1938 174.268C68.8135 174.821 68.4213 175.361 67.9995 175.884C67.9222 175.979 67.845 176.08 67.7677 176.175C67.5717 176.425 67.3637 176.668 67.1557 176.906C67.1023 176.965 67.0547 177.025 67.0013 177.084C66.8052 177.316 66.6091 177.536 66.4012 177.756C66.3061 177.857 66.211 177.958 66.1219 178.065C66.0031 178.201 65.8783 178.338 65.7476 178.475C65.7238 178.498 65.7 178.522 65.6763 178.546C65.504 178.724 65.3316 178.902 65.1534 179.075C65.0643 179.164 64.9751 179.259 64.892 179.354C64.7256 179.544 64.5473 179.716 64.3691 179.895C64.3097 179.954 64.2503 180.014 64.1908 180.073C64.0185 180.245 63.8462 180.412 63.662 180.572C63.4897 180.727 63.3352 180.887 63.1748 181.053C62.8975 181.335 62.6896 181.535 62.5509 181.653C62.444 181.749 62.343 181.855 62.242 181.957C62.0994 182.099 61.9568 182.242 61.7963 182.372C61.6597 182.491 61.5349 182.622 61.4101 182.753C61.3091 182.86 61.2022 182.955 61.0893 183.05C60.9289 183.186 60.7803 183.335 60.6318 183.489C60.5783 183.543 60.5248 183.596 60.4713 183.656C60.4476 183.68 60.4238 183.703 60.4 183.727C60.3347 183.792 60.2634 183.852 60.1921 183.911C60.0138 184.066 59.8475 184.232 59.6811 184.399C59.6454 184.434 59.6098 184.47 59.5801 184.5C59.5088 184.571 59.4375 184.642 59.3662 184.713C59.2771 184.803 59.182 184.898 59.0929 184.987C59.0216 185.058 58.9503 185.129 58.879 185.201L58.778 185.302C58.6057 185.474 58.4393 185.64 58.2848 185.825C58.2194 185.902 58.1422 185.973 58.0709 186.044C57.9521 186.163 57.8392 186.282 57.7322 186.407C57.6669 186.478 57.6015 186.549 57.5361 186.621C57.3757 186.793 57.2212 186.971 57.0727 187.155C57.0014 187.245 56.9242 187.328 56.8469 187.411C56.6984 187.571 56.5677 187.738 56.431 187.91C56.4132 187.934 56.3953 187.952 56.3775 187.975C56.1458 188.273 55.9141 188.57 55.6942 188.879C55.5516 188.831 55.4922 188.724 55.409 188.605C55.2308 188.35 55.0347 188.106 54.8386 187.868C54.7733 187.785 54.702 187.702 54.6366 187.619C54.3752 187.298 54.1078 186.989 53.8285 186.686C53.7691 186.621 53.7038 186.549 53.6443 186.478C53.3829 186.175 53.1096 185.884 52.8244 185.611C52.765 185.545 52.7055 185.486 52.6461 185.415C52.5095 185.26 52.3669 185.117 52.2243 184.969C52.1965 184.941 52.1688 184.913 52.1411 184.886C52.0817 184.826 52.0282 184.773 51.9688 184.713C51.8797 184.624 51.7965 184.541 51.7073 184.452C51.6539 184.399 51.5945 184.339 51.541 184.286C51.5172 184.262 51.4875 184.232 51.4637 184.208C51.3271 184.072 51.1845 183.941 51.0359 183.816C50.9528 183.745 50.8815 183.674 50.8042 183.596C50.7745 183.567 50.7448 183.537 50.7151 183.507C50.6557 183.448 50.5962 183.383 50.5309 183.323C50.3823 183.169 50.2279 183.026 50.0674 182.883C49.9605 182.788 49.8535 182.681 49.7525 182.58C49.6297 182.454 49.501 182.331 49.3663 182.212C49.2059 182.081 49.0633 181.927 48.9207 181.778C48.8197 181.671 48.7127 181.576 48.5998 181.481C48.4097 181.321 48.2374 181.137 48.0651 180.958C48.0413 180.929 48.0116 180.905 47.9819 180.875C47.9581 180.851 47.9344 180.828 47.9106 180.804C47.8452 180.738 47.7739 180.679 47.7026 180.614C47.5422 180.471 47.3937 180.323 47.2392 180.174C47.2095 180.144 47.1798 180.115 47.1501 180.085C47.0728 180.008 46.9956 179.93 46.9183 179.853C46.8708 179.806 46.8233 179.758 46.7757 179.711C46.6866 179.621 46.5915 179.526 46.5024 179.437C46.4727 179.408 46.4489 179.384 46.4192 179.354C46.2766 179.211 46.14 179.069 46.0093 178.914C45.9201 178.813 45.8191 178.718 45.7241 178.623C45.5815 178.487 45.4448 178.344 45.3141 178.189C45.2131 178.077 45.1061 177.964 45.0051 177.857C44.8387 177.684 44.6783 177.506 44.5179 177.322C44.5179 177.322 44.5021 177.302 44.4704 177.263C44.3694 177.144 44.2683 177.031 44.1733 176.912C44.1376 176.87 44.1079 176.835 44.0723 176.793C43.8703 176.556 43.6682 176.312 43.4781 176.068C43.4127 175.991 43.3533 175.908 43.288 175.831C42.6641 175.064 42.0937 174.256 41.5768 173.412C41.5609 173.385 41.5431 173.357 41.5233 173.329C40.7687 172.081 40.121 170.78 39.6635 169.396C39.6457 169.336 39.6219 169.277 39.6041 169.223C39.2298 168.118 39.0159 166.966 38.903 165.807C38.903 165.754 38.8911 165.706 38.8852 165.653C38.8614 165.397 38.8555 165.142 38.8555 164.88L38.8614 164.886Z" fill="#923262" fill-opacity="0.15"/>
</g>
</svg>
