<svg width="281" height="324" viewBox="0 0 281 324" fill="none" xmlns="http://www.w3.org/2000/svg">
<path d="M45.7357 231.696C57.6571 231.696 69.0902 236.557 77.5199 245.21C85.9496 253.863 90.6853 265.599 90.6853 277.836C90.6853 290.073 85.9496 301.808 77.5199 310.461C69.0902 319.114 57.6571 323.975 45.7357 323.975C33.8143 323.975 22.3813 319.114 13.9516 310.461C5.52192 301.808 0.786133 290.073 0.786133 277.836C0.786133 265.599 5.52192 253.863 13.9516 245.21C22.3813 236.557 33.8143 231.696 45.7357 231.696ZM45.7357 116.336C57.6571 116.336 69.0902 121.197 77.5199 129.85C85.9496 138.502 90.6853 150.238 90.6853 162.475C90.6853 174.712 85.9496 186.448 77.5199 195.101C69.0902 203.754 57.6571 208.615 45.7357 208.615C39.8328 208.615 33.9878 207.421 28.5342 205.102C23.0807 202.784 18.1256 199.385 13.9516 195.101C9.77765 190.816 6.46658 185.73 4.20766 180.132C1.94873 174.534 0.786133 168.534 0.786133 162.475C0.786133 156.416 1.94873 150.416 4.20766 144.818C6.46658 139.22 9.77765 134.134 13.9516 129.85C18.1256 125.565 23.0807 122.166 28.5342 119.848C33.9878 117.529 39.8328 116.336 45.7357 116.336ZM135.635 174.012C147.558 174.012 158.993 178.874 167.424 187.528C175.855 196.182 180.592 207.92 180.592 220.159C180.592 232.398 175.855 244.136 167.424 252.79C158.993 261.445 147.558 266.307 135.635 266.307C123.711 266.307 112.277 261.445 103.845 252.79C95.4143 244.136 90.6778 232.398 90.6778 220.159C90.6778 207.92 95.4143 196.182 103.845 187.528C112.277 178.874 123.711 174.012 135.635 174.012ZM135.635 58.6592C141.587 58.5799 147.496 59.7149 153.018 61.9982C158.539 64.2815 163.564 67.6678 167.801 71.9605C172.037 76.2532 175.401 81.3668 177.697 87.0046C179.993 92.6424 181.176 98.6921 181.176 104.803C181.176 110.913 179.993 116.963 177.697 122.601C175.401 128.238 172.037 133.352 167.801 137.645C163.564 141.937 158.539 145.324 153.018 147.607C147.496 149.89 141.587 151.025 135.635 150.946C123.814 150.789 112.528 145.858 104.223 137.221C95.918 128.585 91.2612 116.938 91.2612 104.803C91.2612 92.6674 95.918 81.0205 104.223 72.384C112.528 63.7476 123.814 58.8167 135.635 58.6592ZM45.7357 0.975098C57.6571 0.975098 69.0902 5.83621 77.5199 14.4891C85.9496 23.1419 90.6853 34.8777 90.6853 47.1146C90.6853 59.3516 85.9496 71.0874 77.5199 79.7402C69.0902 88.393 57.6571 93.2542 45.7357 93.2542C39.8328 93.2542 33.9878 92.0607 28.5342 89.742C23.0807 87.4233 18.1256 84.0247 13.9516 79.7402C9.77765 75.4557 6.46658 70.3694 4.20766 64.7715C1.94873 59.1736 0.786133 53.1738 0.786133 47.1146C0.786133 41.0555 1.94873 35.0557 4.20766 29.4578C6.46658 23.8599 9.77765 18.7735 13.9516 14.4891C18.1256 10.2046 23.0807 6.80599 28.5342 4.48726C33.9878 2.16853 39.8328 0.975098 45.7357 0.975098ZM235.433 116.343C241.385 116.264 247.294 117.399 252.816 119.682C258.337 121.966 263.362 125.352 267.599 129.645C271.835 133.937 275.199 139.051 277.495 144.689C279.791 150.327 280.973 156.376 280.973 162.487C280.973 168.597 279.791 174.647 277.495 180.285C275.199 185.923 271.835 191.036 267.599 195.329C263.362 199.622 258.337 203.008 252.816 205.291C247.294 207.575 241.385 208.71 235.433 208.63C204.669 208.63 188.703 176.632 169.353 162.483C188.703 148.318 204.669 116.343 235.433 116.343Z" fill="#F4F4F5" fill-opacity="0.5"/>
</svg>
