<svg width="134" height="46" viewBox="0 0 134 46" fill="none" xmlns="http://www.w3.org/2000/svg">
<path d="M19.0581 36.5533H12.0788C3.31671 36.5533 0.282227 32.5706 0.282227 26.6913C0.282227 24.3016 0.813261 21.3809 2.06499 18.8395L6.16154 20.2809C5.47878 22.1775 5.09947 23.7326 5.09947 25.2499C5.09947 28.5878 7.26154 30.1809 12.5719 30.1809H19.0202C24.634 30.1809 26.9477 29.0051 26.9477 26.3878C26.9477 24.0361 26.1891 21.5706 25.5064 18.8775L30.1719 17.5499C31.0064 20.0533 31.7271 23.1637 31.7271 26.0464C31.7271 32.3051 28.5788 36.5533 19.0581 36.5533ZM15.6822 44.0637C14.0891 44.0637 13.065 42.8878 13.065 41.4844C13.065 40.0809 14.0891 38.9051 15.6822 38.9051C17.2374 38.9051 18.2995 40.0809 18.2995 41.4844C18.2995 42.8878 17.2374 44.0637 15.6822 44.0637Z" fill="#6639C6"/>
<path d="M19.0581 36.5533H12.0788C3.31671 36.5533 0.282227 32.5706 0.282227 26.6913C0.282227 24.3016 0.813261 21.3809 2.06499 18.8395L6.16154 20.2809C5.47878 22.1775 5.09947 23.7326 5.09947 25.2499C5.09947 28.5878 7.26154 30.1809 12.5719 30.1809H19.0202C24.634 30.1809 26.9477 29.0051 26.9477 26.3878C26.9477 24.0361 26.1891 21.5706 25.5064 18.8775L30.1719 17.5499C31.0064 20.0533 31.7271 23.1637 31.7271 26.0464C31.7271 32.3051 28.5788 36.5533 19.0581 36.5533ZM15.6822 44.0637C14.0891 44.0637 13.065 42.8878 13.065 41.4844C13.065 40.0809 14.0891 38.9051 15.6822 38.9051C17.2374 38.9051 18.2995 40.0809 18.2995 41.4844C18.2995 42.8878 17.2374 44.0637 15.6822 44.0637Z" fill="#6639C6"/>
<path d="M35.3904 28.8913V9.09126H40.4352V27.0326C40.4352 29.6119 41.8766 30.1809 44.0386 30.1809H44.2662L44.9111 30.2947L44.6455 36.4395L44.0007 36.5533H43.7731C38.5007 36.5533 35.3904 34.2395 35.3904 28.8913Z" fill="#6639C6"/>
<path d="M35.3904 28.8913V9.09126H40.4352V27.0326C40.4352 29.6119 41.8766 30.1809 44.0386 30.1809H44.2662L44.9111 30.2947L44.6455 36.4395L44.0007 36.5533H43.7731C38.5007 36.5533 35.3904 34.2395 35.3904 28.8913Z" fill="#6639C6"/>
<path d="M50.6022 18.9154C49.0091 18.9154 47.985 17.7775 47.985 16.3361C47.985 14.9326 49.0091 13.7568 50.6022 13.7568C52.1574 13.7568 53.2194 14.9326 53.2194 16.3361C53.2194 17.7775 52.1574 18.9154 50.6022 18.9154ZM56.9746 30.1809L57.6194 30.2947L57.316 36.4395L56.6712 36.5533C53.2574 36.5533 51.0194 35.3016 50.0332 32.7223C49.2367 35.0361 47.3781 36.5533 43.9643 36.5533L43.3194 36.4395L43.6229 30.2947L44.2677 30.1809C47.1884 30.1809 48.2125 29.6499 48.2125 26.7671V21.2671H53.0298V26.5016C53.0298 29.6119 53.9022 30.1809 56.9746 30.1809Z" fill="#6639C6"/>
<path d="M50.6022 18.9154C49.0091 18.9154 47.985 17.7775 47.985 16.3361C47.985 14.9326 49.0091 13.7568 50.6022 13.7568C52.1574 13.7568 53.2194 14.9326 53.2194 16.3361C53.2194 17.7775 52.1574 18.9154 50.6022 18.9154ZM56.9746 30.1809L57.6194 30.2947L57.316 36.4395L56.6712 36.5533C53.2574 36.5533 51.0194 35.3016 50.0332 32.7223C49.2367 35.0361 47.3781 36.5533 43.9643 36.5533L43.3194 36.4395L43.6229 30.2947L44.2677 30.1809C47.1884 30.1809 48.2125 29.6499 48.2125 26.7671V21.2671H53.0298V26.5016C53.0298 29.6119 53.9022 30.1809 56.9746 30.1809Z" fill="#6639C6"/>
<path d="M56.0248 36.3637L56.3283 30.4464L56.9731 30.1809H64.0283L64.6731 30.3706L64.3697 36.3637L63.7628 36.5533H56.6697L56.0248 36.3637Z" fill="#6639C6"/>
<path d="M56.0248 36.3637L56.3283 30.4464L56.9731 30.1809H64.0283L64.6731 30.3706L64.3697 36.3637L63.7628 36.5533H56.6697L56.0248 36.3637Z" fill="#6639C6"/>
<path d="M75.2008 30.1809H83.5456V36.5533H63.7077L63.0628 36.4016L63.3284 30.3706L64.0111 30.1809H67.387C66.4387 29.1188 65.9456 27.7154 65.9456 25.9326C65.9456 21.6464 69.3594 17.3602 74.9732 17.3602C78.6146 17.3602 81.1939 19.4844 82.1421 20.9637L79.7904 25.4775C78.8042 24.7188 76.9456 23.6947 74.9352 23.6947C72.1663 23.6947 70.3077 25.174 70.3077 26.9947C70.3077 29.1947 72.6215 30.1809 75.2008 30.1809Z" fill="#6639C6"/>
<path d="M75.2008 30.1809H83.5456V36.5533H63.7077L63.0628 36.4016L63.3284 30.3706L64.0111 30.1809H67.387C66.4387 29.1188 65.9456 27.7154 65.9456 25.9326C65.9456 21.6464 69.3594 17.3602 74.9732 17.3602C78.6146 17.3602 81.1939 19.4844 82.1421 20.9637L79.7904 25.4775C78.8042 24.7188 76.9456 23.6947 74.9352 23.6947C72.1663 23.6947 70.3077 25.174 70.3077 26.9947C70.3077 29.1947 72.6215 30.1809 75.2008 30.1809Z" fill="#6639C6"/>
<path d="M90.409 12.4671H93.3677V15.2361H85.8573V12.6188H86.9573C86.7677 12.2395 86.6539 11.7844 86.6539 11.2154C86.6539 9.5085 87.8677 7.76367 90.0677 7.76367C91.2814 7.76367 92.3056 8.4085 92.8745 9.35678L91.8125 11.3671C91.3194 11.0257 90.7504 10.7223 90.0297 10.7223C89.2332 10.7223 88.3987 11.1016 88.3987 11.6706C88.3987 12.1637 89.0815 12.4671 90.409 12.4671ZM92.1918 36.5533H87.147V17.3223H92.1918V36.5533Z" fill="#6639C6"/>
<path d="M90.409 12.4671H93.3677V15.2361H85.8573V12.6188H86.9573C86.7677 12.2395 86.6539 11.7844 86.6539 11.2154C86.6539 9.5085 87.8677 7.76367 90.0677 7.76367C91.2814 7.76367 92.3056 8.4085 92.8745 9.35678L91.8125 11.3671C91.3194 11.0257 90.7504 10.7223 90.0297 10.7223C89.2332 10.7223 88.3987 11.1016 88.3987 11.6706C88.3987 12.1637 89.0815 12.4671 90.409 12.4671ZM92.1918 36.5533H87.147V17.3223H92.1918V36.5533Z" fill="#6639C6"/>
<path d="M108.056 29.7425C109.336 29.7425 110.564 30.2512 111.47 31.1565C112.375 32.0618 112.884 33.2897 112.884 34.5701C112.884 35.8504 112.375 37.0783 111.47 37.9836C110.564 38.889 109.336 39.3976 108.056 39.3976C106.776 39.3976 105.548 38.889 104.642 37.9836C103.737 37.0783 103.229 35.8504 103.229 34.5701C103.229 33.2897 103.737 32.0618 104.642 31.1565C105.548 30.2512 106.776 29.7425 108.056 29.7425ZM108.056 17.6725C109.336 17.6725 110.564 18.1812 111.47 19.0865C112.375 19.9918 112.884 21.2197 112.884 22.5001C112.884 23.7804 112.375 25.0083 111.47 25.9136C110.564 26.819 109.336 27.3276 108.056 27.3276C107.422 27.3276 106.794 27.2027 106.209 26.9601C105.623 26.7175 105.091 26.3619 104.642 25.9136C104.194 25.4653 103.839 24.9332 103.596 24.3475C103.353 23.7618 103.229 23.134 103.229 22.5001C103.229 21.8661 103.353 21.2383 103.596 20.6526C103.839 20.0669 104.194 19.5348 104.642 19.0865C105.091 18.6382 105.623 18.2826 106.209 18.04C106.794 17.7974 107.422 17.6725 108.056 17.6725ZM117.711 23.7071C118.992 23.7071 120.22 24.2158 121.125 25.1213C122.031 26.0268 122.539 27.2549 122.539 28.5355C122.539 29.816 122.031 31.0441 121.125 31.9496C120.22 32.8551 118.992 33.3638 117.711 33.3638C116.431 33.3638 115.202 32.8551 114.297 31.9496C113.391 31.0441 112.883 29.816 112.883 28.5355C112.883 27.2549 113.391 26.0268 114.297 25.1213C115.202 24.2158 116.431 23.7071 117.711 23.7071ZM117.711 11.6379C118.35 11.6296 118.985 11.7484 119.578 11.9873C120.171 12.2262 120.711 12.5805 121.166 13.0296C121.621 13.4788 121.982 14.0138 122.229 14.6037C122.475 15.1936 122.602 15.8265 122.602 16.4659C122.602 17.1052 122.475 17.7382 122.229 18.3281C121.982 18.9179 121.621 19.453 121.166 19.9021C120.711 20.3512 120.171 20.7055 119.578 20.9444C118.985 21.1833 118.35 21.3021 117.711 21.2938C116.441 21.2773 115.229 20.7614 114.337 19.8578C113.446 18.9542 112.945 17.7356 112.945 16.4659C112.945 15.1962 113.446 13.9776 114.337 13.074C115.229 12.1703 116.441 11.6544 117.711 11.6379ZM108.056 5.60254C109.336 5.60254 110.564 6.11115 111.47 7.01648C112.375 7.92182 112.884 9.14972 112.884 10.4301C112.884 11.7104 112.375 12.9383 111.47 13.8436C110.564 14.749 109.336 15.2576 108.056 15.2576C107.422 15.2576 106.794 15.1327 106.209 14.8901C105.623 14.6475 105.091 14.2919 104.642 13.8436C104.194 13.3953 103.839 12.8632 103.596 12.2775C103.353 11.6918 103.229 11.064 103.229 10.4301C103.229 9.79609 103.353 9.16834 103.596 8.58264C103.839 7.99694 104.194 7.46476 104.642 7.01648C105.091 6.56821 105.623 6.21262 106.209 5.97001C106.794 5.72741 107.422 5.60254 108.056 5.60254ZM128.429 17.6734C129.068 17.6651 129.703 17.7838 130.296 18.0227C130.889 18.2616 131.429 18.6159 131.884 19.065C132.339 19.5142 132.7 20.0492 132.947 20.6391C133.193 21.229 133.32 21.8619 133.32 22.5013C133.32 23.1406 133.193 23.7736 132.947 24.3635C132.7 24.9533 132.339 25.4884 131.884 25.9375C131.429 26.3866 130.889 26.7409 130.296 26.9798C129.703 27.2187 129.068 27.3375 128.429 27.3292C125.125 27.3292 123.411 23.9813 121.332 22.5009C123.411 21.0189 125.125 17.6734 128.429 17.6734Z" fill="#6639C6"/>
<path d="M108.056 29.7425C109.336 29.7425 110.564 30.2512 111.47 31.1565C112.375 32.0618 112.884 33.2897 112.884 34.5701C112.884 35.8504 112.375 37.0783 111.47 37.9836C110.564 38.889 109.336 39.3976 108.056 39.3976C106.776 39.3976 105.548 38.889 104.642 37.9836C103.737 37.0783 103.229 35.8504 103.229 34.5701C103.229 33.2897 103.737 32.0618 104.642 31.1565C105.548 30.2512 106.776 29.7425 108.056 29.7425ZM108.056 17.6725C109.336 17.6725 110.564 18.1812 111.47 19.0865C112.375 19.9918 112.884 21.2197 112.884 22.5001C112.884 23.7804 112.375 25.0083 111.47 25.9136C110.564 26.819 109.336 27.3276 108.056 27.3276C107.422 27.3276 106.794 27.2027 106.209 26.9601C105.623 26.7175 105.091 26.3619 104.642 25.9136C104.194 25.4653 103.839 24.9332 103.596 24.3475C103.353 23.7618 103.229 23.134 103.229 22.5001C103.229 21.8661 103.353 21.2383 103.596 20.6526C103.839 20.0669 104.194 19.5348 104.642 19.0865C105.091 18.6382 105.623 18.2826 106.209 18.04C106.794 17.7974 107.422 17.6725 108.056 17.6725ZM117.711 23.7071C118.992 23.7071 120.22 24.2158 121.125 25.1213C122.031 26.0268 122.539 27.2549 122.539 28.5355C122.539 29.816 122.031 31.0441 121.125 31.9496C120.22 32.8551 118.992 33.3638 117.711 33.3638C116.431 33.3638 115.202 32.8551 114.297 31.9496C113.391 31.0441 112.883 29.816 112.883 28.5355C112.883 27.2549 113.391 26.0268 114.297 25.1213C115.202 24.2158 116.431 23.7071 117.711 23.7071ZM117.711 11.6379C118.35 11.6296 118.985 11.7484 119.578 11.9873C120.171 12.2262 120.711 12.5805 121.166 13.0296C121.621 13.4788 121.982 14.0138 122.229 14.6037C122.475 15.1936 122.602 15.8265 122.602 16.4659C122.602 17.1052 122.475 17.7382 122.229 18.3281C121.982 18.9179 121.621 19.453 121.166 19.9021C120.711 20.3512 120.171 20.7055 119.578 20.9444C118.985 21.1833 118.35 21.3021 117.711 21.2938C116.441 21.2773 115.229 20.7614 114.337 19.8578C113.446 18.9542 112.945 17.7356 112.945 16.4659C112.945 15.1962 113.446 13.9776 114.337 13.074C115.229 12.1703 116.441 11.6544 117.711 11.6379ZM108.056 5.60254C109.336 5.60254 110.564 6.11115 111.47 7.01648C112.375 7.92182 112.884 9.14972 112.884 10.4301C112.884 11.7104 112.375 12.9383 111.47 13.8436C110.564 14.749 109.336 15.2576 108.056 15.2576C107.422 15.2576 106.794 15.1327 106.209 14.8901C105.623 14.6475 105.091 14.2919 104.642 13.8436C104.194 13.3953 103.839 12.8632 103.596 12.2775C103.353 11.6918 103.229 11.064 103.229 10.4301C103.229 9.79609 103.353 9.16834 103.596 8.58264C103.839 7.99694 104.194 7.46476 104.642 7.01648C105.091 6.56821 105.623 6.21262 106.209 5.97001C106.794 5.72741 107.422 5.60254 108.056 5.60254ZM128.429 17.6734C129.068 17.6651 129.703 17.7838 130.296 18.0227C130.889 18.2616 131.429 18.6159 131.884 19.065C132.339 19.5142 132.7 20.0492 132.947 20.6391C133.193 21.229 133.32 21.8619 133.32 22.5013C133.32 23.1406 133.193 23.7736 132.947 24.3635C132.7 24.9533 132.339 25.4884 131.884 25.9375C131.429 26.3866 130.889 26.7409 130.296 26.9798C129.703 27.2187 129.068 27.3375 128.429 27.3292C125.125 27.3292 123.411 23.9813 121.332 22.5009C123.411 21.0189 125.125 17.6734 128.429 17.6734Z" fill="#6639C6"/>
<path d="M108.056 29.7425C109.336 29.7425 110.564 30.2512 111.47 31.1565C112.375 32.0618 112.884 33.2897 112.884 34.5701C112.884 35.8504 112.375 37.0783 111.47 37.9836C110.564 38.889 109.336 39.3976 108.056 39.3976C106.776 39.3976 105.548 38.889 104.642 37.9836C103.737 37.0783 103.229 35.8504 103.229 34.5701C103.229 33.2897 103.737 32.0618 104.642 31.1565C105.548 30.2512 106.776 29.7425 108.056 29.7425ZM108.056 17.6725C109.336 17.6725 110.564 18.1812 111.47 19.0865C112.375 19.9918 112.884 21.2197 112.884 22.5001C112.884 23.7804 112.375 25.0083 111.47 25.9136C110.564 26.819 109.336 27.3276 108.056 27.3276C107.422 27.3276 106.794 27.2027 106.209 26.9601C105.623 26.7175 105.091 26.3619 104.642 25.9136C104.194 25.4653 103.839 24.9332 103.596 24.3475C103.353 23.7618 103.229 23.134 103.229 22.5001C103.229 21.8661 103.353 21.2383 103.596 20.6526C103.839 20.0669 104.194 19.5348 104.642 19.0865C105.091 18.6382 105.623 18.2826 106.209 18.04C106.794 17.7974 107.422 17.6725 108.056 17.6725ZM117.711 23.7071C118.992 23.7071 120.22 24.2158 121.125 25.1213C122.031 26.0268 122.539 27.2549 122.539 28.5355C122.539 29.816 122.031 31.0441 121.125 31.9496C120.22 32.8551 118.992 33.3638 117.711 33.3638C116.431 33.3638 115.202 32.8551 114.297 31.9496C113.391 31.0441 112.883 29.816 112.883 28.5355C112.883 27.2549 113.391 26.0268 114.297 25.1213C115.202 24.2158 116.431 23.7071 117.711 23.7071ZM117.711 11.6379C118.35 11.6296 118.985 11.7484 119.578 11.9873C120.171 12.2262 120.711 12.5805 121.166 13.0296C121.621 13.4788 121.982 14.0138 122.229 14.6037C122.475 15.1936 122.602 15.8265 122.602 16.4659C122.602 17.1052 122.475 17.7382 122.229 18.3281C121.982 18.9179 121.621 19.453 121.166 19.9021C120.711 20.3512 120.171 20.7055 119.578 20.9444C118.985 21.1833 118.35 21.3021 117.711 21.2938C116.441 21.2773 115.229 20.7614 114.337 19.8578C113.446 18.9542 112.945 17.7356 112.945 16.4659C112.945 15.1962 113.446 13.9776 114.337 13.074C115.229 12.1703 116.441 11.6544 117.711 11.6379ZM108.056 5.60254C109.336 5.60254 110.564 6.11115 111.47 7.01648C112.375 7.92182 112.884 9.14972 112.884 10.4301C112.884 11.7104 112.375 12.9383 111.47 13.8436C110.564 14.749 109.336 15.2576 108.056 15.2576C107.422 15.2576 106.794 15.1327 106.209 14.8901C105.623 14.6475 105.091 14.2919 104.642 13.8436C104.194 13.3953 103.839 12.8632 103.596 12.2775C103.353 11.6918 103.229 11.064 103.229 10.4301C103.229 9.79609 103.353 9.16834 103.596 8.58264C103.839 7.99694 104.194 7.46476 104.642 7.01648C105.091 6.56821 105.623 6.21262 106.209 5.97001C106.794 5.72741 107.422 5.60254 108.056 5.60254ZM128.429 17.6734C129.068 17.6651 129.703 17.7838 130.296 18.0227C130.889 18.2616 131.429 18.6159 131.884 19.065C132.339 19.5142 132.7 20.0492 132.947 20.6391C133.193 21.229 133.32 21.8619 133.32 22.5013C133.32 23.1406 133.193 23.7736 132.947 24.3635C132.7 24.9533 132.339 25.4884 131.884 25.9375C131.429 26.3866 130.889 26.7409 130.296 26.9798C129.703 27.2187 129.068 27.3375 128.429 27.3292C125.125 27.3292 123.411 23.9813 121.332 22.5009C123.411 21.0189 125.125 17.6734 128.429 17.6734Z" fill="url(#paint0_linear_1347_20726)"/>
<defs>
<linearGradient id="paint0_linear_1347_20726" x1="114.6" y1="24.2005" x2="105.887" y2="38.6678" gradientUnits="userSpaceOnUse">
<stop offset="0.406346" stop-color="#6639C6"/>
<stop offset="0.430761" stop-color="#20B486"/>
</linearGradient>
</defs>
</svg>
