<svg width="132" height="40" viewBox="0 0 132 40" fill="none" xmlns="http://www.w3.org/2000/svg">
<g id="Group 1876">
<g id="Group 2">
<path id="Vector" d="M130.032 14.9068C128.041 12.9152 124.811 12.9152 122.82 14.9068L119.215 18.5115L122.82 22.1163C124.811 24.1079 128.041 24.1079 130.032 22.1163C132.024 20.1247 132.024 16.8954 130.032 14.9038V14.9068Z" fill="#C78FFF"/>
<path id="Vector_2" d="M104.939 11.0232C107.791 11.0232 110.104 8.71071 110.104 5.85806C110.104 3.00541 107.791 0.692871 104.939 0.692871C102.086 0.692871 99.7734 3.00541 99.7734 5.85806C99.7734 8.71071 102.086 11.0232 104.939 11.0232Z" fill="#C78FFF"/>
<path id="Vector_3" d="M104.94 23.5973C107.752 23.5973 110.031 21.3176 110.031 18.5054C110.031 15.6933 107.752 13.4136 104.94 13.4136C102.127 13.4136 99.8477 15.6933 99.8477 18.5054C99.8477 21.3176 102.127 23.5973 104.94 23.5973Z" fill="#C78FFF"/>
<path id="Vector_4" d="M104.94 36.3326C107.752 36.3326 110.031 34.0529 110.031 31.2408C110.031 28.4286 107.752 26.1489 104.94 26.1489C102.127 26.1489 99.8477 28.4286 99.8477 31.2408C99.8477 34.0529 102.127 36.3326 104.94 36.3326Z" fill="#00E3B2"/>
<path id="Vector_5" d="M115.286 17.3792C118.139 17.3792 120.451 15.0667 120.451 12.214C120.451 9.36135 118.139 7.04883 115.286 7.04883C112.434 7.04883 110.121 9.36135 110.121 12.214C110.121 15.0667 112.434 17.3792 115.286 17.3792Z" fill="#C78FFF"/>
<path id="Vector_6" d="M115.287 29.9535C118.099 29.9535 120.379 27.6738 120.379 24.8616C120.379 22.0495 118.099 19.7698 115.287 19.7698C112.475 19.7698 110.195 22.0495 110.195 24.8616C110.195 27.6738 112.475 29.9535 115.287 29.9535Z" fill="#C78FFF"/>
</g>
<g id="Layer-1">
<path id="Vector_7" d="M11.6884 31.8336H18.5225C27.9113 31.8336 31.0439 27.6803 31.0439 21.5501C31.0439 18.6757 30.3399 15.6106 29.5099 13.1175L24.9108 14.3963C25.5502 17.0801 26.3157 19.5058 26.3157 21.8698C26.3157 24.4246 24.0162 25.5743 18.5225 25.5743H12.1342C6.89572 25.5743 4.78974 24.0403 4.78974 20.7201C4.78974 19.1861 5.17398 17.655 5.8134 15.8658L1.72466 14.3963C0.51036 16.8865 0 19.8255 0 22.125C0 27.9384 2.93896 31.8336 11.6884 31.8336ZM15.2022 39.3071C16.7362 39.3071 17.757 38.1573 17.757 36.6878C17.757 35.3474 16.7362 34.1976 15.2022 34.1976C13.6682 34.1976 12.583 35.3474 12.583 36.6878C12.583 38.1573 13.6682 39.3071 15.2022 39.3071ZM42.4126 31.8336C46.2461 31.8336 48.226 30.4286 49.1822 28.0645C50.1413 30.6193 52.1211 25.0611 52.1211 21.9314V16.7575H47.3314V22.4418C47.3314 24.4216 45.9264 25.5714 43.4362 25.5714H43.2456C41.0751 25.5714 39.6672 24.4216 39.6672 22.6325V4.74643H34.6839V25.0581C34.6839 29.402 37.6873 31.8277 42.4126 31.8277V31.8336ZM49.6954 14.4579C51.2295 14.4579 52.2502 13.3727 52.2502 11.9032C52.2502 10.5628 51.2295 9.41298 49.6954 9.41298C48.1614 9.41298 47.0762 10.5628 47.0762 11.9032C47.0762 13.3727 48.0969 14.4579 49.6954 14.4579ZM60.6828 31.9597C68.5406 31.9597 75.1195 31.0651 80.358 29.0853L80.2935 23.4654C74.8643 25.3192 68.4115 26.1492 60.237 26.1492C55.3827 26.1492 52.124 25.8295 52.124 22.4447L49.1851 28.0029C50.0151 31.068 53.3383 31.9626 60.6828 31.9626V31.9597ZM83.8044 31.8336H88.8493V11.3928H83.8044V31.8336ZM82.5285 9.34846H89.9375V6.60308H87.0631C85.7226 6.60308 85.0187 6.28337 85.0187 5.77301C85.0187 5.26265 85.8488 4.87842 86.6788 4.87842C87.3828 4.87842 87.8932 5.1336 88.468 5.45331L89.4888 3.47347C88.9139 2.57887 87.8931 1.93945 86.6788 1.93945C84.5083 1.93945 83.3586 3.66412 83.3586 5.38878C83.3586 5.89914 83.4231 6.3479 83.6783 6.7292H82.5285V9.34846ZM69.8165 28.4488L80.2935 23.4654C77.4836 24.4246 75.3102 24.9349 72.5648 24.9349C68.9248 24.9349 66.6253 24.0403 66.6253 21.8053C66.6253 20.0161 68.479 18.5466 71.1598 18.5466C73.1397 18.5466 74.9934 19.5703 75.9496 20.2713L78.3137 15.8013C77.4191 14.3963 74.7998 12.2874 71.286 12.2874C65.7277 12.2874 62.2784 16.5023 62.2784 20.7817C62.2784 24.231 64.5134 28.4458 69.8165 28.4458V28.4488Z" fill="white"/>
</g>
</g>
</svg>
