<svg width="27" height="27" viewBox="0 0 27 27" fill="none" xmlns="http://www.w3.org/2000/svg">
<g id="alarm-clock">
<path id="Icon" d="M5.6167 3.29004L2.3667 6.54004M24.0334 6.54004L20.7834 3.29004M6.70003 20.6234L4.53337 22.79M19.7 20.6234L21.8667 22.79M13.2 9.79004V14.1234L15.3667 16.29M13.2 22.79C15.4986 22.79 17.703 21.8769 19.3283 20.2516C20.9536 18.6263 21.8667 16.4219 21.8667 14.1234C21.8667 11.8248 20.9536 9.62043 19.3283 7.99511C17.703 6.3698 15.4986 5.45671 13.2 5.45671C10.9015 5.45671 8.69709 6.3698 7.07177 7.99511C5.44646 9.62043 4.53337 11.8248 4.53337 14.1234C4.53337 16.4219 5.44646 18.6263 7.07177 20.2516C8.69709 21.8769 10.9015 22.79 13.2 22.79Z" stroke="#6639C6" stroke-width="2" stroke-linecap="round" stroke-linejoin="round"/>
</g>
</svg>
