<svg width="27" height="27" viewBox="0 0 27 27" fill="none" xmlns="http://www.w3.org/2000/svg">
<g id="alarm-clock">
<path id="Icon" d="M5.91663 3.29004L2.66663 6.54004M24.3333 6.54004L21.0833 3.29004M6.99996 20.6234L4.83329 22.79M20 20.6234L22.1666 22.79M13.5 9.79004V14.1234L15.6666 16.29M13.5 22.79C15.7985 22.79 18.0029 21.8769 19.6282 20.2516C21.2535 18.6263 22.1666 16.4219 22.1666 14.1234C22.1666 11.8248 21.2535 9.62043 19.6282 7.99511C18.0029 6.3698 15.7985 5.45671 13.5 5.45671C11.2014 5.45671 8.99702 6.3698 7.3717 7.99511C5.74639 9.62043 4.83329 11.8248 4.83329 14.1234C4.83329 16.4219 5.74639 18.6263 7.3717 20.2516C8.99702 21.8769 11.2014 22.79 13.5 22.79Z" stroke="#D2A8FF" stroke-width="2" stroke-linecap="round" stroke-linejoin="round"/>
</g>
</svg>
