<svg width="11" height="18" viewBox="0 0 11 18" fill="none" xmlns="http://www.w3.org/2000/svg">
<path d="M0.279297 8.98926C0.289062 8.65723 0.40625 8.37402 0.669922 8.12012L8.28711 0.668945C8.49219 0.454102 8.76562 0.34668 9.07812 0.34668C9.71289 0.34668 10.2109 0.834961 10.2109 1.46973C10.2109 1.78223 10.084 2.06543 9.86914 2.29004L3.00391 8.98926L9.86914 15.6885C10.084 15.9033 10.2109 16.1865 10.2109 16.499C10.2109 17.1436 9.71289 17.6318 9.07812 17.6318C8.76562 17.6318 8.49219 17.5244 8.28711 17.3096L0.669922 9.8584C0.40625 9.60449 0.279297 9.32129 0.279297 8.98926Z" fill="#818182"/>
</svg>
