<svg width="27" height="27" viewBox="0 0 27 27" fill="none" xmlns="http://www.w3.org/2000/svg">
<g id="bank-note-01">
<path id="Icon" d="M7.00008 11.9566V16.29M20.0001 9.78996V14.1233M18.9167 4.37329C21.5695 4.37329 23.0043 4.77928 23.7182 5.09419C23.8133 5.13612 23.8608 5.15709 23.998 5.28803C24.0803 5.36651 24.2304 5.5968 24.269 5.70372C24.3334 5.88209 24.3334 5.97959 24.3334 6.17459V17.8187C24.3334 18.8032 24.3334 19.2954 24.1858 19.5485C24.0356 19.8058 23.8908 19.9255 23.6097 20.0244C23.3334 20.1217 22.7755 20.0145 21.6599 19.8001C20.8791 19.6501 19.953 19.54 18.9167 19.54C15.6667 19.54 12.4167 21.7066 8.08341 21.7066C5.43065 21.7066 3.99585 21.3006 3.28195 20.9857C3.18688 20.9438 3.13935 20.9228 3.00215 20.7919C2.91991 20.7134 2.76979 20.4831 2.73117 20.3762C2.66675 20.1978 2.66675 20.1003 2.66675 19.9053L2.66675 8.26122C2.66675 7.27672 2.66675 6.78447 2.81438 6.53145C2.96456 6.27407 3.10939 6.15442 3.39048 6.0555C3.66681 5.95826 4.22462 6.06544 5.34023 6.27979C6.12108 6.42983 7.04718 6.53996 8.08341 6.53996C11.3334 6.53996 14.5834 4.37329 18.9167 4.37329ZM16.2084 13.04C16.2084 14.5357 14.9959 15.7483 13.5001 15.7483C12.0043 15.7483 10.7917 14.5357 10.7917 13.04C10.7917 11.5442 12.0043 10.3316 13.5001 10.3316C14.9959 10.3316 16.2084 11.5442 16.2084 13.04Z" stroke="#D2A8FF" stroke-width="2" stroke-linecap="round" stroke-linejoin="round"/>
</g>
</svg>
