<svg width="26" height="26" viewBox="0 0 26 26" fill="none" xmlns="http://www.w3.org/2000/svg">
<g id="Group">
<path id="Vector" fill-rule="evenodd" clip-rule="evenodd" d="M5.39648 17.4465V21.8811H6.51641C6.68159 21.8811 6.81797 21.9823 6.81797 22.1063V23.5265H10.7962V22.1063C10.7962 21.9823 10.9326 21.8811 11.0998 21.8811H12.2197V17.4465H11.0998C10.9326 17.4465 10.7962 17.3453 10.7962 17.2227V15.801H6.81797V17.2227C6.81797 17.3453 6.68159 17.4465 6.51641 17.4465H5.39648ZM13.6218 17.4465V21.8811H14.7937C14.9686 21.8811 15.1113 21.9823 15.1113 22.1063V23.5265H19.2742V22.1063C19.2742 21.9823 19.4169 21.8811 19.5918 21.8811H20.7637V17.4465H19.5918C19.4169 17.4465 19.2742 17.3453 19.2742 17.2227V15.801H15.1113V17.2227C15.1113 17.3453 14.9686 17.4465 14.7937 17.4465H13.6218Z" fill="#B6B1B7"/>
<path id="Vector_2" fill-rule="evenodd" clip-rule="evenodd" d="M2.19531 7.83746V14.2606H23.8041V7.83746L12.999 1.59923L2.19531 7.83746Z" fill="#ECEAEC"/>
<path id="Vector_3" fill-rule="evenodd" clip-rule="evenodd" d="M0.631725 8.60318C0.90404 9.07515 1.51146 9.2377 1.98343 8.96534L2.19589 8.84273L12.9995 2.60445L23.8046 8.84273L24.0171 8.96534C24.4876 9.2377 25.0964 9.07515 25.3674 8.60318C25.6397 8.13262 25.4772 7.52379 25.0052 7.25142L13.5428 0.633893C13.386 0.542633 13.1935 0.498444 12.9995 0.498444C12.8071 0.498444 12.6131 0.542633 12.4563 0.633893L0.993884 7.25142C0.523376 7.52379 0.359411 8.13262 0.631725 8.60318Z" fill="#9FD4FE"/>
<path id="Vector_4" fill-rule="evenodd" clip-rule="evenodd" d="M19.7259 16.6837H23.0453V22.6439H19.7259V16.6837ZM11.3405 16.6837H14.6599V22.6439H11.3405V16.6837ZM2.95508 16.6837H6.27588V22.6439H2.95508V16.6837Z" fill="#FFE07D"/>
<path id="Vector_5" fill-rule="evenodd" clip-rule="evenodd" d="M1.89844 23.5265L4.33042 24.4477L7.32949 23.5265V22.1064C7.32949 21.9823 7.22827 21.8811 7.10561 21.8811H2.12231C1.99971 21.8811 1.89844 21.9823 1.89844 22.1064V23.5265ZM18.6679 23.5265L21.6007 24.4477L24.1003 23.5265V22.1064C24.1002 22.0466 24.0765 21.9894 24.0342 21.9472C23.992 21.9049 23.9348 21.8812 23.875 21.8811H18.8932C18.8335 21.8812 18.7762 21.905 18.734 21.9472C18.6918 21.9894 18.668 22.0466 18.6679 22.1064V23.5265ZM10.2824 23.5265L12.9994 24.1844L15.7149 23.5265V22.1064C15.7148 22.0466 15.691 21.9894 15.6488 21.9472C15.6066 21.9049 15.5493 21.8812 15.4896 21.8811H10.5077C10.448 21.8812 10.3908 21.9049 10.3485 21.9472C10.3063 21.9894 10.2825 22.0466 10.2824 22.1064V23.5265Z" fill="#ECEAEC"/>
<path id="Vector_6" fill-rule="evenodd" clip-rule="evenodd" d="M0.731006 25.3688H25.2685C25.3954 25.3688 25.4995 25.2647 25.4995 25.1378V23.7575C25.4995 23.6306 25.3954 23.5265 25.2685 23.5265H0.731006C0.604102 23.5265 0.5 23.6306 0.5 23.7575V25.1378C0.5 25.2647 0.604102 25.3688 0.731006 25.3688Z" fill="#9FD4FE"/>
<path id="Vector_7" fill-rule="evenodd" clip-rule="evenodd" d="M11.8477 6.04229C11.8477 6.70963 12.388 7.25001 13.0554 7.25001C13.7212 7.25001 14.2631 6.70958 14.2631 6.04229C14.2631 5.37501 13.7212 4.83458 13.0554 4.83458C12.3881 4.83453 11.8477 5.37496 11.8477 6.04229Z" fill="#FFE07D"/>
<path id="Vector_8" fill-rule="evenodd" clip-rule="evenodd" d="M12.999 2.60445L2.19531 8.84273V10.2458L12.999 4.00752L23.8041 10.2458V8.84273L12.999 2.60445Z" fill="#DAD8DB"/>
<path id="Vector_9" fill-rule="evenodd" clip-rule="evenodd" d="M13.0558 4.83453C12.3885 4.83453 11.8481 5.37496 11.8481 6.04225C11.8481 6.18058 11.8709 6.31173 11.9137 6.4358C12.0919 5.99235 12.5268 5.68009 13.033 5.68009C13.562 5.68009 14.0125 6.02086 14.175 6.49425C14.2336 6.35076 14.2636 6.19723 14.2635 6.04225C14.2635 5.37496 13.7217 4.83453 13.0558 4.83453ZM2.95508 17.4465H6.27588V18.6528H2.95508V17.4465ZM11.3405 17.4465H14.6599V18.6528H11.3405V17.4465ZM19.7259 17.4465H23.0453V18.6528H19.7259V17.4465Z" fill="#FFC269"/>
<path id="Vector_10" fill-rule="evenodd" clip-rule="evenodd" d="M2.95356 17.4465H7.10561C7.22822 17.4465 7.32949 17.3453 7.32949 17.2227V15.4992H1.89844V17.2227C1.89844 17.3453 1.99966 17.4465 2.12231 17.4465H2.95356ZM11.339 17.4465H15.4896C15.6137 17.4465 15.7149 17.3453 15.7149 17.2227V15.4992H10.2824V17.2227C10.2824 17.3453 10.3836 17.4465 10.5077 17.4465H11.339ZM18.8932 17.4465H23.875C23.9991 17.4465 24.1003 17.3453 24.1003 17.2227V15.4992H18.6679V17.2227C18.6679 17.3453 18.7691 17.4465 18.8932 17.4465Z" fill="#ECEAEC"/>
<path id="Vector_11" fill-rule="evenodd" clip-rule="evenodd" d="M1.89844 15.8011H7.32949V16.6837H1.89844V15.8011ZM10.2824 15.8011H15.7149V16.6837H10.2824V15.8011ZM18.6679 15.8011H24.1003V16.6837H18.6679V15.8011Z" fill="#DAD8DB"/>
<path id="Vector_12" fill-rule="evenodd" clip-rule="evenodd" d="M1.89878 15.8011H25.2685C25.3954 15.8011 25.4995 15.697 25.4995 15.5701V14.1898C25.4995 14.0629 25.3954 13.9588 25.2685 13.9588H0.731006C0.604102 13.9588 0.5 14.0629 0.5 14.1898V15.5701C0.5 15.697 0.604102 15.8011 0.731006 15.8011H1.89878Z" fill="#9FD4FE"/>
<g id="Group_2">
<path id="Vector_13" d="M8.44932 10.381C8.5566 10.2132 8.61363 10.0181 8.61367 9.81895C8.61367 9.23921 8.14199 8.76753 7.56226 8.76753H6.71123C6.66169 8.76753 6.61263 8.77728 6.56686 8.79624C6.52108 8.81519 6.47949 8.84298 6.44446 8.87801C6.40943 8.91304 6.38164 8.95463 6.36269 9.0004C6.34373 9.04618 6.33398 9.09524 6.33398 9.14478V12.0746C6.33398 12.1749 6.37397 12.2711 6.44512 12.3419C6.51581 12.4123 6.61151 12.4518 6.71128 12.4518H6.71294C6.71294 12.4518 7.49526 12.4483 7.71094 12.4483C8.35376 12.4483 8.87676 11.9253 8.87676 11.2825C8.87671 10.9196 8.71006 10.595 8.44932 10.381ZM7.56226 9.52207C7.72598 9.52207 7.85913 9.65523 7.85913 9.81895C7.85913 9.98267 7.72598 10.1158 7.56226 10.1158C7.5 10.1158 7.08853 10.1166 7.08853 10.1166V9.52207H7.56226ZM7.71089 11.6938C7.59609 11.6938 7.32124 11.6948 7.08853 11.6957V10.8717C7.14414 10.8715 7.71089 10.8711 7.71089 10.8711C7.9377 10.8711 8.12222 11.0556 8.12222 11.2825C8.12222 11.5093 7.9377 11.6938 7.71089 11.6938ZM11.4947 9.05274C11.4628 8.96873 11.4061 8.89644 11.3321 8.84549C11.258 8.79453 11.1703 8.76734 11.0804 8.76753H11.0802C10.9905 8.76738 10.9029 8.79449 10.829 8.84526C10.7551 8.89603 10.6984 8.96806 10.6664 9.05181L9.56631 11.9403C9.53207 12.0335 9.53596 12.1364 9.57712 12.2268C9.61827 12.3171 9.69339 12.3876 9.78618 12.423C9.87897 12.4583 9.98194 12.4556 10.0728 12.4156C10.1636 12.3755 10.235 12.3012 10.2714 12.2088L10.4529 11.7324H11.6997L11.8791 12.2078C11.9061 12.2795 11.9544 12.3413 12.0175 12.3849C12.0805 12.4285 12.1554 12.4519 12.232 12.452C12.2931 12.4519 12.3532 12.4371 12.4072 12.4088C12.4612 12.3804 12.5076 12.3394 12.5423 12.2892C12.577 12.239 12.599 12.1811 12.6064 12.1205C12.6138 12.06 12.6065 11.9985 12.5849 11.9414L11.4947 9.05274ZM10.7401 10.9779L11.079 10.0882L11.4148 10.9779H10.7401ZM15.797 8.76753L15.7933 8.76758C15.7438 8.76805 15.6948 8.77828 15.6492 8.79768C15.6036 8.81707 15.5623 8.84526 15.5276 8.88062C15.4929 8.91599 15.4655 8.95784 15.447 9.0038C15.4285 9.04975 15.4192 9.0989 15.4197 9.14844L15.4366 10.8978L14.0818 8.93589C14.0361 8.86973 13.9704 8.81992 13.8943 8.79371C13.8183 8.7675 13.7359 8.76628 13.6591 8.79021C13.5823 8.81414 13.5152 8.86198 13.4675 8.92675C13.4198 8.99151 13.3941 9.06982 13.394 9.15025V12.0745C13.394 12.1746 13.4338 12.2705 13.5045 12.3413C13.5753 12.412 13.6712 12.4518 13.7713 12.4518C13.8713 12.4518 13.9673 12.412 14.038 12.3413C14.1088 12.2705 14.1485 12.1746 14.1485 12.0745V10.3604L15.4381 12.2278C15.5485 12.3874 15.7329 12.4552 15.9078 12.4006C16.0862 12.3449 16.2015 12.1781 16.2015 11.9721L16.1742 9.14112C16.1732 9.04172 16.133 8.94672 16.0624 8.87676C15.9918 8.80681 15.8964 8.76755 15.797 8.76753ZM19.6376 11.8031L18.3198 10.5317L19.5256 9.42339C19.5629 9.39007 19.5931 9.34968 19.6146 9.30457C19.6361 9.25947 19.6484 9.21054 19.6508 9.16064C19.6533 9.11073 19.6458 9.06084 19.6288 9.01386C19.6117 8.96688 19.5856 8.92375 19.5518 8.88696C19.518 8.85018 19.4772 8.82047 19.4318 8.79958C19.3864 8.77868 19.3373 8.767 19.2874 8.76523C19.2375 8.76345 19.1877 8.77161 19.1409 8.78923C19.0942 8.80685 19.0514 8.83358 19.015 8.86787L18.0519 9.75318V9.10816C18.0519 9.00811 18.0122 8.91215 17.9414 8.8414C17.8707 8.77066 17.7747 8.73091 17.6747 8.73091C17.5746 8.73091 17.4787 8.77066 17.4079 8.8414C17.3372 8.91215 17.2974 9.00811 17.2974 9.10816V12.0746C17.2974 12.1746 17.3372 12.2706 17.4079 12.3413C17.4787 12.4121 17.5746 12.4518 17.6747 12.4518C17.7747 12.4518 17.8707 12.4121 17.9414 12.3413C18.0122 12.2706 18.0519 12.1746 18.0519 12.0746V11.3216L19.1137 12.3461C19.1839 12.414 19.2779 12.452 19.3756 12.4519C19.4744 12.4519 19.5731 12.4133 19.6471 12.3365C19.6815 12.3009 19.7086 12.2588 19.7267 12.2127C19.7449 12.1666 19.7538 12.1174 19.7529 12.0678C19.752 12.0183 19.7414 11.9694 19.7216 11.924C19.7018 11.8786 19.6733 11.8375 19.6376 11.8031Z" fill="#6F6571"/>
</g>
</g>
</svg>
