<svg width="27" height="27" viewBox="0 0 27 27" fill="none" xmlns="http://www.w3.org/2000/svg">
<g id="bank-note-01">
<path id="Icon" d="M6.89998 11.9566V16.29M19.9 9.78996V14.1233M18.8167 4.37329C21.4694 4.37329 22.9042 4.77928 23.6181 5.09419C23.7132 5.13612 23.7607 5.15709 23.8979 5.28803C23.9802 5.36651 24.1303 5.5968 24.1689 5.70372C24.2333 5.88209 24.2333 5.97959 24.2333 6.17459V17.8187C24.2333 18.8032 24.2333 19.2954 24.0857 19.5485C23.9355 19.8058 23.7907 19.9255 23.5096 20.0244C23.2333 20.1217 22.6754 20.0145 21.5598 19.8001C20.779 19.6501 19.8529 19.54 18.8167 19.54C15.5667 19.54 12.3167 21.7066 7.98332 21.7066C5.33055 21.7066 3.89576 21.3006 3.18186 20.9857C3.08678 20.9438 3.03925 20.9228 2.90205 20.7919C2.81981 20.7134 2.66969 20.4831 2.63108 20.3762C2.56665 20.1978 2.56665 20.1003 2.56665 19.9053L2.56665 8.26122C2.56665 7.27672 2.56665 6.78447 2.71428 6.53145C2.86446 6.27407 3.00929 6.15442 3.29038 6.0555C3.56671 5.95826 4.12452 6.06544 5.24013 6.27979C6.02099 6.42983 6.94709 6.53996 7.98332 6.53996C11.2333 6.53996 14.4833 4.37329 18.8167 4.37329ZM16.1083 13.04C16.1083 14.5357 14.8958 15.7483 13.4 15.7483C11.9042 15.7483 10.6917 14.5357 10.6917 13.04C10.6917 11.5442 11.9042 10.3316 13.4 10.3316C14.8958 10.3316 16.1083 11.5442 16.1083 13.04Z" stroke="#6639C6" stroke-width="2" stroke-linecap="round" stroke-linejoin="round"/>
</g>
</svg>
