<svg width="27" height="27" viewBox="0 0 27 27" fill="none" xmlns="http://www.w3.org/2000/svg">
<g id="book-open-01">
<path id="Icon" d="M13.5 22.79L13.3916 22.6275C12.639 21.4987 12.2628 20.9343 11.7657 20.5257C11.3256 20.164 10.8185 19.8926 10.2734 19.727C9.65765 19.54 8.97933 19.54 7.62268 19.54H6.13329C4.91985 19.54 4.31312 19.54 3.84965 19.3039C3.44196 19.0962 3.1105 18.7647 2.90278 18.357C2.66663 17.8935 2.66663 17.2868 2.66663 16.0734V6.75671C2.66663 5.54326 2.66663 4.93654 2.90278 4.47306C3.1105 4.06538 3.44196 3.73392 3.84965 3.52619C4.31312 3.29004 4.91985 3.29004 6.13329 3.29004H6.56663C8.99352 3.29004 10.207 3.29004 11.1339 3.76234C11.9493 4.1778 12.6122 4.84071 13.0277 5.65608C13.5 6.58303 13.5 7.79648 13.5 10.2234M13.5 22.79V10.2234M13.5 22.79L13.6084 22.6275C14.3609 21.4987 14.7371 20.9343 15.2343 20.5257C15.6744 20.164 16.1815 19.8926 16.7266 19.727C17.3423 19.54 18.0206 19.54 19.3772 19.54H20.8666C22.0801 19.54 22.6868 19.54 23.1503 19.3039C23.558 19.0962 23.8894 18.7647 24.0971 18.357C24.3333 17.8935 24.3333 17.2868 24.3333 16.0734V6.75671C24.3333 5.54326 24.3333 4.93654 24.0971 4.47306C23.8894 4.06538 23.558 3.73392 23.1503 3.52619C22.6868 3.29004 22.0801 3.29004 20.8666 3.29004H20.4333C18.0064 3.29004 16.793 3.29004 15.866 3.76234C15.0506 4.1778 14.3877 4.84071 13.9723 5.65608C13.5 6.58303 13.5 7.79648 13.5 10.2234" stroke="#D2A8FF" stroke-width="2" stroke-linecap="round" stroke-linejoin="round"/>
</g>
</svg>
