<svg width="27" height="27" viewBox="0 0 27 27" fill="none" xmlns="http://www.w3.org/2000/svg">
<g id="book-open-01">
<path id="Icon" d="M13.8001 22.79L13.6917 22.6275C12.9392 21.4987 12.5629 20.9343 12.0658 20.5257C11.6257 20.164 11.1186 19.8926 10.5735 19.727C9.95782 19.54 9.2795 19.54 7.92286 19.54H6.43346C5.22002 19.54 4.61329 19.54 4.14982 19.3039C3.74213 19.0962 3.41068 18.7647 3.20295 18.357C2.9668 17.8935 2.9668 17.2868 2.9668 16.0734V6.75671C2.9668 5.54326 2.9668 4.93654 3.20295 4.47306C3.41068 4.06538 3.74213 3.73392 4.14982 3.52619C4.61329 3.29004 5.22002 3.29004 6.43346 3.29004H6.8668C9.29369 3.29004 10.5071 3.29004 11.4341 3.76234C12.2495 4.1778 12.9124 4.84071 13.3278 5.65608C13.8001 6.58303 13.8001 7.79648 13.8001 10.2234M13.8001 22.79V10.2234M13.8001 22.79L13.9085 22.6275C14.6611 21.4987 15.0373 20.9343 15.5344 20.5257C15.9745 20.164 16.4816 19.8926 17.0267 19.727C17.6424 19.54 18.3208 19.54 19.6774 19.54H21.1668C22.3802 19.54 22.987 19.54 23.4504 19.3039C23.8581 19.0962 24.1896 18.7647 24.3973 18.357C24.6335 17.8935 24.6335 17.2868 24.6335 16.0734V6.75671C24.6335 5.54326 24.6335 4.93654 24.3973 4.47306C24.1896 4.06538 23.8581 3.73392 23.4504 3.52619C22.987 3.29004 22.3802 3.29004 21.1668 3.29004H20.7335C18.3066 3.29004 17.0931 3.29004 16.1662 3.76234C15.3508 4.1778 14.6879 4.84071 14.2724 5.65608C13.8001 6.58303 13.8001 7.79648 13.8001 10.2234" stroke="#6639C6" stroke-width="2" stroke-linecap="round" stroke-linejoin="round"/>
</g>
</svg>
