<svg width="27" height="27" viewBox="0 0 27 27" fill="none" xmlns="http://www.w3.org/2000/svg">
<path d="M13.6669 9.41437V6.01562" stroke="#487D2C" stroke-width="1.5" stroke-linecap="round" stroke-linejoin="round"/>
<path fill-rule="evenodd" clip-rule="evenodd" d="M21.8558 23.5037H16.8727C16.1479 23.5037 15.4711 23.1415 15.0691 22.5384L12.8661 19.2336C12.3703 18.49 12.5415 17.4887 13.2561 16.9519C13.9734 16.4584 14.9433 16.5603 15.5424 17.1921L16.4351 18.0848V12.124C16.4351 11.2261 17.1629 10.4983 18.0607 10.4983C18.9586 10.4983 19.6864 11.2261 19.6864 12.124V14.8572L22.6859 15.3464C23.8363 15.534 24.6323 16.5978 24.4878 17.7544L24.0066 21.6049C23.871 22.6896 22.949 23.5037 21.8558 23.5037Z" stroke="#487D2C" stroke-width="1.5" stroke-linecap="round" stroke-linejoin="round"/>
<path d="M9.33119 17.1882C8.02307 17.071 6.70893 17.334 5.54662 17.9455C5.21145 18.139 4.79878 18.1402 4.46249 17.9487C4.1262 17.7571 3.91676 17.4015 3.91219 17.0145V7.02343C3.90629 6.33164 4.23387 5.67931 4.7923 5.27095C7.53577 3.32074 11.2862 3.63541 13.6663 6.01551C16.0465 3.63541 19.7969 3.32074 22.5404 5.27095C23.0988 5.67931 23.4264 6.33164 23.4205 7.02343V11.5818" stroke="#487D2C" stroke-width="1.5" stroke-linecap="round" stroke-linejoin="round"/>
</svg>
