<svg width="16" height="18" viewBox="0 0 16 18" fill="none" xmlns="http://www.w3.org/2000/svg">
<g id="book-open-01">
<path id="Solid" d="M12.1475 1.45512C12.2848 1.45587 12.422 1.45663 12.5591 1.45663C12.9105 1.45661 13.2137 1.4566 13.4634 1.47828C13.727 1.50116 13.9891 1.55167 14.2414 1.68824C14.6177 1.89197 14.9237 2.21705 15.1154 2.6169C15.244 2.88491 15.2915 3.16344 15.313 3.44348C15.3334 3.7088 15.3334 4.03092 15.3334 4.40431V10.5506C15.3334 10.924 15.3334 11.2461 15.313 11.5114C15.2915 11.7915 15.244 12.07 15.1154 12.338C14.9237 12.7379 14.6177 13.0629 14.2414 13.2667C13.9891 13.4032 13.727 13.4538 13.4634 13.4766C13.0174 13.5154 12.5658 13.5091 12.1162 13.5029C11.9494 13.5006 11.7828 13.4983 11.6169 13.4983C10.7405 13.4983 10.4412 13.5055 10.1794 13.59C9.92782 13.6712 9.69377 13.8043 9.49065 13.9816C9.18408 14.2493 8.95923 14.6298 8.7432 14.9953C8.68073 15.101 8.61899 15.2054 8.55623 15.3056C8.47252 15.4401 8.34601 15.5438 8.19327 15.5929C7.9121 15.6834 7.60834 15.5676 7.44538 15.3079C7.38212 15.2071 7.31992 15.1018 7.25696 14.9953C7.04093 14.6298 6.81608 14.2493 6.50951 13.9816C6.30639 13.8043 6.07234 13.6712 5.82076 13.59C5.55895 13.5055 5.25967 13.4983 4.3833 13.4983C4.21738 13.4983 4.0508 13.5006 3.88395 13.5029C3.43432 13.5091 2.98273 13.5154 2.53673 13.4766C2.27317 13.4538 2.01102 13.4032 1.75877 13.2667C1.38244 13.0629 1.07648 12.7379 0.884737 12.338C0.756207 12.07 0.708663 11.7915 0.687129 11.5114C0.666727 11.2461 0.666737 10.924 0.666749 10.5506V4.40432C0.666737 4.03094 0.666727 3.7088 0.687129 3.44348C0.708663 3.16344 0.756207 2.88491 0.884737 2.6169C1.07648 2.21705 1.38244 1.89197 1.75877 1.68824C2.01102 1.55167 2.27317 1.50116 2.53673 1.47828C2.78645 1.4566 3.08962 1.45661 3.44105 1.45663C3.57814 1.45663 3.71537 1.45587 3.85266 1.45512C4.4152 1.45204 4.97893 1.44895 5.53917 1.49758C6.02507 1.53976 6.45186 1.62888 6.84672 1.84264C7.30242 2.08935 7.69622 2.44282 8.00008 2.87328C8.30394 2.44282 8.69774 2.08935 9.15345 1.84264C9.54831 1.62888 9.9751 1.53976 10.461 1.49758C11.0212 1.44895 11.585 1.45204 12.1475 1.45512Z" fill="white"/>
</g>
</svg>
