<svg width="27" height="27" viewBox="0 0 27 27" fill="none" xmlns="http://www.w3.org/2000/svg">
<path fill-rule="evenodd" clip-rule="evenodd" d="M18.0014 11.2716V16.2898C17.996 16.7005 17.6724 17.0363 17.2622 17.0569C15.9934 17.0729 14.7519 17.4277 13.6662 18.0846C12.5806 17.4277 11.3391 17.0729 10.0702 17.0569C9.66003 17.0363 9.33646 16.7005 9.33107 16.2898V11.2716C9.32971 11.0579 9.41729 10.8533 9.57284 10.7069C9.72839 10.5604 9.93788 10.4853 10.1511 10.4995C11.3874 10.5468 12.5937 10.8937 13.6662 11.5106C14.7387 10.8937 15.9451 10.5468 17.1814 10.4995C17.3946 10.4853 17.6041 10.5604 17.7596 10.7069C17.9152 10.8533 18.0027 11.0579 18.0014 11.2716Z" stroke="#487D2C" stroke-width="1.5" stroke-linecap="round" stroke-linejoin="round"/>
<path d="M13.6669 11.5103V18.0847" stroke="#487D2C" stroke-width="1.5" stroke-linecap="round" stroke-linejoin="round"/>
<circle cx="13.6662" cy="13.7497" r="9.75406" stroke="#487D2C" stroke-width="1.5" stroke-linecap="round" stroke-linejoin="round"/>
</svg>
