<svg width="49" height="49" viewBox="0 0 49 49" fill="none" xmlns="http://www.w3.org/2000/svg">
<path d="M6.39258 42.5V24.5C6.39258 23.3954 7.28801 22.5 8.39258 22.5H14.3926" stroke="#D2A8FF" stroke-width="3" stroke-linecap="round" stroke-linejoin="round"/>
<path d="M22.3926 16.5012V9.50393C22.3926 8.51999 22.8751 7.5986 23.6838 7.03815C24.4925 6.4777 25.5246 6.34945 26.4459 6.69493L41.0948 12.1883C41.8754 12.481 42.3926 13.2272 42.3926 14.0609V42.5012" stroke="#D2A8FF" stroke-width="3" stroke-linecap="round" stroke-linejoin="round"/>
<path d="M14.3926 42.5V18.5C14.3926 17.3954 15.288 16.5 16.3926 16.5H30.3926C31.4971 16.5 32.3926 17.3954 32.3926 18.5V42.5" stroke="#D2A8FF" stroke-width="3" stroke-linecap="round" stroke-linejoin="round"/>
<path d="M44.3926 42.5H4.39258" stroke="#D2A8FF" stroke-width="3" stroke-linecap="round" stroke-linejoin="round"/>
<path d="M20.3926 35.5H26.3926" stroke="#D2A8FF" stroke-width="3" stroke-linecap="round" stroke-linejoin="round"/>
<path d="M20.3926 29.5H26.3926" stroke="#D2A8FF" stroke-width="3" stroke-linecap="round" stroke-linejoin="round"/>
<path d="M20.3926 23.5H26.3926" stroke="#D2A8FF" stroke-width="3" stroke-linecap="round" stroke-linejoin="round"/>
</svg>
