<svg width="26" height="27" viewBox="0 0 26 27" fill="none" xmlns="http://www.w3.org/2000/svg">
<g id="calendar">
<path id="Fill" opacity="0.12" d="M3.25 9.57329C3.25 7.75312 3.25 6.84303 3.60423 6.14782C3.91582 5.5363 4.413 5.03911 5.02453 4.72752C5.71974 4.37329 6.62983 4.37329 8.45 4.37329H17.55C19.3702 4.37329 20.2803 4.37329 20.9755 4.72752C21.587 5.03911 22.0842 5.5363 22.3958 6.14782C22.75 6.84303 22.75 7.75312 22.75 9.57329V10.8733H3.25V9.57329Z" fill="black"/>
<path id="Icon" d="M22.75 10.8735H3.25M17.3333 2.20679V6.54012M8.66667 2.20679V6.54012M8.45 23.8735H17.55C19.3702 23.8735 20.2803 23.8735 20.9755 23.5192C21.587 23.2076 22.0842 22.7104 22.3958 22.0989C22.75 21.4037 22.75 20.4936 22.75 18.6735V9.57345C22.75 7.75328 22.75 6.8432 22.3958 6.14798C22.0842 5.53646 21.587 5.03927 20.9755 4.72768C20.2803 4.37345 19.3702 4.37345 17.55 4.37345H8.45C6.62983 4.37345 5.71974 4.37345 5.02453 4.72768C4.413 5.03927 3.91582 5.53646 3.60423 6.14798C3.25 6.8432 3.25 7.75328 3.25 9.57345V18.6735C3.25 20.4936 3.25 21.4037 3.60423 22.0989C3.91582 22.7104 4.413 23.2076 5.02453 23.5192C5.71974 23.8735 6.62983 23.8735 8.45 23.8735Z" stroke="#6639C6" stroke-width="2" stroke-linecap="round" stroke-linejoin="round"/>
</g>
</svg>
