<svg width="27" height="27" viewBox="0 0 27 27" fill="none" xmlns="http://www.w3.org/2000/svg">
<g id="calendar-check-01">
<path id="Icon" d="M23.4844 11.3334H3.98438M18.0677 2.66675V7.00008M9.40104 2.66675V7.00008M10.4844 17.8334L12.651 20.0001L17.526 15.1251M9.18437 24.3334H18.2844C20.1045 24.3334 21.0146 24.3334 21.7098 23.9792C22.3214 23.6676 22.8186 23.1704 23.1301 22.5589C23.4844 21.8637 23.4844 20.9536 23.4844 19.1334V10.0334C23.4844 8.21324 23.4844 7.30316 23.1301 6.60795C22.8186 5.99642 22.3214 5.49923 21.7098 5.18764C21.0146 4.83341 20.1045 4.83341 18.2844 4.83341H9.18438C7.3642 4.83341 6.45412 4.83341 5.75891 5.18764C5.14738 5.49923 4.65019 5.99642 4.3386 6.60795C3.98438 7.30316 3.98438 8.21324 3.98438 10.0334V19.1334C3.98438 20.9536 3.98438 21.8637 4.3386 22.5589C4.65019 23.1704 5.14738 23.6676 5.75891 23.9792C6.45412 24.3334 7.3642 24.3334 9.18437 24.3334Z" stroke="white" stroke-width="2.16667" stroke-linecap="round" stroke-linejoin="round"/>
</g>
</svg>
