<svg width="27" height="27" viewBox="0 0 27 27" fill="none" xmlns="http://www.w3.org/2000/svg">
<g id="calendar">
<path id="Fill" opacity="0.12" d="M3.75 9.57329C3.75 7.75312 3.75 6.84303 4.10423 6.14782C4.41582 5.5363 4.913 5.03911 5.52453 4.72752C6.21974 4.37329 7.12983 4.37329 8.95 4.37329H18.05C19.8702 4.37329 20.7803 4.37329 21.4755 4.72752C22.087 5.03911 22.5842 5.5363 22.8958 6.14782C23.25 6.84303 23.25 7.75312 23.25 9.57329V10.8733H3.75V9.57329Z" fill="black"/>
<path id="Icon" d="M23.25 10.8735H3.75M17.8333 2.20679V6.54012M9.16667 2.20679V6.54012M8.95 23.8735H18.05C19.8702 23.8735 20.7803 23.8735 21.4755 23.5192C22.087 23.2076 22.5842 22.7104 22.8958 22.0989C23.25 21.4037 23.25 20.4936 23.25 18.6735V9.57345C23.25 7.75328 23.25 6.8432 22.8958 6.14798C22.5842 5.53646 22.087 5.03927 21.4755 4.72768C20.7803 4.37345 19.8702 4.37345 18.05 4.37345H8.95C7.12983 4.37345 6.21974 4.37345 5.52453 4.72768C4.913 5.03927 4.41582 5.53646 4.10423 6.14798C3.75 6.8432 3.75 7.75328 3.75 9.57345V18.6735C3.75 20.4936 3.75 21.4037 4.10423 22.0989C4.41582 22.7104 4.913 23.2076 5.52453 23.5192C6.21974 23.8735 7.12983 23.8735 8.95 23.8735Z" stroke="#D2A8FF" stroke-width="2" stroke-linecap="round" stroke-linejoin="round"/>
</g>
</svg>
