<svg width="27" height="27" viewBox="0 0 27 27" fill="none" xmlns="http://www.w3.org/2000/svg">
<path d="M23.0156 11.3334H3.51562M17.599 2.66675V7.00008M8.93229 2.66675V7.00008M8.71562 24.3334H17.8156C19.6358 24.3334 20.5459 24.3334 21.2411 23.9792C21.8526 23.6676 22.3498 23.1704 22.6614 22.5589C23.0156 21.8637 23.0156 20.9536 23.0156 19.1334V10.0334C23.0156 8.21324 23.0156 7.30316 22.6614 6.60795C22.3498 5.99642 21.8526 5.49923 21.2411 5.18764C20.5459 4.83341 19.6358 4.83341 17.8156 4.83341H8.71563C6.89545 4.83341 5.98537 4.83341 5.29016 5.18764C4.67863 5.49923 4.18144 5.99642 3.86985 6.60795C3.51562 7.30316 3.51562 8.21324 3.51562 10.0334V19.1334C3.51562 20.9536 3.51562 21.8637 3.86985 22.5589C4.18144 23.1704 4.67863 23.6676 5.29016 23.9792C5.98537 24.3334 6.89545 24.3334 8.71562 24.3334Z" stroke="white" stroke-width="2.16667" stroke-linecap="round" stroke-linejoin="round"/>
</svg>
