<svg width="27" height="27" viewBox="0 0 27 27" fill="none" xmlns="http://www.w3.org/2000/svg">
<path d="M22.3365 9.41441V6.16305C22.3365 4.96594 21.366 3.99548 20.1689 3.99548H6.07968C4.88256 3.99548 3.91211 4.96594 3.91211 6.16305V21.336C3.91211 22.5332 4.88256 23.5036 6.07968 23.5036H11.4986" stroke="#487D2C" stroke-width="1.5" stroke-linecap="round" stroke-linejoin="round"/>
<path d="M10.6865 17.0009H12.5831" stroke="#487D2C" stroke-width="1.5" stroke-linecap="round" stroke-linejoin="round"/>
<path d="M10.6865 12.6658H13.6669" stroke="#487D2C" stroke-width="1.5" stroke-linecap="round" stroke-linejoin="round"/>
<path d="M10.6865 8.46609H18.0021" stroke="#487D2C" stroke-width="1.5" stroke-linecap="round" stroke-linejoin="round"/>
<path d="M22.1749 12.6658H17.2979" stroke="#487D2C" stroke-width="1.5" stroke-linecap="round" stroke-linejoin="round"/>
<path d="M21.3616 12.6658V16.7646L24.1719 21.2732C24.588 21.9408 24.6098 22.7815 24.2288 23.4697C23.8477 24.158 23.1237 24.5857 22.337 24.5874H17.1403C16.3522 24.5885 15.6257 24.1618 15.2428 23.473C14.8599 22.7843 14.881 21.9419 15.2979 21.2732L18.1081 16.7646V12.6658" stroke="#487D2C" stroke-width="1.5" stroke-linecap="round" stroke-linejoin="round"/>
<path d="M21.51 17.0009H17.9639" stroke="#487D2C" stroke-width="1.5" stroke-linecap="round" stroke-linejoin="round"/>
<path d="M7.2997 17.1364C7.37452 17.1364 7.43518 17.0757 7.43518 17.0009C7.43518 16.9261 7.37452 16.8654 7.2997 16.8654C7.22489 16.8654 7.16423 16.9261 7.16423 17.0009C7.16423 17.0757 7.22489 17.1364 7.2997 17.1364" stroke="#487D2C" stroke-width="1.5" stroke-linecap="round" stroke-linejoin="round"/>
<path d="M7.2997 12.8013C7.37452 12.8013 7.43518 12.7406 7.43518 12.6658C7.43518 12.591 7.37452 12.5303 7.2997 12.5303C7.22489 12.5303 7.16423 12.591 7.16423 12.6658C7.16423 12.7406 7.22489 12.8013 7.2997 12.8013" stroke="#487D2C" stroke-width="1.5" stroke-linecap="round" stroke-linejoin="round"/>
<path d="M7.2997 8.60156C7.37452 8.60156 7.43518 8.54091 7.43518 8.46609C7.43518 8.39127 7.37452 8.33061 7.2997 8.33061C7.22489 8.33061 7.16423 8.39127 7.16423 8.46609C7.16423 8.54091 7.22489 8.60156 7.2997 8.60156" stroke="#487D2C" stroke-width="1.5" stroke-linecap="round" stroke-linejoin="round"/>
</svg>
