<svg width="8" height="13" viewBox="0 0 8 13" fill="none" xmlns="http://www.w3.org/2000/svg">
<path d="M0.229492 6.31396C0.236328 6.08154 0.318359 5.8833 0.50293 5.70557L5.83496 0.489746C5.97852 0.339355 6.16992 0.26416 6.38867 0.26416C6.83301 0.26416 7.18164 0.605957 7.18164 1.05029C7.18164 1.26904 7.09277 1.46729 6.94238 1.62451L2.13672 6.31396L6.94238 11.0034C7.09277 11.1538 7.18164 11.3521 7.18164 11.5708C7.18164 12.022 6.83301 12.3638 6.38867 12.3638C6.16992 12.3638 5.97852 12.2886 5.83496 12.1382L0.50293 6.92236C0.318359 6.74463 0.229492 6.54639 0.229492 6.31396Z" fill="#923262"/>
</svg>
