<svg width="8" height="13" viewBox="0 0 8 13" fill="none" xmlns="http://www.w3.org/2000/svg">
<path d="M0.395508 6.31396C0.402344 6.08154 0.484375 5.8833 0.668945 5.70557L6.00098 0.489746C6.14453 0.339355 6.33594 0.26416 6.55469 0.26416C6.99902 0.26416 7.34766 0.605957 7.34766 1.05029C7.34766 1.26904 7.25879 1.46729 7.1084 1.62451L2.30273 6.31396L7.1084 11.0034C7.25879 11.1538 7.34766 11.3521 7.34766 11.5708C7.34766 12.022 6.99902 12.3638 6.55469 12.3638C6.33594 12.3638 6.14453 12.2886 6.00098 12.1382L0.668945 6.92236C0.484375 6.74463 0.395508 6.54639 0.395508 6.31396Z" fill="#6639C6"/>
</svg>
