<svg width="8" height="13" viewBox="0 0 8 13" fill="none" xmlns="http://www.w3.org/2000/svg">
<path d="M0.0625 6.31396C0.0693359 6.08154 0.151367 5.8833 0.335938 5.70557L5.66797 0.489746C5.81152 0.339355 6.00293 0.26416 6.22168 0.26416C6.66602 0.26416 7.01465 0.605957 7.01465 1.05029C7.01465 1.26904 6.92578 1.46729 6.77539 1.62451L1.96973 6.31396L6.77539 11.0034C6.92578 11.1538 7.01465 11.3521 7.01465 11.5708C7.01465 12.022 6.66602 12.3638 6.22168 12.3638C6.00293 12.3638 5.81152 12.2886 5.66797 12.1382L0.335938 6.92236C0.151367 6.74463 0.0625 6.54639 0.0625 6.31396Z" fill="#487D2C"/>
</svg>
