<svg width="27" height="27" viewBox="0 0 27 27" fill="none" xmlns="http://www.w3.org/2000/svg">
<g id="Group">
<path id="Path" fill-rule="evenodd" clip-rule="evenodd" d="M21.249 23.4995H6.08436C5.40459 23.4995 4.76424 23.1804 4.35487 22.6377C3.9455 22.095 3.8146 21.3917 4.00131 20.7381L5.15432 16.7019C5.28718 16.2368 5.71229 15.9161 6.19601 15.9161H21.1373C21.621 15.9161 22.0461 16.2368 22.179 16.7019L23.332 20.7381C23.5188 21.3917 23.3878 22.095 22.9785 22.6377C22.5691 23.1804 21.9288 23.4995 21.249 23.4995Z" stroke="#487D2C" stroke-width="1.5" stroke-linecap="round" stroke-linejoin="round"/>
<path id="Path_2" d="M11.5 20.2496H15.8333" stroke="#487D2C" stroke-width="1.5" stroke-linecap="round" stroke-linejoin="round"/>
<path id="Path_3" d="M19.084 5.01151C20.156 4.39492 21.3619 4.04808 22.5977 4.00085C22.8108 3.98664 23.0202 4.06174 23.1757 4.20814C23.3311 4.35454 23.4187 4.55905 23.4173 4.77261V9.78871C23.4119 10.1992 23.0885 10.5349 22.6785 10.5555C21.4102 10.5715 20.1692 10.9262 19.084 11.5828" stroke="#487D2C" stroke-width="1.5" stroke-linecap="round" stroke-linejoin="round"/>
<path id="Path_4" d="M19.0833 5.01151C18.0113 4.39492 16.8055 4.04808 15.5696 4.00085C15.3566 3.98664 15.1472 4.06174 14.9917 4.20814C14.8362 4.35454 14.7486 4.55905 14.75 4.77261V9.78871C14.7554 10.1992 15.0788 10.5349 15.4888 10.5555C16.7572 10.5715 17.9981 10.9262 19.0833 11.5828" stroke="#487D2C" stroke-width="1.5" stroke-linecap="round" stroke-linejoin="round"/>
<path id="Path_5" d="M19.0837 5.0116V11.5829" stroke="#487D2C" stroke-width="1.5" stroke-linecap="round" stroke-linejoin="round"/>
<path id="Path_6" d="M20.7083 15.9162H6.625C5.72754 15.9162 5 15.1886 5 14.2912V6.16618C5 4.96956 5.97005 3.99951 7.16667 3.99951H10.4167" stroke="#487D2C" stroke-width="1.5" stroke-linecap="round" stroke-linejoin="round"/>
</g>
</svg>
