<svg width="27" height="27" viewBox="0 0 27 27" fill="none" xmlns="http://www.w3.org/2000/svg">
<g id="dataflow-04">
<path id="Icon" d="M4.85173 20.0001V19.7834C4.85173 17.9632 4.85173 17.0532 5.20595 16.3579C5.51754 15.7464 6.01473 15.2492 6.62626 14.9376C7.32147 14.5834 8.23155 14.5834 10.0517 14.5834H16.9851C18.8052 14.5834 19.7153 14.5834 20.4105 14.9376C21.0221 15.2492 21.5192 15.7464 21.8308 16.3579C22.1851 17.0532 22.1851 17.9632 22.1851 19.7834V20.0001M4.85173 20.0001C3.65511 20.0001 2.68506 20.9701 2.68506 22.1667C2.68506 23.3634 3.65511 24.3334 4.85173 24.3334C6.04834 24.3334 7.01839 23.3634 7.01839 22.1667C7.01839 20.9701 6.04834 20.0001 4.85173 20.0001ZM22.1851 20.0001C20.9884 20.0001 20.0184 20.9701 20.0184 22.1667C20.0184 23.3634 20.9884 24.3334 22.1851 24.3334C23.3817 24.3334 24.3517 23.3634 24.3517 22.1667C24.3517 20.9701 23.3817 20.0001 22.1851 20.0001ZM13.5184 20.0001C12.3218 20.0001 11.3517 20.9701 11.3517 22.1667C11.3517 23.3634 12.3218 24.3334 13.5184 24.3334C14.715 24.3334 15.6851 23.3634 15.6851 22.1667C15.6851 20.9701 14.715 20.0001 13.5184 20.0001ZM13.5184 20.0001V9.16675M7.01839 9.16675H20.0184C21.0279 9.16675 21.5327 9.16675 21.9309 9.00182C22.4618 8.78192 22.8836 8.36012 23.1035 7.82923C23.2684 7.43106 23.2684 6.92629 23.2684 5.91675C23.2684 4.90721 23.2684 4.40244 23.1035 4.00427C22.8836 3.47337 22.4618 3.05158 21.9309 2.83168C21.5327 2.66675 21.0279 2.66675 20.0184 2.66675H7.01839C6.00885 2.66675 5.50408 2.66675 5.10591 2.83168C4.57502 3.05158 4.15322 3.47337 3.93332 4.00427C3.76839 4.40244 3.76839 4.90721 3.76839 5.91675C3.76839 6.92629 3.76839 7.43106 3.93332 7.82923C4.15322 8.36012 4.57502 8.78192 5.10591 9.00182C5.50408 9.16675 6.00885 9.16675 7.01839 9.16675Z" stroke="white" stroke-width="2.16667" stroke-linecap="round" stroke-linejoin="round"/>
</g>
</svg>
