<svg width="26" height="27" viewBox="0 0 26 27" fill="none" xmlns="http://www.w3.org/2000/svg">
<g id="Group">
<path id="Path" d="M17.3337 7.64186V10.4995C17.3337 12.8927 15.3936 14.8328 13.0003 14.8328V14.8328C10.6071 14.8328 8.66699 12.8927 8.66699 10.4995V7.64185" stroke="#6639C6" stroke-width="1.5" stroke-linecap="round" stroke-linejoin="round"/>
<path id="Path_2" fill-rule="evenodd" clip-rule="evenodd" d="M6.55928 6.59461L11.5533 9.07652C12.4644 9.52931 13.535 9.52931 14.4461 9.07652L19.4402 6.59461C19.8085 6.41158 20.0414 6.03575 20.0414 5.62444C20.0414 5.21313 19.8085 4.8373 19.4402 4.65427L14.4461 2.17235C13.535 1.71957 12.4644 1.71957 11.5533 2.17235L6.55928 4.65427C6.19093 4.8373 5.95801 5.21313 5.95801 5.62444C5.95801 6.03575 6.19093 6.41158 6.55928 6.59461V6.59461Z" stroke="#6639C6" stroke-width="1.5" stroke-linecap="round" stroke-linejoin="round"/>
<path id="Path_3" d="M20.0417 5.62451V8.87451" stroke="#6639C6" stroke-width="1.5" stroke-linecap="round" stroke-linejoin="round"/>
<path id="Path_4" d="M9.75 17.5413L5.86289 18.3184C4.34365 18.6221 3.25002 19.956 3.25 21.5053V23.4996" stroke="#6639C6" stroke-width="1.5" stroke-linecap="round" stroke-linejoin="round"/>
<path id="Path_5" d="M19.4997 18.8953V21.6036" stroke="#6639C6" stroke-width="1.5" stroke-linecap="round" stroke-linejoin="round"/>
<path id="Path_6" d="M20.8538 20.2494H18.1455" stroke="#6639C6" stroke-width="1.5" stroke-linecap="round" stroke-linejoin="round"/>
<circle id="Oval" cx="19.5003" cy="20.2496" r="4.33333" stroke="#6639C6" stroke-width="1.5" stroke-linecap="round" stroke-linejoin="round"/>
</g>
</svg>
