<svg width="27" height="27" viewBox="0 0 27 27" fill="none" xmlns="http://www.w3.org/2000/svg">
<g id="face-content">
<path id="Icon" d="M9.33398 15.9163C9.33398 15.9163 10.959 18.0829 13.6673 18.0829C16.3757 18.0829 18.0007 15.9163 18.0007 15.9163M19.084 10.7596C18.6561 11.285 18.0711 11.5829 17.459 11.5829C16.8469 11.5829 16.2782 11.285 15.834 10.7596M11.5007 10.7596C11.0727 11.285 10.4877 11.5829 9.87565 11.5829C9.26357 11.5829 8.69482 11.285 8.25065 10.7596M24.5007 13.7496C24.5007 19.7327 19.6504 24.5829 13.6673 24.5829C7.68423 24.5829 2.83398 19.7327 2.83398 13.7496C2.83398 7.76651 7.68423 2.91626 13.6673 2.91626C19.6504 2.91626 24.5007 7.76651 24.5007 13.7496Z" stroke="#487D2C" stroke-width="2" stroke-linecap="round" stroke-linejoin="round"/>
</g>
</svg>
