<svg width="77" height="77" viewBox="0 0 77 77" fill="none" xmlns="http://www.w3.org/2000/svg">
<path d="M38.5 76.0586C17.6074 76.0586 0.648438 59.0996 0.648438 38.207C0.648438 17.3145 17.6074 0.355469 38.5 0.355469C59.3926 0.355469 76.3516 17.3145 76.3516 38.207C76.3516 59.0996 59.3926 76.0586 38.5 76.0586ZM38.5 69.75C55.9414 69.75 70.043 55.6484 70.043 38.207C70.043 20.7656 55.9414 6.66406 38.5 6.66406C21.0586 6.66406 6.95703 20.7656 6.95703 38.207C6.95703 55.6484 21.0586 69.75 38.5 69.75ZM25.8086 53.9043C24.1758 53.9043 22.8398 52.5684 22.8398 50.8984C22.8398 50.082 23.1738 49.377 23.7305 48.8203L34.2695 38.2441L23.7305 27.668C23.1738 27.1113 22.8398 26.4062 22.8398 25.5898C22.8398 23.957 24.1758 22.6582 25.8086 22.6582C26.6621 22.6582 27.3301 22.9551 27.8867 23.5488L38.4629 34.0879L49.1504 23.5117C49.7812 22.8809 50.4121 22.584 51.1914 22.584C52.8242 22.584 54.1602 23.9199 54.1602 25.5527C54.1602 26.3691 53.9004 27 53.2695 27.6309L42.6934 38.2441L53.2324 48.7832C53.8262 49.377 54.123 50.0449 54.123 50.8984C54.123 52.5684 52.7871 53.9043 51.1543 53.9043C50.3008 53.9043 49.5957 53.5332 49.0391 52.9766L38.4629 42.4375L27.9609 52.9766C27.4043 53.5703 26.6621 53.9043 25.8086 53.9043Z" fill="#FF2D55"/>
</svg>
