<svg width="26" height="27" viewBox="0 0 26 27" fill="none" xmlns="http://www.w3.org/2000/svg">
<g id="file-search-02">
<path id="Icon" d="M15.1666 12.4568H8.66659M10.8333 16.7901H8.66659M17.3333 8.12345H8.66659M21.6666 11.9151V7.90679C21.6666 6.08662 21.6666 5.17653 21.3124 4.48132C21.0008 3.86979 20.5036 3.3726 19.8921 3.06102C19.1968 2.70679 18.2868 2.70679 16.4666 2.70679H9.53325C7.71308 2.70679 6.803 2.70679 6.10778 3.06102C5.49626 3.3726 4.99907 3.86979 4.68748 4.48132C4.33325 5.17653 4.33325 6.08662 4.33325 7.90679V19.1735C4.33325 20.9936 4.33325 21.9037 4.68748 22.5989C4.99907 23.2105 5.49626 23.7076 6.10778 24.0192C6.803 24.3735 7.71308 24.3735 9.53325 24.3735H12.4583M23.8333 24.3735L22.2083 22.7485M23.2916 20.0401C23.2916 22.1342 21.594 23.8318 19.4999 23.8318C17.4058 23.8318 15.7083 22.1342 15.7083 20.0401C15.7083 17.946 17.4058 16.2485 19.4999 16.2485C21.594 16.2485 23.2916 17.946 23.2916 20.0401Z" stroke="#6639C6" stroke-width="2" stroke-linecap="round" stroke-linejoin="round"/>
</g>
</svg>
