<svg width="27" height="27" viewBox="0 0 27 27" fill="none" xmlns="http://www.w3.org/2000/svg">
<path d="M5.8125 11.585H8.95092C10.1263 11.585 11.0786 10.6327 11.0786 9.45732V9.45732C11.0786 8.8929 10.8543 8.35123 10.4557 7.95257L8.60967 6.10657" stroke="#487D2C" stroke-width="1.4423" stroke-linecap="round" stroke-linejoin="round"/>
<path d="M17.3161 16.4285L15.9793 14.4233C15.7377 14.0604 15.3304 13.8426 14.8938 13.8426V13.8426C14.3998 13.8426 13.948 13.5631 13.727 13.1211L13.6274 12.9207C13.4432 12.5535 13.4432 12.1212 13.6274 11.754L14.48 10.0499C14.701 9.60787 15.1527 9.32837 15.6467 9.32837H18.9628" stroke="#487D2C" stroke-width="1.4423" stroke-linecap="round" stroke-linejoin="round"/>
<path d="M15.833 24.5828H9.33301" stroke="#487D2C" stroke-width="1.5" stroke-linecap="round" stroke-linejoin="round"/>
<path d="M5 19.1661L5.689 18.4771C9.49583 22.284 15.6708 22.2851 19.4777 18.4771C23.2845 14.6703 23.2845 8.4953 19.4777 4.68847C19.1082 4.31905 18.7107 3.99622 18.3012 3.6983L19.0833 2.91614" stroke="#487D2C" stroke-width="1.5" stroke-linecap="round" stroke-linejoin="round"/>
<path d="M12.5837 21.3328V24.5828" stroke="#487D2C" stroke-width="1.5" stroke-linecap="round" stroke-linejoin="round"/>
<path d="M17.371 6.79722C20.0152 9.4414 20.0152 13.7285 17.371 16.3726C14.7269 19.0168 10.4398 19.0168 7.79563 16.3726C5.15146 13.7284 5.15146 9.44139 7.79563 6.79722C10.4398 4.15304 14.7269 4.15304 17.371 6.79722" stroke="#487D2C" stroke-width="1.4423" stroke-linecap="round" stroke-linejoin="round"/>
</svg>
