<svg width="27" height="27" viewBox="0 0 27 27" fill="none" xmlns="http://www.w3.org/2000/svg">
<path d="M23.1915 11.0667C24.0473 11.9226 24.0473 13.3102 23.1915 14.1661C22.3356 15.0219 20.948 15.0219 20.0921 14.1661C19.2362 13.3102 19.2362 11.9226 20.0921 11.0667C20.948 10.2108 22.3356 10.2108 23.1915 11.0667" stroke="#487D2C" stroke-width="1.5" stroke-linecap="round" stroke-linejoin="round"/>
<path d="M16.0528 7.15465C17.3706 8.4725 17.3706 10.6092 16.0528 11.927C14.7349 13.2449 12.5982 13.2449 11.2804 11.927C9.96253 10.6092 9.96253 8.47251 11.2804 7.15465C12.5982 5.8368 14.7349 5.8368 16.0528 7.15465" stroke="#487D2C" stroke-width="1.5" stroke-linecap="round" stroke-linejoin="round"/>
<path d="M7.24126 11.0667C8.09713 11.9226 8.09713 13.3102 7.24126 14.1661C6.3854 15.0219 4.99777 15.0219 4.1419 14.1661C3.28603 13.3102 3.28603 11.9226 4.1419 11.0667C4.99777 10.2108 6.3854 10.2108 7.24126 11.0667" stroke="#487D2C" stroke-width="1.5" stroke-linecap="round" stroke-linejoin="round"/>
<path d="M25.5829 21.3329V20.1456C25.5829 18.6495 24.3707 17.4373 22.8746 17.4373H22.0068" stroke="#487D2C" stroke-width="1.5" stroke-linecap="round" stroke-linejoin="round"/>
<path d="M1.75 21.3329V20.1456C1.75 18.6495 2.96225 17.4373 4.45833 17.4373H5.32608" stroke="#487D2C" stroke-width="1.5" stroke-linecap="round" stroke-linejoin="round"/>
<path d="M19.4508 21.333V19.5986C19.4508 17.5045 17.7532 15.8069 15.6591 15.8069H11.6735C9.57942 15.8069 7.88184 17.5045 7.88184 19.5986V21.333" stroke="#487D2C" stroke-width="1.5" stroke-linecap="round" stroke-linejoin="round"/>
</svg>
