<svg width="27" height="27" viewBox="0 0 27 27" fill="none" xmlns="http://www.w3.org/2000/svg">
<g id="laptop-01">
<path id="Icon" d="M3.64242 17.8333V8.29992C3.64242 7.08647 3.64242 6.47975 3.87857 6.01627C4.08629 5.60859 4.41775 5.27713 4.82544 5.0694C5.28891 4.83325 5.89564 4.83325 7.10908 4.83325H19.6757C20.8892 4.83325 21.4959 4.83325 21.9594 5.0694C22.3671 5.27713 22.6985 5.60859 22.9063 6.01627C23.1424 6.47975 23.1424 7.08647 23.1424 8.29992V17.8333H17.3604C17.0954 17.8333 16.9629 17.8333 16.8382 17.8632C16.7277 17.8897 16.622 17.9335 16.5251 17.9929C16.4158 18.0599 16.3221 18.1536 16.1347 18.3409L16.0668 18.4089C15.8794 18.5963 15.7857 18.69 15.6764 18.7569C15.5795 18.8163 15.4738 18.8601 15.3633 18.8867C15.2386 18.9166 15.1061 18.9166 14.8411 18.9166H11.9437C11.6787 18.9166 11.5463 18.9166 11.4216 18.8867C11.311 18.8601 11.2054 18.8163 11.1084 18.7569C10.9991 18.69 10.9054 18.5963 10.7181 18.4089L10.6501 18.3409C10.4627 18.1536 10.3691 18.0599 10.2597 17.9929C10.1628 17.9335 10.0571 17.8897 9.94658 17.8632C9.82191 17.8333 9.68942 17.8333 9.42445 17.8333H3.64242ZM3.64242 17.8333C3.04411 17.8333 2.55908 18.3183 2.55908 18.9166V19.2777C2.55908 19.9493 2.55908 20.2852 2.63291 20.5607C2.83325 21.3084 3.41727 21.8924 4.16497 22.0928C4.4405 22.1666 4.77632 22.1666 5.44797 22.1666H21.3369C22.0085 22.1666 22.3443 22.1666 22.6199 22.0928C23.3676 21.8924 23.9516 21.3084 24.1519 20.5607C24.2257 20.2852 24.2257 19.9493 24.2257 19.2777C24.2257 18.9419 24.2257 18.774 24.1888 18.6362C24.0887 18.2623 23.7967 17.9703 23.4228 17.8702C23.285 17.8333 23.1171 17.8333 22.7813 17.8333H22.0591" stroke="white" stroke-width="2.16667" stroke-linecap="round" stroke-linejoin="round"/>
</g>
</svg>
