<svg width="27" height="27" viewBox="0 0 27 27" fill="none" xmlns="http://www.w3.org/2000/svg">
<path d="M19.8584 11.9021L22.6532 9.1073" stroke="#487D2C" stroke-width="1.5" stroke-linecap="round" stroke-linejoin="round"/>
<path fill-rule="evenodd" clip-rule="evenodd" d="M17.4312 3.88561L23.9214 10.3759C24.6932 11.1476 24.6932 12.3989 23.9214 13.1707V13.1707C23.1496 13.9425 21.8984 13.9425 21.1266 13.1707L14.6363 6.68044C14.2332 6.27729 13.9716 5.75427 13.891 5.18986L13.6736 3.66823C13.6443 3.46295 13.7133 3.25584 13.8599 3.10921C14.0066 2.96258 14.2137 2.89355 14.419 2.92289L15.9406 3.14028C16.505 3.22092 17.028 3.48245 17.4312 3.88561Z" stroke="#487D2C" stroke-width="1.5" stroke-linecap="round" stroke-linejoin="round"/>
<path fill-rule="evenodd" clip-rule="evenodd" d="M20.6114 19.8008L7.61571 6.80518C6.99605 6.18553 6.06414 6.00017 5.25452 6.33552C4.4449 6.67088 3.917 7.46091 3.91699 8.33723V21.3329C3.91699 22.5295 4.88704 23.4996 6.08366 23.4996H19.0793C19.9557 23.4996 20.7457 22.9717 21.081 22.162C21.4164 21.3524 21.231 20.4205 20.6114 19.8008Z" stroke="#487D2C" stroke-width="1.5" stroke-linecap="round" stroke-linejoin="round"/>
<path fill-rule="evenodd" clip-rule="evenodd" d="M13.3252 18.4233L8.99304 14.0912C8.83812 13.9362 8.60515 13.8899 8.40274 13.9737C8.20034 14.0576 8.06836 14.2551 8.06836 14.4742V18.8063C8.06836 19.1055 8.31087 19.348 8.61003 19.348H12.9422C13.1613 19.348 13.3588 19.216 13.4426 19.0136C13.5265 18.8112 13.4801 18.5782 13.3252 18.4233V18.4233Z" stroke="#487D2C" stroke-width="1.5" stroke-linecap="round" stroke-linejoin="round"/>
</svg>
