<svg width="27" height="27" viewBox="0 0 27 27" fill="none" xmlns="http://www.w3.org/2000/svg">
<path d="M5 16.9996H11.5" stroke="#487D2C" stroke-width="1.5" stroke-linecap="round" stroke-linejoin="round"/>
<path fill-rule="evenodd" clip-rule="evenodd" d="M8.17103 10.3175L8.65853 9.53532C9.02686 8.94382 9.85128 8.84957 10.3442 9.34249L12.63 11.6283C13.1587 12.157 13.0059 13.0497 12.331 13.3714L11.4709 13.782C11.057 13.9802 10.563 13.8947 10.238 13.5707L8.32378 11.6565C7.96736 11.3001 7.90453 10.7454 8.17103 10.3175Z" stroke="#487D2C" stroke-width="1.5" stroke-linecap="round" stroke-linejoin="round"/>
<path d="M13.6675 11.5829H14.1474C16.5405 11.5829 18.4807 13.5231 18.4807 15.9162C18.4807 18.3093 16.5405 20.2496 14.1474 20.2496C12.1302 20.2496 10.451 18.8651 9.9668 16.9996" stroke="#487D2C" stroke-width="1.5" stroke-linecap="round" stroke-linejoin="round"/>
<path d="M16.5293 8.7207C19.5496 9.71954 21.7304 12.5611 21.7304 15.9162C21.7304 20.1044 18.3352 23.4995 14.1471 23.4995C10.3272 23.4995 7.17689 20.6731 6.65039 16.9995" stroke="#487D2C" stroke-width="1.5" stroke-linecap="round" stroke-linejoin="round"/>
<path d="M9.71582 9.03375L13.4414 5.30817C13.865 4.88458 14.5507 4.88458 14.9732 5.30817L16.6914 7.02633C17.115 7.44992 17.115 8.13567 16.6914 8.55817L12.9377 12.3119" stroke="#487D2C" stroke-width="1.5" stroke-linecap="round" stroke-linejoin="round"/>
<path d="M7.16699 23.4996H21.2503" stroke="#487D2C" stroke-width="1.5" stroke-linecap="round" stroke-linejoin="round"/>
<path d="M16.8804 7.28632L18.318 5.84873C18.7416 5.42515 18.7416 4.7394 18.318 4.3169L17.6832 3.68207C17.2596 3.25848 16.5738 3.25848 16.1513 3.68207L14.7148 5.11857" stroke="#487D2C" stroke-width="1.5" stroke-linecap="round" stroke-linejoin="round"/>
</svg>
