<svg width="16" height="18" viewBox="0 0 16 18" fill="none" xmlns="http://www.w3.org/2000/svg">
<g id="play">
<path id="Solid" fill-rule="evenodd" clip-rule="evenodd" d="M5.33782 2.02541C5.34579 2.03105 5.35379 2.03672 5.36181 2.0424L12.3943 7.02374C12.5978 7.16785 12.7864 7.30146 12.9313 7.42563C13.0826 7.55521 13.2608 7.73489 13.3634 7.99776C13.499 8.3452 13.499 8.73568 13.3634 9.08312C13.2608 9.34599 13.0826 9.52567 12.9313 9.65525C12.7865 9.77941 12.5978 9.91301 12.3943 10.0571L5.33784 15.0555C5.08912 15.2317 4.86547 15.3901 4.67569 15.4994C4.48578 15.6087 4.22511 15.7337 3.92086 15.7144C3.53169 15.6897 3.17219 15.4853 2.93698 15.1549C2.7531 14.8967 2.70636 14.5969 2.68665 14.3683C2.66696 14.14 2.66697 13.8544 2.66699 13.5367L2.66699 3.57476C2.66699 3.56452 2.66699 3.5543 2.66699 3.54413C2.66697 3.22651 2.66696 2.94091 2.68665 2.71253C2.70636 2.48398 2.7531 2.18422 2.93698 1.92595C3.17219 1.5956 3.53169 1.39118 3.92086 1.36649C4.22511 1.34719 4.48578 1.47215 4.67569 1.5815C4.86546 1.69077 5.08911 1.84921 5.33782 2.02541Z" fill="white"/>
</g>
</svg>
