<svg width="26" height="27" viewBox="0 0 26 27" fill="none" xmlns="http://www.w3.org/2000/svg">
<g id="play-circle">
<g id="Icon">
<path d="M13.0001 24.3735C18.9832 24.3735 23.8334 19.5232 23.8334 13.5401C23.8334 7.55704 18.9832 2.70679 13.0001 2.70679C7.017 2.70679 2.16675 7.55704 2.16675 13.5401C2.16675 19.5232 7.017 24.3735 13.0001 24.3735Z" stroke="#6639C6" stroke-width="2.16667" stroke-linecap="round" stroke-linejoin="round"/>
<path d="M10.2917 10.2526C10.2917 9.73551 10.2917 9.47698 10.3998 9.33265C10.494 9.20687 10.6381 9.12818 10.7948 9.11698C10.9747 9.10414 11.1921 9.24394 11.6271 9.52354L16.741 12.8111C17.1185 13.0537 17.3072 13.175 17.3724 13.3293C17.4293 13.4641 17.4293 13.6162 17.3724 13.7509C17.3072 13.9052 17.1185 14.0265 16.741 14.2691L11.6271 17.5567C11.1921 17.8363 10.9747 17.9761 10.7948 17.9633C10.6381 17.9521 10.494 17.8734 10.3998 17.7476C10.2917 17.6033 10.2917 17.3447 10.2917 16.8277V10.2526Z" stroke="#6639C6" stroke-width="2.16667" stroke-linecap="round" stroke-linejoin="round"/>
</g>
</g>
</svg>
