<svg width="27" height="27" viewBox="0 0 27 27" fill="none" xmlns="http://www.w3.org/2000/svg">
<path d="M5.54202 14.2912V12.3998C5.53982 12.0263 5.6924 11.6685 5.96349 11.4115C6.23459 11.1545 6.59999 11.0213 6.97288 11.0434C9.32636 11.1183 11.6253 11.7711 13.6669 12.9442C15.7085 11.7711 18.0074 11.1183 20.3609 11.0434C20.7338 11.0212 21.0992 11.1545 21.3703 11.4115C21.6414 11.6685 21.794 12.0263 21.7918 12.3998L21.7919 14.2912" stroke="#487D2C" stroke-width="1.5" stroke-linecap="round" stroke-linejoin="round"/>
<path d="M5.54199 18.6245V20.4826C5.54586 21.0638 6.00558 21.5396 6.58638 21.5634C9.08015 21.5419 11.5311 22.2121 13.6669 23.4995C15.8028 22.2121 18.2537 21.5419 20.7475 21.5634C21.3283 21.5396 21.788 21.0638 21.7919 20.4826V18.6245" stroke="#487D2C" stroke-width="1.5" stroke-linecap="round" stroke-linejoin="round"/>
<path d="M13.6667 12.9441V23.4994" stroke="#487D2C" stroke-width="1.5" stroke-linecap="round" stroke-linejoin="round"/>
<ellipse cx="13.6667" cy="5.89543" rx="2.97917" ry="2.97917" stroke="#487D2C" stroke-width="1.5" stroke-linecap="round" stroke-linejoin="round"/>
<path fill-rule="evenodd" clip-rule="evenodd" d="M5.00033 14.2913H6.08366C7.28028 14.2913 8.25033 15.2613 8.25033 16.4579V16.4579C8.25033 17.6545 7.28028 18.6246 6.08366 18.6246H5.00033C4.40202 18.6246 3.91699 18.1396 3.91699 17.5413V15.3746C3.91699 14.7763 4.40202 14.2913 5.00033 14.2913Z" stroke="#487D2C" stroke-width="1.5" stroke-linecap="round" stroke-linejoin="round"/>
<path fill-rule="evenodd" clip-rule="evenodd" d="M22.3337 18.6245H21.2503C20.0537 18.6245 19.0837 17.6545 19.0837 16.4578V16.4578C19.0837 15.2612 20.0537 14.2912 21.2503 14.2912H22.3337C22.932 14.2912 23.417 14.7762 23.417 15.3745V17.5412C23.417 18.1395 22.932 18.6245 22.3337 18.6245Z" stroke="#487D2C" stroke-width="1.5" stroke-linecap="round" stroke-linejoin="round"/>
</svg>
