<svg width="26" height="27" viewBox="0 0 26 27" fill="none" xmlns="http://www.w3.org/2000/svg">
<g id="Group">
<path id="Path" d="M11.374 23.5036V19.7104C11.374 18.8126 12.1019 18.0847 12.9997 18.0847V18.0847C13.8975 18.0847 14.6254 18.8126 14.6254 19.7104V23.5036" stroke="#6639C6" stroke-width="1.5" stroke-linecap="round" stroke-linejoin="round"/>
<path id="Path_2" d="M7.58105 23.5035V13.2076C7.58105 12.468 7.95826 11.7796 8.58139 11.3814L11.8327 9.30377C12.5444 8.84894 13.4555 8.84894 14.1672 9.30377L17.4186 11.3814C18.0417 11.7796 18.4189 12.468 18.4189 13.2076V23.5035" stroke="#6639C6" stroke-width="1.5" stroke-linecap="round" stroke-linejoin="round"/>
<path id="Path_3" d="M13 3.99561H17.3351V6.70507H13" stroke="#6639C6" stroke-width="1.5" stroke-linecap="round" stroke-linejoin="round"/>
<path id="Path_4" d="M12.9999 8.96259V3.99561" stroke="#6639C6" stroke-width="1.5" stroke-linecap="round" stroke-linejoin="round"/>
<path id="Shape_3077" d="M12.9998 13.0267C12.9 13.0273 12.8195 13.1086 12.8199 13.2084C12.8203 13.3082 12.9014 13.3889 13.0012 13.3887C13.1011 13.3885 13.1819 13.3075 13.1819 13.2077C13.1822 13.1594 13.163 13.113 13.1288 13.079C13.0946 13.0449 13.0481 13.0261 12.9998 13.0267" stroke="#6639C6" stroke-width="1.5" stroke-linecap="round" stroke-linejoin="round"/>
<path id="Path_5" d="M18.4189 16.4103H20.5865" stroke="#6639C6" stroke-width="1.5" stroke-linecap="round" stroke-linejoin="round"/>
<path id="Path_6" d="M18.4189 19.6615H20.5865" stroke="#6639C6" stroke-width="1.5" stroke-linecap="round" stroke-linejoin="round"/>
<path id="Path_7" d="M5.41309 16.4103H7.58066" stroke="#6639C6" stroke-width="1.5" stroke-linecap="round" stroke-linejoin="round"/>
<path id="Path_8" d="M5.41309 19.6615H7.58066" stroke="#6639C6" stroke-width="1.5" stroke-linecap="round" stroke-linejoin="round"/>
<path id="Path_9" d="M2.16211 23.5036H23.8378" stroke="#6639C6" stroke-width="1.5" stroke-linecap="round" stroke-linejoin="round"/>
<path id="Path_10" d="M3.24512 23.5036V13.7496C3.24512 13.151 3.73034 12.6658 4.3289 12.6658H7.58026" stroke="#6639C6" stroke-width="1.5" stroke-linecap="round" stroke-linejoin="round"/>
<path id="Path_11" d="M22.7541 23.5036V13.7496C22.7541 13.151 22.2689 12.6658 21.6703 12.6658H18.4189" stroke="#6639C6" stroke-width="1.5" stroke-linecap="round" stroke-linejoin="round"/>
</g>
</svg>
