<svg width="26" height="27" viewBox="0 0 26 27" fill="none" xmlns="http://www.w3.org/2000/svg">
<path d="M17.333 10.4995H18.7325C19.237 10.4995 19.7346 10.617 20.1859 10.8426L20.8944 11.1969C21.4003 11.4498 21.8314 11.8304 22.1451 12.301L23.833 14.8328" stroke="#6639C6" stroke-width="1.5" stroke-linecap="round" stroke-linejoin="round"/>
<path d="M17.3337 21.147V21.3328C17.3337 22.2303 16.6061 22.9578 15.7087 22.9578H3.79199C2.89453 22.9578 2.16699 22.2303 2.16699 21.3328V5.62451C2.16699 4.72705 2.89453 3.99951 3.79199 3.99951H15.7087C16.6061 3.99951 17.3337 4.72705 17.3337 5.62451V15.3745" stroke="#6639C6" stroke-width="1.5" stroke-linecap="round" stroke-linejoin="round"/>
<path d="M21.667 23.4996L16.5936 20.7452C16.0012 20.4236 15.492 19.9683 15.1065 19.4154L12.2144 15.2675C11.7558 14.6098 11.8347 13.7179 12.4017 13.1509V13.1509C13.0478 12.5048 14.0954 12.5047 14.7417 13.1507L16.9664 15.3745L18.417 15.3746" stroke="#6639C6" stroke-width="1.5" stroke-linecap="round" stroke-linejoin="round"/>
<path d="M5.41699 15.9162H7.58366" stroke="#6639C6" stroke-width="1.5" stroke-linecap="round" stroke-linejoin="round"/>
<path d="M5.41699 19.1662H9.75033" stroke="#6639C6" stroke-width="1.5" stroke-linecap="round" stroke-linejoin="round"/>
<path d="M5.72266 10.7162H9.43248" stroke="#6639C6" stroke-width="1.5" stroke-linecap="round" stroke-linejoin="round"/>
<path d="M9.75033 11.5828L8.19033 7.24951H6.97699L5.41699 11.5828" stroke="#6639C6" stroke-width="1.5" stroke-linecap="round" stroke-linejoin="round"/>
</svg>
