<svg width="26" height="27" viewBox="0 0 26 27" fill="none" xmlns="http://www.w3.org/2000/svg">
<g id="star-01">
<path id="Icon" d="M12.223 3.78123C12.4726 3.27538 12.5975 3.02246 12.767 2.94165C12.9144 2.87134 13.0858 2.87134 13.2332 2.94165C13.4027 3.02246 13.5276 3.27538 13.7772 3.78123L16.1461 8.58036C16.2199 8.7297 16.2567 8.80437 16.3106 8.86235C16.3583 8.91368 16.4155 8.95527 16.479 8.98481C16.5508 9.01818 16.6332 9.03023 16.7979 9.05431L22.0968 9.82882C22.6548 9.91038 22.9338 9.95116 23.0629 10.0874C23.1753 10.206 23.2281 10.369 23.2067 10.5309C23.1821 10.717 22.9802 10.9138 22.5762 11.3072L18.7433 15.0404C18.6238 15.1568 18.5641 15.215 18.5255 15.2842C18.4914 15.3455 18.4695 15.4129 18.4611 15.4825C18.4515 15.5612 18.4656 15.6434 18.4938 15.8078L19.3982 21.0808C19.4936 21.6369 19.5413 21.915 19.4517 22.08C19.3737 22.2236 19.235 22.3243 19.0744 22.3541C18.8898 22.3883 18.64 22.257 18.1406 21.9943L13.4035 19.5031C13.2559 19.4255 13.1821 19.3867 13.1043 19.3714C13.0355 19.3579 12.9647 19.3579 12.8959 19.3714C12.8181 19.3867 12.7443 19.4255 12.5967 19.5031L7.85958 21.9943C7.36016 22.257 7.11044 22.3883 6.9258 22.3541C6.76515 22.3243 6.62653 22.2236 6.54855 22.08C6.45892 21.915 6.50661 21.6369 6.602 21.0808L7.50637 15.8078C7.53457 15.6434 7.54867 15.5612 7.53913 15.4825C7.53068 15.4129 7.50879 15.3455 7.47465 15.2842C7.43611 15.215 7.37636 15.1568 7.25688 15.0404L3.42402 11.3072C3.02005 10.9138 2.81806 10.717 2.79348 10.5309C2.7721 10.369 2.82493 10.206 2.93727 10.0874C3.06639 9.95116 3.34538 9.91038 3.90338 9.82882L9.20225 9.05431C9.36704 9.03023 9.44944 9.01818 9.52119 8.98481C9.58473 8.95527 9.64192 8.91368 9.68962 8.86235C9.74348 8.80437 9.78034 8.7297 9.85405 8.58036L12.223 3.78123Z" stroke="#6639C6" stroke-width="2" stroke-linecap="round" stroke-linejoin="round"/>
</g>
</svg>
