<svg width="27" height="27" viewBox="0 0 27 27" fill="none" xmlns="http://www.w3.org/2000/svg">
<g id="star-01">
<path id="Icon" d="M12.723 3.78123C12.9726 3.27538 13.0975 3.02246 13.267 2.94165C13.4144 2.87134 13.5858 2.87134 13.7332 2.94165C13.9027 3.02246 14.0276 3.27538 14.2772 3.78123L16.6461 8.58036C16.7199 8.7297 16.7567 8.80437 16.8106 8.86235C16.8583 8.91368 16.9155 8.95527 16.979 8.98481C17.0508 9.01818 17.1332 9.03023 17.2979 9.05431L22.5968 9.82882C23.1548 9.91038 23.4338 9.95116 23.5629 10.0874C23.6753 10.206 23.7281 10.369 23.7067 10.5309C23.6821 10.717 23.4802 10.9138 23.0762 11.3072L19.2433 15.0404C19.1238 15.1568 19.0641 15.215 19.0255 15.2842C18.9914 15.3455 18.9695 15.4129 18.9611 15.4825C18.9515 15.5612 18.9656 15.6434 18.9938 15.8078L19.8982 21.0808C19.9936 21.6369 20.0413 21.915 19.9517 22.08C19.8737 22.2236 19.735 22.3243 19.5744 22.3541C19.3898 22.3883 19.14 22.257 18.6406 21.9943L13.9035 19.5031C13.7559 19.4255 13.6821 19.3867 13.6043 19.3714C13.5355 19.3579 13.4647 19.3579 13.3959 19.3714C13.3181 19.3867 13.2443 19.4255 13.0967 19.5031L8.35958 21.9943C7.86016 22.257 7.61044 22.3883 7.4258 22.3541C7.26515 22.3243 7.12653 22.2236 7.04855 22.08C6.95892 21.915 7.00661 21.6369 7.102 21.0808L8.00637 15.8078C8.03457 15.6434 8.04867 15.5612 8.03913 15.4825C8.03068 15.4129 8.00879 15.3455 7.97465 15.2842C7.93611 15.215 7.87636 15.1568 7.75688 15.0404L3.92402 11.3072C3.52005 10.9138 3.31806 10.717 3.29348 10.5309C3.2721 10.369 3.32493 10.206 3.43727 10.0874C3.56639 9.95116 3.84538 9.91038 4.40338 9.82882L9.70225 9.05431C9.86704 9.03023 9.94944 9.01818 10.0212 8.98481C10.0847 8.95527 10.1419 8.91368 10.1896 8.86235C10.2435 8.80437 10.2803 8.7297 10.3541 8.58036L12.723 3.78123Z" stroke="#D2A8FF" stroke-width="2" stroke-linecap="round" stroke-linejoin="round"/>
</g>
</svg>
