<svg width="81" height="81" viewBox="0 0 81 81" fill="none" xmlns="http://www.w3.org/2000/svg">
<path d="M40.4629 80.0996C18.457 80.0996 0.570312 62.25 0.570312 40.207C0.570312 18.1641 18.457 0.314453 40.4629 0.314453C62.5059 0.314453 80.3926 18.1641 80.3926 40.207C80.3926 62.25 62.5059 80.0996 40.4629 80.0996ZM36.418 59.0957C38.1992 59.0957 39.832 58.168 40.8711 56.6094L58.0156 30.8926C58.7578 29.8535 59.0918 28.7402 59.0918 27.7383C59.0918 25.1406 56.791 23.248 54.2305 23.248C52.5234 23.248 51.2246 24.1758 50.0742 25.957L36.3438 47.6289L30.4434 40.6152C29.4043 39.3906 28.2539 38.7969 26.7695 38.7969C24.209 38.7969 22.0566 40.8379 22.0566 43.4727C22.0566 44.6973 22.3906 45.6621 23.4297 46.8496L31.8164 56.7207C33.0781 58.2422 34.5625 59.0957 36.418 59.0957Z" fill="#20B486"/>
</svg>
