<svg width="27" height="27" viewBox="0 0 27 27" fill="none" xmlns="http://www.w3.org/2000/svg">
<g id="user-01">
<path id="Fill" opacity="0.12" d="M13.5 13.54C16.1924 13.54 18.375 11.3574 18.375 8.66504C18.375 5.97265 16.1924 3.79004 13.5 3.79004C10.8076 3.79004 8.625 5.97265 8.625 8.66504C8.625 11.3574 10.8076 13.54 13.5 13.54Z" fill="black"/>
<path id="Icon" d="M22.1667 23.29C22.1667 21.7782 22.1667 21.0222 21.9801 20.4071C21.56 19.0222 20.4762 17.9384 19.0913 17.5183C18.4762 17.3317 17.7202 17.3317 16.2084 17.3317H10.7917C9.27985 17.3317 8.52392 17.3317 7.9088 17.5183C6.52387 17.9384 5.44008 19.0222 5.01997 20.4071C4.83337 21.0222 4.83337 21.7782 4.83337 23.29M18.375 8.66504C18.375 11.3574 16.1924 13.54 13.5 13.54C10.8077 13.54 8.62504 11.3574 8.62504 8.66504C8.62504 5.97265 10.8077 3.79004 13.5 3.79004C16.1924 3.79004 18.375 5.97265 18.375 8.66504Z" stroke="#6639C6" stroke-width="2" stroke-linecap="round" stroke-linejoin="round"/>
</g>
</svg>
