<svg width="26" height="27" viewBox="0 0 26 27" fill="none" xmlns="http://www.w3.org/2000/svg">
<g id="video-recorder">
<g id="Icon">
<path d="M23.8333 10.2158C23.8333 9.55947 23.8333 9.23132 23.7035 9.07937C23.5909 8.94752 23.422 8.87755 23.2491 8.89116C23.0499 8.90683 22.8179 9.13887 22.3538 9.60295L18.4166 13.5401L22.3538 17.4773C22.8179 17.9414 23.0499 18.1734 23.2491 18.1891C23.422 18.2027 23.5909 18.1327 23.7035 18.0009C23.8333 17.8489 23.8333 17.5208 23.8333 16.8645V10.2158Z" stroke="#6639C6" stroke-width="2" stroke-linecap="round" stroke-linejoin="round"/>
<path d="M2.16663 11.1568C2.16663 9.33662 2.16663 8.42653 2.52085 7.73132C2.83244 7.11979 3.32963 6.6226 3.94116 6.31102C4.63637 5.95679 5.54646 5.95679 7.36663 5.95679H13.2166C15.0368 5.95679 15.9469 5.95679 16.6421 6.31102C17.2536 6.6226 17.7508 7.11979 18.0624 7.73132C18.4166 8.42653 18.4166 9.33662 18.4166 11.1568V15.9235C18.4166 17.7436 18.4166 18.6537 18.0624 19.3489C17.7508 19.9605 17.2536 20.4576 16.6421 20.7692C15.9469 21.1235 15.0368 21.1235 13.2166 21.1235H7.36663C5.54646 21.1235 4.63637 21.1235 3.94116 20.7692C3.32963 20.4576 2.83244 19.9605 2.52085 19.3489C2.16663 18.6537 2.16663 17.7436 2.16663 15.9235V11.1568Z" stroke="#6639C6" stroke-width="2" stroke-linecap="round" stroke-linejoin="round"/>
</g>
</g>
</svg>
