<svg width="150" height="168" viewBox="0 0 150 168" fill="none" xmlns="http://www.w3.org/2000/svg">
  <path d="M93.2676 148.377C90.5934 154.307 88.8257 160.742 88.1484 167.49L144.74 155.46C147.414 149.532 149.181 143.095 149.859 136.347L93.2676 148.377Z" fill="#52525b"/>
  <path d="M144.74 119.419C147.415 113.491 149.182 107.055 149.859 100.307L105.776 109.682V91.6588L144.739 83.3789C147.413 77.4506 149.181 71.0144 149.858 64.2662L105.775 73.6339V8.81581C99.0202 12.6085 93.0213 17.6569 88.1448 23.6119V77.3826L70.5145 81.13V0C63.7596 3.79134 57.7607 8.84114 52.8842 14.7961V84.876L13.4363 93.2585C10.7621 99.1869 8.99311 105.623 8.31456 112.371L52.8842 102.9V125.597L5.11911 135.747C2.44491 141.676 0.677216 148.112 0 154.86L49.9967 144.235C54.0667 143.389 57.5647 140.982 59.839 137.671L69.0081 124.077V124.075C69.9599 122.668 70.5145 120.972 70.5145 119.146V99.1522L88.1448 95.4048V131.452L144.739 119.417L144.74 119.419Z" fill="#52525b"/>
</svg>
