<svg width="41" height="40" viewBox="0 0 41 40" fill="none" xmlns="http://www.w3.org/2000/svg">
<path d="M37.6545 20.4123C37.6554 16.9086 36.6324 13.4832 34.7149 10.5699C32.7974 7.65655 30.0717 5.3861 26.8826 4.04589C23.6936 2.70568 20.1846 2.35595 16.7996 3.04095C13.4147 3.72594 10.306 5.41489 7.86702 7.89404C5.428 10.3732 3.76827 13.5311 3.09786 16.9682C2.42745 20.4052 2.77651 23.9669 4.10085 27.2025C5.42519 30.4381 7.66529 33.2022 10.5377 35.1449C13.41 37.0877 16.7856 38.1217 20.2371 38.1163C24.8582 38.1091 29.2876 36.2407 32.5531 32.9215C35.8186 29.6023 37.6533 25.1034 37.6545 20.4123Z" fill="#FFDEA5"/>
<path d="M20.2369 38.2947C16.7509 38.3037 13.3407 37.2626 10.4379 35.3032C7.5351 33.3438 5.27025 30.5541 3.93006 27.2874C2.58986 24.0206 2.23458 20.4236 2.90918 16.9518C3.58379 13.4799 5.25795 10.2893 7.71974 7.78386C10.1815 5.27839 13.3202 3.57071 16.7386 2.877C20.1569 2.18329 23.7011 2.53474 26.9226 3.88686C30.144 5.23898 32.8979 7.53097 34.8355 10.4727C36.7731 13.4144 37.8074 16.8736 37.8074 20.4123C37.8015 25.1453 35.9499 29.6833 32.6573 33.0343C29.3648 36.3852 24.8992 38.2765 20.2369 38.2947ZM20.2369 2.88671C16.8201 2.88128 13.4785 3.90491 10.6351 5.82805C7.79157 7.75119 5.57399 10.4874 4.26295 13.6904C2.95191 16.8934 2.60633 20.4192 3.26996 23.8217C3.93359 27.2242 5.57659 30.3503 7.99103 32.8045C10.4055 35.2587 13.4828 36.9307 16.8337 37.6088C20.1845 38.2869 23.6582 37.9407 26.8152 36.614C29.9721 35.2873 32.6704 33.0397 34.5686 30.1557C36.4667 27.2717 37.4794 23.8808 37.4786 20.4123C37.4726 15.7701 35.6549 11.3193 32.4234 8.03459C29.1919 4.74986 24.8099 2.89881 20.2369 2.88671Z" fill="#862912"/>
<path d="M31.1164 20.3893C31.1172 22.5875 30.4759 24.7367 29.2735 26.5649C28.0711 28.3931 26.3616 29.8183 24.3612 30.6602C22.3608 31.502 20.1594 31.7228 18.0355 31.2945C15.9115 30.8661 13.9604 29.808 12.4288 28.254C10.8973 26.6999 9.85419 24.7196 9.4314 22.5637C9.00861 20.4077 9.22515 18.1729 10.0536 16.1419C10.8821 14.1109 12.2853 12.3749 14.0858 11.1536C15.8862 9.93219 18.0031 9.28027 20.1685 9.28027C23.0713 9.28027 25.8552 10.4505 27.9082 12.5337C29.9612 14.617 31.1152 17.4426 31.1164 20.3893Z" fill="#FFF7ED"/>
<path d="M28.6167 21.6655V17.3985H28.432V14.9333H28.0896V14.7824H28.1887V14.3845H26.0937L25.7693 14.8099V15.9349L25.7198 15.9578V17.4625L25.6387 17.5036V17.7415H24.6746V16.7307H15.7631V17.7552H14.799V17.5174L14.7134 17.4762V15.9578L14.6638 15.9349V14.8099L14.3395 14.3845H12.249V14.7824H12.3526V14.9333H12.0057V17.403H11.8255V21.6198L8.55469 23.7785L20.1558 28.8093H20.1873L31.7929 23.7785L28.6167 21.6655Z" fill="#FFDEA5"/>
<path d="M29.981 9.55908L29.9766 9.56358V9.56807L29.981 9.55908Z" fill="white"/>
<path d="M23.0297 17.4573H23.1063V17.1875H22.8359V17.2652H23.0297V17.4573Z" fill="#897452"/>
<path d="M23.6469 17.2652H24.0389V17.6494L24.1109 17.7272V17.1875H23.5703L23.6469 17.2652Z" fill="#897452"/>
<path d="M17.4106 17.2652H17.5998V17.1875H17.334V17.4573H17.4106V17.2652Z" fill="#897452"/>
<path d="M22.3611 17.4573H22.4377V17.1875H22.1719V17.2652H22.3611V17.4573Z" fill="#897452"/>
<path d="M16.3242 17.7272L16.4008 17.6494V17.2652H16.7883L16.8649 17.1875H16.3242V17.7272Z" fill="#897452"/>
<path d="M18.7446 17.2652H18.9338V17.1875H18.668V17.4573H18.7446V17.2652Z" fill="#897452"/>
<path d="M18.0785 17.2652H18.2678V17.1875H18.002V17.4573H18.0785V17.2652Z" fill="#897452"/>
<path d="M21.697 17.4573H21.7736V17.1875H21.5078V17.2652H21.697V17.4573Z" fill="#897452"/>
<path d="M19.4067 17.2652H19.6004V17.1875H19.3301V17.4573H19.4067V17.2652Z" fill="#897452"/>
<path d="M21.0291 17.4573H21.1057V17.1875H20.8398V17.2652H21.0291V17.4573Z" fill="#897452"/>
<path d="M26.8008 15.8982V16.0263H27.6568V17.4395H27.7874V15.8982H26.8008Z" fill="#897452"/>
<path d="M26.0039 14.6816V15.1298L26.1255 15.0292H26.3508V14.6816H26.0625H26.0039Z" fill="#897452"/>
<path d="M26.0251 15.9619H25.9395V17.4117H26.0251V15.9619Z" fill="#897452"/>
<path d="M14.4952 15.9619H14.4141V17.4117H14.4952V15.9619Z" fill="#897452"/>
<path d="M14.4373 14.6816H14.3788H14.0859V15.0292H14.3157L14.4373 15.1298V14.6816Z" fill="#897452"/>
<path d="M12.6523 17.4395H12.7785V16.0263H13.639V15.8982H12.6523V17.4395Z" fill="#897452"/>
<path d="M14.6636 17.8325H14.5645V21.6788H14.6636V17.8325Z" fill="#897452"/>
<path d="M25.8784 17.8325H25.7793V21.6788H25.8784V17.8325Z" fill="#897452"/>
<path d="M20.2635 18.1024C19.7062 18.1012 19.156 18.2291 18.6548 18.4764C18.1535 18.7237 17.7145 19.0838 17.3711 19.5293V23.8421H23.1784V19.5431C22.835 19.0909 22.3931 18.7255 21.8874 18.4756C21.3817 18.2257 20.8259 18.0979 20.2635 18.1024ZM23.0793 23.7552H17.4612V19.5614C17.796 19.1303 18.2227 18.7819 18.7093 18.5424C19.1958 18.3028 19.7295 18.1784 20.2702 18.1784C20.811 18.1784 21.3447 18.3028 21.8312 18.5424C22.3178 18.7819 22.7445 19.1303 23.0793 19.5614V23.7552Z" fill="#897452"/>
<path d="M20.1271 17.7002H20.3118V16.7307H23.4926C23.2941 16.0173 22.8717 15.3893 22.2894 14.942C21.7072 14.4947 20.997 14.2527 20.2668 14.2527C19.5366 14.2527 18.8264 14.4947 18.2442 14.942C17.6619 15.3893 17.2394 16.0173 17.041 16.7307H20.1271V17.7002Z" fill="#86C2EB"/>
<path d="M22.1427 19.5616C21.5947 19.1508 20.9316 18.9292 20.2504 18.9292C19.5693 18.9292 18.9061 19.1508 18.3582 19.5616H17.4121L18.2366 19.7491V23.7875H22.2913V19.7491L23.1113 19.5616H22.1427Z" fill="#86C2EB"/>
<path d="M31.8326 23.8238C31.8405 23.8203 31.8473 23.8146 31.8521 23.8073C31.8569 23.8 31.8595 23.7914 31.8597 23.7827C31.8632 23.7764 31.8651 23.7693 31.8651 23.7621C31.8651 23.7549 31.8632 23.7478 31.8597 23.7415L27.9671 21.1712C27.9616 21.168 27.9554 21.1663 27.9491 21.1663C27.9427 21.1663 27.9365 21.168 27.9311 21.1712L27.4039 21.3038C27.3927 21.3071 27.3831 21.3146 27.3772 21.3248C27.3714 21.3351 27.3696 21.3472 27.3724 21.3587C27.3756 21.3701 27.383 21.3798 27.3931 21.3858C27.4031 21.3918 27.4151 21.3936 27.4265 21.3907L27.9175 21.2535L31.72 23.769L20.1865 28.7678L8.64847 23.7735L12.4554 21.2581L12.951 21.3953C12.9566 21.3974 12.9626 21.3982 12.9686 21.3977C12.9745 21.3972 12.9803 21.3953 12.9855 21.3923C12.9906 21.3892 12.9951 21.385 12.9985 21.38C13.0019 21.375 13.0041 21.3693 13.0051 21.3633C13.0071 21.3576 13.0079 21.3515 13.0074 21.3455C13.0069 21.3394 13.0051 21.3336 13.0021 21.3283C12.999 21.3231 12.9949 21.3186 12.99 21.3151C12.9851 21.3117 12.9794 21.3094 12.9735 21.3084L12.4599 21.1621C12.4482 21.1582 12.4356 21.1582 12.4239 21.1621L8.52232 23.7415C8.51876 23.7478 8.51689 23.7549 8.51689 23.7621C8.51689 23.7693 8.51876 23.7764 8.52232 23.7827C8.52246 23.7914 8.52509 23.8 8.52988 23.8073C8.53467 23.8146 8.54143 23.8203 8.54935 23.8238L8.36914 24.3315L19.362 29.0788V29.3989H21.0064V29.0788L32.0128 24.3315L31.8326 23.8238Z" fill="#CF9C69"/>
<path d="M20.1855 23.6682C20.6766 22.9745 21.4097 22.4969 22.2354 22.3327C23.6321 22.0492 26.4794 21.8251 26.8984 20.9607L30.1963 23.4258C29.5743 23.9867 28.8394 24.4034 28.0428 24.6469C26.7317 25.0402 21.821 25.3512 20.1855 27.9856V23.6682Z" fill="white"/>
<path d="M20.1826 23.6682C19.6916 22.9745 18.9585 22.4969 18.1327 22.3327C16.7361 22.0492 13.8887 21.8251 13.4652 20.9607L10.1719 23.4258C10.7927 23.986 11.5259 24.4027 12.3209 24.6469C13.6364 25.0402 18.5472 25.3512 20.1826 27.9856V23.6682Z" fill="white"/>
<path d="M21.7233 23.6135C21.9452 23.4864 22.1854 23.3953 22.4351 23.3436L22.7009 23.2979C23.3992 23.1698 25.2374 22.8406 26.3051 22.5204L26.2601 22.4792C25.1923 22.7948 23.3902 23.1333 22.6919 23.243L22.4261 23.2933C22.1775 23.3415 21.9385 23.4312 21.7188 23.5586L21.7233 23.6135Z" fill="#897452"/>
<path d="M26.5932 23.4582L27.1924 23.3438L27.1429 23.2981L26.5842 23.4033C24.9643 23.6523 23.3803 24.1008 21.8672 24.7387V24.7936C23.3804 24.1514 24.9664 23.7028 26.5887 23.4582H26.5932Z" fill="#897452"/>
<path d="M26.6743 23.9522C27.0483 23.8836 27.4042 23.815 27.643 23.7601L27.5934 23.7144C27.3591 23.7692 27.0212 23.8333 26.6653 23.8973C25.0336 24.1442 23.4404 24.6054 21.9258 25.2693V25.3242C23.4426 24.6578 25.0391 24.1965 26.6743 23.9522Z" fill="#897452"/>
<path d="M22.907 23.696L22.7538 23.7234C22.4129 23.8032 22.0862 23.9358 21.7852 24.1167V24.1762C22.0844 23.9907 22.4117 23.8563 22.7538 23.7783L22.907 23.7463C24.8623 23.3575 26.1373 23.0785 26.7229 22.9139L26.6734 22.8682C26.0922 23.0374 24.8262 23.3118 22.907 23.696Z" fill="#897452"/>
<path d="M17.6006 23.7783C17.9444 23.8554 18.2733 23.9899 18.5737 24.1762V24.1167C18.2727 23.9358 17.946 23.8032 17.6051 23.7234L17.4384 23.6914C15.5327 23.3118 14.2847 23.0374 13.6765 22.8682L13.627 22.9139C14.2126 23.0785 15.4876 23.3712 17.4294 23.7463L17.6006 23.7783Z" fill="#897452"/>
<path d="M14.0586 22.5204C15.1308 22.8406 16.969 23.1698 17.6628 23.2979L17.9286 23.3436C18.1771 23.3945 18.4159 23.4856 18.636 23.6135V23.5586C18.4159 23.4318 18.177 23.3422 17.9286 23.2933L17.6628 23.243C16.969 23.1195 15.1624 22.7857 14.0901 22.4792L14.0586 22.5204Z" fill="#897452"/>
<path d="M13.7717 23.4582C15.3937 23.704 16.9796 24.1525 18.4932 24.7936V24.7387C16.9805 24.0998 15.3963 23.6513 13.7762 23.4033L13.213 23.2981L13.168 23.3438L13.7717 23.4582Z" fill="#897452"/>
<path d="M13.6893 23.9522C15.3244 24.197 16.9209 24.6583 18.4379 25.3242V25.2693C16.9231 24.606 15.33 24.1448 13.6983 23.8973C13.3424 23.8333 13.0045 23.7692 12.7703 23.7144L12.7207 23.7601C12.964 23.815 13.3154 23.8836 13.6893 23.9522Z" fill="#897452"/>
<path d="M20.1819 28.0042C20.1819 28.0042 20.1504 28.0042 20.1504 27.9767V23.6685C20.1504 23.66 20.1537 23.6519 20.1596 23.6459C20.1655 23.6398 20.1736 23.6365 20.1819 23.6365C20.1819 23.6365 20.209 23.6365 20.209 23.6685V27.9767C20.2098 27.9805 20.2097 27.9844 20.2087 27.9882C20.2076 27.9919 20.2056 27.9953 20.2029 27.9981C20.2002 28.0008 20.1969 28.0028 20.1932 28.0039C20.1895 28.0049 20.1857 28.005 20.1819 28.0042Z" fill="#CF9C69"/>
<path fill-rule="evenodd" clip-rule="evenodd" d="M21.3678 4.95383C21.1606 4.99957 21.2597 4.74345 21.0885 4.7526C21.1426 6.06976 21.1876 7.63847 20.4082 8.24217C20.5721 7.83167 20.712 7.41171 20.8272 6.98446C20.9038 6.35332 20.7281 5.67187 20.7596 5.03158C20.7596 4.91724 20.8047 4.79376 20.8002 4.67942C20.7957 4.56509 20.7371 4.42331 20.7461 4.31812C20.7731 4.09402 20.9578 3.92937 21.0525 3.77387C21.07 3.76896 21.0886 3.76987 21.1057 3.77644C21.1227 3.78302 21.1372 3.79494 21.1471 3.81046C21.1381 4.25409 21.3994 4.47362 21.3678 4.95383Z" fill="#781300"/>
<path fill-rule="evenodd" clip-rule="evenodd" d="M24.4206 4.29517C24.4206 4.45524 24.2899 4.44609 24.2539 4.55128C23.4862 4.72846 22.7331 4.96546 22.0013 5.26017C21.9292 5.29676 21.8661 5.43854 21.7715 5.35164C21.7715 4.98576 22.222 4.89429 22.6725 4.76166C23.2355 4.53819 23.8221 4.38165 24.4206 4.29517Z" fill="#781300"/>
<path fill-rule="evenodd" clip-rule="evenodd" d="M15.9703 4.38208C16.2425 4.62839 16.4448 4.94424 16.556 5.29678C16.556 5.45228 16.4253 5.29678 16.3938 5.36081C16.8083 6.3624 17.5201 7.24966 17.2949 8.76806C17.2426 8.39321 17.1674 8.02204 17.0696 7.6567C16.7903 6.87463 16.3037 6.16117 16.0514 5.31507C15.7315 5.13213 15.8081 4.72052 15.9703 4.38208Z" fill="#781300"/>
<path fill-rule="evenodd" clip-rule="evenodd" d="M14.1897 5.12305C14.2392 5.12305 14.2437 5.15506 14.2843 5.15963C14.4104 5.32428 14.5501 5.47063 14.6853 5.61698C14.8369 5.75924 14.9621 5.92812 15.0547 6.11549C14.9105 6.19782 14.8114 6.00573 14.6763 5.97372C14.852 6.64602 15.3475 7.15368 15.2259 8.00892C15.775 7.90173 16.3144 7.74876 16.8388 7.55157C16.7622 7.72994 16.8838 7.97691 16.7892 8.16899C16.1224 8.20101 15.6404 8.88246 15.2169 9.32151C15.1448 9.39926 15.0592 9.46329 14.9871 9.54104C14.7979 9.75142 14.4735 10.1539 14.0861 10.1676C13.6986 10.1813 13.5274 9.86118 13.3652 9.55933C12.7255 10.2408 12.1398 10.9771 11.5406 11.7134C10.9414 12.4498 10.4773 13.2776 9.87363 14.0002C9.7218 14.2046 9.51767 14.3628 9.28344 14.4575C9.32849 14.732 9.65287 14.7685 9.61683 15.0521C9.54925 15.6055 8.54457 15.0521 8.37787 14.7548C8.4004 15.107 8.72478 15.3585 8.66621 15.7701C8.58512 16.3418 8.01745 16.4241 7.42726 16.5156C7.17947 16.5659 7.53088 17.1285 7.68857 17.3983C7.84625 17.6681 8.08503 17.755 8.21568 18.098C8.60764 19.1637 7.09387 18.7658 6.59829 18.5554C6.34887 18.4477 6.13369 18.2719 5.97656 18.0477C6.46313 18.2032 7.09387 18.6469 7.69307 18.3953C8.21568 18.1163 7.09387 17.3068 6.90915 16.6803C6.83707 16.415 6.90915 15.8982 7.1209 16.0034C7.23117 16.0472 7.34967 16.0656 7.4678 16.0571C7.58593 16.0486 7.70071 16.0135 7.80382 15.9544C7.90693 15.8953 7.99577 15.8136 8.06389 15.7153C8.13202 15.617 8.17771 15.5045 8.19766 15.386C8.24272 14.9606 7.88229 14.5993 7.88229 14.206C8.27106 14.2113 8.6553 14.1209 9.0021 13.9424C9.34891 13.764 9.64795 13.5029 9.87363 13.1815C9.95923 13.0626 10.8603 11.8461 11.2613 11.3521L11.4595 11.096C11.6352 10.8674 11.8244 10.6387 12.0271 10.3688C12.0271 10.3688 12.1082 10.2591 12.1263 10.2408C12.2074 10.1447 12.3245 10.0213 12.4236 9.8932C12.7061 9.58659 12.9623 9.2561 13.1895 8.90532C12.5948 8.53487 12.1263 9.19345 11.7613 9.57763C11.1666 10.2042 10.635 10.8353 10.1034 11.4802C9.85447 11.8115 9.58828 12.129 9.30596 12.4315C9.06256 12.6553 8.7544 12.7933 8.42743 12.8248C8.07152 12.2165 8.26524 10.968 8.47249 10.2271C8.53537 9.88621 8.71197 9.57774 8.97257 9.35353C9.15729 9.41755 9.17531 9.64623 9.14828 9.91149C9.17531 10.0258 9.04466 9.9618 8.98609 9.97552C8.65234 10.6583 8.44612 11.398 8.37787 12.1571C8.61602 12.1656 8.85132 12.1024 9.05415 11.9754C9.25698 11.8485 9.41827 11.6634 9.51771 11.4436C9.97266 10.7964 10.4838 10.1918 11.045 9.63708C11.2927 9.32503 11.559 9.02872 11.8424 8.74982C12.0722 8.54402 12.7029 8.01807 13.1039 8.29248C13.4013 8.50286 13.2976 9.29864 13.64 9.54561C13.786 9.63035 13.9575 9.658 14.1221 9.62336C14.6051 9.39871 15.0147 9.03847 15.3025 8.58518C14.8114 8.7361 14.1717 8.73153 13.7572 8.96021C13.6941 8.04551 14.5501 8.11868 14.9781 7.72994C14.8781 7.43139 14.7467 7.14466 14.5861 6.87469C14.4465 6.58199 14.3519 6.25727 14.2257 6.01945C14.1717 5.90969 14.0275 5.79992 14.014 5.68559C14.0192 5.48502 14.0801 5.29003 14.1897 5.12305ZM8.58061 14.6313C8.76983 14.6588 8.95004 14.8875 9.1663 14.7411C9.15729 14.4438 8.70225 14.5307 8.58061 14.6313Z" fill="#781300"/>
<path fill-rule="evenodd" clip-rule="evenodd" d="M23.3886 6.28003C23.2715 6.28003 23.2354 6.23887 23.1633 6.20686C23.3661 6.55444 23.8887 6.86086 23.8977 7.46457C23.8987 7.62972 23.8712 7.79379 23.8166 7.94935C23.0975 8.25155 22.3504 8.47984 21.5865 8.63081C20.4106 8.71313 21.3072 7.15814 21.5865 6.80141C21.6225 7.13985 21.136 7.96765 21.4243 7.99966C22.2217 8.06369 22.9246 7.74355 23.6139 7.5789C23.5418 7.22674 23.1904 7.08954 22.9966 6.84257C22.8029 6.5956 22.8164 6.61847 22.6678 6.41266C22.6124 6.32043 22.5759 6.21782 22.5604 6.11096C22.5449 6.00411 22.5508 5.89518 22.5776 5.79067C22.6452 5.65346 22.7534 5.55285 22.8164 5.40649H22.9381C23.0327 5.75408 23.285 5.92787 23.3886 6.28003Z" fill="#781300"/>
<path fill-rule="evenodd" clip-rule="evenodd" d="M20.56 5.90928C20.5954 6.13246 20.5557 6.36123 20.4474 6.55872C20.2807 6.59988 20.2897 6.47639 20.1951 6.45353C19.7446 6.58158 19.5283 7.04351 19.294 7.50085C19.1816 7.70863 19.0583 7.91015 18.9246 8.10455C18.7174 8.41098 18.5957 8.83631 18.1046 8.76314C17.7713 8.71283 17.7397 8.45214 17.7082 8.00394C17.6766 7.55574 17.6812 6.94289 17.983 6.66848C17.6496 7.23102 17.9289 8.73112 18.5867 8.04053C19.2445 7.34993 19.3031 5.75378 20.56 5.90928Z" fill="#781300"/>
<path fill-rule="evenodd" clip-rule="evenodd" d="M10.1895 8.25599C10.3243 8.21252 10.4691 8.21252 10.6039 8.25599C10.8652 8.48923 10.7887 9.10208 10.4237 9.03348C10.1579 8.99232 10.221 8.58528 10.1895 8.25599ZM10.2435 8.54869C10.2372 8.57806 10.2375 8.60847 10.2443 8.63771C10.2512 8.66695 10.2643 8.69427 10.2829 8.71766C10.3015 8.74105 10.325 8.75993 10.3517 8.77289C10.3784 8.78585 10.4076 8.79258 10.4372 8.79258C10.4668 8.79258 10.4961 8.78585 10.5228 8.77289C10.5495 8.75993 10.573 8.74105 10.5916 8.71766C10.6101 8.69427 10.6233 8.66695 10.6301 8.63771C10.637 8.60847 10.6372 8.57806 10.631 8.54869C10.4958 8.49838 10.2751 8.45722 10.2435 8.54869Z" fill="#781300"/>
<path fill-rule="evenodd" clip-rule="evenodd" d="M16.6323 8.71338C16.6665 8.73309 16.6934 8.76361 16.7089 8.80028C16.6008 9.17988 15.6997 9.82474 15.4789 9.97109C15.3213 9.64637 15.7267 9.51374 15.9295 9.34452C16.1774 9.1503 16.4122 8.93945 16.6323 8.71338Z" fill="#781300"/>
<path fill-rule="evenodd" clip-rule="evenodd" d="M6.86036 11.4712C6.90992 11.4712 6.91443 11.5032 6.95497 11.5032C6.9791 12.0504 6.91983 12.598 6.77927 13.1268C6.65312 13.8082 6.54049 14.4714 6.45939 15.2306C6.13952 15.0888 6.24764 14.6772 6.2927 14.3799C6.4224 13.4338 6.59984 12.495 6.82432 11.5672C6.81531 11.5124 6.85586 11.5124 6.86036 11.4712Z" fill="#781300"/>
<path fill-rule="evenodd" clip-rule="evenodd" d="M6.09055 15.8159C6.25274 15.8937 6.24372 16.1361 6.27076 16.3419C6.14911 16.4745 5.95088 16.5111 5.82023 16.6209C6.0545 17.1011 5.64002 17.2383 5.28861 17.3526C5.22103 17.1651 5.08587 17.0416 5.1129 16.7626C5.29762 16.7215 5.41926 16.6026 5.59947 16.5477C5.56099 16.4097 5.53238 16.2691 5.51387 16.1269C5.67587 15.9737 5.87476 15.8664 6.09055 15.8159Z" fill="#781300"/>
<path fill-rule="evenodd" clip-rule="evenodd" d="M19.979 7.99512C20.0139 8.0149 20.0397 8.04772 20.0511 8.08659C19.8799 8.42045 19.2852 8.68114 19.0554 8.8092C18.9113 8.63541 19.3212 8.37472 19.5375 8.26038C19.6971 8.19536 19.846 8.1059 19.979 7.99512Z" fill="#781300"/>
<path fill-rule="evenodd" clip-rule="evenodd" d="M35.0035 12.5093L34.8639 12.5779L32.85 13.3417L32.4851 13.4834C32.3411 13.5468 32.2158 13.6472 32.1218 13.7747C32.0278 13.9023 31.9682 14.0525 31.9489 14.2106C31.9013 14.5419 31.929 14.8798 32.03 15.1985C32.1933 15.7702 32.4137 16.3234 32.6878 16.8495C32.7091 16.885 32.7332 16.9187 32.7599 16.9502C32.8185 16.7215 32.895 16.5157 32.9311 16.3053C32.9708 15.9384 32.9403 15.5673 32.841 15.2122C33.0565 15.2315 33.258 15.3289 33.4086 15.4866C33.5403 15.7949 33.5718 16.1377 33.4988 16.4654C33.3794 16.8869 33.2891 17.3163 33.2284 17.7505C33.2059 18.0382 33.2059 18.3272 33.2284 18.6149C33.2284 18.6606 33.2284 18.7064 33.2284 18.775C33.032 18.7088 32.8532 18.5977 32.7058 18.4503C32.7058 18.4503 32.6788 18.3862 32.6788 18.3542C32.7028 17.9688 32.6083 17.5852 32.4085 17.2566C32.0505 16.6713 31.7588 16.0469 31.539 15.3952C31.4377 15.0987 31.3683 14.792 31.3317 14.4805C31.3226 14.2636 31.3516 14.0468 31.4173 13.8402C31.4512 13.7361 31.5102 13.6423 31.5889 13.5672C31.6676 13.4922 31.7634 13.4382 31.8678 13.4103C32.3184 13.2365 32.8049 13.0718 33.2735 12.8935C33.6339 12.7608 33.9943 12.6236 34.3503 12.4727C34.559 12.3909 34.7903 12.3909 34.999 12.4727L35.0035 12.5093Z" fill="#781300"/>
<path fill-rule="evenodd" clip-rule="evenodd" d="M36.0054 17.5994C35.9099 17.595 35.8173 17.5642 35.7379 17.5101C35.6585 17.4561 35.5951 17.381 35.5548 17.2929C35.3341 16.8356 35.1043 16.3782 34.834 15.9209C34.5637 15.4636 34.2708 14.901 33.978 14.4071C33.8267 14.1728 33.6612 13.9482 33.4824 13.7348C33.5746 13.7254 33.6677 13.7393 33.7534 13.7752C33.839 13.8111 33.9146 13.8679 33.9735 13.9406C34.1902 14.2347 34.3917 14.54 34.5772 14.8553C34.9556 15.5413 35.3071 16.2273 35.6675 16.9271C35.7396 17.0688 35.8162 17.2015 35.8882 17.3433C35.9243 17.4119 35.9513 17.4896 36.0054 17.5994Z" fill="#781300"/>
<path fill-rule="evenodd" clip-rule="evenodd" d="M27.4453 8.01332C27.6345 7.80751 27.8418 7.87154 28.0445 7.9127C28.601 8.03599 29.1465 8.20579 29.6754 8.42036C30.2881 8.66275 30.8964 8.9143 31.5046 9.17041C31.7163 9.25731 31.9191 9.37622 32.1263 9.48598C32.1754 9.51905 32.2221 9.55573 32.266 9.59575C32.0903 9.64605 31.9686 9.7238 31.8154 9.63233C31.2809 9.33647 30.7234 9.08561 30.1485 8.88228C29.698 8.70849 29.2474 8.52098 28.7969 8.37005C28.423 8.24657 28.031 8.16424 27.6481 8.06363C27.594 8.04076 27.5219 8.04076 27.4453 8.01332Z" fill="#781300"/>
<path fill-rule="evenodd" clip-rule="evenodd" d="M25.6738 6.1659C25.7767 6.03047 25.9236 5.93648 26.0883 5.90063C26.1199 5.90063 26.1874 5.93722 26.2235 5.97838C26.2797 6.04832 26.3294 6.12333 26.3721 6.20249C26.3809 6.22461 26.3944 6.24448 26.4117 6.26062C26.429 6.27677 26.4496 6.28879 26.4721 6.2958C26.4945 6.30281 26.5183 6.30465 26.5415 6.30116C26.5647 6.29768 26.5869 6.28896 26.6064 6.27566C26.7911 6.19334 26.8092 6.20706 26.9038 6.3717L27.0074 6.54092C27.0885 6.68728 27.084 6.70557 26.9443 6.80161L26.8542 6.85192C26.6019 6.97541 26.6019 6.97541 26.4577 6.74216C26.4577 6.71014 26.4172 6.6827 26.4037 6.65069C26.3541 6.54092 26.2865 6.52263 26.1739 6.56836C26.0613 6.6141 25.9757 6.63697 25.8676 6.47232C25.7594 6.30768 25.7369 6.26194 25.6738 6.1659Z" fill="#781300"/>
<path fill-rule="evenodd" clip-rule="evenodd" d="M31.3496 17.2198C31.4172 17.0323 31.4713 16.8859 31.5208 16.7625C31.692 16.7712 31.8534 16.8465 31.9713 16.9728C31.9823 16.9823 31.9909 16.9943 31.9964 17.0078C32.0019 17.0213 32.0041 17.036 32.0029 17.0506C31.9703 17.1787 31.9282 17.3041 31.8767 17.4256C31.8587 17.4422 31.837 17.4541 31.8135 17.4605C31.79 17.4668 31.7653 17.4674 31.7416 17.4622C31.6199 17.3753 31.4983 17.2975 31.3496 17.2198Z" fill="#781300"/>
<path d="M29.6299 12.7334C29.501 12.6652 29.352 12.6473 29.2109 12.6831L29.301 12.7562L30.2832 13.3691C30.3378 13.3994 30.3981 13.4179 30.4601 13.4234C30.5221 13.4289 30.5846 13.4213 30.6436 13.4011C30.5754 13.3337 30.5016 13.2725 30.4229 13.2182C30.148 13.0718 29.8912 12.9026 29.6299 12.7334Z" fill="#781300"/>
<path d="M31.8007 12.3535C31.6019 12.2589 31.3911 12.1927 31.1744 12.1568C30.8495 12.1235 30.53 12.0481 30.2238 11.9327C30.1095 11.8773 30.0141 11.7885 29.9499 11.6777C29.8857 11.5668 29.8555 11.439 29.8634 11.3107C30.0602 11.3426 30.2469 11.4209 30.4085 11.5394C30.4456 11.5693 30.4904 11.5877 30.5375 11.5926C30.5846 11.5974 30.6321 11.5885 30.6743 11.5668L30.8726 11.4799C31.0167 11.4022 31.0483 11.3564 30.9897 11.2055C30.8954 10.9268 30.7794 10.6561 30.6428 10.396C30.3863 10.0224 30.0386 9.72294 29.6336 9.52704C29.5975 9.50818 29.5569 9.50024 29.5165 9.50417C29.4271 9.51123 29.3404 9.53826 29.2625 9.58333C29.1846 9.6284 29.1175 9.69039 29.066 9.76486C29.4039 9.97067 29.3678 10.3091 29.3948 10.6796C29.3183 10.6796 29.2642 10.6796 29.2146 10.643C28.6787 10.4453 28.1615 10.1989 27.6693 9.90664C27.2976 9.70137 26.9699 9.42308 26.7052 9.08798C26.578 8.92886 26.4847 8.74468 26.4312 8.5471C26.3777 8.34951 26.3651 8.1428 26.3943 7.94004C26.4349 7.70679 26.3042 7.58788 26.079 7.65191C25.7534 7.72933 25.4554 7.89718 25.2185 8.1367C25.0997 8.284 24.9441 8.39616 24.7679 8.46141C24.691 8.49394 24.6048 8.49601 24.5264 8.46723C24.448 8.43844 24.3831 8.38089 24.3444 8.30592C24.3041 8.16865 24.3041 8.02242 24.3444 7.88515C24.421 7.61532 24.5382 7.35463 24.6328 7.08937C24.6598 7.02076 24.7229 6.95674 24.6913 6.83325C24.649 6.87601 24.6099 6.92187 24.5742 6.97046C24.4976 7.09394 24.421 7.21742 24.3489 7.34091C24.1357 7.68637 24.0348 8.09115 24.0606 8.498C24.0604 8.56962 24.0784 8.64007 24.1128 8.70256C24.1473 8.76505 24.1971 8.81745 24.2573 8.8547C24.3176 8.89195 24.3863 8.91279 24.4568 8.9152C24.5273 8.91761 24.5972 8.90151 24.6598 8.86845C24.766 8.8158 24.8671 8.75302 24.9617 8.68094L25.5654 8.22359C25.6335 8.17491 25.7099 8.13926 25.7906 8.1184C25.9348 8.08181 26.0384 8.1184 26.0294 8.30134C26.0204 8.46891 26.0204 8.63686 26.0294 8.80443C26.0391 9.02474 26.1145 9.23686 26.2457 9.4127C26.5195 9.78637 26.8781 10.0876 27.2909 10.2908C27.8828 10.613 28.5026 10.8794 29.1425 11.0866C29.3047 11.1415 29.3092 11.1461 29.2867 11.297C29.2451 11.4672 29.2684 11.6471 29.3519 11.8006C29.4355 11.9542 29.5731 12.0699 29.7372 12.1248C30.06 12.2402 30.3997 12.299 30.7419 12.2986C30.6897 12.3306 30.648 12.3778 30.6223 12.434C30.5966 12.4902 30.5881 12.5529 30.5978 12.6141C30.6232 12.7791 30.6578 12.9425 30.7014 13.1035C30.805 13.4694 30.8365 13.4877 31.2105 13.5014C31.2571 13.5091 31.305 13.5028 31.3482 13.4833C31.3914 13.4638 31.4281 13.432 31.4538 13.3916C31.5844 13.227 31.7196 13.0669 31.8547 12.9068C31.8948 12.8709 31.9258 12.8258 31.9454 12.7752C31.9649 12.7247 31.9723 12.6701 31.967 12.6161C31.9618 12.5621 31.9439 12.5101 31.915 12.4645C31.8861 12.4188 31.8469 12.3807 31.8007 12.3535ZM29.9986 10.4829C30.2058 10.5744 30.1923 10.7802 30.2644 10.9631L29.958 10.8899C29.967 10.7527 29.9805 10.6247 29.994 10.4829H29.9986ZM31.2015 12.9434C31.2015 12.7376 31.2015 12.573 31.1654 12.3992C31.213 12.3902 31.2622 12.3992 31.3037 12.4245C31.3451 12.4497 31.3761 12.4896 31.3907 12.5364C31.4357 12.6736 31.3907 12.7788 31.197 12.9434H31.2015Z" fill="#781300"/>
<path fill-rule="evenodd" clip-rule="evenodd" d="M26.3221 4.76147C26.3581 4.84635 26.3678 4.94029 26.3501 5.0309C26.3324 5.12152 26.2881 5.20458 26.223 5.26913C26.3168 5.3514 26.3947 5.45066 26.4528 5.56184C26.4528 5.64416 26.3266 5.6716 26.2996 5.74478C26.2314 5.64072 26.1545 5.54279 26.0698 5.45207C25.7351 5.69645 25.364 5.88483 24.9706 6.01004C24.9132 6.02967 24.8525 6.03736 24.7921 6.03265C24.7317 6.02793 24.6729 6.01091 24.6191 5.9826C25.0892 5.83373 25.5423 5.63442 25.9707 5.38804C25.9482 5.26913 25.8581 5.30115 25.8356 5.18224C25.8724 5.07446 25.9369 4.97863 26.0225 4.90465C26.108 4.83068 26.2115 4.78125 26.3221 4.76147ZM26.0518 5.0496C26.0834 5.10906 26.1239 5.15937 26.1825 5.15937C26.1599 5.09077 26.1825 5.05875 26.1509 4.981C26.1105 4.99017 26.075 5.01472 26.0518 5.0496Z" fill="#781300"/>
<path d="M7.76157 24.217L8.02738 24.9625C8.23012 25.5479 7.88772 25.7949 7.22995 26.0327C6.90557 26.1516 6.18472 26.4672 5.91891 25.708L5.66211 24.9625L7.76157 24.217ZM6.13967 25.3055L6.21626 25.5251C6.31087 25.7949 6.53163 25.7766 7.05875 25.5845C7.4462 25.4427 7.7886 25.3193 7.68047 25.0083L7.6219 24.7796L6.13967 25.3055Z" fill="#781300"/>
<path d="M6.26953 26.6597L8.52217 26.2024L8.8015 26.7604L7.08048 28.3382L6.85972 27.8809L7.24718 27.5424L6.95884 26.9662L6.45875 27.0759L6.26953 26.6597ZM8.28789 26.6597L7.33278 26.9113L7.53551 27.3138L8.28789 26.6597Z" fill="#781300"/>
<path d="M7.56659 29.0468L7.30078 28.658L9.14794 27.3774L9.63451 28.1001C9.67907 28.1616 9.70975 28.2324 9.72439 28.3073C9.73902 28.3823 9.73725 28.4596 9.7192 28.5338C9.70115 28.6079 9.66725 28.6772 9.61992 28.7366C9.57259 28.796 9.51297 28.8441 9.44529 28.8775C9.34951 28.9645 9.22375 29.0094 9.09546 29.0025C8.96717 28.9957 8.84676 28.9376 8.76049 28.841C8.79348 28.8875 8.81627 28.9407 8.82736 28.997C8.83844 29.0532 8.83755 29.1112 8.82476 29.1671C8.81196 29.2229 8.78754 29.2754 8.75315 29.3209C8.71875 29.3664 8.67518 29.4039 8.62533 29.4309C8.43993 29.5523 8.26776 29.6934 8.11173 29.8517L7.85493 29.4675C7.94118 29.347 8.05375 29.2484 8.18382 29.1794C8.40457 29.0239 8.60731 28.9141 8.40457 28.6169L8.33249 28.5162L7.56659 29.0468ZM8.61182 28.3242L8.72895 28.4979C8.83708 28.6534 9.01729 28.5894 9.13443 28.4979C9.25157 28.4065 9.32816 28.2556 9.24256 28.1321L9.12542 27.9583L8.61182 28.3242Z" fill="#781300"/>
<path d="M8.76953 30.6932L10.7969 29.5361L11.2249 29.9935L10.058 32.0195L9.71113 31.6628L9.97695 31.2055L9.52642 30.7481L9.07589 31.0088L8.76953 30.6932ZM10.6843 30.0621L9.84629 30.5926L10.1572 30.9128L10.6843 30.0621Z" fill="#781300"/>
<path d="M10.3574 32.2801L11.7586 30.5193L12.1235 30.8166L10.9521 32.2801L11.4973 32.7374L11.263 33.0301L10.3574 32.2801Z" fill="#781300"/>
<path d="M12.6633 32.7375L12.4876 33.0028L11.8613 32.5729L12.037 32.3076L12.6633 32.7375Z" fill="#781300"/>
<path d="M14.027 33.1403L14.4505 32.3399L14.8605 32.564L13.8107 34.5672L13.3963 34.3477L13.8693 33.433L13.3963 33.1952L12.9457 34.1099L12.5312 33.8858L13.5855 31.8826L13.9955 32.1067L13.5765 32.907L14.027 33.1403Z" fill="#781300"/>
<path d="M14.3398 34.7958L15.1418 32.6829L16.2771 33.1402L16.1555 33.4649L15.4526 33.1951L15.2544 33.7165L15.9032 33.968L15.777 34.2927L15.1328 34.0412L14.8985 34.6586L15.6238 34.9422L15.4977 35.2669L14.3398 34.7958Z" fill="#781300"/>
<path d="M17.4528 33.4466L17.9528 33.5747L17.0833 34.4025L17.3852 35.7745L16.8761 35.6419L16.6328 34.3796L16.349 35.5093L15.8984 35.3903L16.4616 33.1951L16.9121 33.314L16.6779 34.247L17.4528 33.4466Z" fill="#781300"/>
<path d="M17.8027 35.8612L18.019 33.6064L18.7669 33.6796L18.9696 35.2483L19.4877 33.7528L20.2086 33.8214L19.9968 36.0807L19.5463 36.035L19.713 34.2925L19.1183 35.9938L18.6677 35.9481L18.4335 34.169L18.2668 35.9069L17.8027 35.8612Z" fill="#781300"/>
<path d="M20.4258 36.0716L20.9078 33.7849L21.5206 33.7483L22.2594 35.939L21.7684 35.971L21.6152 35.4816L20.9799 35.5182L20.8853 36.0305L20.4258 36.0716ZM21.2142 34.1873L21.061 35.1798L21.5116 35.1524L21.2142 34.1873Z" fill="#781300"/>
<path d="M24.3281 33.1951L24.711 34.7501C24.7387 34.8451 24.7454 34.9451 24.7307 35.0431C24.7161 35.141 24.6804 35.2345 24.6263 35.317C24.5721 35.3994 24.5008 35.4688 24.4174 35.5202C24.334 35.5716 24.2404 35.6038 24.1434 35.6144C24.0532 35.6539 23.9554 35.6722 23.8573 35.668C23.7592 35.6638 23.6633 35.6372 23.5767 35.5902C23.4901 35.5431 23.4151 35.4769 23.3572 35.3964C23.2993 35.3159 23.26 35.2231 23.2423 35.1251L22.8594 33.5655L23.3099 33.4512L23.6883 34.9787C23.7559 35.2531 23.8956 35.3309 24.0623 35.2897C24.229 35.2486 24.3146 35.0793 24.256 34.8324L23.8776 33.3048L24.3281 33.1951Z" fill="#781300"/>
<path d="M25.4212 35.2117L24.5742 33.1125L25.1599 32.8747L26.2952 34.1095L25.7095 32.6551L26.115 32.4905L26.962 34.5668L26.3943 34.8001L25.214 33.5012L25.8312 35.0379L25.4212 35.2117Z" fill="#781300"/>
<path d="M27.4435 34.3155L26.3848 32.3169L26.7993 32.0928L27.8445 34.1097L27.4435 34.3155Z" fill="#781300"/>
<path d="M26.918 32.0469L27.3234 31.777L28.5083 32.957L27.9452 31.3654L28.3281 31.1047L29.067 33.3275L28.6165 33.6339L26.918 32.0469Z" fill="#781300"/>
<path d="M29.846 32.7376L28.4043 31.0043L29.3369 30.2085L29.5576 30.4738L28.9855 30.9677L29.3369 31.393L29.8685 30.9357L30.0893 31.2009L29.5622 31.6583L29.9811 32.1659L30.5984 31.6766L30.8191 31.9418L29.846 32.7376Z" fill="#781300"/>
<path d="M31.4463 31.2834L31.1264 31.6264L29.5 30.076L30.0902 29.4357C30.1375 29.3765 30.1972 29.3287 30.2651 29.2959C30.3329 29.2631 30.407 29.2461 30.4822 29.2461C30.5573 29.2461 30.6314 29.2631 30.6993 29.2959C30.7671 29.3287 30.8268 29.3765 30.8741 29.4357C30.9266 29.4731 30.9714 29.5207 31.0057 29.5757C31.04 29.6307 31.0633 29.6921 31.0742 29.7563C31.0851 29.8205 31.0834 29.8862 31.0691 29.9497C31.0549 30.0132 31.0284 30.0733 30.9912 30.1263C31.028 30.0828 31.0737 30.0479 31.125 30.024C31.1763 30.0001 31.2321 29.9877 31.2886 29.9877C31.3451 29.9877 31.4009 30.0001 31.4522 30.024C31.5035 30.0479 31.5491 30.0828 31.5859 30.1263C31.7419 30.2834 31.9141 30.423 32.0995 30.5425L31.7887 30.881C31.6545 30.8185 31.5348 30.7281 31.4373 30.6157C31.2435 30.4328 31.0949 30.2544 30.8516 30.5242L30.766 30.6111L31.4463 31.2834ZM30.5452 30.4007L30.6849 30.2453C30.8155 30.108 30.7164 29.9434 30.6128 29.8428C30.5092 29.7422 30.338 29.7056 30.2344 29.8153L30.0902 29.9663L30.5452 30.4007Z" fill="#781300"/>
<path d="M32.7873 29.7283C32.7431 29.8168 32.6778 29.8926 32.5973 29.949C32.5169 30.0053 32.4238 30.0402 32.3266 30.0507C32.2295 30.0612 32.1312 30.0468 32.0409 30.0088C31.9506 29.9709 31.8711 29.9106 31.8096 29.8335L32.0845 29.4539C32.2557 29.582 32.4043 29.6826 32.535 29.4539C32.5563 29.4282 32.5715 29.3979 32.5797 29.3654C32.5879 29.3328 32.5888 29.2989 32.5823 29.2659C32.5758 29.233 32.5622 29.202 32.5423 29.1751C32.5224 29.1483 32.4968 29.1263 32.4674 29.1109C32.1475 28.8685 31.5664 29.6231 31.0347 29.2207C30.7509 29.0148 30.6248 28.7084 30.9626 28.2419C31.0038 28.1618 31.0632 28.0928 31.1359 28.0406C31.2086 27.9885 31.2925 27.9548 31.3807 27.9422C31.4688 27.9297 31.5587 27.9388 31.6427 27.9686C31.7267 27.9985 31.8025 28.0483 31.8637 28.1139L31.5979 28.4843C31.4627 28.3883 31.3096 28.306 31.1969 28.4843C31.175 28.5084 31.1586 28.5372 31.1491 28.5686C31.1396 28.6 31.1371 28.6331 31.1418 28.6656C31.1466 28.6981 31.1585 28.729 31.1766 28.7562C31.1947 28.7834 31.2186 28.8062 31.2465 28.8228C31.5889 29.0789 32.1115 28.2877 32.6792 28.7084C33.1928 29.0514 32.9945 29.4402 32.7873 29.7283Z" fill="#781300"/>
<path d="M33.4499 28.6718L31.5352 27.5056L31.7784 27.094L33.6932 28.2648L33.4499 28.6718Z" fill="#781300"/>
<path d="M32.5256 25.6077L32.8589 25.7723L32.6337 26.2297L34.3051 27.062L34.0979 27.4874L32.4264 26.655L32.1967 27.1123L31.8633 26.9431L32.5256 25.6077Z" fill="#781300"/>
<path d="M34.0802 25.5937L32.5078 25.6623L32.679 25.1729H33.6792L32.9043 24.5052L33.062 24.0479L34.2333 25.1363L34.9632 25.397L34.81 25.8544L34.0802 25.5937Z" fill="#781300"/>
<path d="M33.1523 21.6196H32.6387V21.551H32.8234V20.801H32.6387V20.7278H33.1523V20.801H32.9631V21.551H33.1523V21.6196Z" fill="#781300"/>
<path d="M33.4462 22.0359C33.5462 22.036 33.6449 22.0125 33.7345 21.9673C33.8169 21.928 33.8905 21.872 33.9508 21.8027C34.0678 21.6444 34.131 21.4518 34.131 21.2539C34.131 20.984 34.0049 20.7965 33.8382 20.7965C33.7558 20.8079 33.6807 20.8506 33.628 20.9159C33.5753 20.9813 33.549 21.0644 33.5543 21.1487C33.5523 21.1915 33.5592 21.2342 33.5747 21.274C33.5902 21.3139 33.6138 21.3499 33.6441 21.3798C33.6743 21.4096 33.7105 21.4326 33.7502 21.4472C33.7899 21.4617 33.8321 21.4676 33.8742 21.4643H33.9688V21.542C33.9209 21.5469 33.8726 21.5469 33.8246 21.542C33.7716 21.5438 33.7187 21.535 33.6691 21.5159C33.6195 21.4968 33.5741 21.468 33.5355 21.4309C33.497 21.3939 33.466 21.3495 33.4445 21.3003C33.423 21.2511 33.4113 21.198 33.4102 21.1441C33.4102 21.0228 33.4576 20.9065 33.5421 20.8207C33.6266 20.735 33.7412 20.6868 33.8607 20.6868C33.9269 20.6918 33.9915 20.7105 34.0504 20.7416C34.1094 20.7727 34.1615 20.8157 34.2036 20.8678C34.2457 20.92 34.277 20.9803 34.2955 21.0451C34.314 21.1099 34.3193 21.1778 34.3112 21.2447C34.3074 21.414 34.2573 21.5789 34.1667 21.721C34.076 21.8631 33.9482 21.9769 33.7976 22.0497C33.6892 22.088 33.5742 22.1036 33.4597 22.0954L33.4462 22.0359Z" fill="#781300"/>
<path d="M34.6044 22.0359C34.7044 22.036 34.8031 22.0125 34.8927 21.9673C34.9765 21.9281 35.0516 21.8721 35.1135 21.8027C35.2305 21.6444 35.2937 21.4518 35.2937 21.2539C35.2937 20.984 35.1676 20.7965 34.9964 20.7965C34.914 20.8079 34.8389 20.8506 34.7862 20.9159C34.7335 20.9813 34.7072 21.0644 34.7125 21.1487C34.7104 21.1919 34.7175 21.235 34.7332 21.2752C34.7489 21.3154 34.773 21.3517 34.8038 21.3816C34.8345 21.4116 34.8713 21.4344 34.9115 21.4487C34.9517 21.4629 34.9945 21.4682 35.0369 21.4643H35.127V21.542C35.0791 21.5474 35.0308 21.5474 34.9828 21.542C34.8761 21.5445 34.7726 21.5041 34.695 21.4296C34.6174 21.3551 34.5719 21.2525 34.5684 21.1441C34.5684 21.0228 34.6158 20.9065 34.7003 20.8207C34.7848 20.735 34.8994 20.6868 35.0189 20.6868C35.0849 20.6925 35.1491 20.7115 35.2078 20.7428C35.2664 20.7742 35.3183 20.8171 35.3603 20.8691C35.4023 20.9212 35.4336 20.9812 35.4523 21.0457C35.4711 21.1102 35.4769 21.1779 35.4694 21.2447C35.4652 21.4145 35.4145 21.5797 35.323 21.7219C35.2315 21.864 35.1028 21.9775 34.9513 22.0497C34.8444 22.0878 34.731 22.1033 34.6179 22.0954L34.6044 22.0359Z" fill="#781300"/>
<path d="M35.7665 22.0359C35.8665 22.036 35.9652 22.0125 36.0548 21.9673C36.1373 21.928 36.2108 21.872 36.2711 21.8027C36.3881 21.6444 36.4513 21.4518 36.4513 21.2539C36.4513 20.984 36.3252 20.7965 36.1585 20.7965C36.0761 20.8079 36.001 20.8506 35.9483 20.9159C35.8956 20.9813 35.8693 21.0644 35.8746 21.1487C35.8726 21.1915 35.8795 21.2342 35.895 21.274C35.9105 21.3139 35.9341 21.3499 35.9644 21.3798C35.9947 21.4096 36.0308 21.4326 36.0705 21.4472C36.1102 21.4617 36.1524 21.4676 36.1945 21.4643H36.2891V21.542C36.2412 21.5469 36.1929 21.5469 36.145 21.542C36.0919 21.5438 36.0391 21.535 35.9894 21.5159C35.9398 21.4968 35.8944 21.468 35.8558 21.4309C35.8173 21.3939 35.7864 21.3495 35.7648 21.3003C35.7433 21.2511 35.7316 21.198 35.7305 21.1441C35.7305 21.0228 35.7779 20.9065 35.8624 20.8207C35.9469 20.735 36.0615 20.6868 36.181 20.6868C36.2473 20.6918 36.3118 20.7105 36.3707 20.7416C36.4297 20.7727 36.4818 20.8157 36.5239 20.8678C36.566 20.92 36.5973 20.9803 36.6158 21.0451C36.6343 21.1099 36.6396 21.1778 36.6315 21.2447C36.6277 21.414 36.5777 21.5789 36.487 21.721C36.3963 21.8631 36.2685 21.9769 36.1179 22.0497C36.0095 22.088 35.8945 22.1036 35.78 22.0954L35.7665 22.0359Z" fill="#781300"/>
<path d="M4.80664 20.9337C4.84175 20.9016 4.87942 20.8725 4.91927 20.8468L5.01839 20.769C5.05359 20.8738 5.08218 20.9807 5.10399 21.0892C5.10399 21.1898 5.14454 21.2813 5.16256 21.3636C5.18058 21.4459 5.19409 21.5237 5.20761 21.5923C5.22113 21.6609 5.20761 21.7295 5.23014 21.7935C5.23462 21.8529 5.23462 21.9125 5.23014 21.9719C5.23049 22.0242 5.21474 22.0754 5.18508 22.1182C5.15405 22.1664 5.11778 22.2109 5.07696 22.2509V22.2234C5.09349 22.1921 5.10418 22.158 5.10849 22.1228C5.11283 22.0863 5.11283 22.0495 5.10849 22.013C5.10598 21.9455 5.09845 21.8782 5.08597 21.8118C5.08597 21.7249 5.04993 21.6334 5.02289 21.5328C4.99586 21.4322 4.96433 21.3316 4.93279 21.2264C4.90125 21.1212 4.84719 21.0252 4.80664 20.9337Z" fill="#781300"/>
<path d="M6.19914 21.3589C6.19914 21.3954 6.19914 21.432 6.19914 21.464C6.19428 21.4981 6.18674 21.5318 6.17662 21.5647L6.01893 21.6653L5.89279 21.7659L5.8207 21.8528C5.80371 21.8702 5.79265 21.8926 5.78916 21.9168C5.78991 21.9266 5.79323 21.936 5.79878 21.9441C5.80432 21.9521 5.81189 21.9585 5.8207 21.9626C5.84188 21.9759 5.86457 21.9867 5.88828 21.9946H5.96938H6.03245C6.11338 22.002 6.1948 22.002 6.27573 21.9946C6.34598 21.9811 6.41522 21.9628 6.48298 21.9397C6.47523 21.9791 6.46314 22.0174 6.44693 22.054C6.4326 22.0924 6.41449 22.1292 6.39287 22.1638C6.33664 22.1881 6.2776 22.205 6.21717 22.2141C6.14967 22.2189 6.08192 22.2189 6.01443 22.2141C5.971 22.2188 5.9272 22.2188 5.88378 22.2141C5.8431 22.2058 5.80468 22.1886 5.77114 22.1638C5.738 22.1454 5.71008 22.1186 5.69005 22.086C5.67111 22.0527 5.66175 22.0147 5.66302 21.9763C5.66355 21.9341 5.67117 21.8924 5.68554 21.8528C5.70234 21.8118 5.72191 21.7721 5.74411 21.7339C5.7674 21.7001 5.79299 21.668 5.8207 21.6378L5.89729 21.5555C5.82213 21.5294 5.75418 21.4855 5.69906 21.4275C5.67057 21.3954 5.6518 21.3557 5.645 21.3131C5.63656 21.277 5.63656 21.2394 5.645 21.2034C5.65844 21.1661 5.67661 21.1307 5.69906 21.0982C5.72248 21.0632 5.74968 21.031 5.78015 21.0021C5.80488 20.9752 5.83203 20.9507 5.86125 20.929C5.92773 20.8872 5.9988 20.8534 6.073 20.8283C6.13849 20.8063 6.20677 20.794 6.27573 20.7917L6.2487 20.9015C6.23919 20.9395 6.22559 20.9763 6.20815 21.0113L6.05498 21.0479L5.9063 21.1027C5.86702 21.1225 5.82936 21.1455 5.79367 21.1713C5.78115 21.1781 5.77048 21.1879 5.76262 21.1999C5.75475 21.2119 5.74994 21.2256 5.74862 21.2399C5.74862 21.2399 5.74862 21.24 5.77565 21.2811C5.79825 21.3009 5.8242 21.3164 5.85224 21.3268C5.88876 21.3433 5.9264 21.3571 5.96487 21.368H6.10003H6.19914V21.3589Z" fill="#781300"/>
<path d="M6.89867 21.1394C6.90074 21.2304 6.91283 21.3209 6.93472 21.4092C6.96728 21.5543 7.01097 21.6965 7.06537 21.8346C7.07594 21.8568 7.08497 21.8797 7.0924 21.9032L7.11943 21.9764C7.12057 21.9962 7.12057 22.016 7.11943 22.0358C7.12085 22.0464 7.12085 22.0572 7.11943 22.0678V22.0953C7.11009 22.1112 7.09786 22.1251 7.08339 22.1364L7.03834 22.1867L6.99328 22.2233C6.93922 22.077 6.89867 21.9489 6.86714 21.8391C6.8356 21.7294 6.80857 21.6333 6.78604 21.551C6.76983 21.4848 6.75779 21.4176 6.75 21.3498C6.75 21.2949 6.75 21.2537 6.75 21.2217C6.75107 21.1728 6.76179 21.1246 6.78154 21.0799C6.80545 21.0247 6.8357 20.9725 6.87164 20.9244C6.91123 20.8788 6.95669 20.8388 7.0068 20.8055C7.05859 20.7745 7.11786 20.7586 7.178 20.7598C7.24088 20.7526 7.30435 20.7526 7.36722 20.7598L7.5204 20.8055L7.47986 20.9244C7.46683 20.9626 7.45023 20.9993 7.4303 21.0342C7.34104 20.9822 7.24033 20.9539 7.13745 20.9519C7.08316 20.95 7.02919 20.961 6.97977 20.9839C6.95044 20.9961 6.92626 21.0183 6.91144 21.0467C6.89661 21.0751 6.8921 21.1079 6.89867 21.1394Z" fill="#781300"/>
<path d="M8.13508 21.5695L8.07201 21.6518L8.02696 21.7021C8.02696 21.7021 7.99992 21.7295 7.99091 21.7295H7.95487L7.90531 21.6929L7.85576 21.6472L7.82422 21.6152L7.96388 21.4414L8.13508 21.5695Z" fill="#781300"/>
<path d="M20.7459 28.2788C20.7436 28.2376 20.7436 28.1964 20.7459 28.1553C20.7459 28.1187 20.7459 28.0684 20.791 28.0181C20.836 27.9678 20.845 27.9083 20.8766 27.8489C20.9174 27.7836 20.9641 27.7223 21.0162 27.6659C21.072 27.605 21.1323 27.5484 21.1964 27.4967C21.2682 27.4441 21.3434 27.3968 21.4217 27.3549L21.5884 27.2955L21.7145 27.2497C21.7596 27.2497 21.8001 27.2177 21.8452 27.2086L21.9759 27.1765L22.1065 27.1491H22.2372C22.3178 27.137 22.399 27.1293 22.4804 27.1262H22.6967C22.7643 27.1262 22.8273 27.1262 22.8814 27.1262H23.0256H23.1472H22.8814C22.8199 27.1217 22.7582 27.1217 22.6967 27.1262H22.4804C22.4004 27.1327 22.3207 27.1434 22.2417 27.1583H22.1155L21.9849 27.1903L21.8587 27.2223L21.7326 27.268L21.6064 27.3183L21.4893 27.3824C21.4146 27.4237 21.3424 27.4695 21.273 27.5196C21.2145 27.5744 21.1469 27.6247 21.0973 27.6796C21.0469 27.7326 21.0002 27.7891 20.9577 27.8489C20.922 27.8971 20.8918 27.9493 20.8676 28.0044C20.8405 28.0547 20.8225 28.0958 20.8045 28.1324C20.7904 28.1714 20.7783 28.2111 20.7684 28.2513L20.7459 28.2788Z" fill="#CF9C69"/>
<path d="M19.7862 28.2787C19.7763 28.2384 19.7643 28.1987 19.7502 28.1597C19.7502 28.1232 19.7187 28.082 19.6916 28.0317C19.664 27.9775 19.6324 27.9255 19.597 27.8762C19.5559 27.8154 19.5091 27.7587 19.4573 27.707C19.4018 27.6503 19.3432 27.5968 19.2816 27.5469C19.2129 27.4959 19.1407 27.45 19.0654 27.4097L18.9483 27.3457L18.8221 27.2954L18.7005 27.2496L18.5698 27.2176L18.4347 27.1856H18.3085C18.2229 27.1856 18.1418 27.1582 18.0652 27.1536H17.849C17.7875 27.149 17.7257 27.149 17.6642 27.1536H17.3984H17.5201H17.6642C17.7183 27.1536 17.7814 27.1536 17.849 27.1536H18.0697C18.1463 27.1536 18.2274 27.1536 18.313 27.1765H18.4392C18.4842 27.1765 18.5248 27.1765 18.5698 27.2039L18.7005 27.2359C18.7455 27.2359 18.7861 27.2633 18.8311 27.2771L18.9618 27.3228L19.0834 27.3823C19.1617 27.4241 19.237 27.4715 19.3087 27.524C19.3732 27.577 19.4349 27.6335 19.4934 27.6933C19.5427 27.7509 19.5879 27.812 19.6285 27.8762C19.6615 27.9302 19.6901 27.9868 19.7141 28.0454C19.7332 28.0897 19.7483 28.1356 19.7592 28.1826C19.7643 28.2236 19.7643 28.2651 19.7592 28.3061L19.7862 28.2787Z" fill="#CF9C69"/>
</svg>
