<svg width="41" height="42" viewBox="0 0 41 42" fill="none" xmlns="http://www.w3.org/2000/svg">
<path d="M15.3126 16.6812C14.9202 15.5529 15.6605 14.5095 16.8868 14.563C18.5234 14.5853 19.9995 15.5485 21.2124 16.4582C23.9862 18.6523 27.683 23.3524 26.7956 27.1786C25.8903 29.8498 22.9382 28.9356 21.4042 27.455C20.0396 26.2555 18.9827 24.7349 18.2736 23.0849C19.6561 24.1418 20.9538 25.1585 22.4521 25.9388C23.0809 26.2555 23.7142 26.5499 24.3429 26.5365C24.4455 26.5053 24.4901 26.4829 24.4053 26.4919C24.334 26.4919 24.3161 26.5811 24.3251 26.4696C24.3518 25.4484 23.8122 24.3112 23.3484 23.348C22.8267 21.9121 16.2892 12.3155 15.3126 16.6812Z" fill="#DFA750"/>
<path d="M37.3686 21.801C38.6663 31.527 30.1577 40.2094 20.4987 40.0712C13.3547 40.1604 6.43817 35.3398 4.27982 28.5213C3.57524 26.3273 3.32107 24.0129 3.62877 21.801C4.21295 26.2158 6.26425 30.1803 9.35016 32.9495C19.7852 42.2831 35.7275 35.5672 37.3686 21.801Z" fill="#7F7BA5"/>
<path d="M15.8523 17.3502C14.1577 19.7048 12.6237 22.0995 11.6961 24.8063C10.5501 28.0929 10.7195 31.5132 15.1477 30.2022C17.7163 29.4753 20.0575 27.9189 22.1222 26.2288C24.9361 23.8609 27.5404 21.0426 29.119 17.6847C29.8682 16.0347 30.4703 14.0458 29.3776 12.3914C29.9708 12.864 30.4033 13.5508 30.5638 14.3C31.8927 21.6847 22.6886 31.2546 15.83 32.8822C13.5602 33.5378 10.3092 33.1454 9.24792 30.6258C7.35267 25.7784 12.2848 19.9946 15.8523 17.3502Z" fill="#69A56E"/>
<path d="M33.578 34.046C33.5512 37.8856 31.317 41.5824 27.0003 41.2524C23.25 40.9001 20.1463 38.5991 17.5197 36.1286C10.4827 29.3191 4.31091 16.7747 6.31764 6.83921C8.16383 -0.857718 15.116 -0.590123 20.3068 3.80239C24.4139 7.18259 27.4062 11.7847 29.4263 16.6098C26.6391 12.2797 23.4239 8.19484 19.2098 5.27396C15.2632 2.45562 10.0546 1.43444 8.90855 7.42341C7.84721 13.9431 10.3668 20.6098 13.3234 26.3714C15.7136 30.755 18.7148 34.9692 22.7773 37.9168C27.7585 41.5379 32.3204 40.4096 33.578 34.046Z" fill="#4C80B6"/>
<path d="M18.5364 24.8687C16.329 24.3915 15.0001 21.7738 15.5888 19.5575C16.1283 17.0736 18.7504 15.3032 21.2834 15.6511C25.2656 16.0435 27.4418 21.0336 24.6547 23.9902C23.8743 24.8107 22.8085 25.2789 21.7962 25.2567C24.1329 23.6735 24.454 20.8998 22.6925 19.2186C19.0537 16.4047 15.2721 21.4483 18.5364 24.8687Z" fill="#CC504C"/>
</svg>
