<svg width="26" height="22" viewBox="0 0 26 22" fill="none" xmlns="http://www.w3.org/2000/svg">
<g id="Group">
<path id="Vector" d="M26.0016 19.7418C17.3346 14.496 8.66727 24.9861 0 19.7418V2.25875C8.66727 7.50381 17.3346 -2.98631 26.0016 2.25875V19.7418Z" fill="#CCCBCA"/>
<path id="Vector_2" d="M25.7928 19.4054C17.2676 14.4931 8.74271 24.5586 0.217773 19.6566V2.60107C8.74271 7.50322 17.2676 -2.56244 25.7928 2.34918V19.4054Z" fill="#1A7240"/>
<g id="Group_2">
<path id="Vector_3" d="M6.3361 8.31978C6.3361 8.31978 6.49098 8.0899 6.49098 7.88277C6.49098 7.67489 6.36429 7.719 6.317 7.75645C6.26934 7.79606 6.17607 7.89298 6.22449 7.94738C6.27187 8.00104 6.32393 7.89888 6.35661 7.89663C6.38966 7.89448 6.39847 7.91133 6.39847 7.99804C6.39847 8.08475 6.3361 8.31978 6.3361 8.31978Z" fill="white"/>
<path id="Vector_4" d="M5.96504 8.38006C5.96504 8.38006 5.97496 9.4539 6.20953 9.44145C6.20953 9.44145 6.31347 9.43555 6.3424 9.15492C6.37293 8.87428 6.49372 8.17218 6.78625 8.14493C7.07887 8.11562 6.63942 8.72306 6.87174 9.19312C6.87174 9.19312 6.95583 9.36869 7.11483 9.34959C7.11483 9.34959 7.07559 8.60994 7.02521 8.36676C6.9753 8.12293 7.00321 8.11993 7.00321 8.11993C7.00321 8.11993 6.89009 7.99511 6.96323 7.86364C7.03701 7.73292 7.07334 7.68077 7.14123 7.77993C7.20762 7.8805 7.44883 8.19119 7.2286 8.33661C7.25912 8.6547 7.28918 8.9727 7.31961 9.29069C7.31961 9.29144 7.55052 9.11362 7.49481 8.85368C7.439 8.59224 7.32149 8.2102 7.46325 7.98106C7.46325 7.98106 7.65484 8.07798 7.65484 8.26825C7.65484 8.45928 7.64023 9.22683 8.02452 9.16288C8.40816 9.09677 7.93088 8.32556 7.93088 8.1705C7.93088 8.1705 7.91253 8.13229 8.00467 8.01992C8.09606 7.90681 8.10749 7.8687 8.178 7.92956C8.24738 7.99052 8.37473 8.09484 8.37473 8.2204C8.37473 8.34597 8.26723 8.31217 8.26723 8.31217C8.26723 8.31217 8.39683 8.69927 8.39683 8.97391C8.39683 9.2494 8.23746 9.50353 7.94268 9.55279C7.64819 9.60054 7.5921 9.24575 7.5921 9.24649C7.5921 9.24649 7.42908 9.53303 7.34583 9.59914C7.36709 9.99944 7.38806 10.3997 7.40932 10.7997C7.40932 10.7997 7.40192 10.9819 7.30182 11.089C7.30182 11.089 7.28019 11.1008 7.27167 10.9774C7.26287 10.8555 7.14797 9.75926 7.14797 9.75926C7.14797 9.76216 6.62959 9.90468 6.62959 9.13347C6.62959 9.13347 6.63549 9.00566 6.64897 8.85509C6.66368 8.70452 6.6472 8.54514 6.59944 8.66781C6.55168 8.79113 6.53558 8.89844 6.46029 9.28255C6.38473 9.66599 6.28884 9.77761 6.17544 9.78417C6.0627 9.79007 5.85352 9.45072 5.85352 8.88514C5.85342 8.31985 5.96504 8.38006 5.96504 8.38006Z" fill="white"/>
<path id="Vector_5" d="M7.84833 7.6251C7.84833 7.6251 7.86631 7.83372 7.94262 7.82127C8.01978 7.80797 8.03036 7.6574 8.03036 7.6574C8.03036 7.6574 8.06014 7.68016 8.06014 7.77717C8.06014 7.87333 7.98813 7.92399 7.94889 7.92989C7.90891 7.93654 7.83512 7.90564 7.83512 7.85872C7.83512 7.85797 7.80057 7.94609 7.69485 7.96219C7.58988 7.97839 7.544 7.85797 7.544 7.78231C7.544 7.70665 7.57453 7.6383 7.59869 7.63465C7.62294 7.6309 7.63389 7.73971 7.63389 7.76171C7.63389 7.78522 7.65262 7.85648 7.69813 7.84983C7.74373 7.84252 7.78737 7.79552 7.84833 7.6251ZM5.95215 10.7955C5.95215 10.794 6.31818 10.2744 6.889 10.0658C6.889 10.0658 6.98779 10.0151 6.98779 10.1187C6.98779 10.2237 7.00099 10.2186 6.867 10.2723C6.733 10.3258 6.38017 10.5106 5.95215 10.7955ZM10.1872 9.54216C10.1872 9.49515 10.1833 9.22622 10.1373 9.23512C10.0918 9.24532 9.97392 9.36874 9.99602 9.38644C10.018 9.40554 10.0955 9.73168 9.91446 9.77719C9.73308 9.8227 9.68214 9.39308 9.68214 9.39308C9.58232 9.69937 9.45338 9.92486 9.31723 9.95566C9.18258 9.98647 9.14653 9.81979 9.14653 9.77794C9.14653 9.73533 9.17809 9.53925 9.10505 9.55545C9.03126 9.5724 8.88181 9.76839 8.88181 9.76839L8.7805 8.32954C8.88219 8.41765 8.94352 8.32148 8.94352 8.21792C8.94352 8.11436 8.74051 7.61339 8.69276 7.54073C8.64538 7.46947 8.55174 7.59438 8.47243 7.72875C8.39199 7.86322 8.48235 7.95648 8.48235 7.95648C8.48235 8.12316 8.50286 8.37954 8.56232 8.88116C8.60357 9.23642 8.64041 9.59218 8.67281 9.94836C8.60783 9.99977 8.54284 10.0512 8.47786 10.1018C8.47786 10.1011 8.35304 9.70303 8.01819 9.76099C7.68418 9.81605 7.68633 10.0959 7.68633 10.515C7.68633 10.9366 8.33244 10.5047 8.33244 10.5018C8.33244 10.7749 7.93447 11.4096 7.40364 11.4802C6.87168 11.5478 7.00315 10.5958 7.00315 10.5987C6.69517 11.2627 6.88488 11.8973 7.39268 11.8312C7.90039 11.7636 8.36296 11.204 8.47308 10.9616C8.5832 10.7192 8.53844 10.3876 8.53844 10.3876C8.58835 10.3494 8.63789 10.3105 8.68789 10.2716C8.68789 10.2716 8.72684 10.7707 8.65483 11.1159C8.58329 11.4626 7.90554 12.0575 7.34127 12.128C6.77813 12.1986 6.7124 11.6683 6.7124 11.5111C6.7124 11.351 6.74948 11.1644 6.74948 11.0453C6.74948 10.9263 6.72045 10.875 6.72045 10.875C6.55921 11.1012 6.56511 11.6051 6.56511 11.6051C6.56511 12.5408 7.01888 12.535 7.29792 12.4967C7.57687 12.4599 8.02184 12.3395 8.5714 11.8489C9.12069 11.3554 8.90803 10.135 8.90803 10.1357C8.9217 10.1181 8.93556 10.1004 8.94914 10.0821C8.94914 10.0821 8.94324 10.2687 9.21788 10.2076C9.49215 10.1452 9.62839 9.90426 9.62839 9.90426C9.73776 10.046 9.88824 10.0086 9.88824 10.0086C10.2089 9.92776 10.1872 9.59066 10.1872 9.54216ZM8.02203 10.3273C7.88915 10.3493 7.86743 10.1084 7.97249 10.0908C8.07821 10.0732 8.21333 10.2406 8.21333 10.2406C8.21333 10.2406 8.15602 10.3046 8.02203 10.3273ZM6.20479 11.2906C6.20479 11.2906 6.24627 11.4683 6.17726 11.6593C6.10899 11.8502 6.06751 12.52 6.40742 12.0632C6.40742 12.0617 6.53552 12.4906 6.20479 12.5112C5.87293 12.5273 6.00431 11.7988 6.09429 11.5505C6.18344 11.301 6.20479 11.2906 6.20479 11.2906Z" fill="white"/>
<path id="Vector_6" d="M9.56903 10.6222C9.56903 10.6222 9.41958 10.7427 9.41958 10.5708C9.41958 10.3993 9.56715 10.3832 9.56715 10.3832C9.56715 10.384 9.6945 10.3626 9.6945 10.6091C9.6945 10.8559 9.54328 11.0116 9.54328 11.0116C9.54328 11.0116 9.61828 10.7544 9.56903 10.6222ZM10.311 7.32171C10.311 7.26515 10.2913 7.09248 10.1525 7.12853C10.013 7.16449 9.87373 7.33201 9.87373 7.53323C9.87373 7.73446 9.97251 7.75506 9.97251 7.75506C9.70237 8.25959 8.75915 9.00664 9.37014 8.60268C9.98094 8.19348 10.1246 7.81827 10.1246 7.81967C10.3335 7.77566 10.2138 7.6397 10.2138 7.6397C10.2138 7.6397 10.311 7.37686 10.311 7.32171ZM10.0826 7.55018C10.0247 7.51638 10.0405 7.45907 10.0566 7.41572C10.0723 7.37171 10.148 7.31066 10.148 7.38707C10.148 7.46497 10.0826 7.55018 10.0826 7.55018ZM10.156 8.57852C10.156 8.57852 10.1398 8.89727 9.87991 8.96263C9.61819 9.02724 9.6681 8.59912 9.93937 8.33534C9.93937 8.33534 9.98928 8.31849 9.93094 8.43891C9.87363 8.55792 9.75799 8.83696 9.91877 8.7966C10.0804 8.7555 10.156 8.57852 10.156 8.57852ZM11.7934 6.88104C11.7934 6.88104 11.7376 6.85379 11.7915 6.76943C11.8447 6.68637 11.895 6.67907 11.9464 6.78778C11.9982 6.89574 12.0422 7.15128 11.9248 7.47818C11.9248 7.47818 11.9666 7.02272 11.7934 6.88104ZM12.1077 8.64603C12.1077 8.64603 12.1734 8.88612 12.2453 8.86487C12.3168 8.84352 12.3286 8.57037 12.3286 8.57037C12.3286 8.57037 12.4362 8.76505 12.4935 8.74744C12.5511 8.7305 12.553 8.42355 12.553 8.42355C12.553 8.42355 12.6333 8.47861 12.6333 8.64397C12.6333 8.80925 12.5255 8.86796 12.4903 8.87901C12.4538 8.88921 12.3603 8.84155 12.3603 8.84155C12.3603 8.84155 12.3287 8.99287 12.2248 9.02368C12.1216 9.05439 12.0478 8.87152 12.1077 8.64603ZM14.9047 5.8278C14.9047 5.8278 14.9664 5.67947 15.0377 5.74924C15.109 5.81825 15.1882 5.97987 15.1882 6.1796C15.1882 6.38083 15.0619 6.50939 15.0619 6.50939C15.0619 6.50939 15.1177 6.14804 14.9869 6.05403C14.8563 5.96077 14.8519 5.94897 14.9047 5.8278ZM14.9664 6.83329C14.9664 6.83329 15.0105 6.97281 15.0575 6.96035C15.103 6.94715 15.1427 6.73853 15.1427 6.73853C15.1427 6.73853 15.1868 6.90089 15.2426 6.88619C15.2976 6.87074 15.3526 6.62401 15.3526 6.62401C15.3526 6.62401 15.3931 6.67906 15.3931 6.82748C15.3931 6.97515 15.3108 7.01176 15.2882 7.01766C15.2661 7.02422 15.2037 7.03967 15.1618 6.96775C15.1618 6.96775 15.1213 7.06532 15.0267 7.09182C14.9341 7.11823 14.9252 6.94575 14.9664 6.83329ZM19.1619 5.27543C19.1619 5.27543 19.2222 5.13806 19.2941 5.22037C19.3653 5.30333 19.4446 5.4818 19.4446 5.68163C19.4446 5.88061 19.3175 5.98577 19.3175 5.98577C19.3175 5.98577 19.3734 5.63462 19.2442 5.51561C19.1119 5.39809 19.1075 5.38629 19.1619 5.27543ZM13.4187 10.6076C13.4187 10.6076 13.6257 10.3626 13.7337 10.3303C13.8402 10.298 13.7212 10.5254 13.7212 10.5811C13.7212 10.6369 13.6962 10.7633 13.868 10.6281C14.0413 10.493 14.1984 10.3824 14.2285 10.3846C14.2579 10.389 13.9797 10.7838 13.7271 10.8587C13.4746 10.935 13.5978 10.6281 13.6059 10.5899C13.614 10.5518 13.6235 10.4945 13.4833 10.6002C13.3415 10.7059 13.4187 10.6076 13.4187 10.6076ZM18.2074 9.26452C18.2074 9.26452 18.369 9.22556 18.369 9.31667C18.369 9.40844 18.214 9.5414 18.347 9.52155C18.4813 9.5017 18.4762 9.60527 18.3661 9.67353C18.2537 9.74179 18.0187 9.89611 18.0187 9.75734C18.0187 9.61632 18.1854 9.63766 18.1854 9.5164C18.1854 9.39449 18.062 9.48045 18.062 9.39083C18.0619 9.30197 18.2074 9.26452 18.2074 9.26452ZM17.6339 7.75216C17.6339 7.75216 17.6971 7.63755 17.7859 7.72351C17.8763 7.80647 17.9122 7.91594 17.9122 8.03785C17.9122 8.15762 17.8189 8.25893 17.7939 8.26034C17.7683 8.25959 17.7968 8.15312 17.7968 8.07156C17.7968 7.98925 17.6714 7.90919 17.6288 7.88429C17.5848 7.85938 17.6068 7.78007 17.6339 7.75216ZM17.805 7.17844C17.805 7.17844 17.8968 7.09248 17.8968 7.26805C17.8968 7.44578 17.7191 7.42602 17.3702 7.75797C17.0209 8.09216 17.1198 7.90414 17.136 7.87473C17.153 7.84402 17.805 7.17554 17.805 7.17844ZM17.1574 6.75248C17.1574 6.75248 17.2661 6.8832 17.332 7.00951C17.3997 7.13433 17.4702 7.16449 17.4731 6.99116C17.476 6.81784 17.4731 6.56885 17.4731 6.56885C17.4731 6.56885 17.4687 6.46454 17.5333 6.45209C17.5965 6.43954 17.5994 6.52334 17.642 6.46969C17.6831 6.41529 17.6435 6.35732 17.6318 6.31912C17.6192 6.28091 17.5745 6.18615 17.4717 6.30077C17.3688 6.41463 17.3777 6.52185 17.3909 6.64816C17.4042 6.77373 17.421 6.98826 17.3381 6.82149C17.2537 6.65481 17.206 6.48804 17.0943 6.5123C16.9828 6.5358 17.0092 6.83994 17.0811 6.82374C17.153 6.80903 17.1574 6.75173 17.1574 6.75248Z" fill="white"/>
<path id="Vector_7" d="M14.0688 9.18865C13.7884 9.32087 12.4516 9.69982 12.4516 9.69917C12.9348 9.32611 13.2391 9.12704 13.2391 9.12704C13.2722 9.13434 13.3052 9.14099 13.3375 9.14839C13.339 9.12114 13.3404 9.09333 13.3412 9.06608C13.3412 9.06608 13.8661 8.70473 13.8661 8.43439C13.8661 8.16191 13.4961 8.05169 13.2574 8.12436C13.0184 8.19637 12.8664 8.54676 12.8664 8.71419C12.8664 8.88236 12.9438 8.93892 12.9438 8.93892C12.9438 8.93892 12.1083 9.47734 12.0007 9.5897C11.8931 9.70132 11.8275 9.92165 11.8275 10.0378C11.8275 10.1538 12.1234 10.0422 12.1234 10.0422C12.72 9.86369 12.8334 9.99666 12.8334 9.99666C12.2424 10.4006 12.3921 10.8102 12.3921 10.8102C11.9446 10.8014 11.8576 10.5987 11.7919 10.3706C11.7265 10.1428 11.6671 9.67866 11.5951 9.43782C11.5234 9.19539 11.2753 8.64311 11.225 8.65707C11.174 8.67177 11.0279 8.99201 11.0877 9.14698C11.1472 9.3042 11.4788 10.295 11.4788 10.295C11.1451 11.0321 10.667 11.5183 10.3565 11.5991C10.0463 11.6814 10.0936 11.3817 10.0936 11.3817C10.7115 10.8998 10.9868 10.3361 10.9868 10.0394C10.9868 9.74037 10.8458 9.45767 10.8458 9.45767C10.8458 9.45767 10.9442 9.48708 10.9442 9.38201C10.9442 9.2777 10.652 9.03387 10.6047 9.04632C10.5562 9.05962 10.4222 9.32471 10.4222 9.42677C10.4222 9.52818 10.5356 9.52818 10.5356 9.52744C10.5356 9.52818 10.7833 9.79468 10.7833 10.0717C10.7833 10.3508 10.1508 10.941 10.1508 10.9395C10.1508 10.9395 10.2165 10.4605 10.1324 10.4973C10.0487 10.5326 9.87316 11.2098 9.87316 11.2098C9.87316 11.2127 9.15664 11.8312 9.11769 11.8547C9.07883 11.8841 8.39704 12.3189 8.67131 12.263C8.94595 12.2131 9.86117 11.5829 9.86117 11.5785C9.8696 12.0823 10.3429 11.9736 10.3429 11.9721C10.9835 11.8032 11.5801 10.678 11.5801 10.6794C11.9663 11.4389 12.7497 11.2244 12.9325 11.17C13.1143 11.1141 13.1407 10.9453 13.1407 10.8322C13.1407 10.7191 12.6124 10.816 12.6124 10.5649C12.6124 10.3148 13.6598 9.77267 13.919 9.64785C14.1797 9.52303 14.1877 9.44297 14.2185 9.34962C14.2479 9.25841 14.3494 9.05494 14.0688 9.18865ZM13.204 8.52316C13.2377 8.51286 13.5138 8.56867 13.5138 8.60032C13.5138 8.63197 13.1996 8.7891 13.1996 8.7891C13.1481 8.66128 13.1701 8.53346 13.204 8.52316Z" fill="white"/>
<path id="Vector_8" d="M10.581 7.3488C10.581 7.3488 10.5432 7.73731 10.5432 7.94884C10.5432 8.16261 10.6886 8.4116 10.8079 8.37854C10.9268 8.34549 11.2474 7.07622 11.5 7.00206C11.7529 6.92864 11.5517 7.28925 11.5517 7.88713C11.5517 8.4836 11.9259 8.16477 11.9676 8.13471C12.0099 8.10306 12.2882 7.86147 12.2882 7.48982C12.2882 7.11742 12.1586 6.79203 12.1586 6.73032C12.1586 6.66786 12.2713 6.37327 12.3296 6.41448C12.3883 6.45558 12.4927 6.78322 12.4927 7.03361C12.4927 7.28484 12.5885 7.89668 12.8847 7.80707C13.1814 7.71745 12.9746 7.10272 12.9405 7.00271C12.9067 6.90074 12.7617 6.66412 12.8165 6.5775C12.8726 6.49079 12.9423 6.36372 12.9662 6.31082C12.9904 6.25866 13.072 6.29172 13.1388 6.34462C13.2064 6.39753 13.3421 6.53265 13.3421 6.69352C13.3421 6.85514 13.1417 6.71262 13.1417 6.71262C13.1417 6.71262 13.2724 7.05852 13.2724 7.39721C13.2724 7.7359 13.094 8.0318 12.8787 8.09641C12.6643 8.16177 12.411 7.92458 12.411 7.92458C12.411 7.92383 12.1985 8.43875 11.7605 8.56732C11.3233 8.69588 11.3585 8.01129 11.3585 8.01195C11.3585 8.01195 11.3945 7.63739 11.3468 7.66829C11.2991 7.69695 11.1581 8.17141 11.1082 8.32564C11.0579 8.48211 11.0084 8.64373 10.8674 8.68268C10.7261 8.72238 10.4258 8.4572 10.4258 8.01869C10.4257 7.58158 10.581 7.3488 10.581 7.3488ZM13.9436 6.6084C14.0545 6.73837 14.1661 6.86834 14.2768 6.99906C14.2592 6.81253 14.2416 6.62666 14.2233 6.44088C14.2233 6.44088 14.158 6.40642 14.158 6.31681C14.158 6.22795 14.224 6.00247 14.3151 5.97531C14.4069 5.94806 14.6676 6.51738 14.6676 6.66131C14.6676 6.80523 14.5362 6.73772 14.5362 6.73772C14.5443 6.9529 14.5532 7.16883 14.5619 7.38476C14.5619 7.38326 15.2727 8.21917 15.5223 8.7957C15.7734 9.36933 15.6207 9.39733 15.553 9.25921C15.4855 9.11819 14.979 8.18237 14.603 7.83506C14.603 7.83506 14.7189 9.00508 14.7189 9.29667C14.7189 9.58975 14.6294 10.2016 14.4957 10.2405C14.3607 10.2795 14.5516 9.82263 14.5427 9.5846C14.5339 9.34367 14.3725 7.86072 14.3012 7.46042C14.0589 7.19473 13.8164 6.92933 13.5735 6.66421C13.5735 6.66421 13.4297 6.72592 13.4297 6.52244C13.4297 6.32046 13.3848 6.13899 13.4775 6.11109C13.5699 6.08328 14.1222 6.43133 14.1222 6.52244C14.122 6.6113 13.9436 6.6084 13.9436 6.6084Z" fill="white"/>
<path id="Vector_9" d="M15.8434 6.24566C15.8434 6.24566 15.8332 6.63201 15.9124 7.30415C15.9917 7.97544 16.0041 8.47425 16.0041 8.74889C16.0041 9.02943 16.0871 10.3134 14.7111 10.7C14.7111 10.7 14.626 10.7279 14.626 10.6941C14.626 10.6603 14.7097 10.606 14.8309 10.5311C14.952 10.4529 15.8683 9.92331 15.7926 8.85536C15.7171 7.78442 15.5907 6.09443 15.5305 6.05473C15.5305 6.05473 15.4747 6.04003 15.4747 5.93281C15.4747 5.82485 15.6854 5.56256 15.7406 5.54861C15.7963 5.53391 15.9726 6.08703 15.9726 6.20305C15.9727 6.31982 15.8434 6.24566 15.8434 6.24566ZM16.5093 6.1685C16.5093 6.1685 16.742 8.18397 16.8199 8.68129C16.8976 9.17701 16.6144 9.4922 16.5629 9.50465C16.513 9.51635 16.5747 9.32468 16.5747 9.04479C16.5747 8.7635 16.3 6.99917 16.2406 6.5306C16.1811 6.06128 16.1187 6.07964 16.1187 5.7873C16.1187 5.49421 16.303 5.33849 16.3515 5.32744C16.3985 5.31573 16.4616 5.50011 16.4616 5.50011C16.4616 5.49936 16.5938 5.8608 16.6642 5.95407C16.7362 6.04808 16.7362 6.09659 16.7362 6.13329C16.7362 6.1685 16.5938 6.21991 16.5093 6.1685Z" fill="white"/>
<path id="Vector_10" d="M16.3615 8.82362C16.3615 8.82362 16.3498 9.8071 16.6449 9.73875C16.6449 9.73875 16.7257 9.7703 16.9518 9.20622C17.1795 8.64365 17.2866 8.52679 17.3938 8.50553C17.5011 8.48418 17.714 8.86988 17.9255 8.83317C18.1377 8.79712 18.2 8.46002 18.2 8.22209C18.2 7.98115 18.0862 6.44829 18.0862 6.44829C17.8597 6.1941 17.6308 5.94193 17.3998 5.69179C17.3998 5.69179 17.3704 5.66828 17.3704 5.47576C17.3704 5.28334 17.3425 5.16442 17.4145 5.15046C17.4865 5.13651 17.5929 5.27678 17.7287 5.36855C17.8638 5.46031 17.9197 5.49271 17.9197 5.56023C17.9197 5.62633 17.819 5.60208 17.819 5.60283C17.8943 5.7002 17.9692 5.7979 18.0436 5.89592C18.0319 5.7652 18.0209 5.63514 18.0092 5.50442C18.0092 5.50442 17.9461 5.42726 17.9461 5.33549C17.9461 5.24438 18.0554 5.00055 18.1237 4.98959C18.1926 4.97789 18.4056 5.53972 18.4056 5.65499C18.4056 5.77185 18.3131 5.66304 18.3131 5.66304C18.3234 5.87382 18.3351 6.08395 18.3455 6.29473C18.4871 6.46667 18.6276 6.63953 18.7669 6.8133C18.7669 6.81255 18.5923 5.7416 18.5923 5.26929C18.5923 5.26929 18.5688 5.25019 18.5688 5.18193C18.5688 5.11366 18.7068 4.86974 18.7751 4.86093C18.8433 4.85213 19.0283 5.46471 19.0283 5.60714C19.0283 5.746 18.9167 5.66154 18.9167 5.6622C18.9542 6.15876 18.9916 6.65598 19.0298 7.15255C19.0298 7.15039 19.5702 7.85914 19.6627 8.06777C19.7552 8.2734 19.7465 8.58269 19.7135 8.56939C19.6803 8.55769 19.4205 8.05372 19.0695 7.67692C19.0695 7.67692 19.17 8.51948 18.9821 8.67445C18.9821 8.67445 18.9637 8.32406 18.9637 8.14483C18.9637 7.96561 18.8778 7.44414 18.8778 7.44414C18.7156 7.23476 18.5526 7.02913 18.3911 6.825C18.3911 6.825 18.4659 8.10963 18.4659 8.46143C18.4659 8.81397 18.2957 9.15922 17.9791 9.21287C17.6627 9.26644 17.3852 8.93149 17.3852 8.93149C17.3852 8.93149 17.2773 9.027 17.0548 9.52572C16.8302 10.0237 16.7611 10.0795 16.6657 10.1015C16.5702 10.1229 16.1885 9.98764 16.1885 9.60138C16.1884 9.21147 16.3615 8.82362 16.3615 8.82362Z" fill="white"/>
<path id="Vector_11" d="M19.5832 5.14903C19.5832 5.14977 19.5567 5.13507 19.5567 5.06091C19.5567 4.98741 19.6882 4.77588 19.7476 4.77297C19.8079 4.76857 20.0861 5.35906 20.0861 5.47517C20.0861 5.59128 19.9576 5.46271 19.9576 5.46271C19.9576 5.46271 19.9547 5.57208 20.0266 6.4712C20.0986 7.37837 20.5105 8.96779 19.3217 9.53046C18.1345 10.1371 19.5611 9.18007 19.7623 8.68285C19.9628 8.17308 19.8452 7.52819 19.7777 6.85839C19.7094 6.18972 19.5832 5.14903 19.5832 5.14903ZM17.9635 13.6497C17.5361 13.7232 17.1088 13.8098 16.6815 13.9083C16.68 13.8701 16.6793 13.8304 16.6777 13.7923C16.6777 13.7923 16.7652 13.688 16.7652 13.6308C16.7652 13.5735 16.6815 13.4354 16.6214 13.45C16.5626 13.4633 16.473 13.6146 16.473 13.6908C16.473 13.7658 16.5641 13.8201 16.5641 13.8201V13.9376C13.5977 14.6237 10.6314 15.8151 7.66504 16.2499C8.09456 16.5966 8.13464 16.6582 10.0601 16.2367C11.986 15.768 16.5861 14.2094 16.5861 14.3004V14.4444C16.5861 14.4444 16.4943 14.5369 16.4943 14.6133C16.4943 14.6898 16.5722 14.7986 16.642 14.7824C16.7109 14.7662 16.7535 14.606 16.7535 14.606C16.9047 14.5707 17.0559 14.5384 17.2073 14.5061C17.2073 14.5061 17.1992 14.6002 17.3101 14.5767C17.4216 14.5547 17.4261 14.4503 17.4261 14.4503C17.5876 14.4179 17.7491 14.3886 17.9107 14.3607C17.9107 14.3607 17.9812 14.4562 18.0927 14.4385C18.2042 14.4195 18.3453 14.3445 18.3453 13.9508C18.3453 13.5572 17.9635 13.6497 17.9635 13.6497ZM17.8716 14.252C17.7226 14.2799 17.5727 14.3093 17.4245 14.3401C17.4245 14.3401 17.3936 14.2638 17.3099 14.2813C17.2262 14.2989 17.213 14.396 17.213 14.396C17.0669 14.4283 16.9207 14.462 16.7747 14.4973C16.7747 14.4973 16.7533 14.4341 16.6923 14.4121C16.6902 14.3651 16.6872 14.3181 16.685 14.2711C17.0835 14.1696 17.4845 14.0785 17.8877 13.9979C17.8877 13.9979 17.8238 14.1595 17.8716 14.252Z" fill="white"/>
</g>
</g>
</svg>
