<svg width="25" height="25" viewBox="0 0 25 25" fill="none" xmlns="http://www.w3.org/2000/svg">
<g id="Frame">
<g id="Group">
<path id="Vector" d="M24.7505 20.734C16.584 15.7929 8.4165 25.6737 0.25 20.734V4.26649C8.4165 9.20696 16.584 -0.673892 24.7505 4.26649V20.734Z" fill="#CCCBCA"/>
<path id="Vector_2" d="M24.5527 20.4157C16.519 15.7901 8.48707 25.2711 0.454102 20.6537V4.58816C8.48707 9.20619 16.519 -0.274781 24.5527 4.35083V20.4157Z" fill="#B02A3D"/>
<g id="Group_2">
<path id="Vector_3" d="M24.5527 6.82081C16.519 2.1952 8.48707 11.6762 0.454102 7.05815V5.82323C8.48707 10.4413 16.519 0.960283 24.5527 5.58598V6.82081Z" fill="white"/>
<path id="Vector_4" d="M24.5527 9.29066C16.519 4.66505 8.48707 14.1464 0.454102 9.52791V8.29299C8.48707 12.9107 16.519 3.43005 24.5527 8.05574V9.29066Z" fill="white"/>
<path id="Vector_5" d="M24.5527 11.7607C16.519 7.13507 8.48707 16.6163 0.454102 11.9979V10.763C8.48707 15.3807 16.519 5.90006 24.5527 10.5257V11.7607Z" fill="white"/>
<path id="Vector_6" d="M24.5527 14.2308C16.519 9.60483 8.48707 19.0861 0.454102 14.4674V13.2332C8.48707 17.8505 16.519 8.36992 24.5527 12.9953V14.2308Z" fill="white"/>
<path id="Vector_7" d="M24.5527 16.7005C16.519 12.0746 8.48707 21.5559 0.454102 16.9371V15.7029C8.48707 20.3203 16.519 10.8396 24.5527 15.465V16.7005Z" fill="white"/>
<path id="Vector_8" d="M24.5527 19.1703C16.519 14.5447 8.48707 24.0257 0.454102 19.4071V18.1728C8.48707 22.7902 16.519 13.3092 24.5527 17.9348V19.1703Z" fill="white"/>
</g>
<path id="Vector_9" d="M12.5036 4.46729C8.48707 5.68139 4.47028 6.89761 0.454102 4.58829V13.2332C4.47019 15.5426 8.48707 14.3263 12.5036 13.1114V4.46729Z" fill="#434177"/>
<g id="Group_3">
<path id="Vector_10" d="M1.24129 6.04519C1.20554 6.13938 1.16955 6.23349 1.13333 6.3275C1.13263 6.3275 1.13333 6.33024 1.13475 6.33165C1.13616 6.33306 1.13748 6.33368 1.13889 6.33368C1.23342 6.31015 1.32754 6.28501 1.42121 6.25827C1.51518 6.36757 1.6102 6.47597 1.70626 6.58345C1.70828 6.58486 1.70969 6.58345 1.70969 6.58142V6.58001C1.67371 6.45486 1.63702 6.32962 1.60113 6.20368C1.69585 6.17457 1.79004 6.14423 1.88476 6.11169C1.88547 6.11028 1.88617 6.10966 1.88547 6.10754C1.88476 6.10542 1.88406 6.10481 1.88203 6.1034C1.76484 6.0592 1.64857 6.01259 1.5333 5.96361C1.49732 5.83766 1.46063 5.7111 1.42473 5.58454C1.42403 5.58172 1.41918 5.57969 1.41777 5.58172C1.38178 5.67653 1.3465 5.77125 1.31052 5.86536C1.193 5.81208 1.07653 5.7565 0.961176 5.69867C0.959765 5.69796 0.957737 5.69725 0.957031 5.69937L0.958442 5.70422C1.05168 5.81874 1.14596 5.9324 1.24129 6.04519ZM3.2234 6.71354C3.18742 6.81664 3.15152 6.91965 3.11545 7.02213C3.11545 7.02284 3.11615 7.02487 3.11686 7.02557C3.11827 7.02698 3.12039 7.02698 3.12101 7.02698C3.21587 6.97986 3.31018 6.93164 3.40394 6.88234C3.49795 6.96948 3.59206 7.05459 3.68616 7.13899C3.68687 7.1397 3.68758 7.1397 3.6889 7.1397C3.69031 7.1397 3.69163 7.13899 3.69163 7.13696V7.13555L3.58368 6.7848C3.67835 6.73301 3.77246 6.6802 3.866 6.6264C3.86802 6.62499 3.86873 6.62366 3.86802 6.62225C3.86661 6.62022 3.866 6.61952 3.86458 6.61881C3.74781 6.60146 3.63134 6.58209 3.51524 6.56069C3.47926 6.44313 3.44257 6.32547 3.40667 6.20791C3.40597 6.20509 3.40111 6.20376 3.40041 6.2065C3.36443 6.3103 3.32774 6.4134 3.29184 6.51642C3.1756 6.49225 3.05865 6.46526 2.9425 6.43616C2.94179 6.43616 2.94047 6.43616 2.93906 6.43819C2.93906 6.4396 2.93906 6.44101 2.94109 6.44233C3.03435 6.5336 3.12846 6.62401 3.2234 6.71354ZM5.20622 6.94046C5.17024 7.05115 5.13355 7.16113 5.09765 7.27049C5.09765 7.2712 5.09765 7.27393 5.09906 7.27464C5.10047 7.27534 5.10259 7.27534 5.10321 7.27464C5.19802 7.20846 5.29233 7.14158 5.38614 7.07399C5.48024 7.14252 5.57435 7.21025 5.66845 7.27667C5.66916 7.27737 5.67048 7.27737 5.67119 7.27737C5.6726 7.27737 5.67472 7.27596 5.67472 7.27393V7.27252C5.63873 7.16254 5.60204 7.05247 5.56606 6.94179C5.66089 6.87214 5.7552 6.80178 5.84899 6.73073C5.8504 6.72932 5.85102 6.72721 5.8504 6.72588C5.8497 6.72385 5.84899 6.72385 5.84696 6.72385C5.73055 6.72754 5.61409 6.72986 5.49762 6.73082L5.38967 6.39876C5.38826 6.39594 5.38349 6.39594 5.38279 6.39876C5.3468 6.50945 5.31011 6.62014 5.27422 6.73012C5.15772 6.72872 5.04125 6.72525 4.92488 6.71971C4.92346 6.71971 4.92276 6.72041 4.92205 6.72244C4.92205 6.72385 4.92205 6.72518 4.92346 6.72659C5.01739 6.79935 5.11211 6.87061 5.20622 6.94046ZM7.18833 6.82149C7.15235 6.93702 7.11566 7.05256 7.07977 7.1681C7.07977 7.1688 7.08047 7.17013 7.08179 7.17083C7.0825 7.17154 7.08382 7.17154 7.08594 7.17083C7.18037 7.09028 7.27448 7.00934 7.36825 6.92803C7.46236 6.98271 7.55717 7.03668 7.65119 7.08987C7.65189 7.09057 7.6526 7.08987 7.65321 7.08987C7.65524 7.08987 7.65665 7.08784 7.65665 7.08572C7.65665 7.08572 7.65665 7.08431 7.65595 7.08431L7.548 6.76954C7.6421 6.68655 7.73691 6.60355 7.83093 6.51915C7.83234 6.51712 7.83296 6.51562 7.83234 6.5143C7.83163 6.51227 7.83093 6.51227 7.82881 6.51227C7.71266 6.53238 7.59633 6.55099 7.48017 6.56836C7.44419 6.46324 7.4075 6.35802 7.37152 6.25218C7.37081 6.24945 7.36596 6.25015 7.36464 6.25289C7.32875 6.36869 7.29277 6.48446 7.25669 6.6002C7.14053 6.61617 7.0235 6.63063 6.90734 6.64377C6.90531 6.64448 6.90452 6.64518 6.90381 6.6473C6.90381 6.64871 6.90381 6.65003 6.90523 6.65145C6.99951 6.70868 7.09423 6.76539 7.18833 6.82149ZM9.17045 6.44921C9.13456 6.56848 9.09858 6.68772 9.0625 6.80693C9.0625 6.80764 9.0625 6.80967 9.06391 6.81037C9.06461 6.81108 9.06664 6.81037 9.06805 6.80967C9.16216 6.71909 9.25626 6.62913 9.35037 6.53776C9.44447 6.58274 9.53928 6.62772 9.6333 6.6727H9.63612C9.63753 6.6727 9.63886 6.66997 9.63886 6.66856C9.63886 6.66785 9.63886 6.66714 9.63815 6.66653C9.60217 6.56484 9.56689 6.46385 9.5309 6.36207C9.62501 6.27009 9.71903 6.1781 9.81322 6.08532C9.81525 6.08329 9.81525 6.08188 9.81525 6.08047C9.81384 6.07905 9.81322 6.07835 9.81172 6.07905C9.69477 6.10878 9.57853 6.13859 9.46167 6.1676C9.42569 6.06521 9.38979 5.96352 9.35372 5.86183C9.35301 5.85909 9.34816 5.86042 9.34755 5.86324C9.31156 5.98292 9.27487 6.10198 9.23889 6.22158C9.12265 6.24927 9.0057 6.27626 8.88954 6.30184C8.88813 6.30254 8.88752 6.30325 8.8861 6.30537C8.8854 6.30739 8.8861 6.3081 8.88813 6.30951C8.98233 6.35661 9.07643 6.40291 9.17045 6.44921ZM11.1533 5.91933C11.1173 6.04042 11.0806 6.16213 11.0447 6.28323C11.0447 6.28323 11.0447 6.28605 11.0461 6.28676C11.0475 6.28676 11.0488 6.28605 11.0503 6.28534C11.1444 6.18983 11.2392 6.09369 11.3332 5.99756C11.4273 6.0384 11.5213 6.07844 11.6154 6.11927C11.6161 6.11927 11.6175 6.11927 11.6182 6.11857C11.6196 6.11857 11.6217 6.11654 11.6217 6.11442C11.6217 6.11442 11.6217 6.11301 11.621 6.1123L11.513 5.81341L11.796 5.52421C11.7974 5.52219 11.7974 5.52077 11.7974 5.51936C11.7967 5.51725 11.796 5.51725 11.7939 5.51795C11.6777 5.55261 11.5607 5.58719 11.4446 5.62176L11.3366 5.32154C11.3352 5.31951 11.3304 5.32083 11.3297 5.32357C11.2937 5.44466 11.2571 5.56637 11.2211 5.68746C11.1047 5.72147 10.9883 5.75516 10.8717 5.78854C10.8703 5.78924 10.8697 5.78995 10.869 5.79198C10.8676 5.794 10.869 5.79471 10.8697 5.79612C10.9644 5.83766 11.0585 5.8785 11.1533 5.91933ZM2.12474 7.58597C2.12404 7.58667 2.12474 7.58809 2.12545 7.59082C2.12748 7.59223 2.12889 7.59223 2.1296 7.59223C2.22361 7.55625 2.31842 7.51823 2.41253 7.47943C2.50575 7.57668 2.59986 7.67309 2.69484 7.76862C2.69484 7.76862 2.69687 7.76933 2.69758 7.76933C2.70031 7.77074 2.70102 7.76862 2.70102 7.76721V7.7658C2.66503 7.64471 2.62834 7.5237 2.59245 7.40261C2.68655 7.36177 2.78136 7.31962 2.87538 7.27534C2.87679 7.27393 2.87679 7.27261 2.87679 7.27261C2.87609 7.26987 2.87538 7.26846 2.87335 7.26846C2.75636 7.23783 2.63986 7.20531 2.52392 7.17092L2.41597 6.80499C2.41456 6.80297 2.40979 6.80085 2.40909 6.80297C2.3731 6.90254 2.33783 7.0022 2.30184 7.10186C2.18415 7.06318 2.06719 7.02234 1.951 6.97936C1.95029 6.97936 1.94897 6.97936 1.94826 6.98077C1.94826 6.98077 1.94826 6.9828 1.94968 6.98562C2.04317 7.08786 2.13749 7.18934 2.23261 7.29007C2.19671 7.38876 2.16073 7.48772 2.12474 7.58597ZM4.10624 8.046C4.10624 8.046 4.10695 8.04803 4.10827 8.05014C4.10898 8.05085 4.111 8.05156 4.11241 8.05085C4.20652 7.99343 4.30062 7.93531 4.39473 7.87507C4.48883 7.9526 4.58365 8.02942 4.67766 8.10412C4.67837 8.10412 4.67907 8.10412 4.67969 8.10483C4.68172 8.10483 4.68313 8.1028 4.68313 8.10139C4.68313 8.10068 4.68313 8.09997 4.68242 8.09997L4.57447 7.76024C4.66912 7.69849 4.76343 7.63622 4.85741 7.57345C4.85882 7.57142 4.86023 7.57 4.85882 7.5693C4.85811 7.56727 4.85741 7.56657 4.85538 7.56657C4.73905 7.56043 4.62283 7.55258 4.50674 7.54302C4.47075 7.42889 4.43407 7.31477 4.39808 7.20055C4.39738 7.19852 4.39252 7.19782 4.39111 7.19985C4.35513 7.30709 4.31985 7.41434 4.28387 7.5215C4.16694 7.50925 4.05024 7.49496 3.93382 7.47863C3.9317 7.47793 3.931 7.47863 3.93029 7.48075C3.93029 7.48075 3.93029 7.48278 3.9317 7.4849C4.02581 7.56657 4.12062 7.64674 4.21463 7.72558C4.17883 7.83292 4.14214 7.93946 4.10624 8.046ZM6.08897 8.10685C6.08897 8.10685 6.08897 8.10897 6.09038 8.111C6.09109 8.1117 6.09321 8.1117 6.09453 8.111C6.18913 8.03668 6.28323 7.96174 6.37684 7.88619C6.47086 7.94775 6.56576 8.0086 6.65978 8.06814H6.66251C6.66392 8.06743 6.66533 8.06531 6.66533 8.06399C6.66533 8.06399 6.66533 8.06258 6.66463 8.06258C6.62864 7.95533 6.59336 7.84809 6.55738 7.74093C6.652 7.66383 6.74611 7.5861 6.8397 7.50774C6.84181 7.50571 6.84252 7.5043 6.84181 7.50359C6.8404 7.50157 6.8397 7.50077 6.83828 7.50077C6.72204 7.51391 6.60509 7.52503 6.48894 7.53464C6.45296 7.42669 6.41627 7.31882 6.38037 7.21087C6.37967 7.20884 6.37482 7.20884 6.37411 7.21087C6.33813 7.325 6.30144 7.43851 6.26554 7.55192C6.1493 7.55951 6.03235 7.56577 5.9162 7.57062C5.91479 7.57062 5.91417 7.57133 5.91276 7.57336C5.91276 7.57336 5.91276 7.57539 5.91479 7.5775C6.00838 7.64167 6.10249 7.70509 6.1971 7.76774L6.08897 8.10685ZM8.07117 7.86343L8.07259 7.86758C8.074 7.86828 8.07532 7.86758 8.07673 7.86687C8.17084 7.78044 8.26565 7.69392 8.35966 7.60599C8.45377 7.65653 8.54787 7.70565 8.64198 7.75407H8.64471C8.64612 7.75336 8.64824 7.75063 8.64824 7.74922C8.64824 7.74922 8.64824 7.74781 8.64753 7.74851C8.61155 7.64541 8.57557 7.54231 8.53958 7.43859C8.6336 7.35066 8.72841 7.26282 8.82252 7.17356C8.82393 7.17083 8.82393 7.16942 8.82393 7.16942C8.82322 7.16739 8.82252 7.16669 8.82049 7.16669C8.70424 7.19297 8.5873 7.21713 8.47114 7.24139L8.36319 6.93006C8.36178 6.92794 8.35693 6.92935 8.35622 6.93147C8.32024 7.04974 8.28355 7.1681 8.24765 7.28566C8.13141 7.3085 8.01446 7.32994 7.89831 7.34996C7.8969 7.34996 7.89628 7.35066 7.89558 7.35348C7.89558 7.35348 7.89558 7.35551 7.89699 7.35692C7.99109 7.40878 8.0859 7.46002 8.17992 7.51047C8.14376 7.62813 8.10716 7.74578 8.07117 7.86343ZM10.0533 7.40958C10.0533 7.40958 10.0533 7.41161 10.0553 7.41302C10.056 7.41372 10.0573 7.41302 10.0595 7.41231C10.1536 7.31821 10.2476 7.2241 10.3417 7.12938C10.4358 7.17224 10.5306 7.21519 10.6246 7.25735C10.6253 7.25665 10.626 7.25665 10.6266 7.25665C10.6287 7.25594 10.6301 7.25321 10.6301 7.25179C10.6301 7.25179 10.6301 7.25038 10.6294 7.25109C10.5934 7.15002 10.5575 7.04974 10.5214 6.94875C10.6155 6.85465 10.7103 6.75922 10.8044 6.66441C10.8058 6.66168 10.8058 6.66026 10.8058 6.66026C10.8051 6.65824 10.8044 6.65753 10.8023 6.65824C10.6854 6.6914 10.5691 6.72394 10.4523 6.75649C10.4163 6.6555 10.381 6.55443 10.345 6.45345C10.3443 6.45133 10.3395 6.45274 10.3381 6.45547L10.2301 6.81734C10.1139 6.84918 9.99693 6.88031 9.88078 6.91074C9.87875 6.91074 9.87804 6.91215 9.87734 6.91418C9.87663 6.91489 9.87734 6.91621 9.87875 6.91762C9.97277 6.96119 10.0677 7.00476 10.1617 7.04771C10.126 7.1681 10.0893 7.28919 10.0533 7.40958ZM1.13342 8.02668C1.13272 8.02739 1.13342 8.03012 1.13483 8.03153C1.13625 8.03295 1.13757 8.03365 1.13898 8.03365C1.23308 8.0094 1.32719 7.98382 1.42129 7.95683C1.51496 8.06599 1.60951 8.17438 1.70493 8.28201C1.70493 8.28272 1.70564 8.28272 1.70634 8.28272C1.70908 8.28413 1.70978 8.28342 1.70978 8.28069V8.27928C1.6738 8.15404 1.63711 8.0288 1.60121 7.90286C1.69594 7.87375 1.79013 7.84341 1.88485 7.81087C1.88556 7.80946 1.88626 7.80884 1.88556 7.80672C1.88485 7.80461 1.88415 7.80399 1.88212 7.80258C1.76493 7.75838 1.64866 7.71177 1.53339 7.66279C1.49741 7.53623 1.46072 7.40958 1.42482 7.28302C1.42412 7.2809 1.41927 7.27816 1.41785 7.28019C1.38187 7.375 1.34659 7.47043 1.31061 7.56454C1.19308 7.51126 1.07661 7.45568 0.961265 7.39785C0.959853 7.39714 0.957825 7.39644 0.957119 7.39855C0.957119 7.39996 0.957825 7.40129 0.958531 7.4034C1.05185 7.51791 1.14616 7.6316 1.24146 7.74446C1.2053 7.83918 1.16932 7.93258 1.13342 8.02668ZM3.11545 8.72123C3.11545 8.72264 3.11615 8.72475 3.11686 8.72537C3.11827 8.72678 3.12039 8.72678 3.12101 8.72678C3.21511 8.67969 3.30983 8.63065 3.40394 8.58082C3.49795 8.66796 3.59206 8.75377 3.68616 8.83888H3.6889C3.69031 8.83888 3.69163 8.83888 3.69163 8.83606V8.83465L3.58368 8.48389C3.67835 8.4321 3.77246 8.3793 3.866 8.32549C3.86802 8.32408 3.86873 8.32276 3.86802 8.32135C3.86661 8.31923 3.866 8.31852 3.86458 8.31782C3.74781 8.30047 3.63134 8.28109 3.51524 8.2597C3.47926 8.14213 3.44257 8.02448 3.40667 7.90621C3.40597 7.90409 3.40111 7.90268 3.40041 7.9048C3.36443 8.00851 3.32774 8.11232 3.29184 8.21542C3.17488 8.19094 3.05841 8.16419 2.9425 8.13516C2.94179 8.13516 2.94047 8.13516 2.93906 8.13719C2.93906 8.1386 2.93906 8.14001 2.94109 8.14134C3.03432 8.23261 3.1284 8.32301 3.22331 8.41254C3.18742 8.51582 3.15143 8.61892 3.11545 8.72123ZM5.09756 8.96967C5.09756 8.9717 5.09756 8.97382 5.09897 8.97452C5.10038 8.97523 5.1025 8.97523 5.10312 8.97452C5.19793 8.90787 5.29224 8.84052 5.38605 8.77247C5.47965 8.84119 5.57376 8.90922 5.66837 8.97655H5.6711C5.67251 8.97655 5.67463 8.97585 5.67463 8.97311V8.9717C5.63864 8.86172 5.60195 8.75165 5.56597 8.64097C5.6608 8.57132 5.75512 8.50097 5.8489 8.42992C5.85031 8.4285 5.85093 8.42639 5.85031 8.42506C5.8497 8.42374 5.8489 8.42233 5.84687 8.42304C5.73046 8.42672 5.614 8.42905 5.49753 8.43C5.46155 8.31932 5.42556 8.20863 5.38958 8.09724C5.38817 8.09512 5.38341 8.09512 5.3827 8.09724C5.34672 8.20793 5.31003 8.31861 5.27413 8.4293C5.15763 8.4279 5.04116 8.42443 4.92479 8.41889C4.92338 8.41889 4.92267 8.4196 4.92196 8.42162C4.92196 8.42304 4.92196 8.42436 4.92338 8.42577C5.01748 8.49844 5.1122 8.56971 5.20631 8.63956C5.17024 8.75033 5.13355 8.86031 5.09756 8.96967ZM7.07977 8.86728C7.07977 8.86869 7.08047 8.87072 7.08179 8.87072C7.0825 8.87142 7.08382 8.87142 7.08594 8.87072C7.18041 8.78974 7.27452 8.70834 7.36825 8.6265C7.46236 8.6818 7.55717 8.73578 7.65119 8.78975C7.65189 8.78905 7.6526 8.78905 7.65321 8.78905C7.65524 8.78905 7.65665 8.78764 7.65665 8.7849C7.65665 8.7849 7.65665 8.78349 7.65595 8.7842L7.548 8.46872C7.6421 8.38573 7.73691 8.30274 7.83093 8.21833C7.83234 8.2163 7.83296 8.21481 7.83234 8.21348C7.83172 8.21216 7.83093 8.21145 7.82881 8.21145C7.71266 8.23156 7.59633 8.25017 7.48017 8.26755C7.44419 8.16171 7.4075 8.05649 7.37152 7.95066C7.37081 7.94863 7.36596 7.94925 7.36464 7.95136C7.32865 8.06761 7.29267 8.18385 7.25669 8.2993C7.14053 8.31526 7.0235 8.32981 6.90734 8.34295C6.90531 8.34366 6.90452 8.34437 6.90381 8.34639C6.90381 8.34781 6.90381 8.34913 6.90523 8.35054C6.99933 8.40795 7.09405 8.46466 7.18816 8.52076C7.15235 8.63612 7.11566 8.75165 7.07977 8.86728ZM9.06258 8.50612C9.06258 8.50753 9.06258 8.50956 9.064 8.51026C9.0647 8.51097 9.06673 8.51026 9.06814 8.50956C9.16225 8.41898 9.25635 8.32761 9.35046 8.23633C9.44456 8.28201 9.53937 8.32761 9.63339 8.37259C9.63409 8.37188 9.6348 8.37188 9.63621 8.37188C9.63762 8.37118 9.63894 8.37047 9.63894 8.36774C9.63894 8.36774 9.63894 8.36633 9.63824 8.36633C9.60225 8.26464 9.56698 8.16295 9.53099 8.06126C9.6251 7.96927 9.71911 7.87728 9.81331 7.7845C9.81534 7.78247 9.81534 7.78106 9.81534 7.77965C9.81392 7.77824 9.81331 7.77762 9.81181 7.77824C9.69486 7.80796 9.57862 7.83768 9.46176 7.86678C9.42577 7.76439 9.38988 7.66199 9.35381 7.5603C9.3531 7.55828 9.34825 7.5596 9.34763 7.56171C9.31165 7.6814 9.27496 7.80108 9.23898 7.92076C9.12273 7.94845 9.00579 7.97544 8.88963 8.00102C8.88822 8.00172 8.8876 8.00243 8.88619 8.00455C8.88549 8.00658 8.88619 8.00728 8.88822 8.00869C8.98233 8.05579 9.07643 8.10209 9.17054 8.14839C9.13455 8.26816 9.09857 8.38714 9.06258 8.50612ZM11.0447 7.98241C11.0447 7.98382 11.0447 7.98585 11.0461 7.98655C11.0475 7.98655 11.0488 7.98655 11.0503 7.98514C11.1444 7.88901 11.2392 7.79279 11.3332 7.69595C11.4273 7.73749 11.5213 7.77832 11.6154 7.81907C11.6161 7.81836 11.6175 7.81836 11.6182 7.81766C11.6196 7.81766 11.6217 7.81625 11.6217 7.81351C11.6217 7.81351 11.6217 7.8121 11.621 7.8121L11.513 7.5125L11.796 7.22331C11.7974 7.22128 11.7974 7.21987 11.7974 7.21846C11.7967 7.21634 11.796 7.21634 11.7939 7.21705C11.6777 7.25171 11.5607 7.28628 11.4446 7.32085L11.3366 7.01993C11.3352 7.01852 11.3304 7.01993 11.3297 7.02196C11.2937 7.14375 11.2571 7.26476 11.2211 7.38656C11.1047 7.42056 10.9883 7.45425 10.8717 7.48763C10.8703 7.48834 10.8697 7.48904 10.869 7.49107C10.8676 7.49319 10.869 7.49389 10.8697 7.49522C10.9645 7.53676 11.0586 7.5775 11.1534 7.61834C11.1173 7.73952 11.0807 7.86132 11.0447 7.98241ZM2.44093 8.51511C2.43881 8.51097 2.43466 8.51026 2.43334 8.51308C2.39736 8.61266 2.36208 8.71232 2.3261 8.81198C2.20901 8.77372 2.09255 8.73359 1.97675 8.69159C1.97472 8.69089 1.97331 8.69089 1.97331 8.69089C1.97261 8.6923 1.97331 8.69503 1.97402 8.69574C2.06727 8.7984 2.16159 8.9001 2.25695 9.00081C2.22119 9.09911 2.18521 9.19733 2.149 9.29547C2.14829 9.29759 2.149 9.299 2.1497 9.30032C2.15182 9.30173 2.15323 9.30173 2.15385 9.30173C2.24787 9.26575 2.34276 9.22835 2.43678 9.18963C2.53041 9.28603 2.62472 9.38175 2.71971 9.4768C2.72113 9.47821 2.72112 9.47821 2.72174 9.47821C2.72315 9.47892 2.72589 9.47821 2.72589 9.4768C2.72589 9.47539 2.72518 9.47398 2.72518 9.47398L2.61723 9.11282C2.71134 9.07128 2.80615 9.02771 2.90016 8.98343C2.90087 8.98273 2.90157 8.9807 2.90087 8.97929C2.90087 8.97929 2.89884 8.97717 2.89743 8.97717C2.78036 8.94716 2.66389 8.91487 2.54808 8.88033C2.51219 8.75933 2.47691 8.63753 2.44093 8.51511ZM4.42304 8.90529C4.42163 8.90176 4.41748 8.90115 4.41546 8.90458C4.37947 9.01254 4.34419 9.1197 4.30821 9.22694C4.19152 9.21495 4.07505 9.20087 3.95887 9.1847H3.95543C3.95472 9.18672 3.95543 9.18884 3.95613 9.18955C4.05015 9.27192 4.14496 9.35218 4.23906 9.43103C4.20308 9.53757 4.16718 9.64411 4.13111 9.74994C4.13041 9.75206 4.13111 9.75347 4.13252 9.75409C4.13323 9.7555 4.13393 9.7555 4.13455 9.7555H4.13658C4.23069 9.69808 4.32479 9.63996 4.4189 9.57972C4.51371 9.65716 4.60781 9.73266 4.70253 9.80736C4.70253 9.80736 4.70324 9.80806 4.70394 9.80806C4.70668 9.80806 4.70809 9.80665 4.70809 9.80524C4.70809 9.80383 4.70738 9.80321 4.70738 9.80321C4.6714 9.6905 4.63612 9.5777 4.60014 9.46419C4.69489 9.40219 4.789 9.33922 4.88245 9.27527C4.88316 9.27527 4.88386 9.27324 4.88316 9.27183C4.88316 9.27183 4.88175 9.2698 4.87963 9.2698C4.76332 9.26414 4.64709 9.25676 4.53099 9.24767L4.42304 8.90529ZM6.22118 9.46913C6.18519 9.58193 6.14992 9.69394 6.11393 9.80674C6.11323 9.80877 6.11393 9.81018 6.11464 9.81089C6.11605 9.81159 6.11808 9.81159 6.11878 9.81089C6.2134 9.7368 6.30751 9.66207 6.4011 9.58669C6.49591 9.64755 6.59001 9.70779 6.68474 9.76661C6.68474 9.76661 6.68544 9.76732 6.68685 9.76732C6.68888 9.76732 6.691 9.76529 6.691 9.76529C6.691 9.76247 6.68959 9.76247 6.68959 9.76247C6.6536 9.65451 6.61832 9.54797 6.58234 9.44082C6.67712 9.36346 6.77122 9.28528 6.86466 9.2063C6.86607 9.2056 6.86668 9.20357 6.86607 9.20216C6.86607 9.20216 6.86404 9.20075 6.86254 9.20145C6.7463 9.21389 6.62944 9.22562 6.51319 9.23532C6.47721 9.12737 6.44061 9.01942 6.40463 8.91155C6.40392 8.90811 6.39907 8.90882 6.39845 8.91226L6.2905 9.25261C6.17426 9.2609 6.05731 9.26716 5.94107 9.27201C5.93966 9.27271 5.93763 9.27342 5.93763 9.27342C5.93692 9.27545 5.93763 9.27757 5.93904 9.27827C6.03275 9.34238 6.1268 9.406 6.22118 9.46913ZM8.20329 9.20833C8.16731 9.3259 8.13203 9.44284 8.09605 9.55979C8.09534 9.56261 8.09605 9.56394 8.09675 9.56394C8.09878 9.56464 8.10019 9.56394 8.1009 9.56323C8.195 9.47742 8.28981 9.39099 8.38383 9.30376C8.47793 9.35359 8.57266 9.40201 8.66676 9.45043H8.66879C8.67082 9.44972 8.67223 9.4484 8.67223 9.44699V9.44487C8.63625 9.34186 8.59956 9.23938 8.56366 9.13636C8.65856 9.04772 8.75311 8.9587 8.8473 8.86931C8.848 8.8686 8.84871 8.86587 8.848 8.86516C8.8473 8.86446 8.84598 8.86375 8.84456 8.86446C8.72832 8.89003 8.61137 8.9149 8.49522 8.93916L8.38727 8.62783C8.38586 8.625 8.38101 8.62571 8.3803 8.62924C8.34432 8.74751 8.30842 8.86587 8.27235 8.98343C8.1554 9.00628 8.03916 9.02771 7.9223 9.04843C7.9216 9.04843 7.92027 9.04914 7.92027 9.04914C7.91957 9.05196 7.92027 9.05328 7.92098 9.05399C8.01463 9.10625 8.10874 9.1577 8.20329 9.20833ZM10.3695 8.1491C10.3688 8.14637 10.3632 8.14769 10.3625 8.15122C10.3265 8.27231 10.2912 8.3927 10.2553 8.51308C10.139 8.54492 10.0221 8.57606 9.90591 8.60648C9.9045 8.60719 9.90247 8.60789 9.90177 8.60922C9.90177 8.61063 9.90247 8.61266 9.90318 8.61266C9.99723 8.65679 10.0915 8.70036 10.1861 8.74336C10.1501 8.86375 10.1142 8.98414 10.0782 9.10382C10.0775 9.10664 10.0782 9.10735 10.0796 9.10797C10.0803 9.10867 10.081 9.10797 10.0817 9.10797C10.0817 9.10797 10.0824 9.10796 10.0837 9.10655C10.1778 9.01315 10.2719 8.91975 10.366 8.82565C10.4608 8.8679 10.5549 8.90935 10.6497 8.95089L10.6504 8.95159C10.6531 8.95089 10.6545 8.94957 10.6545 8.94815V8.94613C10.6185 8.84505 10.5818 8.74477 10.5459 8.64511C10.6407 8.5496 10.7348 8.45417 10.8295 8.35865C10.8302 8.35724 10.8309 8.35521 10.8302 8.3538C10.8295 8.3531 10.8288 8.3531 10.8268 8.3538C10.7105 8.38696 10.5943 8.41951 10.478 8.45205C10.4421 8.35116 10.4054 8.25008 10.3695 8.1491ZM1.45437 8.99181C1.45366 8.98837 1.44881 8.98555 1.44811 8.98908L1.34015 9.27342C1.22242 9.22035 1.10571 9.16501 0.990105 9.10744C0.989399 9.10673 0.988076 9.10673 0.988076 9.10814C0.986665 9.10955 0.988076 9.11158 0.988782 9.11299C1.08184 9.22728 1.17592 9.34073 1.27101 9.45334C1.23502 9.54815 1.19975 9.64155 1.16376 9.73565C1.16306 9.73707 1.16376 9.73909 1.16447 9.7398C1.16588 9.74183 1.168 9.74333 1.16861 9.74183C1.26344 9.71817 1.35777 9.69255 1.45155 9.66501C1.54474 9.77349 1.63882 9.88121 1.73377 9.98816C1.73448 9.98816 1.73518 9.98887 1.73651 9.98957C1.73853 9.99028 1.73924 9.99028 1.73924 9.98754V9.98551C1.70326 9.86098 1.66736 9.73574 1.63129 9.61051C1.72613 9.58074 1.82045 9.54937 1.91422 9.5164C1.91563 9.5164 1.91625 9.51499 1.91563 9.51296C1.91563 9.51155 1.9136 9.51023 1.91219 9.50943C1.79481 9.46548 1.67834 9.41914 1.56285 9.37044C1.52704 9.24432 1.49035 9.11837 1.45437 8.99181ZM3.43719 9.60821C3.43578 9.60407 3.43101 9.60336 3.43031 9.6068C3.39432 9.7099 3.35905 9.81362 3.32306 9.91672C3.20588 9.89272 3.08917 9.86643 2.97301 9.83787C2.9716 9.83717 2.97019 9.83787 2.96948 9.83929C2.96948 9.8407 2.96948 9.84272 2.9709 9.84343C3.06435 9.93449 3.15866 10.0247 3.25383 10.1139C3.21784 10.2169 3.18186 10.32 3.14588 10.4225C3.14517 10.4246 3.14588 10.426 3.14658 10.4267C3.1487 10.4287 3.15011 10.4287 3.15073 10.4281C3.24474 10.3804 3.33964 10.3319 3.43366 10.2821C3.52776 10.3685 3.62187 10.4537 3.71597 10.5381H3.71871C3.72012 10.5388 3.72224 10.5381 3.72224 10.5359V10.5339C3.68625 10.4177 3.64956 10.3007 3.61358 10.1846C3.70839 10.1327 3.80249 10.0787 3.89722 10.0241C3.89792 10.0233 3.89863 10.022 3.89792 10.0199C3.89722 10.0185 3.89651 10.0178 3.89448 10.0178C3.77771 10.0007 3.66125 9.98154 3.54514 9.96038L3.43719 9.60821ZM5.4193 9.79289C5.4186 9.78945 5.41374 9.78945 5.41233 9.79289C5.37635 9.90358 5.34107 10.0143 5.30509 10.1242C5.18836 10.1233 5.07166 10.1203 4.95504 10.1153C4.95504 10.1153 4.95222 10.116 4.95151 10.1173C4.95151 10.1193 4.95151 10.1207 4.95292 10.1214C5.04654 10.1936 5.14085 10.2649 5.23585 10.3352L5.1279 10.6652C5.1272 10.6673 5.1279 10.6687 5.12931 10.6694C5.13072 10.6708 5.13134 10.6708 5.13346 10.6694C5.22806 10.6027 5.32217 10.5354 5.41577 10.4673C5.50988 10.5358 5.60469 10.6036 5.69871 10.67H5.70073C5.70276 10.67 5.70417 10.6693 5.70417 10.6673V10.6652C5.66819 10.5552 5.63159 10.4452 5.5956 10.3359C5.68971 10.2661 5.78452 10.1948 5.87854 10.1228C5.87995 10.1221 5.88127 10.1208 5.87995 10.1187C5.87924 10.1173 5.87854 10.1167 5.87713 10.1167C5.76097 10.1208 5.64394 10.1235 5.52778 10.125C5.49197 10.0143 5.45529 9.90358 5.4193 9.79289ZM7.40142 9.64208C7.40071 9.63864 7.39586 9.63935 7.39524 9.64278C7.35926 9.75903 7.32257 9.87456 7.28658 9.9901C7.17034 10.0067 7.05339 10.0212 6.93715 10.0344C6.93645 10.0351 6.93512 10.0358 6.93371 10.0371C6.93371 10.0391 6.93371 10.0406 6.93574 10.0413C7.02985 10.0987 7.12395 10.1554 7.21806 10.2115C7.18207 10.327 7.14609 10.4425 7.1101 10.5574C7.1101 10.5595 7.1101 10.5609 7.11152 10.5615C7.11293 10.5621 7.11495 10.5622 7.11566 10.5608C7.20977 10.4806 7.30458 10.3989 7.39868 10.3166C7.49279 10.3719 7.58689 10.4259 7.68091 10.4791C7.68161 10.4791 7.68232 10.4791 7.68373 10.4784C7.68514 10.4784 7.68646 10.4777 7.68646 10.475V10.473C7.65048 10.3685 7.6145 10.264 7.57851 10.1588C7.6731 10.0754 7.76721 9.9915 7.86083 9.90702C7.86286 9.90631 7.86286 9.90499 7.86286 9.90287C7.86144 9.90146 7.86083 9.90085 7.85933 9.90146C7.74309 9.92157 7.62614 9.94018 7.50998 9.95817C7.47409 9.85313 7.43749 9.7473 7.40142 9.64208ZM9.38423 9.24846C9.38282 9.24502 9.37797 9.24643 9.37727 9.24987C9.34128 9.36955 9.30468 9.48924 9.2687 9.60821C9.15275 9.63645 9.0365 9.66344 8.91997 9.68918C8.91794 9.68988 8.91724 9.69059 8.91653 9.69262C8.91653 9.69403 8.91653 9.69535 8.91794 9.69606C9.01205 9.74315 9.10686 9.79016 9.20088 9.83655C9.16489 9.95553 9.1282 10.0745 9.09231 10.1935C9.09231 10.1955 9.09231 10.1976 9.09372 10.1976C9.09513 10.199 9.09645 10.1983 9.09786 10.1969C9.19197 10.1063 9.28678 10.015 9.3808 9.9236C9.4749 9.96929 9.56892 10.0142 9.66302 10.0592C9.66443 10.0585 9.66514 10.0585 9.66584 10.0585C9.66726 10.0577 9.66928 10.0564 9.66928 10.0543C9.66928 10.0543 9.66928 10.0523 9.66858 10.0529C9.63259 9.95121 9.59661 9.85022 9.56063 9.74844C9.65464 9.65646 9.74954 9.56376 9.84356 9.47098C9.84497 9.46957 9.84497 9.46825 9.84497 9.46613C9.84426 9.46472 9.84356 9.46472 9.84153 9.46472C9.72525 9.49512 9.6088 9.52487 9.49219 9.55397C9.4562 9.45255 9.42022 9.35015 9.38423 9.24846ZM11.3663 8.70676C11.3656 8.70403 11.3608 8.70535 11.3594 8.70879C11.3234 8.83059 11.2874 8.95159 11.2514 9.07269L10.9021 9.17438C10.9001 9.17438 10.8994 9.17579 10.8986 9.17711C10.8986 9.17923 10.8986 9.18064 10.9001 9.18064C10.9942 9.22218 11.089 9.26363 11.183 9.30447C11.147 9.42556 11.1104 9.54727 11.0744 9.66836C11.0744 9.67039 11.0744 9.6718 11.0764 9.6718C11.0772 9.67251 11.0786 9.67251 11.0806 9.67039C11.1747 9.57487 11.2687 9.47874 11.3629 9.38261C11.4569 9.42335 11.5517 9.46348 11.6458 9.50432C11.6465 9.50361 11.6473 9.50361 11.6479 9.50361C11.6499 9.50291 11.6514 9.50158 11.6514 9.49947C11.6514 9.49806 11.6514 9.49744 11.6507 9.49744L11.5427 9.19854C11.6368 9.1017 11.7317 9.00557 11.8257 8.90864C11.8271 8.90723 11.8271 8.90591 11.8271 8.90379C11.8264 8.90309 11.8251 8.90238 11.8244 8.90238C11.7081 8.93766 11.5912 8.97223 11.475 9.0068C11.439 8.9067 11.4023 8.80704 11.3663 8.70676ZM1.58172 11.05C1.54574 10.9248 1.50975 10.7989 1.47377 10.6723C1.47236 10.6681 1.46821 10.6667 1.4668 10.6696L1.35885 10.9539C1.24134 10.9013 1.12486 10.8464 1.00951 10.7892C1.00748 10.7878 1.00607 10.7878 1.00607 10.7892C1.00536 10.7914 1.00607 10.7928 1.00677 10.7941C1.10039 10.9081 1.1947 11.0216 1.28971 11.1344C1.25372 11.2285 1.21783 11.3227 1.18175 11.416C1.18105 11.418 1.18175 11.4187 1.18317 11.4215C1.18387 11.4222 1.18458 11.4222 1.18519 11.4229C1.18593 11.4231 1.18665 11.4233 1.18731 11.4236C1.28206 11.3992 1.37638 11.3731 1.47024 11.3455C1.56372 11.4539 1.65804 11.5616 1.75318 11.6686C1.75388 11.6693 1.75459 11.6693 1.75459 11.6693L1.75529 11.67C1.75732 11.6707 1.75873 11.6693 1.75873 11.6679C1.75873 11.6659 1.75803 11.6652 1.75803 11.6652C1.72204 11.5407 1.68676 11.4161 1.65078 11.2909C1.74488 11.2605 1.83899 11.2293 1.93309 11.1955C1.9338 11.1955 1.93451 11.1941 1.9338 11.1919C1.9338 11.1905 1.93239 11.1892 1.93027 11.1885C1.81319 11.1446 1.69699 11.0985 1.58172 11.05ZM3.56375 11.636L3.4558 11.2838C3.45439 11.2797 3.45024 11.279 3.44892 11.2824L3.34097 11.5931C3.22406 11.569 3.10756 11.5429 2.99153 11.5149C2.99012 11.5142 2.98809 11.5142 2.98809 11.5156C2.98739 11.5177 2.98809 11.5191 2.9895 11.5205C3.08293 11.6111 3.17703 11.7011 3.27182 11.7904C3.23584 11.8934 3.20056 11.9965 3.16457 12.0989C3.16316 12.101 3.16457 12.1017 3.16528 12.1037C3.16669 12.1051 3.16872 12.1051 3.16942 12.1051C3.26455 12.0571 3.35911 12.008 3.45306 11.9577C3.54666 12.0445 3.64124 12.1302 3.73679 12.2148C3.73952 12.2148 3.74093 12.2134 3.74093 12.212C3.74093 12.2093 3.74023 12.2093 3.74023 12.2093C3.70424 12.0927 3.66897 11.9764 3.63298 11.8596C3.72709 11.8077 3.82119 11.7538 3.9153 11.6991C3.91671 11.6984 3.91733 11.697 3.91671 11.6949C3.91671 11.6935 3.91468 11.6929 3.91327 11.6922C3.79694 11.6754 3.68008 11.6567 3.56375 11.636ZM5.54586 11.7964C5.50988 11.6865 5.47389 11.5758 5.43791 11.4651C5.4365 11.4616 5.43235 11.4616 5.43094 11.4651L5.32299 11.7971C5.20674 11.7959 5.09052 11.7929 4.97435 11.7881C4.97224 11.7881 4.97083 11.7889 4.97083 11.7903C4.97012 11.7923 4.97083 11.7937 4.97153 11.7944C5.06564 11.8671 5.15974 11.9376 5.25385 12.0075C5.21786 12.1182 5.18258 12.2285 5.1466 12.3379C5.14589 12.3393 5.1466 12.3407 5.14731 12.342C5.14933 12.3434 5.15074 12.3434 5.15145 12.3434C5.24556 12.2756 5.34037 12.2092 5.43438 12.1396C5.52849 12.2092 5.62321 12.2756 5.71731 12.342H5.71934C5.72137 12.342 5.72349 12.3406 5.72349 12.3392C5.72349 12.3378 5.72278 12.3365 5.72278 12.3365C5.6868 12.2272 5.65082 12.1175 5.61483 12.0075C5.70894 11.9376 5.80375 11.8664 5.89776 11.7944C5.89776 11.7944 5.89917 11.7924 5.89847 11.7903C5.89847 11.7889 5.89644 11.7881 5.89503 11.7881C5.77905 11.793 5.6621 11.7958 5.54586 11.7964ZM7.52806 11.6276L7.42011 11.3115C7.41941 11.308 7.41526 11.3087 7.41315 11.3122C7.37716 11.4284 7.34188 11.5439 7.3059 11.6602C7.18966 11.6761 7.07271 11.6913 6.95647 11.7045C6.95444 11.7045 6.95232 11.7059 6.95303 11.7072C6.95232 11.7092 6.95303 11.7099 6.95373 11.7113C7.04784 11.7687 7.14265 11.8255 7.23675 11.8808L7.1288 12.2271C7.1281 12.2298 7.1288 12.2298 7.13021 12.2312C7.13162 12.2327 7.13295 12.2327 7.13436 12.2312C7.2289 12.1502 7.32301 12.0687 7.41667 11.9867C7.5114 12.0414 7.60559 12.0952 7.70031 12.1485H7.70172C7.70454 12.1478 7.70587 12.1458 7.70587 12.1444C7.70587 12.143 7.70516 12.1423 7.70516 12.1423C7.66918 12.0378 7.6339 11.9327 7.59792 11.8282C7.69234 11.7444 7.78642 11.6602 7.88014 11.5757C7.88085 11.575 7.88155 11.5737 7.88085 11.5715C7.88085 11.5701 7.87944 11.5701 7.87741 11.5701C7.76117 11.5903 7.64431 11.6096 7.52806 11.6276ZM9.51088 11.2216C9.4749 11.1199 9.43821 11.0182 9.40232 10.9165C9.40161 10.9131 9.39746 10.9138 9.39605 10.9179L9.2881 11.2763C9.17186 11.304 9.05491 11.3309 8.93876 11.3572C8.93735 11.3579 8.93532 11.3593 8.93532 11.36C8.93461 11.3627 8.93532 11.3641 8.93673 11.3641C9.03083 11.4111 9.12485 11.4581 9.21904 11.5038C9.18306 11.6235 9.14778 11.7426 9.1118 11.8615C9.11039 11.8636 9.1118 11.8643 9.1125 11.8664C9.11391 11.8664 9.11594 11.8664 9.11665 11.865C9.21075 11.7744 9.30486 11.683 9.39888 11.5917C9.49369 11.6374 9.58779 11.6823 9.68251 11.7274C9.68251 11.7267 9.68322 11.7267 9.68392 11.7267C9.68675 11.726 9.68745 11.7239 9.68745 11.7225V11.7205C9.65147 11.6188 9.61548 11.5178 9.5795 11.4161C9.67352 11.3241 9.76833 11.2314 9.86243 11.1386C9.86384 11.1372 9.86446 11.1359 9.86384 11.1337C9.86384 11.1323 9.86182 11.1323 9.8604 11.1323C9.74399 11.1628 9.62713 11.1925 9.51088 11.2216ZM11.8423 10.5698C11.7261 10.6045 11.6092 10.639 11.493 10.6736C11.457 10.574 11.421 10.4737 11.385 10.3734C11.3836 10.3707 11.3788 10.372 11.3781 10.3754C11.3421 10.4972 11.3061 10.6182 11.2701 10.7393C11.1532 10.774 11.0369 10.8079 10.9201 10.841C10.9194 10.841 10.918 10.8424 10.9173 10.8437C10.9173 10.8458 10.9173 10.8473 10.9188 10.8479C11.0128 10.8894 11.1069 10.9302 11.201 10.971C11.165 11.0928 11.1297 11.2138 11.0937 11.3349C11.093 11.3369 11.0937 11.3376 11.0944 11.3391C11.0965 11.3391 11.0979 11.3391 11.0986 11.3384L11.3815 11.0492L11.6638 11.1716C11.6645 11.1709 11.6659 11.1709 11.6666 11.1709C11.6686 11.1702 11.67 11.1674 11.67 11.166V11.1639C11.634 11.0643 11.5974 10.9647 11.5614 10.865C11.6562 10.7682 11.7504 10.6713 11.8451 10.5745C11.8458 10.5738 11.8465 10.5725 11.8458 10.5703C11.8458 10.5691 11.8438 10.5691 11.8423 10.5698ZM1.55747 12.7322C1.52148 12.6063 1.4855 12.4804 1.44952 12.353C1.44811 12.3503 1.44396 12.3475 1.44334 12.3503C1.40736 12.4458 1.37067 12.5413 1.33469 12.6354C1.21719 12.5822 1.10072 12.5269 0.985342 12.4693C0.983931 12.4679 0.981814 12.4679 0.981814 12.4693C0.981109 12.4693 0.981814 12.472 0.98252 12.4734C1.07586 12.5882 1.17017 12.7021 1.26545 12.8152L1.1575 13.0974C1.15679 13.0974 1.1575 13.1002 1.15891 13.1016C1.16032 13.1031 1.16165 13.1031 1.16376 13.1031C1.25837 13.0796 1.35249 13.0542 1.44608 13.0269C1.53938 13.1353 1.6337 13.2427 1.72901 13.3493C1.72972 13.352 1.72972 13.352 1.73042 13.352H1.73113C1.73315 13.3534 1.73457 13.352 1.73457 13.3506C1.73457 13.3492 1.73386 13.3479 1.73386 13.3479C1.69788 13.2219 1.6626 13.0974 1.62661 12.9729C1.72072 12.9425 1.81482 12.9107 1.90884 12.8775C1.90955 12.8775 1.91025 12.876 1.90955 12.8747C1.90955 12.8733 1.90814 12.872 1.90602 12.872C1.7889 12.8278 1.67269 12.7812 1.55747 12.7322ZM3.53958 13.323C3.5036 13.2069 3.4677 13.0878 3.43163 12.9701C3.43022 12.9674 3.42607 12.966 3.42475 12.9687L3.3168 13.2801C3.19991 13.2557 3.08345 13.2294 2.96746 13.2011C2.96604 13.1997 2.96402 13.2011 2.96402 13.2025C2.96331 13.2025 2.96402 13.2054 2.96543 13.2054C3.05849 13.2968 3.15261 13.3872 3.24774 13.4765C3.21176 13.5803 3.17648 13.6827 3.1405 13.7851C3.13979 13.7865 3.1405 13.7878 3.1412 13.7892C3.14261 13.7906 3.14464 13.792 3.14535 13.7906C3.24001 13.7433 3.33412 13.6949 3.42766 13.6454C3.52238 13.7312 3.61658 13.8169 3.7113 13.9013C3.7113 13.9013 3.71201 13.9027 3.71333 13.9027C3.71545 13.9027 3.71747 13.9013 3.71747 13.9C3.71747 13.8987 3.71606 13.8973 3.71606 13.8973C3.68008 13.7811 3.6448 13.6648 3.60882 13.5472C3.70378 13.4953 3.79786 13.4418 3.89104 13.3867C3.89245 13.3867 3.89316 13.384 3.89245 13.384C3.89245 13.3826 3.89034 13.3812 3.88893 13.3812C3.77205 13.3645 3.65557 13.3451 3.53958 13.323ZM5.5217 13.4891C5.48571 13.3784 5.45043 13.2676 5.41445 13.1569C5.41242 13.1542 5.40748 13.1542 5.40687 13.1569C5.37088 13.2676 5.3356 13.3784 5.29962 13.4891C5.18312 13.4879 5.06666 13.4847 4.95028 13.4794C4.94825 13.4794 4.94684 13.4808 4.94684 13.4821C4.94613 13.4821 4.94684 13.485 4.94754 13.485C5.04165 13.5582 5.13575 13.6288 5.22986 13.6994C5.19387 13.8101 5.15859 13.9194 5.12261 14.0287C5.1219 14.0314 5.12261 14.0314 5.12332 14.0328C5.12534 14.0342 5.12676 14.0342 5.12746 14.0328C5.22243 13.9669 5.31674 13.9 5.41039 13.8323C5.5045 13.9001 5.59931 13.9678 5.69333 14.0342C5.69333 14.0357 5.69474 14.0357 5.69544 14.0357C5.69747 14.0357 5.69959 14.0329 5.69959 14.0315C5.69959 14.0301 5.69888 14.0301 5.69888 14.0288C5.6629 13.9195 5.62621 13.8101 5.59031 13.7009C5.68504 13.6303 5.77914 13.5597 5.87395 13.4864C5.87466 13.4864 5.87536 13.4835 5.87466 13.4835C5.87466 13.4821 5.87263 13.4808 5.87122 13.4808C5.7548 13.4864 5.63794 13.4877 5.5217 13.4891ZM7.50452 13.323C7.46853 13.2179 7.43184 13.1127 7.39595 13.0061C7.39524 13.0034 7.38969 13.0047 7.38898 13.0075C7.353 13.1238 7.31772 13.24 7.28173 13.3549C7.16552 13.3716 7.04902 13.3864 6.9323 13.3992C6.93089 13.3992 6.92886 13.4006 6.92816 13.402C6.92816 13.402 6.92886 13.4047 6.92957 13.4061C7.02367 13.4629 7.11848 13.5209 7.2125 13.5763C7.17652 13.6925 7.14062 13.8074 7.10455 13.9222C7.10384 13.9236 7.10455 13.925 7.10596 13.9264C7.10737 13.9279 7.10869 13.9264 7.1101 13.925C7.20458 13.8447 7.29869 13.764 7.39242 13.6829C7.48723 13.7367 7.58134 13.7908 7.67606 13.8434C7.67606 13.8448 7.67676 13.8448 7.67747 13.8448C7.6802 13.8448 7.68091 13.842 7.68091 13.8406V13.8391C7.64492 13.734 7.60965 13.6288 7.57366 13.5237C7.66777 13.4407 7.76187 13.3563 7.85598 13.272C7.85668 13.2705 7.85739 13.2691 7.85668 13.2677C7.85668 13.2663 7.85527 13.2663 7.85324 13.2663C7.737 13.287 7.62076 13.305 7.50452 13.323ZM9.48663 12.9204C9.45065 12.818 9.41396 12.7156 9.37797 12.6133C9.37727 12.6105 9.37242 12.6119 9.3718 12.6147C9.33582 12.735 9.29983 12.8541 9.26385 12.9744C9.1469 13.0021 9.03066 13.0284 8.9138 13.0546C8.91309 13.0561 8.91098 13.0561 8.91027 13.0588C8.91027 13.0588 8.91027 13.0603 8.9123 13.0616L9.19461 13.2027C9.15863 13.3218 9.12335 13.4407 9.08737 13.5597C9.08666 13.5612 9.08737 13.5625 9.08807 13.5625C9.08948 13.5639 9.0916 13.5639 9.09222 13.5611C9.18624 13.4711 9.28034 13.3812 9.37444 13.2899C9.46926 13.3356 9.56336 13.3799 9.65808 13.4241C9.65808 13.4255 9.65879 13.4255 9.66011 13.4255C9.66214 13.4241 9.66285 13.4228 9.66285 13.4214V13.4186C9.62686 13.3176 9.59088 13.2152 9.55489 13.1142C9.64968 13.0222 9.74379 12.9295 9.83721 12.8361C9.83924 12.8347 9.83994 12.8334 9.83924 12.8319C9.83783 12.8319 9.83721 12.8305 9.8358 12.8319C9.71982 12.8609 9.60287 12.8913 9.48663 12.9204ZM11.4688 12.3738C11.4328 12.2728 11.3969 12.1729 11.3609 12.0725C11.3595 12.0698 11.3547 12.0711 11.3539 12.0745C11.3179 12.1953 11.282 12.3171 11.246 12.4388C11.1291 12.4733 11.0128 12.5065 10.8959 12.5398C10.8952 12.5398 10.8938 12.5412 10.8931 12.5425C10.8931 12.5425 10.8931 12.5452 10.8945 12.5466L11.1768 12.6712C11.1408 12.7916 11.1056 12.9134 11.0696 13.0337C11.0689 13.0351 11.0696 13.0365 11.0703 13.0379C11.0723 13.0379 11.0737 13.0379 11.0744 13.0365C11.1685 12.941 11.2633 12.844 11.3574 12.7486L11.6397 12.869C11.6404 12.8704 11.6417 12.8704 11.6424 12.8704C11.6438 12.8704 11.6458 12.8677 11.6458 12.8663V12.8634C11.6099 12.7639 11.5732 12.6642 11.5373 12.5645C11.6321 12.4677 11.7262 12.3709 11.8209 12.274C11.8216 12.2726 11.8223 12.2713 11.8216 12.2699C11.8209 12.2685 11.8195 12.2685 11.8181 12.2685C11.7019 12.3046 11.585 12.3392 11.4688 12.3738ZM2.55443 10.5519L2.44648 10.1866C2.44507 10.1839 2.44093 10.1825 2.4389 10.1839C2.40291 10.2842 2.36764 10.3838 2.33165 10.4828C2.21446 10.4451 2.09799 10.4052 1.98231 10.3631C1.9809 10.3624 1.97878 10.3624 1.97878 10.3645C1.97807 10.3652 1.97878 10.3673 1.97949 10.3686C2.07296 10.4706 2.16727 10.5719 2.26242 10.6723C2.22643 10.7713 2.19045 10.8702 2.15447 10.9684C2.15376 10.9698 2.15447 10.9718 2.15588 10.9732C2.15729 10.9739 2.15932 10.9753 2.16002 10.9746C2.25413 10.9379 2.34894 10.9006 2.44296 10.8605C2.53643 10.9577 2.63074 11.0541 2.72589 11.1497H2.7273C2.73003 11.1504 2.73144 11.1504 2.73144 11.1477C2.73144 11.147 2.73074 11.147 2.73074 11.147C2.69475 11.0259 2.65948 10.9048 2.62349 10.7838C2.7176 10.7429 2.8117 10.7001 2.90572 10.6557C2.90642 10.6543 2.90784 10.6537 2.90642 10.6516C2.90642 10.6495 2.90501 10.6481 2.90369 10.6481C2.78667 10.6183 2.67023 10.5862 2.55443 10.5519ZM4.53655 10.9171C4.50056 10.8036 4.46529 10.6895 4.4293 10.5754C4.42727 10.5726 4.42313 10.5726 4.42242 10.5747C4.38644 10.6819 4.34975 10.7898 4.31377 10.8971C4.19712 10.8847 4.08066 10.8706 3.96442 10.8549C3.96301 10.8542 3.96169 10.8549 3.96169 10.8569C3.96028 10.8583 3.96169 10.8596 3.96239 10.861C4.0558 10.9419 4.14991 11.0219 4.24471 11.1011C4.20872 11.2083 4.17345 11.3149 4.13746 11.4214C4.13676 11.4228 4.13746 11.4249 4.13817 11.4256C4.13929 11.4261 4.14044 11.4266 4.14161 11.427C4.237 11.3689 4.33179 11.3099 4.42595 11.2499C4.51937 11.3268 4.61345 11.4029 4.70818 11.4781H4.71021C4.71232 11.4788 4.71435 11.4781 4.71435 11.4754C4.71365 11.4747 4.71365 11.474 4.71294 11.474C4.67696 11.3605 4.64168 11.2478 4.60569 11.1343C4.70026 11.0725 4.79433 11.01 4.88792 10.9468C4.88933 10.9453 4.89004 10.944 4.88933 10.9426C4.88933 10.9406 4.88722 10.9399 4.8858 10.9399C4.76926 10.9344 4.65282 10.9268 4.53655 10.9171ZM6.51866 10.9047C6.48268 10.7967 6.44669 10.6889 6.41071 10.5802C6.4093 10.5781 6.40515 10.5788 6.40374 10.5809C6.36776 10.6943 6.33248 10.8086 6.2965 10.922C6.18025 10.9296 6.06331 10.9365 5.94715 10.9414C5.94512 10.9414 5.94371 10.9421 5.94371 10.9441C5.94301 10.9455 5.94371 10.9468 5.94442 10.9483C6.03852 11.0126 6.13334 11.0755 6.22735 11.1378L6.1194 11.4775C6.11869 11.4789 6.1194 11.481 6.12011 11.4817C6.12213 11.4817 6.12355 11.4817 6.12425 11.481C6.21931 11.4067 6.31385 11.3317 6.40789 11.2562C6.50189 11.317 6.5962 11.3775 6.69082 11.4374C6.69082 11.4374 6.69153 11.4374 6.69223 11.4367C6.69505 11.4367 6.69638 11.436 6.69638 11.4332L6.69567 11.4318L6.58772 11.1102C6.68251 11.0328 6.77682 10.9549 6.87065 10.8764C6.87136 10.875 6.87206 10.8736 6.87136 10.8722C6.87136 10.8702 6.86995 10.8702 6.86792 10.8702C6.75176 10.8826 6.63482 10.8943 6.51866 10.9047ZM8.50148 10.6072C8.4655 10.5034 8.42881 10.4003 8.39291 10.2966C8.39221 10.2945 8.38736 10.2959 8.38595 10.298C8.34996 10.4156 8.31468 10.5339 8.2787 10.6515C8.16244 10.6742 8.04599 10.6958 7.92936 10.7165C7.92794 10.7165 7.92592 10.7179 7.92521 10.72C7.92521 10.7214 7.92592 10.7227 7.92662 10.7242C8.02064 10.7754 8.11554 10.8266 8.20955 10.8771C8.17357 10.9947 8.13767 11.1123 8.1016 11.2299C8.1009 11.2313 8.1016 11.2333 8.10301 11.234C8.10442 11.234 8.10645 11.234 8.10716 11.2326C8.20159 11.1463 8.29566 11.0595 8.38939 10.9724C8.48365 11.0221 8.5782 11.0712 8.67302 11.1198L8.67443 11.1191C8.67717 11.1191 8.67858 11.1177 8.67858 11.115L8.67787 11.1135C8.64189 11.0104 8.60661 10.9073 8.57063 10.8043C8.66473 10.7164 8.75884 10.6279 8.85294 10.5387C8.85365 10.5373 8.85497 10.5352 8.85365 10.5345C8.85365 10.5325 8.85224 10.5318 8.85091 10.5325C8.73467 10.5581 8.61772 10.583 8.50148 10.6072ZM10.4836 10.1202C10.4476 10.0192 10.411 9.91813 10.375 9.81715C10.3743 9.81512 10.3695 9.81644 10.3689 9.81856C10.3329 9.93965 10.2969 10.0607 10.2609 10.181C10.144 10.2129 10.0277 10.244 9.91076 10.2744C9.91006 10.2751 9.90874 10.2759 9.90732 10.2786C9.90732 10.28 9.90874 10.2806 9.90935 10.2821C10.0035 10.3257 10.0976 10.3685 10.1917 10.4115C10.1557 10.5326 10.1204 10.6529 10.0844 10.7734C10.0837 10.7748 10.0844 10.7768 10.0851 10.7775C10.0866 10.7775 10.0881 10.777 10.0893 10.7761C10.1833 10.682 10.2781 10.5879 10.3722 10.4932C10.4663 10.536 10.5604 10.5783 10.6545 10.6211C10.6552 10.6204 10.6559 10.6204 10.6573 10.6197C10.6593 10.619 10.6614 10.6183 10.6614 10.6156L10.66 10.6142C10.624 10.5138 10.5887 10.4128 10.5527 10.3125C10.6468 10.2177 10.741 10.123 10.8351 10.0276C10.8365 10.0262 10.8371 10.0248 10.8365 10.0234C10.8365 10.0214 10.8344 10.0214 10.833 10.0214C10.7167 10.0544 10.5998 10.0876 10.4836 10.1202ZM2.54817 12.2382C2.51219 12.1175 2.47691 11.9964 2.44093 11.8747C2.43881 11.8705 2.43466 11.8698 2.43334 11.8726C2.39736 11.9722 2.36208 12.0711 2.3261 12.17C2.209 12.1318 2.09254 12.0917 1.97675 12.0497C1.97472 12.0482 1.97331 12.0504 1.97331 12.0504C1.97261 12.0518 1.97331 12.0545 1.97402 12.0552C2.06747 12.1576 2.16178 12.2592 2.25695 12.36L2.149 12.6548C2.14829 12.6562 2.149 12.6589 2.1497 12.6603C2.15182 12.6617 2.15323 12.6617 2.15385 12.6617C2.24787 12.6243 2.34276 12.5869 2.43678 12.5482C2.53041 12.6448 2.62472 12.7408 2.71971 12.8361C2.72113 12.8375 2.72112 12.8375 2.72174 12.8375C2.72315 12.8389 2.72589 12.8375 2.72589 12.8361L2.72518 12.8334L2.61723 12.4722C2.71134 12.4307 2.80615 12.3878 2.90016 12.3435C2.90087 12.3421 2.90157 12.3408 2.90087 12.3394C2.90087 12.338 2.89884 12.3352 2.89743 12.3352C2.78034 12.3054 2.66389 12.273 2.54817 12.2382ZM4.53099 12.6063C4.49501 12.4928 4.45902 12.378 4.42304 12.2645C4.42163 12.2618 4.41748 12.2604 4.41546 12.2645C4.37947 12.371 4.34419 12.4776 4.30821 12.5855C4.19152 12.5733 4.07505 12.559 3.95887 12.5427C3.95745 12.5427 3.95543 12.5441 3.95543 12.5441C3.95472 12.5468 3.95543 12.5482 3.95613 12.5496C4.05015 12.6313 4.14496 12.7116 4.23906 12.7904L4.13111 13.11C4.13041 13.1114 4.13111 13.1128 4.13252 13.1142C4.13393 13.1156 4.13526 13.1156 4.13667 13.1142C4.23138 13.0566 4.32549 12.998 4.41898 12.9385C4.51379 13.0159 4.6079 13.092 4.70262 13.1668C4.70262 13.1668 4.70333 13.1682 4.70403 13.1682C4.70677 13.1682 4.70818 13.1668 4.70818 13.1641L4.70747 13.1626C4.67149 13.0492 4.63621 12.9371 4.60023 12.8237C4.69433 12.7628 4.78844 12.6991 4.88254 12.6354C4.88325 12.6354 4.88395 12.6326 4.88325 12.6312C4.88325 12.6312 4.88184 12.6285 4.87972 12.6285C4.76339 12.6225 4.64714 12.6151 4.53099 12.6063ZM6.51311 12.5938C6.47712 12.4859 6.44052 12.3793 6.40454 12.2714C6.40383 12.2672 6.39969 12.2672 6.39836 12.2714C6.36238 12.3849 6.3264 12.4983 6.29041 12.6103C6.17417 12.6187 6.05722 12.6256 5.94098 12.6297C5.93957 12.6311 5.93754 12.6324 5.93754 12.6339C5.93683 12.6354 5.93754 12.6367 5.93895 12.6381C6.03306 12.7018 6.12716 12.7654 6.22127 12.8276C6.18528 12.941 6.15 13.0531 6.11402 13.1666C6.11331 13.1681 6.11402 13.1694 6.11473 13.1708H6.11887C6.21298 13.096 6.30708 13.0214 6.40119 12.9452C6.496 13.006 6.5901 13.067 6.68482 13.1265H6.68694C6.68749 13.1265 6.68803 13.1264 6.68854 13.1262C6.68905 13.126 6.68951 13.1257 6.6899 13.1253C6.69029 13.1249 6.69059 13.1245 6.69079 13.124C6.691 13.1235 6.6911 13.1229 6.69109 13.1224H6.68967C6.65369 13.0143 6.61841 12.9065 6.58243 12.7999C6.67688 12.7224 6.77099 12.6445 6.86474 12.5661C6.86615 12.5647 6.86677 12.5634 6.86615 12.562C6.86615 12.5606 6.86413 12.5592 6.86263 12.5592C6.74621 12.5717 6.62935 12.5841 6.51311 12.5938ZM8.49522 12.2977C8.45924 12.1944 8.42325 12.0913 8.38727 11.9875C8.38586 11.9847 8.38171 11.9854 8.3803 11.9889C8.34432 12.1064 8.30842 12.2245 8.27235 12.3421C8.15611 12.3642 8.03987 12.3864 7.92371 12.4058C7.92159 12.4072 7.92018 12.4085 7.92018 12.4085C7.91948 12.4113 7.92018 12.4127 7.92089 12.4141L8.2032 12.5676C8.16722 12.6853 8.13194 12.8028 8.09596 12.9191C8.09525 12.9218 8.09596 12.9232 8.09666 12.9232C8.09869 12.9246 8.1001 12.9232 8.10081 12.9232C8.19491 12.8361 8.28972 12.7503 8.38374 12.6617C8.4778 12.7116 8.57211 12.7609 8.66667 12.8098H8.6687C8.67073 12.8098 8.67214 12.8084 8.67214 12.8057V12.8042C8.63636 12.7013 8.60038 12.5984 8.56419 12.4957C8.65821 12.4071 8.75311 12.3186 8.84712 12.2286C8.84783 12.2286 8.84853 12.2258 8.84783 12.2245C8.84783 12.2245 8.8458 12.2217 8.84439 12.223C8.72841 12.2479 8.61146 12.2728 8.49522 12.2977ZM10.478 11.8104C10.4421 11.71 10.4054 11.609 10.3695 11.5087C10.3688 11.5053 10.3632 11.5073 10.3625 11.5108C10.3265 11.6312 10.2912 11.7515 10.2553 11.8712C10.139 11.9031 10.0221 11.9342 9.90591 11.9646C9.9042 11.9656 9.90277 11.9671 9.90177 11.9688C9.90177 11.9702 9.90247 11.9715 9.90318 11.9723C9.99728 12.0166 10.0921 12.0594 10.1861 12.1024C10.1501 12.2231 10.1142 12.3435 10.0782 12.4638C10.0775 12.4653 10.0782 12.4666 10.0796 12.4681C10.081 12.4681 10.0824 12.4681 10.0837 12.4666C10.1778 12.3725 10.2719 12.2784 10.366 12.184C10.4608 12.2258 10.5549 12.2686 10.6497 12.3102L10.6504 12.3116H10.6511C10.6531 12.3102 10.6546 12.3088 10.6546 12.306V12.3046C10.6186 12.2051 10.5819 12.1043 10.546 12.0041L10.8296 11.7183C10.8303 11.7169 10.831 11.7148 10.8303 11.7134C10.8296 11.7134 10.8289 11.7114 10.8269 11.712C10.7105 11.7453 10.5943 11.7777 10.478 11.8104Z" fill="white"/>
</g>
</g>
</g>
</svg>
