<svg width="20" height="20" viewBox="0 0 20 20" fill="none" xmlns="http://www.w3.org/2000/svg">
  <g id="mdi:favourite">
    <path id="Vector" d="M9.29688 16.1371L9.2958 16.1361C7.13522 14.1769 5.40233 12.6016 4.20082 11.1316C3.00755 9.67172 2.41699 8.4076 2.41699 7.08333C2.41699 4.92344 4.09698 3.25 6.25033 3.25C7.4736 3.25 8.66009 3.82334 9.4312 4.7218L10.0003 5.38491L10.5695 4.7218C11.3406 3.82334 12.5271 3.25 13.7503 3.25C15.9037 3.25 17.5837 4.92344 17.5837 7.08333C17.5837 8.4076 16.9931 9.67172 15.7998 11.1316C14.5983 12.6016 12.8654 14.1769 10.7049 16.1361L10.7038 16.1371L10.0003 16.7774L9.29688 16.1371Z" stroke="#321F6B" stroke-width="1.5"/>
  </g>
</svg>
