<svg width="16" height="16" viewBox="0 0 16 16" fill="none" xmlns="http://www.w3.org/2000/svg">
<g id="Frame" clip-path="url(#clip0_1251_39355)">
<g id="Group">
<path id="Vector" d="M8.02656 1.35542H14.0067C14.3734 1.35542 14.6711 1.65311 14.6711 2.01986V13.98C14.6711 14.3468 14.3734 14.6445 14.0067 14.6445H8.02656C7.65913 14.6445 7.36213 14.9415 7.36213 15.3089C7.36213 15.6763 7.65913 15.9734 8.02656 15.9734H14.0067C15.1057 15.9734 16 15.079 16 13.98V2.01989C16 0.920887 15.1057 0.0265436 14.0067 0.0265436H8.02656C7.65913 0.0265436 7.36213 0.323544 7.36213 0.690981C7.36213 1.05842 7.65913 1.35542 8.02656 1.35542Z" fill="#818182"/>
<path id="Vector_2" d="M0.198195 8.47311L4.23807 12.4598C4.49854 12.7176 4.91979 12.7143 5.1776 12.4532C5.43541 12.1921 5.43276 11.7715 5.17094 11.5136L2.28391 8.66449H10.0201C10.3876 8.66449 10.6846 8.36749 10.6846 8.00005C10.6846 7.63261 10.3876 7.33558 10.0201 7.33558H2.28391L5.17094 4.48643C5.43273 4.22861 5.43473 3.80802 5.1776 3.54689C5.1158 3.48418 5.04215 3.43438 4.96094 3.40039C4.87972 3.3664 4.79255 3.3489 4.70451 3.34889C4.53573 3.34889 4.36698 3.41267 4.23807 3.54027L0.198195 7.52699C0.13555 7.58884 0.0857944 7.6625 0.0518084 7.7437C0.0178213 7.82491 0.000278473 7.91205 0.00019455 8.00008C0.00019455 8.17808 0.0712881 8.34752 0.198195 8.47311Z" fill="#818182"/>
</g>
</g>
<defs>
<clipPath id="clip0_1251_39355">
<rect width="16" height="16" fill="white" transform="matrix(-1 0 0 -1 16 16)"/>
</clipPath>
</defs>
</svg>
