<svg width="20" height="20" viewBox="0 0 20 20" fill="none" xmlns="http://www.w3.org/2000/svg">
<g id="Monotone add">
<path id="Vector" d="M18.4328 10.9238L18.4329 10.9238C18.547 11.0379 18.628 11.1808 18.6672 11.3372C18.7064 11.4936 18.7024 11.6578 18.6556 11.8121C18.134 13.5137 17.0889 15.0075 15.669 16.0806L15.669 16.0806C14.2172 17.1791 12.4452 17.771 10.6248 17.7657H10.6246C9.06526 17.7658 7.53672 17.3314 6.21051 16.5111C4.8843 15.6909 3.8129 14.5173 3.11653 13.1221C2.42017 11.7268 2.12638 10.1652 2.26815 8.61225C2.40991 7.05936 2.9816 5.57671 3.91907 4.33064C4.99117 2.91004 6.48407 1.86384 8.18527 1.34096L8.18529 1.34095C8.34004 1.2933 8.50484 1.28874 8.66199 1.32775C8.81913 1.36677 8.96267 1.44788 9.07716 1.56237C9.19165 1.67686 9.27276 1.8204 9.31177 1.97754C9.35079 2.13468 9.34622 2.29949 9.29857 2.45423L9.29851 2.45446C8.95225 3.59986 8.92316 4.81772 9.21435 5.97834C9.50554 7.13895 10.1061 8.19885 10.9521 9.04512C11.798 9.8914 12.8577 10.4924 14.0182 10.784C15.1787 11.0756 16.3966 11.047 17.5421 10.7012L17.5422 10.7011C17.6969 10.6539 17.8615 10.6496 18.0184 10.6889C18.1753 10.7281 18.3186 10.8093 18.4328 10.9238ZM14.5973 14.6578L14.5974 14.6578C15.2644 14.1539 15.8308 13.5291 16.267 12.8159L16.3144 12.7383L16.2237 12.7447C16.0248 12.7587 15.8251 12.7657 15.6247 12.7657C13.4001 12.7632 11.2673 11.8784 9.6943 10.3054C8.12127 8.73236 7.23647 6.5996 7.234 4.37501C7.234 4.17455 7.24099 3.97489 7.25498 3.776L7.26136 3.68523L7.18375 3.73273C6.47078 4.16914 5.84603 4.73544 5.34192 5.40226L5.34186 5.40234C4.38376 6.67503 3.91756 8.25095 4.02906 9.84006C4.14056 11.4292 4.82226 12.9246 5.94869 14.051C7.07513 15.1774 8.57051 15.8591 10.1596 15.9706C11.7487 16.0821 13.3247 15.6159 14.5973 14.6578Z" fill="white" stroke="#321F6B" stroke-width="0.09375"/>
</g>
</svg>
