<svg width="25" height="24" viewBox="0 0 25 24" fill="none" xmlns="http://www.w3.org/2000/svg">
<g id="Monotone add">
<g id="Vector">
<mask id="path-1-inside-1_1622_4766" fill="white">
<path d="M11.375 3.375V1.875C11.375 1.57663 11.4935 1.29048 11.7045 1.0795C11.9155 0.868526 12.2016 0.75 12.5 0.75C12.7984 0.75 13.0845 0.868526 13.2955 1.0795C13.5065 1.29048 13.625 1.57663 13.625 1.875V3.375C13.625 3.67337 13.5065 3.95952 13.2955 4.1705C13.0845 4.38147 12.7984 4.5 12.5 4.5C12.2016 4.5 11.9155 4.38147 11.7045 4.1705C11.4935 3.95952 11.375 3.67337 11.375 3.375ZM18.875 12C18.875 13.2609 18.5011 14.4934 17.8006 15.5418C17.1001 16.5901 16.1045 17.4072 14.9396 17.8897C13.7747 18.3722 12.4929 18.4985 11.2563 18.2525C10.0197 18.0065 8.88375 17.3994 7.99219 16.5078C7.10063 15.6162 6.49347 14.4803 6.24749 13.2437C6.00151 12.0071 6.12776 10.7253 6.61027 9.56039C7.09278 8.39551 7.90988 7.39988 8.95824 6.69938C10.0066 5.99889 11.2391 5.625 12.5 5.625C14.1902 5.62674 15.8107 6.29894 17.0059 7.49411C18.2011 8.68928 18.8733 10.3098 18.875 12ZM16.625 12C16.625 11.1842 16.3831 10.3866 15.9298 9.70827C15.4766 9.02992 14.8323 8.50121 14.0786 8.189C13.3248 7.87679 12.4954 7.7951 11.6953 7.95426C10.8951 8.11343 10.1601 8.50629 9.58318 9.08318C9.00629 9.66008 8.61343 10.3951 8.45426 11.1953C8.2951 11.9954 8.37679 12.8248 8.689 13.5786C9.00121 14.3323 9.52992 14.9766 10.2083 15.4298C10.8866 15.8831 11.6842 16.125 12.5 16.125C13.5936 16.1238 14.6421 15.6888 15.4154 14.9154C16.1888 14.1421 16.6238 13.0936 16.625 12ZM5.32906 6.42094C5.43371 6.52558 5.55794 6.6086 5.69467 6.66523C5.8314 6.72186 5.97794 6.75101 6.12594 6.75101C6.27393 6.75101 6.42048 6.72186 6.5572 6.66523C6.69393 6.6086 6.81817 6.52558 6.92281 6.42094C7.02746 6.31629 7.11047 6.19206 7.1671 6.05533C7.22374 5.9186 7.25289 5.77206 7.25289 5.62406C7.25289 5.47607 7.22374 5.32952 7.1671 5.1928C7.11047 5.05607 7.02746 4.93183 6.92281 4.82719L5.79781 3.70219C5.58647 3.49084 5.29982 3.37211 5.00094 3.37211C4.70205 3.37211 4.41541 3.49084 4.20406 3.70219C3.99272 3.91353 3.87399 4.20018 3.87399 4.49906C3.87399 4.79795 3.99272 5.08459 4.20406 5.29594L5.32906 6.42094ZM5.32906 17.5772L4.20406 18.7022C4.09942 18.8068 4.0164 18.9311 3.95977 19.0678C3.90314 19.2045 3.87399 19.3511 3.87399 19.4991C3.87399 19.6471 3.90314 19.7936 3.95977 19.9303C4.0164 20.0671 4.09942 20.1913 4.20406 20.2959C4.41541 20.5073 4.70205 20.626 5.00094 20.626C5.14893 20.626 5.29548 20.5969 5.4322 20.5402C5.56893 20.4836 5.69317 20.4006 5.79781 20.2959L6.92281 19.1709C7.13416 18.9596 7.25289 18.6729 7.25289 18.3741C7.25289 18.0752 7.13416 17.7885 6.92281 17.5772C6.71147 17.3658 6.42482 17.2471 6.12594 17.2471C5.82705 17.2471 5.54041 17.3658 5.32906 17.5772ZM18.875 6.75C19.0228 6.75012 19.1691 6.72112 19.3057 6.66465C19.4423 6.60819 19.5664 6.52538 19.6709 6.42094L20.7959 5.29594C20.9006 5.19129 20.9836 5.06706 21.0402 4.93033C21.0969 4.7936 21.126 4.64706 21.126 4.49906C21.126 4.35107 21.0969 4.20452 21.0402 4.0678C20.9836 3.93107 20.9006 3.80683 20.7959 3.70219C20.6913 3.59754 20.5671 3.51453 20.4303 3.4579C20.2936 3.40126 20.1471 3.37211 19.9991 3.37211C19.8511 3.37211 19.7045 3.40126 19.5678 3.4579C19.4311 3.51453 19.3068 3.59754 19.2022 3.70219L18.0772 4.82719C17.9189 4.98454 17.811 5.18541 17.7672 5.40425C17.7234 5.62309 17.7457 5.85001 17.8312 6.05615C17.9168 6.2623 18.0617 6.43834 18.2475 6.56189C18.4334 6.68544 18.6518 6.75092 18.875 6.75ZM19.6709 17.5791C19.4596 17.3677 19.1729 17.249 18.8741 17.249C18.5752 17.249 18.2885 17.3677 18.0772 17.5791C17.8658 17.7904 17.7471 18.0771 17.7471 18.3759C17.7471 18.6748 17.8658 18.9615 18.0772 19.1728L19.2022 20.2978C19.4135 20.5092 19.7002 20.6279 19.9991 20.6279C20.2979 20.6279 20.5846 20.5092 20.7959 20.2978C21.0073 20.0865 21.126 19.7998 21.126 19.5009C21.126 19.2021 21.0073 18.9154 20.7959 18.7041L19.6709 17.5791ZM5 12C5 11.7016 4.88147 11.4155 4.6705 11.2045C4.45952 10.9935 4.17337 10.875 3.875 10.875H2.375C2.07663 10.875 1.79048 10.9935 1.5795 11.2045C1.36853 11.4155 1.25 11.7016 1.25 12C1.25 12.2984 1.36853 12.5845 1.5795 12.7955C1.79048 13.0065 2.07663 13.125 2.375 13.125H3.875C4.17337 13.125 4.45952 13.0065 4.6705 12.7955C4.88147 12.5845 5 12.2984 5 12ZM12.5 19.5C12.2016 19.5 11.9155 19.6185 11.7045 19.8295C11.4935 20.0405 11.375 20.3266 11.375 20.625V22.125C11.375 22.4234 11.4935 22.7095 11.7045 22.9205C11.9155 23.1315 12.2016 23.25 12.5 23.25C12.7984 23.25 13.0845 23.1315 13.2955 22.9205C13.5065 22.7095 13.625 22.4234 13.625 22.125V20.625C13.625 20.3266 13.5065 20.0405 13.2955 19.8295C13.0845 19.6185 12.7984 19.5 12.5 19.5ZM22.625 10.875H21.125C20.8266 10.875 20.5405 10.9935 20.3295 11.2045C20.1185 11.4155 20 11.7016 20 12C20 12.2984 20.1185 12.5845 20.3295 12.7955C20.5405 13.0065 20.8266 13.125 21.125 13.125H22.625C22.9234 13.125 23.2095 13.0065 23.4205 12.7955C23.6315 12.5845 23.75 12.2984 23.75 12C23.75 11.7016 23.6315 11.4155 23.4205 11.2045C23.2095 10.9935 22.9234 10.875 22.625 10.875Z"/>
</mask>
<path d="M11.375 3.375V1.875C11.375 1.57663 11.4935 1.29048 11.7045 1.0795C11.9155 0.868526 12.2016 0.75 12.5 0.75C12.7984 0.75 13.0845 0.868526 13.2955 1.0795C13.5065 1.29048 13.625 1.57663 13.625 1.875V3.375C13.625 3.67337 13.5065 3.95952 13.2955 4.1705C13.0845 4.38147 12.7984 4.5 12.5 4.5C12.2016 4.5 11.9155 4.38147 11.7045 4.1705C11.4935 3.95952 11.375 3.67337 11.375 3.375ZM18.875 12C18.875 13.2609 18.5011 14.4934 17.8006 15.5418C17.1001 16.5901 16.1045 17.4072 14.9396 17.8897C13.7747 18.3722 12.4929 18.4985 11.2563 18.2525C10.0197 18.0065 8.88375 17.3994 7.99219 16.5078C7.10063 15.6162 6.49347 14.4803 6.24749 13.2437C6.00151 12.0071 6.12776 10.7253 6.61027 9.56039C7.09278 8.39551 7.90988 7.39988 8.95824 6.69938C10.0066 5.99889 11.2391 5.625 12.5 5.625C14.1902 5.62674 15.8107 6.29894 17.0059 7.49411C18.2011 8.68928 18.8733 10.3098 18.875 12ZM16.625 12C16.625 11.1842 16.3831 10.3866 15.9298 9.70827C15.4766 9.02992 14.8323 8.50121 14.0786 8.189C13.3248 7.87679 12.4954 7.7951 11.6953 7.95426C10.8951 8.11343 10.1601 8.50629 9.58318 9.08318C9.00629 9.66008 8.61343 10.3951 8.45426 11.1953C8.2951 11.9954 8.37679 12.8248 8.689 13.5786C9.00121 14.3323 9.52992 14.9766 10.2083 15.4298C10.8866 15.8831 11.6842 16.125 12.5 16.125C13.5936 16.1238 14.6421 15.6888 15.4154 14.9154C16.1888 14.1421 16.6238 13.0936 16.625 12ZM5.32906 6.42094C5.43371 6.52558 5.55794 6.6086 5.69467 6.66523C5.8314 6.72186 5.97794 6.75101 6.12594 6.75101C6.27393 6.75101 6.42048 6.72186 6.5572 6.66523C6.69393 6.6086 6.81817 6.52558 6.92281 6.42094C7.02746 6.31629 7.11047 6.19206 7.1671 6.05533C7.22374 5.9186 7.25289 5.77206 7.25289 5.62406C7.25289 5.47607 7.22374 5.32952 7.1671 5.1928C7.11047 5.05607 7.02746 4.93183 6.92281 4.82719L5.79781 3.70219C5.58647 3.49084 5.29982 3.37211 5.00094 3.37211C4.70205 3.37211 4.41541 3.49084 4.20406 3.70219C3.99272 3.91353 3.87399 4.20018 3.87399 4.49906C3.87399 4.79795 3.99272 5.08459 4.20406 5.29594L5.32906 6.42094ZM5.32906 17.5772L4.20406 18.7022C4.09942 18.8068 4.0164 18.9311 3.95977 19.0678C3.90314 19.2045 3.87399 19.3511 3.87399 19.4991C3.87399 19.6471 3.90314 19.7936 3.95977 19.9303C4.0164 20.0671 4.09942 20.1913 4.20406 20.2959C4.41541 20.5073 4.70205 20.626 5.00094 20.626C5.14893 20.626 5.29548 20.5969 5.4322 20.5402C5.56893 20.4836 5.69317 20.4006 5.79781 20.2959L6.92281 19.1709C7.13416 18.9596 7.25289 18.6729 7.25289 18.3741C7.25289 18.0752 7.13416 17.7885 6.92281 17.5772C6.71147 17.3658 6.42482 17.2471 6.12594 17.2471C5.82705 17.2471 5.54041 17.3658 5.32906 17.5772ZM18.875 6.75C19.0228 6.75012 19.1691 6.72112 19.3057 6.66465C19.4423 6.60819 19.5664 6.52538 19.6709 6.42094L20.7959 5.29594C20.9006 5.19129 20.9836 5.06706 21.0402 4.93033C21.0969 4.7936 21.126 4.64706 21.126 4.49906C21.126 4.35107 21.0969 4.20452 21.0402 4.0678C20.9836 3.93107 20.9006 3.80683 20.7959 3.70219C20.6913 3.59754 20.5671 3.51453 20.4303 3.4579C20.2936 3.40126 20.1471 3.37211 19.9991 3.37211C19.8511 3.37211 19.7045 3.40126 19.5678 3.4579C19.4311 3.51453 19.3068 3.59754 19.2022 3.70219L18.0772 4.82719C17.9189 4.98454 17.811 5.18541 17.7672 5.40425C17.7234 5.62309 17.7457 5.85001 17.8312 6.05615C17.9168 6.2623 18.0617 6.43834 18.2475 6.56189C18.4334 6.68544 18.6518 6.75092 18.875 6.75ZM19.6709 17.5791C19.4596 17.3677 19.1729 17.249 18.8741 17.249C18.5752 17.249 18.2885 17.3677 18.0772 17.5791C17.8658 17.7904 17.7471 18.0771 17.7471 18.3759C17.7471 18.6748 17.8658 18.9615 18.0772 19.1728L19.2022 20.2978C19.4135 20.5092 19.7002 20.6279 19.9991 20.6279C20.2979 20.6279 20.5846 20.5092 20.7959 20.2978C21.0073 20.0865 21.126 19.7998 21.126 19.5009C21.126 19.2021 21.0073 18.9154 20.7959 18.7041L19.6709 17.5791ZM5 12C5 11.7016 4.88147 11.4155 4.6705 11.2045C4.45952 10.9935 4.17337 10.875 3.875 10.875H2.375C2.07663 10.875 1.79048 10.9935 1.5795 11.2045C1.36853 11.4155 1.25 11.7016 1.25 12C1.25 12.2984 1.36853 12.5845 1.5795 12.7955C1.79048 13.0065 2.07663 13.125 2.375 13.125H3.875C4.17337 13.125 4.45952 13.0065 4.6705 12.7955C4.88147 12.5845 5 12.2984 5 12ZM12.5 19.5C12.2016 19.5 11.9155 19.6185 11.7045 19.8295C11.4935 20.0405 11.375 20.3266 11.375 20.625V22.125C11.375 22.4234 11.4935 22.7095 11.7045 22.9205C11.9155 23.1315 12.2016 23.25 12.5 23.25C12.7984 23.25 13.0845 23.1315 13.2955 22.9205C13.5065 22.7095 13.625 22.4234 13.625 22.125V20.625C13.625 20.3266 13.5065 20.0405 13.2955 19.8295C13.0845 19.6185 12.7984 19.5 12.5 19.5ZM22.625 10.875H21.125C20.8266 10.875 20.5405 10.9935 20.3295 11.2045C20.1185 11.4155 20 11.7016 20 12C20 12.2984 20.1185 12.5845 20.3295 12.7955C20.5405 13.0065 20.8266 13.125 21.125 13.125H22.625C22.9234 13.125 23.2095 13.0065 23.4205 12.7955C23.6315 12.5845 23.75 12.2984 23.75 12C23.75 11.7016 23.6315 11.4155 23.4205 11.2045C23.2095 10.9935 22.9234 10.875 22.625 10.875Z" fill="#321F6B" stroke="#321F6B" stroke-width="0.1875" mask="url(#path-1-inside-1_1622_4766)"/>
</g>
</g>
</svg>
